<?xml version="1.0" standalone="no"?><!DOCTYPE svg PUBLIC "-//W3C//DTD SVG 1.1//EN" "http://www.w3.org/Graphics/SVG/1.1/DTD/svg11.dtd" ><svg xmlns="http://www.w3.org/2000/svg"><metadata></metadata><defs><font id="FontForge 2.0 : AlibabaPuHuiTiR : 26-6-2019" horiz-adv-x="984"><font-face font-family="" font-weight="400" font-stretch="normal" units-per-em="1000" panose-1="2 0 5 3 0 0 0 0 0 0" ascent="1104" descent="-285" x-height="0" bbox="0 -204 972 841" underline-thickness="50" underline-position="-125" unicode-range="U+0027-ff1f" /><missing-glyph horiz-adv-x="575" d="M80 0 l0 742 l415 0 l0 -742 l-415 0 ZM150 66 l276 0 l0 611 l-276 0 l0 -611 Z" /><glyph glyph-name="quotesingle" unicode="&#39;" d="M100 464 l-23 296 l100 0 l-23 -296 l-54 0 Z" /><glyph glyph-name="parenleft" unicode="(" d="M223 -200 q-158 227 -158 474 q0 252 161 486 l82 0 q-157 -245 -157 -479 q0 -243 154 -481 l-82 0 Z" /><glyph glyph-name="parenright" unicode=")" d="M50 -200 q157 245 157 479 q0 243 -153 481 l82 0 q158 -227 158 -474 q0 -252 -161 -486 l-83 0 Z" /><glyph glyph-name="plus" unicode="+" d="M517 343 l0 -85 l-199 0 l0 -199 l-85 0 l0 199 l-198 0 l0 85 l198 0 l0 198 l85 0 l0 -198 l199 0 Z" /><glyph glyph-name="comma" unicode="," d="M38 -136 q42 64 68 136 q26 72 26 127 l83 0 q0 -60 -32.5 -134 q-32.5 -74 -73.5 -129 l-71 0 Z" /><glyph glyph-name="period" unicode="." d="M201.5 6 q-13.5 -12 -50.5 -12 q-37 0 -50.5 12 q-13.5 12 -13.5 52 q0 39 13.5 50.5 q13.5 11.5 50.5 11.5 q37 0 50.5 -11.5 q13.5 -11.5 13.5 -50.5 q0 -40 -13.5 -52 Z" /><glyph glyph-name="slash" unicode="/" d="M77 -30 l269 754 l77 0 l-269 -754 l-77 0 Z" /><glyph glyph-name="zero" unicode="0" d="M287 -10 q-55 0 -95.5 16 q-40.5 16 -73 54.5 q-32.5 38.5 -49 110.5 q-16.5 72 -16.5 176 q0 104 16.5 175.5 q16.5 71.5 49 110.5 q32.5 39 73 55 q40.5 16 95.5 16 q56 0 96.5 -16 q40.5 -16 73 -55 q32.5 -39 49 -110.5 q16.5 -71.5 16.5 -175.5 q0 -104 -16.5 -175.5 q-16.5 -71.5 -49 -110.5 q-32.5 -39 -73 -55 q-40.5 -16 -96.5 -16 ZM287 65 q77 0 110.5 60.5 q33.5 60.5 33.5 221.5 q0 161 -33.5 221 q-33.5 60 -110.5 60 q-76 0 -109 -60 q-33 -60 -33 -221 q0 -161 33 -221.5 q33 -60.5 109 -60.5 Z" /><glyph glyph-name="one" unicode="1" d="M273 0 l0 612 l-172 -33 l0 73 l203 42 l59 0 l0 -694 l-90 0 Z" /><glyph glyph-name="two" unicode="2" d="M57 0 l0 95 q145 114 220.5 189 q75.5 75 99 121.5 q23.5 46.5 23.5 100.5 q0 68 -42.5 95.5 q-42.5 27.5 -104.5 27.5 q-79 0 -148 -18 l0 77 q68 16 158 16 q223 0 223 -199 q0 -94 -60 -173.5 q-60 -79.5 -230 -215.5 l-40 -31 l0 -9 l358 0 l0 -76 l-457 0 Z" /><glyph glyph-name="three" unicode="3" d="M226 -10 q-90 0 -156 13 l0 79 q69 -17 155 -17 q182 0 182 127 q0 72 -48.5 102 q-48.5 30 -150.5 30 l-55 0 l0 69 l54 0 q89 0 137 33 q48 33 48 91 q0 60 -36 86.5 q-36 26.5 -112 26.5 q-73 0 -141 -20 l0 74 q62 20 145 20 q114 0 170.5 -44 q56.5 -44 56.5 -138 q0 -121 -123 -158 l0 -6 q141 -24 141 -167 q0 -201 -267 -201 Z" /><glyph glyph-name="four" unicode="4" d="M529 247 l0 -76 l-82 0 l0 -171 l-84 0 l0 171 l-328 0 l0 97 l304 426 l108 0 l0 -447 l82 0 ZM111 247 l252 0 l0 355 l-6 0 l-246 -349 l0 -6 Z" /><glyph glyph-name="five" unicode="5" d="M229 -10 q-78 0 -143 13 l0 79 q68 -17 142 -17 q92 0 142 34.5 q50 34.5 50 115.5 q0 79 -46 114 q-46 35 -153 35 q-51 0 -133 -15 l47 345 l324 0 l0 -78 l-256 0 l-29 -190 q37 6 81 6 q251 0 251 -211 q0 -231 -277 -231 Z" /><glyph glyph-name="six" unicode="6" d="M287 -10 q-230 0 -230 279 q0 203 91.5 319 q91.5 116 280.5 116 l-1 -76 q-124 0 -196.5 -65 q-72.5 -65 -81.5 -168 l3 0 q22 23 62 40 q40 17 87 17 q99 0 155 -56.5 q56 -56.5 56 -167.5 q0 -107 -57 -172.5 q-57 -65.5 -169 -65.5 ZM286 65 q145 0 145 163 q0 76 -36 115.5 q-36 39.5 -97 39.5 q-78 0 -116.5 -37.5 q-38.5 -37.5 -38.5 -101.5 q0 -179 143 -179 Z" /><glyph glyph-name="colon" unicode=":" d="M239.5 432 q-13.5 -12 -50.5 -12 q-37 0 -50.5 11.5 q-13.5 11.5 -13.5 51.5 q0 40 13.5 51.5 q13.5 11.5 50.5 11.5 q37 0 50.5 -12 q13.5 -12 13.5 -51 q0 -39 -13.5 -51 ZM239.5 6 q-13.5 -12 -50.5 -12 q-37 0 -50.5 12 q-13.5 12 -13.5 52 q0 39 13.5 50.5 q13.5 11.5 50.5 11.5 q37 0 50.5 -11.5 q13.5 -11.5 13.5 -50.5 q0 -40 -13.5 -52 Z" /><glyph glyph-name="semicolon" unicode=";" d="M239.5 432 q-13.5 -12 -50.5 -12 q-37 0 -50.5 11.5 q-13.5 11.5 -13.5 51.5 q0 40 13.5 51.5 q13.5 11.5 50.5 11.5 q37 0 50.5 -12 q13.5 -12 13.5 -51 q0 -39 -13.5 -51 ZM66 -136 q41 65 67.5 136.5 q26.5 71.5 26.5 126.5 l82 0 q0 -60 -32.5 -134 q-32.5 -74 -73.5 -129 l-70 0 Z" /><glyph glyph-name="equal" unicode="=" d="M35 376 l0 85 l482 0 l0 -85 l-482 0 ZM35 140 l0 85 l482 0 l0 -85 l-482 0 Z" /><glyph glyph-name="question" unicode="?" d="M152 199 l0 44 q0 40 19 72 q19 32 71 74 q46 36 60 60.5 q14 24.5 14 68.5 q0 62 -27 83 q-27 21 -103 21 q-84 0 -144 -22 l0 80 q70 22 153 22 q113 0 163.5 -38 q50.5 -38 50.5 -137 q0 -40 -6 -68 q-6 -28 -21.5 -49.5 q-15.5 -21.5 -30 -34.5 q-14.5 -13 -43.5 -34 q-45 -33 -61 -56 q-16 -23 -16 -56 l0 -30 l-79 0 ZM192 -6 q-36 0 -49.5 12 q-13.5 12 -13.5 51 q0 39 13.5 51 q13.5 12 49.5 12 q36 0 50 -12 q14 -12 14 -51 q0 -39 -13.5 -51 q-13.5 -12 -50.5 -12 Z" /><glyph glyph-name="A" unicode="a" d="M561 0 l-75 207 l-307 0 l-76 -207 l-92 0 l263 694 l120 0 l262 -694 l-95 0 ZM209 287 l248 0 l-117 323 l-12 0 l-119 -323 Z" /><glyph glyph-name="B" unicode="b" d="M92 0 l0 694 l200 0 q132 0 182.5 -43 q50.5 -43 50.5 -141 q0 -117 -101 -147 l0 -4 q124 -25 124 -161 q0 -100 -52.5 -149 q-52.5 -49 -183.5 -49 l-220 0 ZM182 390 l68 0 q103 0 145 24.5 q42 24.5 42 90.5 q0 72 -39.5 92.5 q-39.5 20.5 -147.5 20.5 l-68 0 l0 -228 ZM182 77 l93 0 q108 0 145.5 24.5 q37.5 24.5 37.5 97.5 q0 65 -39.5 92.5 q-39.5 27.5 -143.5 27.5 l-93 0 l0 -242 Z" /><glyph glyph-name="C" unicode="c" d="M388 -10 q-76 0 -130.5 15.5 q-54.5 15.5 -98.5 54 q-44 38.5 -65.5 110 q-21.5 71.5 -21.5 177.5 q0 192 83.5 274.5 q83.5 82.5 242.5 82.5 q87 0 150 -20 l0 -83 q-64 24 -148 24 q-122 0 -178 -62.5 q-56 -62.5 -56 -213.5 q0 -160 52 -219 q52 -59 173 -59 q85 0 165 27 l0 -78 q-69 -30 -168 -30 Z" /><glyph glyph-name="D" unicode="d" d="M292 694 q81 0 137.5 -14 q56.5 -14 103.5 -50.5 q47 -36.5 70.5 -107 q23.5 -70.5 23.5 -175.5 q0 -98 -24 -167 q-24 -69 -69.5 -107.5 q-45.5 -38.5 -104.5 -55.5 q-59 -17 -137 -17 l-200 0 l0 694 l200 0 ZM290 79 q118 0 181 60 q63 60 63 208 q0 81 -17.5 135.5 q-17.5 54.5 -52 83 q-34.5 28.5 -76 39.5 q-41.5 11 -98.5 11 l-108 0 l0 -537 l108 0 Z" /><glyph glyph-name="E" unicode="e" d="M182 81 l321 0 l0 -81 l-411 0 l0 694 l386 0 l0 -80 l-296 0 l0 -215 l276 0 l0 -76 l-276 0 l0 -242 Z" /><glyph glyph-name="F" unicode="f" d="M478 614 l-296 0 l0 -225 l276 0 l0 -80 l-276 0 l0 -309 l-90 0 l0 694 l386 0 l0 -80 Z" /><glyph glyph-name="H" unicode="h" d="M525 694 l91 0 l0 -694 l-91 0 l0 336 l-343 0 l0 -336 l-90 0 l0 694 l90 0 l0 -283 l343 0 l0 283 Z" /><glyph glyph-name="I" unicode="i" d="M92 0 l0 694 l90 0 l0 -694 l-90 0 Z" /><glyph glyph-name="N" unicode="n" d="M92 0 l0 694 l141 0 l316 -576 l6 0 l0 576 l90 0 l0 -694 l-119 0 l-340 611 l-6 0 l0 -611 l-88 0 Z" /><glyph glyph-name="O" unicode="o" d="M501.5 6.5 q-53.5 -16.5 -130.5 -16.5 q-77 0 -130 16.5 q-53 16.5 -92.5 56.5 q-39.5 40 -58 110 q-18.5 70 -18.5 174 q0 103 18.5 173 q18.5 70 58 110 q39.5 40 92.5 57 q53 17 130 17 q77 0 130.5 -16.5 q53.5 -16.5 92.5 -57 q39 -40.5 57.5 -110.5 q18.5 -70 18.5 -173 q0 -104 -18.5 -174 q-18.5 -70 -57.5 -110 q-39 -40 -92.5 -56.5 ZM371 67 q123 0 164.5 62 q41.5 62 41.5 218 q0 152 -42 216.5 q-42 64.5 -164 64.5 q-121 0 -163 -64.5 q-42 -64.5 -42 -216.5 q0 -155 41.5 -217.5 q41.5 -62.5 163.5 -62.5 Z" /><glyph glyph-name="P" unicode="p" d="M92 0 l0 694 l193 0 q143 0 198.5 -51.5 q55.5 -51.5 55.5 -170.5 q0 -122 -59 -174 q-59 -52 -195 -52 l-103 0 l0 -246 l-90 0 ZM182 321 l95 0 q97 0 133.5 32 q36.5 32 36.5 119 q0 80 -37 112 q-37 32 -133 32 l-95 0 l0 -295 Z" /><glyph glyph-name="R" unicode="r" d="M599 0 l-106 0 l-191 280 q-11 -1 -34 -1 l-86 0 l0 -279 l-90 0 l0 694 l176 0 q146 0 205.5 -45.5 q59.5 -45.5 59.5 -159.5 q0 -89 -34.5 -135.5 q-34.5 -46.5 -107.5 -63.5 l208 -290 ZM260 354 q103 0 142.5 25.5 q39.5 25.5 39.5 109.5 q0 76 -40.5 101.5 q-40.5 25.5 -141.5 25.5 l-78 0 l0 -262 l78 0 Z" /><glyph glyph-name="S" unicode="s" d="M263 -10 q-129 0 -206 27 l0 83 q85 -31 206 -31 q80 0 119 27 q39 27 39 90 q0 63 -30.5 89 q-30.5 26 -129.5 50 q-111 27 -152.5 65 q-41.5 38 -41.5 127 q0 188 231 188 q111 0 174 -25 l0 -82 q-75 28 -173 28 q-77 0 -110 -22.5 q-33 -22.5 -33 -86.5 q0 -51 25.5 -73.5 q25.5 -22.5 116.5 -43.5 q121 -28 166 -71 q45 -43 45 -142 q0 -197 -246 -197 Z" /><glyph glyph-name="T" unicode="t" d="M511 694 l0 -80 l-202 0 l0 -614 l-90 0 l0 614 l-203 0 l0 80 l495 0 Z" /><glyph glyph-name="U" unicode="u" d="M548 46.5 q-65 -56.5 -198 -56.5 q-133 0 -197 55 q-64 55 -64 179 l0 470 l89 0 l0 -450 q0 -98 38 -136.5 q38 -38.5 135 -38.5 q100 0 136.5 37.5 q36.5 37.5 36.5 137.5 l0 450 l89 0 l0 -470 q0 -121 -65 -177.5 Z" /><glyph glyph-name="W" unicode="w" d="M188 0 l-162 694 l94 0 l130 -589 l6 0 l141 508 l108 0 l141 -508 l6 0 l129 589 l91 0 l-165 -694 l-114 0 l-141 514 l-6 0 l-144 -514 l-114 0 Z" /><glyph glyph-name="underscore" unicode="_" d="M0 -204 l0 70 l500 0 l0 -70 l-500 0 Z" /><glyph glyph-name="a" unicode="a" d="M305 550 q120 0 167.5 -43.5 q47.5 -43.5 47.5 -123.5 l0 -383 l-73 0 l-13 82 q-23 -43 -76.5 -67.5 q-53.5 -24.5 -116.5 -24.5 q-186 0 -186 161 q0 172 214 172 l165 0 l0 45 q0 54 -28 82 q-28 28 -105 28 q-61 0 -119 -12 l0 76 q64 8 123 8 ZM249 62 q67 0 115.5 27.5 q48.5 27.5 69.5 75.5 l0 89 l-159 0 q-71 0 -101 -21 q-30 -21 -30 -81 q0 -45 24.5 -67.5 q24.5 -22.5 80.5 -22.5 Z" /><glyph glyph-name="b" unicode="b" d="M352 550 q66 0 111 -20 q45 -20 69 -59 q24 -39 33.5 -87 q9.5 -48 9.5 -114 q0 -60 -10 -107 q-10 -47 -33.5 -88 q-23.5 -41 -69 -63 q-45.5 -22 -110.5 -22 q-139 0 -175 104 l-11 -94 l-75 0 l0 760 l86 0 l0 -317 q37 107 175 107 ZM341 63 q46 0 76 16.5 q30 16.5 44 48.5 q14 32 19 64.5 q5 32.5 5 77.5 q0 47 -5 81 q-5 34 -19.5 64.5 q-14.5 30.5 -44.5 46.5 q-30 16 -75 16 q-93 0 -130.5 -52.5 q-37.5 -52.5 -37.5 -155.5 q0 -100 38 -153.5 q38 -53.5 130 -53.5 Z" /><glyph glyph-name="c" unicode="c" d="M309 -10 q-126 0 -188 63 q-62 63 -62 217 q0 154 62 217 q62 63 188 63 q81 0 141 -20 l0 -79 q-64 24 -140 24 q-90 0 -124.5 -44 q-34.5 -44 -34.5 -162 q0 -117 34.5 -160 q34.5 -43 125.5 -43 q85 0 141 23 l0 -79 q-55 -20 -143 -20 Z" /><glyph glyph-name="d" unicode="d" d="M459 760 l86 0 l0 -760 l-73 0 l-13 89 q-17 -45 -61.5 -72 q-44.5 -27 -114.5 -27 q-126 0 -174.5 72 q-48.5 72 -48.5 208 q0 280 223 280 q140 0 176 -104 l0 314 ZM296 63 q93 0 129.5 51.5 q36.5 51.5 36.5 155.5 q0 101 -37 154.5 q-37 53.5 -129 53.5 q-38 0 -65 -12 q-27 -12 -42 -30.5 q-15 -18.5 -23.5 -47.5 q-8.5 -29 -11 -55.5 q-2.5 -26.5 -2.5 -62.5 q0 -38 2.5 -65.5 q2.5 -27.5 11.5 -56 q9 -28.5 24.5 -46 q15.5 -17.5 42 -28.5 q26.5 -11 63.5 -11 Z" /><glyph glyph-name="e" unicode="e" d="M520 324 q0 -21 -5 -63 l-366 -23 q1 -91 39 -131.5 q38 -40.5 134 -40.5 q97 0 169 35 l0 -79 q-25 -13 -76 -22.5 q-51 -9.5 -106 -9.5 q-126 0 -188 63 q-62 63 -62 217 q0 154 61.5 217 q61.5 63 183.5 63 q216 0 216 -226 ZM149 302 l286 21 q0 36 -4.5 60.5 q-4.5 24.5 -17 48 q-12.5 23.5 -40 35.5 q-27.5 12 -69.5 12 q-87 0 -120 -43.5 q-33 -43.5 -35 -133.5 Z" /><glyph glyph-name="f" unicode="f" d="M290 695 q-56 0 -75.5 -31.5 q-19.5 -31.5 -20.5 -123.5 l127 0 l0 -71 l-127 0 l0 -469 l-86 0 l0 469 l-90 0 l0 71 l90 0 l0 5 q0 68 12.5 112.5 q12.5 44.5 38 67.5 q25.5 23 56 31 q30.5 8 75.5 8 q28 0 60 -5 l0 -69 q-25 5 -60 5 Z" /><glyph glyph-name="g" unicode="g" d="M459 540 l86 0 l0 -502 q0 -238 -264 -238 q-68 0 -131 13 l0 73 q61 -12 132 -12 q91 0 134 40.5 q43 40.5 43 132.5 l0 54 q-35 -101 -175 -101 q-127 0 -175.5 70 q-48.5 70 -48.5 205 q0 60 10 106.5 q10 46.5 34 86 q24 39.5 69.5 61 q45.5 21.5 110.5 21.5 q139 0 175 -111 l0 101 ZM296 72 q93 0 129.5 50 q36.5 50 36.5 153 q0 100 -37 151.5 q-37 51.5 -129 51.5 q-47 0 -77 -16 q-30 -16 -44 -47.5 q-14 -31.5 -18.5 -62.5 q-4.5 -31 -4.5 -77 q0 -48 5 -80.5 q5 -32.5 19 -62.5 q14 -30 44 -45 q30 -15 76 -15 Z" /><glyph glyph-name="h" unicode="h" d="M350 550 q100 0 140.5 -46 q40.5 -46 40.5 -130 l0 -374 l-86 0 l0 342 q0 68 -21.5 99.5 q-21.5 31.5 -82.5 31.5 q-40 0 -67.5 -6.5 q-27.5 -6.5 -55 -31.5 q-27.5 -25 -41.5 -70 l0 -365 l-86 0 l0 760 l86 0 l0 -297 q42 87 173 87 Z" /><glyph glyph-name="i" unicode="i" d="M135 639 q-30 0 -41 9.5 q-11 9.5 -11 41.5 q0 32 11 41.5 q11 9.5 41 9.5 q29 0 40 -9.5 q11 -9.5 11 -41.5 q0 -31 -11 -41 q-11 -10 -40 -10 ZM91 0 l0 540 l86 0 l0 -540 l-86 0 Z" /><glyph glyph-name="k" unicode="k" d="M275 289 l239 -289 l-111 0 l-197 252 l-29 0 l0 -252 l-86 0 l0 760 l86 0 l0 -441 l31 0 l187 221 l107 0 l-227 -251 Z" /><glyph glyph-name="l" unicode="l" d="M211 -6 q-61 0 -90.5 27.5 q-29.5 27.5 -29.5 87.5 l0 651 l86 0 l0 -629 q0 -39 11 -52 q11 -13 39 -13 q23 0 41 5 l0 -71 q-24 -6 -57 -6 Z" /><glyph glyph-name="m" unicode="m" d="M658 550 q91 0 134 -47.5 q43 -47.5 43 -129.5 l0 -373 l-86 0 l0 342 q0 66 -23 98.5 q-23 32.5 -81 32.5 q-112 0 -140 -95 l0 -4 l0 -374 l-86 0 l0 342 q0 67 -21.5 99 q-21.5 32 -77.5 32 q-56 0 -90 -20 q-34 -20 -53 -78 l0 -375 l-86 0 l0 540 l86 0 l0 -71 q42 81 156 81 q120 0 157 -88 q40 88 168 88 Z" /><glyph glyph-name="n" unicode="n" d="M350 550 q100 0 140.5 -46 q40.5 -46 40.5 -130 l0 -374 l-87 0 l0 342 q0 68 -21 99.5 q-21 31.5 -82 31.5 q-40 0 -67.5 -6.5 q-27.5 -6.5 -55 -31.5 q-27.5 -25 -41.5 -70 l0 -365 l-86 0 l0 540 l86 0 l0 -77 q42 87 173 87 Z" /><glyph glyph-name="o" unicode="o" d="M496.5 52.5 q-61.5 -62.5 -187.5 -62.5 q-126 0 -188 63 q-62 63 -62 217 q0 154 62 217 q62 63 188 63 q126 0 187.5 -62.5 q61.5 -62.5 61.5 -217.5 q0 -155 -61.5 -217.5 ZM309 63 q91 0 124.5 44 q33.5 44 33.5 163 q0 118 -34.5 163 q-34.5 45 -123.5 45 q-91 0 -124.5 -44.5 q-33.5 -44.5 -33.5 -163.5 q0 -118 35 -162.5 q35 -44.5 123 -44.5 Z" /><glyph glyph-name="p" unicode="p" d="M352 550 q66 0 111 -20 q45 -20 69 -59 q24 -39 33.5 -87 q9.5 -48 9.5 -114 q0 -60 -10 -107 q-10 -47 -33.5 -88 q-23.5 -41 -69 -63 q-45.5 -22 -110.5 -22 q-139 0 -175 104 l0 -294 l-86 0 l0 740 l86 0 l0 -97 q37 107 175 107 ZM341 63 q46 0 76 16.5 q30 16.5 44 48.5 q14 32 19 64.5 q5 32.5 5 77.5 q0 38 -3 66 q-3 28 -12 56 q-9 28 -24.5 46 q-15.5 18 -42 29 q-26.5 11 -62.5 11 q-93 0 -130.5 -52.5 q-37.5 -52.5 -37.5 -155.5 q0 -100 38 -153.5 q38 -53.5 130 -53.5 Z" /><glyph glyph-name="r" unicode="r" d="M349 550 l10 0 l-3 -78 l-12 0 q-130 0 -167 -119 l0 -353 l-86 0 l0 540 l86 0 l0 -98 q41 108 172 108 Z" /><glyph glyph-name="s" unicode="s" d="M216 -6 q-100 0 -157 17 l0 74 q73 -21 156 -21 q64 0 94.5 18.5 q30.5 18.5 30.5 64.5 q0 48 -21.5 65.5 q-21.5 17.5 -99.5 35.5 q-88 20 -119.5 53.5 q-31.5 33.5 -31.5 102.5 q0 67 50 106.5 q50 39.5 144 39.5 q89 0 136 -18 l-6 -73 q-54 21 -129 21 q-60 0 -87 -17 q-27 -17 -27 -61 q0 -40 19.5 -55.5 q19.5 -15.5 83.5 -30.5 q96 -22 132.5 -56 q36.5 -34 36.5 -110 q0 -156 -205 -156 Z" /><glyph glyph-name="t" unicode="t" d="M259 66 q31 0 59 6 l0 -73 q-35 -5 -61 -5 q-93 0 -127.5 34 q-34.5 34 -34.5 137 l0 303 l-80 0 l0 72 l80 0 l0 128 l86 0 l0 -128 l134 0 l0 -72 l-134 0 l0 -298 q0 -64 14.5 -84 q14.5 -20 63.5 -20 Z" /><glyph glyph-name="u" unicode="u" d="M436 540 l86 0 l0 -540 l-73 0 l-11 78 q-41 -88 -170 -88 q-100 0 -140.5 45.5 q-40.5 45.5 -40.5 130.5 l0 374 l86 0 l0 -342 q0 -67 21.5 -99.5 q21.5 -32.5 82.5 -32.5 q60 0 99 21.5 q39 21.5 60 85.5 l0 367 Z" /><glyph glyph-name="v" unicode="v" d="M212 0 l-202 540 l87 0 l164 -454 l6 0 l158 454 l91 0 l-202 -540 l-102 0 Z" /><glyph glyph-name="w" unicode="w" d="M168 0 l-146 540 l86 0 l114 -453 l6 0 l134 453 l102 0 l138 -453 l6 0 l114 453 l85 0 l-150 -540 l-107 0 l-134 443 l-6 0 l-135 -443 l-107 0 Z" /><glyph glyph-name="x" unicode="x" d="M14 0 l186 275 l-175 265 l96 0 l136 -213 l6 0 l134 213 l95 0 l-174 -263 l184 -277 l-98 0 l-142 223 l-6 0 l-146 -223 l-96 0 Z" /><glyph glyph-name="y" unicode="y" d="M67 -200 l0 74 q68 0 103 29.5 q35 29.5 56 97.5 l-216 539 l93 0 l165 -448 l6 0 l156 448 l87 0 l-194 -522 q-22 -58 -40 -92.5 q-18 -34.5 -47 -66 q-29 -31.5 -70 -45.5 q-41 -14 -99 -14 Z" /><glyph glyph-name="z" unicode="z" d="M44 0 l0 70 l304 393 l0 6 l-280 0 l0 71 l385 0 l0 -65 l-306 -395 l0 -6 l323 0 l0 -74 l-426 0 Z" /><glyph glyph-name="braceleft" unicode="{" d="M265 -200 q-152 0 -152 153 l0 226 q0 35 -13.5 48 q-13.5 13 -50.5 13 l0 80 q37 0 50.5 13 q13.5 13 13.5 48 l0 226 q0 153 152 153 l0 -80 q-38 0 -51.5 -15 q-13.5 -15 -13.5 -58 l0 -226 q0 -74 -50 -101 q50 -27 50 -101 l0 -226 q0 -43 13.5 -58 q13.5 -15 51.5 -15 l0 -80 Z" /><glyph glyph-name="braceright" unicode="}" d="M34 -200 l0 80 q38 0 51.5 15 q13.5 15 13.5 58 l0 226 q0 74 50 101 q-50 27 -50 101 l0 226 q0 43 -13.5 58 q-13.5 15 -51.5 15 l0 80 q152 0 152 -153 l0 -226 q0 -35 14 -48 q14 -13 50 -13 l0 -80 q-36 0 -50 -13 q-14 -13 -14 -48 l0 -226 q0 -153 -152 -153 Z" /><glyph glyph-name="quotedblleft" unicode="&#x201c;" d="M561 504 q0 51 22.5 122.5 q22.5 71.5 53.5 133.5 l64 0 q-55 -148 -55 -256 l-85 0 ZM760 504 q0 51 22 123 q22 72 53 133 l64 0 q-55 -148 -55 -256 l-84 0 Z" /><glyph glyph-name="quotedblright" unicode="&#x201d;" d="M85 504 q55 148 55 256 l85 0 q0 -50 -22.5 -122.5 q-22.5 -72.5 -53.5 -133.5 l-64 0 ZM284 504 q55 148 55 256 l84 0 q0 -50 -22.5 -122.5 q-22.5 -72.5 -53.5 -133.5 l-63 0 Z" /><glyph glyph-name="Identity.985" unicode="&#x3001;" d="M306 -96 q-26 47 -73.5 101 q-47.5 54 -87.5 85 l55 37 q44 -28 92 -78 q48 -50 84 -103 l-70 -42 Z" /><glyph glyph-name="Identity.986" unicode="&#x3002;" d="M348 -78 q-38 -33 -95 -33 q-57 0 -95 33 q-38 33 -38 93 q0 60 38 93 q38 33 95 33 q57 0 95 -33 q38 -33 38 -93 q0 -60 -38 -93 ZM199 -39 q21 -19 54 -19 q33 0 54 19 q21 19 21 54 q0 35 -21 54 q-21 19 -54 19 q-33 0 -54 -19 q-21 -19 -21 -54 q0 -35 21 -54 Z" /><glyph glyph-name="Identity.7833" unicode="&#x4e00;" d="M934 430 l0 -85 l-884 0 l0 85 l884 0 Z" /><glyph glyph-name="Identity.7842" unicode="&#x4e09;" d="M126 713 l732 0 l0 -77 l-732 0 l0 77 ZM182 409 l621 0 l0 -75 l-621 0 l0 75 ZM57 50 l870 0 l0 -76 l-870 0 l0 76 Z" /><glyph glyph-name="Identity.7843" unicode="&#x4e0a;" d="M508 24 l431 0 l0 -72 l-890 0 l0 72 l381 0 l0 779 l78 -4 l0 -277 l365 0 l0 -73 l-365 0 l0 -425 Z" /><glyph glyph-name="Identity.7846" unicode="&#x4e0d;" d="M594 661 q-52 -96 -114 -182 l51 -3 l0 -576 l-77 0 l0 544 q-142 -183 -351 -335 l-56 63 q300 203 456 489 l-404 0 l0 76 l790 0 l0 -76 l-295 0 ZM620 463 q203 -160 309 -281 l-56 -68 q-57 69 -146.5 155 q-89.5 86 -156.5 138 l50 56 Z" /><glyph glyph-name="Identity.7852" unicode="&#x4e13;" d="M928 421 l-547 0 q-19 -50 -49 -114 l465 0 l0 -76 q-84 -100 -189 -195 q58 -22 180 -72 l-26 -77 q-300 133 -565 222 l28 68 q132 -44 299 -108 q113 89 174 166 l-459 0 l0 62 q28 53 57 124 l-240 0 l0 72 l267 0 q25 71 40 124 l-227 0 l0 72 l248 0 q16 61 30 125 l80 -14 q-12 -54 -27 -111 l381 0 l0 -72 l-401 0 q-17 -60 -39 -124 l520 0 l0 -72 Z" /><glyph glyph-name="Identity.7859" unicode="&#x4e1a;" d="M643 24 l290 0 l0 -70 l-878 0 l0 70 l294 0 l0 769 l78 -3 l0 -766 l135 0 l0 771 l81 -3 l0 -768 ZM894 609 q-76 -258 -153 -419 l-74 29 q45 85 87 200 q42 115 66 213 l74 -23 ZM315 227 l-76 -34 q-28 100 -71.5 215.5 q-43.5 115.5 -81.5 187.5 l71 29 q34 -64 84 -190.5 q50 -126.5 74 -207.5 Z" /><glyph glyph-name="Identity.7861" unicode="&#x4e1c;" d="M850 302 l-301 0 l0 -280 q0 -64 -20.5 -83 q-20.5 -19 -85.5 -26 l-73 -6 l-26 75 l74 6 q38 3 47 13 q9 10 9 48 l0 253 l-318 0 l0 74 q81 112 144 226 l-224 0 l0 70 l261 0 q39 77 65 142 l71 -30 q-20 -48 -52 -112 l481 0 l0 -70 l-518 0 q-77 -144 -142 -231 l232 0 l0 171 l75 -3 l0 -168 l301 0 l0 -69 ZM691 247 q51 -41 129 -115 q78 -74 122 -125 l-52 -58 q-49 59 -124 133.5 q-75 74.5 -125 115.5 l50 49 ZM27 1 q140 96 255 242 l58 -49 q-118 -147 -258 -252 l-55 59 Z" /><glyph glyph-name="Identity.7870" unicode="&#x4e25;" d="M926 749 l0 -67 l-280 0 l0 -262 l275 0 l0 -66 l-697 0 l0 -99 q0 -114 -27.5 -190 q-27.5 -76 -98.5 -174 l-64 35 q68 91 93.5 161 q25.5 70 25.5 186 l0 147 l217 0 l0 262 l-291 0 l0 67 l847 0 ZM571 420 l0 262 l-125 0 l0 -262 l125 0 ZM317 493 l-53 -60 q-22 37 -67 90.5 q-45 53.5 -78 84.5 l50 48 q30 -26 77 -78 q47 -52 71 -85 ZM692 491 q30 24 75.5 75.5 q45.5 51.5 70.5 88.5 l55 -47 q-25 -37 -72 -89.5 q-47 -52.5 -78 -77.5 l-51 50 Z" /><glyph glyph-name="Identity.7875" unicode="&#x4e2a;" d="M29 400 q135 79 247.5 185 q112.5 106 181.5 215 l69 0 q154 -230 426 -395 l-56 -70 q-287 208 -404 382 q-145 -209 -410 -384 l-54 67 ZM452 489 l81 -4 l0 -586 l-81 0 l0 590 Z" /><glyph glyph-name="Identity.7878" unicode="&#x4e2d;" d="M866 617 l0 -423 l-336 0 l0 -294 l-80 0 l0 294 l-333 0 l0 423 l333 0 l0 194 l80 -4 l0 -190 l336 0 ZM195 268 l255 0 l0 275 l-255 0 l0 -275 ZM789 268 l0 275 l-259 0 l0 -275 l259 0 Z" /><glyph glyph-name="Identity.7885" unicode="&#x4e34;" d="M580 682 l354 0 l0 -74 l-389 0 q-50 -103 -115 -195 l-64 49 q125 167 181 357 l79 -16 q-18 -54 -46 -121 ZM262 -93 l0 891 l75 -3 l0 -888 l-75 0 ZM102 3 l0 711 l74 -2 l0 -709 l-74 0 ZM785 452 l-52 -55 q-20 35 -61.5 84 q-41.5 49 -72.5 78 l51 46 q28 -24 71 -73 q43 -49 64 -80 ZM440 -84 l0 475 l440 0 l0 -475 l-70 0 l0 63 l-301 0 l0 -63 l-69 0 ZM625 325 l-116 0 l0 -280 l116 0 l0 280 ZM810 45 l0 280 l-119 0 l0 -280 l119 0 Z" /><glyph glyph-name="Identity.7891" unicode="&#x4e3a;" d="M500 575 l362 0 q-7 -177 -27 -512 q-4 -73 -44.5 -101 q-40.5 -28 -149.5 -34 l-72 -4 l-33 79 l100 4 q74 3 98 20 q24 17 29 72 q6 56 13 201 q7 145 8 199 l-292 0 q-26 -196 -107.5 -327.5 q-81.5 -131.5 -257.5 -266.5 l-57 61 q166 122 242.5 240.5 q76.5 118.5 101.5 292.5 l-325 0 l0 76 l334 0 q6 59 18 225 l75 -3 q0 -65 -16 -222 ZM300 587 q-22 36 -64.5 86 q-42.5 50 -72.5 76 l53 47 q28 -23 72 -71 q44 -48 66 -80 l-54 -58 ZM698 231 l-55 -62 q-19 38 -67 94.5 q-48 56.5 -86 90.5 l53 50 q34 -27 83 -82 q49 -55 72 -91 Z" /><glyph glyph-name="Identity.7892" unicode="&#x4e3b;" d="M531 21 l403 0 l0 -73 l-884 0 l0 73 l402 0 l0 250 l-319 0 l0 75 l319 0 l0 213 l-360 0 l0 74 l368 0 q-31 109 -51 154 l75 19 q17 -35 56 -173 l352 0 l0 -74 l-361 0 l0 -213 l320 0 l0 -75 l-320 0 l0 -250 Z" /><glyph glyph-name="Identity.7894" unicode="&#x4e3d;" d="M52 749 l884 0 l0 -70 l-884 0 l0 70 ZM442 11 q0 -54 -21.5 -72 q-21.5 -18 -90.5 -26 l-44 -5 l-20 71 l51 4 q38 3 47 12.5 q9 9.5 9 44.5 l0 455 l-185 0 l0 -578 l-67 0 l0 651 l321 0 l0 -557 ZM862 11 q0 -55 -21.5 -73.5 q-21.5 -18.5 -91.5 -24.5 l-45 -4 l-21 70 l53 4 q40 3 49 12.5 q9 9.5 9 44.5 l0 455 l-194 0 l0 -578 l-67 0 l0 651 l329 0 l0 -557 ZM249 395 q25 -33 61 -96 q36 -63 53 -101 l-52 -40 q-15 42 -50 106 q-35 64 -61 101 l49 30 ZM662 395 q27 -33 65 -94.5 q38 -61.5 56 -100.5 l-51 -43 q-17 42 -54.5 105 q-37.5 63 -64.5 99 l49 34 Z" /><glyph glyph-name="Identity.7905" unicode="&#x4e48;" d="M517 749 q-72 -123 -182.5 -255 q-110.5 -132 -214.5 -221 l-57 62 q105 86 211 213 q106 127 172 245 l71 -44 ZM911 -40 l-70 -57 q-20 49 -47 101 q-486 -21 -550 -26 q-60 -7 -87 -11 l-20 82 q45 13 81 43 q98 83 232.5 248 q134.5 165 218.5 309 l75 -44 q-87 -142 -218 -301 q-131 -159 -230 -246 q28 2 215 11 q187 9 240 12 q-73 130 -137 211 l64 45 q52 -66 125.5 -184.5 q73.5 -118.5 107.5 -192.5 Z" /><glyph glyph-name="Identity.7908" unicode="&#x4e4b;" d="M533 31 q198 -7 409 2 l-22 -74 q-190 -11 -380 -3 q-132 6 -188.5 21.5 q-56.5 15.5 -103.5 66.5 q-32 38 -46 38 q-12 0 -41 -34 q-47 -56 -71 -90 l-61 57 q52 60 100 123 q28 38 68 38 q14 0 24 -5 q139 75 280 182 q141 107 237 202 l-602 0 l0 75 l337 0 q-15 77 -42 159 l74 15 q32 -96 47 -174 l296 0 l0 -75 q-99 -108 -256.5 -232 q-157.5 -124 -308.5 -207 q45 -51 93 -66 q48 -15 157 -19 Z" /><glyph glyph-name="Identity.7912" unicode="&#x4e4f;" d="M858 699 q-153 -26 -369.5 -50.5 q-216.5 -24.5 -377.5 -32.5 l-11 75 q155 7 374 31.5 q219 24.5 368 52.5 l16 -76 ZM527 12 q215 -12 430 0 l-18 -75 q-203 -12 -406 0 q-124 7 -175 21 q-51 14 -95 61 q-33 40 -44 39 q-14 -3 -42 -36 q-6 -8 -39.5 -43.5 q-33.5 -35.5 -43.5 -49.5 l-53 67 q11 14 54.5 60 q43.5 46 53.5 57 q32 36 64 36 q23 0 45 -19 q118 56 242.5 131.5 q124.5 75.5 211.5 141.5 l-576 0 l0 74 l339 0 q-25 79 -45 131 l70 14 q18 -44 52 -145 l276 0 l0 -75 q-88 -75 -233.5 -166.5 q-145.5 -91.5 -287.5 -159.5 q36 -36 78.5 -47 q42.5 -11 141.5 -17 Z" /><glyph glyph-name="Identity.7967" unicode="&#x4e86;" d="M372 4 q55 4 70 16 q15 12 15 56 l0 385 q25 14 51 31 q26 17 45 30 q19 13 49 35 q30 22 43 32 q13 10 48 36.5 q35 26.5 45 34.5 l-648 0 l0 75 l781 0 l0 -75 q-199 -155 -332 -239 l0 -375 q0 -69 -27.5 -90.5 q-27.5 -21.5 -113.5 -29.5 l-80 -7 l-26 79 l80 6 Z" /><glyph glyph-name="Identity.7975" unicode="&#x4e8e;" d="M918 424 l0 -73 l-376 0 l0 -301 q0 -70 -25.5 -93.5 q-25.5 -23.5 -108.5 -30.5 l-101 -8 l-24 77 l94 6 q52 3 67 16.5 q15 13.5 15 55.5 l0 278 l-395 0 l0 73 l395 0 l0 240 l-314 0 l0 74 l693 0 l0 -74 l-296 0 l0 -240 l376 0 Z" /><glyph glyph-name="Identity.7981" unicode="&#x4e94;" d="M760 42 l174 0 l0 -72 l-884 0 l0 72 l212 0 l56 323 l-197 0 l0 72 l210 0 l38 222 l-268 0 l0 74 l789 0 l0 -74 l-441 0 l-38 -222 l364 0 l-15 -395 ZM399 365 l-56 -323 l337 0 l12 323 l-293 0 Z" /><glyph glyph-name="Identity.7988" unicode="&#x4e9b;" d="M74 268 l-12 73 q6 0 16.5 2 q10.5 2 28 4.5 q17.5 2.5 31.5 4.5 l0 367 l73 -3 l0 -351 l108 18 l0 418 l73 -3 l0 -169 l137 0 l0 -67 l-137 0 l0 -166 q116 21 134 25 l2 -38 l4 -38 q-94 -17 -458 -77 ZM652 287 q-52 4 -75 27.5 q-23 23.5 -23 81.5 l0 404 l75 -2 l0 -205 q144 62 235 129 l32 -72 q-82 -53 -267 -136 l0 -93 q0 -39 13.5 -52 q13.5 -13 47.5 -15 q41 -3 82 0 q34 2 49 11 q15 9 21 27 q9 28 14 76 l68 -24 q-7 -62 -20 -104 q-8 -24 -32 -36.5 q-24 -12.5 -77 -16.5 q-72 -6 -143 0 ZM181 132 l0 73 l623 0 l0 -73 l-623 0 ZM66 -50 l0 72 l855 0 l0 -72 l-855 0 Z" /><glyph glyph-name="Identity.8005" unicode="&#x4eac;" d="M916 691 l0 -68 l-843 0 l0 68 l391 0 q-22 73 -35 105 l74 14 q19 -45 41 -119 l372 0 ZM796 250 l-252 0 l0 -226 q0 -67 -20 -86 q-20 -19 -89 -25 l-67 -6 l-25 74 l66 5 q38 3 47 14 q9 11 9 48 l0 202 l-275 0 l0 280 l606 0 l0 -280 ZM265 462 l0 -144 l455 0 l0 144 l-455 0 ZM32 -7 q60 35 136.5 98 q76.5 63 112.5 109 l56 -51 q-93 -110 -253 -216 l-52 60 ZM694 196 q161 -114 256 -207 l-46 -62 q-42 46 -122 114 q-80 68 -133 103 l45 52 Z" /><glyph glyph-name="Identity.8011" unicode="&#x4eb2;" d="M674 473 l245 0 l0 -70 l-376 0 l0 -121 l347 0 l0 -69 l-347 0 l0 -182 q0 -64 -27 -86.5 q-27 -22.5 -105 -28.5 l-52 -4 l-26 77 l62 4 q48 3 59 14 q11 11 11 53 l0 153 l-371 0 l0 69 l371 0 l0 121 l-403 0 l0 70 l259 0 q-16 78 -38 154 l-170 0 l0 70 l354 0 q-18 60 -34 100 l74 14 q19 -43 40 -114 l323 0 l0 -70 l-152 0 q-17 -72 -44 -154 ZM360 627 q8 -29 40 -154 l194 0 q26 65 46 154 l-280 0 ZM347 134 q-40 -43 -119 -107 q-79 -64 -131 -99 l-44 60 q47 28 125.5 92 q78.5 64 118.5 106 l50 -52 ZM623 121 l40 58 q52 -27 132 -81 q80 -54 122 -92 l-43 -71 q-40 43 -118 99.5 q-78 56.5 -133 86.5 Z" /><glyph glyph-name="Identity.8019" unicode="&#x4eba;" d="M522 639 q19 -210 119.5 -371.5 q100.5 -161.5 283.5 -297.5 l-56 -68 q-290 235 -377 528 q-76 -291 -379 -520 l-55 65 q209 152 298 317 q89 165 92 404 q2 32 2 96 l75 -3 q0 -72 -2 -122 q0 -19 -1 -28 Z" /><glyph glyph-name="Identity.8025" unicode="&#x4ec0;" d="M358 795 q-39 -108 -85 -200 l0 -689 l-74 0 l0 554 q-54 -88 -114 -164 l-59 48 q74 89 145 219 q71 130 111 252 l76 -20 ZM942 466 l0 -76 l-263 0 l0 -488 l-79 0 l0 488 l-263 0 l0 76 l263 0 l0 337 l79 -3 l0 -334 l263 0 Z" /><glyph glyph-name="Identity.8062" unicode="&#x4ee5;" d="M552 525 l-63 -50 q-77 168 -157 273 l60 36 q78 -96 160 -259 ZM740 216 q123 -112 201 -223 l-55 -63 q-71 117 -182 222 q-45 -68 -118.5 -127.5 q-73.5 -59.5 -187.5 -122.5 l-49 67 q109 58 178.5 113.5 q69.5 55.5 111.5 124.5 q42 69 61 144.5 q19 75.5 26 184.5 l4 242 l77 -3 q2 -167 -3 -245 q-12 -203 -64 -314 ZM455 332 l46 -64 q-128 -101 -290 -241 q-39 -34 -68 -66 l-51 62 q36 37 36 65 l0 667 l77 -3 l0 -629 q204 167 250 209 Z" /><glyph glyph-name="Identity.8069" unicode="&#x4eec;" d="M424 808 q27 -24 67.5 -73 q40.5 -49 61.5 -80 l-52 -57 q-18 34 -58 85 q-40 51 -68 79 l49 46 ZM242 806 l71 -14 q-32 -104 -77 -210 l0 -673 l-68 0 l0 533 q-42 -78 -90 -147 l-55 52 q62 83 124.5 213 q62.5 130 94.5 246 ZM569 737 l314 0 l0 -687 q0 -80 -27.5 -105 q-27.5 -25 -116.5 -32 l-50 -4 l-25 73 l62 4 q55 4 69.5 19 q14.5 15 14.5 65 l0 596 l-241 0 l0 71 ZM355 -85 l0 705 l73 -2 l0 -703 l-73 0 Z" /><glyph glyph-name="Identity.8080" unicode="&#x4ef7;" d="M632 802 q50 -115 134 -210.5 q84 -95.5 189 -154.5 l-45 -64 q-204 137 -311 347 q-53 -113 -114 -191.5 q-61 -78.5 -167 -157.5 l-48 55 q106 75 173.5 167.5 q67.5 92.5 115.5 208.5 l73 0 ZM335 779 q-36 -106 -86 -207 l0 -668 l-73 0 l0 536 q-49 -77 -103 -148 l-55 44 q76 92 141.5 213 q65.5 121 103.5 244 l72 -14 ZM446 300 l0 140 l73 -4 l0 -134 q0 -149 -34.5 -227.5 q-34.5 -78.5 -140.5 -182.5 l-58 46 q98 89 129 160 q31 71 31 202 ZM692 -95 l0 533 l75 -4 l0 -529 l-75 0 Z" /><glyph glyph-name="Identity.8084" unicode="&#x4efb;" d="M329 776 q-34 -107 -75 -194 l0 -675 l-74 0 l0 538 q-41 -67 -100 -146 l-62 48 q167 220 233 446 l78 -17 ZM940 325 l-281 0 l0 -291 l252 0 l0 -74 l-576 0 l0 74 l246 0 l0 291 l-272 0 l0 76 l272 0 l0 242 q-130 -17 -227 -20 l-15 74 q100 4 264.5 25.5 q164.5 21.5 268.5 42.5 l16 -75 q-79 -16 -229 -37 l0 -252 l281 0 l0 -76 Z" /><glyph glyph-name="Identity.8088" unicode="&#x4eff;" d="M546 583 q-1 -44 -4 -123 q0 -11 -2 -29 l310 0 q-6 -162 -18 -366 q-4 -81 -37.5 -108 q-33.5 -27 -127.5 -33 l-62 -4 l-26 79 l74 4 q57 3 77.5 20 q20.5 17 25.5 67 q3 26 9 134 q6 108 6 132 l-236 0 q-14 -160 -53.5 -257 q-39.5 -97 -137.5 -202 l-65 51 q47 47 78.5 90.5 q31.5 43.5 51 83 q19.5 39.5 31 97.5 q11.5 58 17 109 q5.5 51 11.5 142 q2 50 4 113 l-146 0 l0 74 l279 0 q-31 109 -43 140 l73 13 q7 -17 48 -153 l255 0 l0 -74 l-392 0 ZM339 784 q-41 -117 -85 -211 l0 -670 l-74 0 l0 529 q-43 -74 -99 -149 l-59 56 q71 86 134.5 209 q63.5 123 101.5 250 l81 -14 Z" /><glyph glyph-name="Identity.8121" unicode="&#x4f20;" d="M937 411 l-400 0 q-19 -62 -36 -107 l345 0 l0 -69 q-52 -89 -138 -196 q84 -42 137 -75 l-31 -82 q-75 55 -205 119.5 q-130 64.5 -223 97.5 l28 66 q98 -33 227 -94 q73 90 114 163 l-334 0 l-1 64 q24 62 39 113 l-163 0 l0 68 l183 0 q18 70 29 117 l-159 0 l0 68 l173 0 q15 74 24 145 l73 -10 q-11 -79 -22 -135 l291 0 l0 -68 l-305 0 q-16 -73 -28 -117 l382 0 l0 -68 ZM340 788 q-36 -106 -86 -207 l0 -685 l-72 0 l0 556 q-46 -74 -110 -154 l-53 54 q68 79 133.5 199.5 q65.5 120.5 111.5 251.5 l76 -15 Z" /><glyph glyph-name="Identity.8125" unicode="&#x4f24;" d="M524 676 l410 0 l0 -73 l-451 0 q-54 -89 -115 -163 l-61 43 q123 140 195 325 l76 -15 q-19 -49 -54 -117 ZM343 777 q-41 -114 -91 -216 l0 -660 l-71 0 l0 532 q-41 -66 -96 -137 l-59 48 q72 88 138.5 209.5 q66.5 121.5 106.5 243.5 l72 -20 ZM591 545 q-3 -95 -6 -134 l288 0 q-4 -125 -18 -357 q-5 -72 -39 -98 q-34 -26 -133 -32 l-67 -4 l-25 75 l88 4 q65 3 80 17.5 q15 14.5 20 69.5 q9 108 13 255 l-211 0 q-13 -160 -61 -250 q-48 -90 -189 -199 l-56 56 q131 95 175 172.5 q44 77.5 56 220.5 l-175 0 l0 70 l180 0 q1 27 2.5 79 q1.5 52 1.5 58 l76 -3 Z" /><glyph glyph-name="Identity.8166" unicode="&#x4f4d;" d="M328 793 q-38 -118 -80 -214 l0 -669 l-72 0 l0 528 q-45 -77 -100 -148 l-59 53 q160 217 232 463 l79 -13 ZM916 639 l0 -71 l-584 0 l0 71 l265 0 q-21 72 -54 146 l70 20 q32 -67 62 -166 l241 0 ZM696 25 l238 0 l0 -71 l-630 0 l0 71 l314 0 q37 99 80 249.5 q43 150.5 61 244.5 l79 -16 q-21 -94 -63 -236.5 q-42 -142.5 -79 -241.5 ZM501 88 q-10 78 -45 204 q-35 126 -66 201 l70 20 q30 -71 65.5 -196.5 q35.5 -125.5 45.5 -200.5 l-70 -28 Z" /><glyph glyph-name="Identity.8167" unicode="&#x4f4e;" d="M252 808 l74 -23 q-36 -111 -84 -211 l0 -675 l-70 0 l0 548 q-49 -76 -104 -146 l-49 52 q70 88 135 212.5 q65 124.5 98 242.5 ZM884 135 l58 -36 q-18 -76 -35 -117 q-26 -64 -74 -64 q-34 0 -68 35.5 q-34 35.5 -59 106.5 q-39 115 -58 307 l-198 0 l0 -284 q19 16 84 65 q65 49 82 60 l23 -74 q-21 -13 -208 -145 l-45 -35 l-41 62 q20 18 25.5 28.5 q5.5 10.5 5.5 27.5 l0 635 q246 15 489 64 l16 -72 q-67 -15 -181 -33 q3 -112 11 -227 l205 0 l0 -72 l-199 0 q21 -195 56 -291 q24 -68 60 -68 q19 0 31 42 q13 43 20 85 ZM450 439 l192 0 q-8 113 -11 218 q-75 -11 -181 -20 l0 -198 ZM510 21 l53 39 q79 -95 99 -129 l-51 -43 q-37 62 -101 133 Z" /><glyph glyph-name="Identity.8172" unicode="&#x4f53;" d="M677 559 q58 -141 128 -242.5 q70 -101.5 167 -182.5 l-53 -64 q-106 99 -171.5 206 q-65.5 107 -116.5 247 l0 -379 l174 0 l0 -69 l-174 0 l0 -175 l-76 0 l0 175 l-168 0 l2 69 l166 0 l0 366 q-71 -223 -263 -431 l-56 54 l0 -225 l-73 0 l0 505 q-40 -69 -87 -130 l-56 50 q162 219 228 465 l71 -22 q-35 -118 -83 -222 l0 -419 q198 195 276 424 l-198 0 l0 71 l241 0 l0 170 l76 -3 l0 -167 l271 0 l0 -71 l-225 0 Z" /><glyph glyph-name="Identity.8181" unicode="&#x4f5c;" d="M920 580 l-312 0 l0 -157 l257 0 l0 -72 l-257 0 l0 -162 l275 0 l0 -73 l-275 0 l0 -218 l-77 0 l0 682 l-45 0 q-64 -116 -150 -224 l-55 53 q145 175 220 393 l70 -29 q-21 -59 -47 -117 l396 0 l0 -76 ZM336 757 q-48 -120 -85 -193 l0 -662 l-76 0 l0 528 q-45 -69 -101 -136 l-54 56 q156 181 242 436 l74 -29 Z" /><glyph glyph-name="Identity.8185" unicode="&#x4f60;" d="M359 395 l-61 40 q119 170 177 367 l76 -10 q-17 -54 -46 -122 l397 0 l0 -72 q-35 -87 -80 -166 l-68 25 q35 59 70 141 l-351 0 q-59 -121 -114 -203 ZM316 782 q-34 -109 -78 -208 l0 -668 l-71 0 l0 529 q-37 -64 -86 -132 l-53 47 q62 89 121 209 q59 120 90 235 l77 -12 ZM581 46 l0 472 l73 -2 l0 -496 q0 -57 -26.5 -80 q-26.5 -23 -101.5 -27 l-50 -4 l-26 75 l60 4 q44 3 57.5 14 q13.5 11 13.5 44 ZM427 373 l64 -18 q-58 -185 -163 -364 l-64 29 q46 75 92 172.5 q46 97.5 71 180.5 ZM785 373 q38 -62 88 -173 q50 -111 72 -181 l-62 -39 q-21 74 -70.5 187.5 q-49.5 113.5 -86.5 176.5 l59 29 Z" /><glyph glyph-name="Identity.8246" unicode="&#x4f9d;" d="M709 283 q80 -151 235 -255 l-53 -65 q-133 98 -207 214.5 q-74 116.5 -118 303.5 q-39 -69 -75 -117 l0 -339 q83 43 152 82 l15 -74 q-135 -65 -182 -90 q-37 -17 -59 -34 l-34 60 q35 27 35 59 l0 248 q-53 -59 -132 -123 l-47 62 q108 83 180 174 q72 91 122 204 l-228 0 l0 71 l253 0 q-18 58 -45 124 l68 20 q24 -56 52 -144 l269 0 l0 -71 l-292 0 q-2 -6 -5 -13 q24 -132 66 -234 q88 65 157 144 l46 -56 q-68 -74 -173 -151 ZM312 786 q-37 -124 -80 -222 l0 -654 l-72 0 l0 512 q-38 -65 -87 -130 l-59 50 q67 85 130 212.5 q63 127.5 96 244.5 l72 -13 Z" /><glyph glyph-name="Identity.8405" unicode="&#x503c;" d="M845 7 l97 0 l0 -66 l-669 0 l0 66 l88 0 l0 555 l204 0 l0 92 l-245 0 l0 64 l245 0 l0 87 l75 -3 l0 -84 l265 0 l0 -64 l-265 0 l0 -92 l205 0 l0 -555 ZM293 790 q-29 -110 -65 -202 l0 -681 l-72 0 l0 523 q-37 -69 -79 -133 l-49 64 q123 168 190 441 l75 -12 ZM770 498 l-335 0 l0 -77 l335 0 l0 77 ZM770 286 l0 77 l-335 0 l0 -77 l335 0 ZM770 228 l-335 0 l0 -79 l335 0 l0 79 ZM435 91 l0 -84 l335 0 l0 84 l-335 0 Z" /><glyph glyph-name="Identity.8416" unicode="&#x5047;" d="M220 796 l74 -9 q-36 -126 -70 -207 l0 -680 l-68 0 l0 538 q-33 -62 -81 -134 l-49 53 q60 83 112 200.5 q52 117.5 82 238.5 ZM585 105 l-195 0 l0 -198 l-67 0 l0 846 l253 0 l0 -274 l-186 0 l0 -116 l178 0 l0 -69 l-178 0 l0 -121 l195 0 l0 -68 ZM869 752 l0 -271 l-254 0 l0 69 l186 0 l0 133 l-185 0 l0 69 l253 0 ZM510 684 l-120 0 l0 -137 l120 0 l0 137 ZM775 99 q64 -64 179 -123 l-40 -66 q-124 81 -183 142 q-73 -72 -206 -145 l-38 60 q131 67 201 134 q-55 75 -92 194 l57 20 l-71 0 l0 67 l297 0 l0 -69 q-33 -125 -104 -214 ZM814 315 l-158 0 q29 -100 76 -166 q54 66 82 166 Z" /><glyph glyph-name="Identity.8435" unicode="&#x505a;" d="M772 173 q69 -109 189 -214 l-53 -58 q-111 102 -176 203 q-65 -99 -186 -206 l-46 59 q2 2 19 16 q17 14 25 22 l-251 0 l0 377 l93 0 l0 180 l-125 0 l0 70 l125 0 l0 180 l68 -3 l0 -177 l123 0 l0 -70 l-123 0 l0 -180 l91 0 l0 -376 q93 83 150 173 q-58 113 -80 255 q-17 -32 -36 -60 l-46 55 q47 71 85.5 180 q38.5 109 54.5 210 l66 -12 q-15 -84 -37 -160 l233 0 l0 -71 l-70 0 q-21 -251 -93 -393 ZM265 784 q-25 -104 -57 -196 l0 -686 l-66 0 l0 527 q-36 -71 -65 -119 l-53 58 q116 174 173 431 l68 -15 ZM659 517 q17 -155 74 -273 q53 122 70 322 l-125 0 q-10 -29 -19 -49 ZM480 64 l0 238 l-124 0 l0 -238 l124 0 Z" /><glyph glyph-name="Identity.8446" unicode="&#x5065;" d="M630 436 l0 81 l-156 0 l0 57 l156 0 l0 81 l-127 0 l0 56 l127 0 l0 89 l66 -2 l0 -87 l168 0 l0 -137 l68 0 l0 -57 l-68 0 l0 -137 l-168 0 l0 -79 l191 0 l0 -56 l-191 0 l0 -77 l219 0 l0 -57 l-219 0 l0 -89 l-66 0 l0 89 l-168 0 l0 57 l168 0 l0 77 l-132 0 l0 56 l132 0 l0 79 l-127 0 l0 56 l127 0 ZM260 783 q-22 -99 -56 -197 l0 -679 l-64 0 l0 520 q-32 -69 -67 -127 l-55 46 q53 80 100 203.5 q47 123.5 73 243.5 l69 -10 ZM633 0 q157 -8 313 0 l-12 -61 q-154 -7 -308 0 q-89 5 -152 28 q-63 23 -110 75 q-33 -56 -96 -139 l-54 45 q72 86 108 151 q-48 82 -78 211 l56 19 q25 -101 55 -161 q34 84 45 222 l-135 0 l0 62 q66 90 131 211 l-130 0 l0 62 l201 0 l0 -63 q-60 -118 -130 -210 l125 0 l0 -65 q-19 -180 -66 -283 q81 -97 237 -104 ZM696 655 l0 -81 l105 0 l0 81 l-105 0 ZM801 436 l0 81 l-105 0 l0 -81 l105 0 Z" /><glyph glyph-name="Identity.8612" unicode="&#x510b;" d="M694 407 l243 0 l0 -50 l-546 0 l0 -19 q0 -162 -20.5 -251.5 q-20.5 -89.5 -78.5 -191.5 l-63 36 q60 96 79 174.5 q19 78.5 19 231.5 l0 204 q-20 -18 -48 -40 l-39 57 q139 97 240 269 l63 -26 q-27 -42 -35 -54 l303 0 l0 -57 l-70 -72 l188 0 l0 -56 l-538 0 l0 -155 l239 0 q-11 33 -25 68 l58 13 q15 -33 31 -81 ZM276 795 q-25 -110 -63 -215 l0 -678 l-65 0 l0 524 q-31 -64 -71 -131 l-58 52 q63 86 113 210 q50 124 77 247 l67 -9 ZM724 690 l-258 0 q-28 -38 -60 -72 l247 0 l71 72 ZM448 421 l-30 43 q81 40 148 97 l31 -39 q-56 -51 -149 -101 ZM843 416 q-26 22 -72 54 q-46 32 -79 51 l27 40 q35 -17 82 -47.5 q47 -30.5 73 -52.5 l-31 -45 ZM434 262 l0 49 l436 0 l0 -49 l-436 0 ZM434 170 l0 49 l436 0 l0 -49 l-436 0 ZM443 -99 l0 224 l418 0 l0 -223 l-67 0 l0 42 l-285 0 l0 -43 l-66 0 ZM794 72 l-285 0 l0 -75 l285 0 l0 75 Z" /><glyph glyph-name="Identity.8674" unicode="&#x5149;" d="M851 160 l70 -24 q-9 -107 -15 -141 q-6 -34 -35.5 -49.5 q-29.5 -15.5 -96.5 -19.5 q-54 -3 -108 0 q-69 4 -95 29.5 q-26 25.5 -26 96.5 l0 301 l-155 0 q0 -5 -0.5 -13 q-0.5 -8 -0.5 -11 q-10 -169 -72.5 -260.5 q-62.5 -91.5 -221.5 -172.5 l-54 68 q80 39 127.5 71 q47.5 32 80.5 74.5 q33 42.5 46.5 94 q13.5 51.5 16.5 127.5 q0 2 0.5 10 q0.5 8 0.5 12 l-239 0 l0 75 l377 0 l0 370 l78 -3 l0 -367 l378 0 l0 -75 l-284 0 l0 -278 q0 -38 14 -51 q14 -13 55 -16 q36 -3 72 0 q41 3 57.5 11.5 q16.5 8.5 20.5 33.5 q7 39 9 107 ZM837 704 q-74 -143 -151 -240 l-64 45 q35 37 79.5 108.5 q44.5 71.5 70.5 125.5 l65 -39 ZM361 514 l-64 -53 q-25 48 -73.5 119 q-48.5 71 -85.5 116 l60 43 q34 -39 85.5 -109.5 q51.5 -70.5 77.5 -115.5 Z" /><glyph glyph-name="Identity.8705" unicode="&#x5168;" d="M790 398 l-258 0 l0 -146 l284 0 l0 -72 l-284 0 l0 -166 l369 0 l0 -70 l-818 0 l0 70 l370 0 l0 166 l-285 0 l0 72 l285 0 l0 146 l-259 0 l0 59 q-38 -24 -119 -68 l-40 72 q154 75 255.5 155.5 q101.5 80.5 166.5 179.5 l70 0 q127 -197 424 -338 l-40 -68 q-67 37 -121 72 l0 -64 ZM492 722 q-96 -134 -276 -251 l560 0 q-196 130 -284 251 Z" /><glyph glyph-name="Identity.8716" unicode="&#x5173;" d="M529 284 q79 -218 400 -307 l-40 -77 q-137 40 -245.5 117 q-108.5 77 -159.5 185 q-89 -173 -393 -302 l-45 73 q182 70 273 147 q91 77 116 164 l-357 0 l0 75 l367 0 l0 4 l0 177 l-314 0 l0 72 l201 0 q-46 92 -103 159 l60 38 q24 -29 60.5 -81 q36.5 -52 54.5 -85 l-42 -31 l186 0 q78 94 129 198 l70 -29 q-50 -95 -106 -169 l197 0 l0 -72 l-311 0 l-2 -173 l0 -8 l369 0 l0 -75 l-365 0 Z" /><glyph glyph-name="Identity.8799" unicode="&#x51c6;" d="M927 43 l0 -67 l-495 0 l0 -74 l-74 0 l0 562 q-38 -66 -85 -127 l-49 64 q140 172 198 413 l76 -13 q-15 -65 -48 -152 l183 0 q-26 90 -47 136 l68 20 q18 -39 54 -156 l204 0 l0 -68 l-218 0 l0 -132 l198 0 l0 -65 l-198 0 l0 -132 l198 0 l0 -66 l-198 0 l0 -143 l233 0 ZM267 513 l-68 -41 q-16 52 -55 131.5 q-39 79.5 -72 131.5 l61 33 q32 -46 74 -125 q42 -79 60 -130 ZM621 449 l0 132 l-189 0 l0 -132 l189 0 ZM621 252 l0 132 l-189 0 l0 -132 l189 0 ZM194 333 l37 -16 l31 -15 q-72 -238 -135 -370 l-70 33 q80 153 137 368 ZM432 186 l0 -143 l189 0 l0 143 l-189 0 Z" /><glyph glyph-name="Identity.8808" unicode="&#x51cf;" d="M894 148 l57 -21 q-6 -46 -18 -97 q-24 -107 -93 -107 q-32 0 -58 21 q-26 21 -52 80 q-9 20 -19 49 q-60 -84 -152 -158 l-50 53 q115 81 179 185 q-39 163 -55 444 l-281 0 l0 -360 q0 -199 -93 -342 l-69 32 q95 135 95 310 l0 428 l345 0 l-5 146 l69 -4 q2 -67 5 -142 l135 0 q-43 56 -94 99 l44 39 q53 -41 99 -101 l-42 -37 l67 0 l0 -68 l-205 0 l0 -7 q12 -207 34 -342 q43 101 73 278 l63 -17 q-43 -230 -115 -361 q17 -62 33 -97 q15 -33 24.5 -44 q9.5 -11 23.5 -11 q16 0 24 13.5 q8 13.5 16 47.5 q10 37 15 91 ZM236 503 l-67 -29 q-16 61 -47 144.5 q-31 83.5 -51 122.5 l63 26 q60 -117 102 -264 ZM605 493 l0 -65 l-208 0 l0 65 l208 0 ZM191 371 l33 -7 q-46 -204 -117 -396 l-73 21 q34 76 71 195.5 q37 119.5 52 195.5 l34 -9 ZM396 74 l0 271 l204 0 l0 -271 l-204 0 ZM452 280 l0 -142 l91 0 l0 142 l-91 0 Z" /><glyph glyph-name="Identity.8852" unicode="&#x51fb;" d="M530 343 l0 -313 l228 0 l0 235 l76 -3 l0 -358 l-76 0 l0 54 l-607 0 l0 306 l75 -3 l0 -231 l230 0 l0 313 l-399 0 l0 72 l399 0 l0 169 l-334 0 l0 73 l334 0 l0 153 l74 -2 l0 -151 l333 0 l0 -73 l-333 0 l0 -169 l398 0 l0 -72 l-398 0 Z" /><glyph glyph-name="Identity.8857" unicode="&#x5200;" d="M112 734 l725 0 q0 -5 -12.5 -306.5 q-12.5 -301.5 -14.5 -336.5 q-3 -62 -21.5 -94.5 q-18.5 -32.5 -63 -48.5 q-44.5 -16 -130.5 -20 l-83 -4 l-26 83 l103 4 q84 3 109.5 24 q25.5 21 30.5 90 q3 40 12 266 q9 226 10 264 l-314 0 q-6 -155 -7 -163 q-8 -146 -43 -247 q-35 -101 -99.5 -179 q-64.5 -78 -182.5 -170 l-66 61 q120 85 182.5 159.5 q62.5 74.5 91.5 162.5 q29 88 38 227 q5 60 7 149 l-246 0 l0 79 Z" /><glyph glyph-name="Identity.8864" unicode="&#x5207;" d="M416 227 l18 -80 q-15 -8 -91.5 -56 q-76.5 -48 -95.5 -61 q-29 -18 -50 -38 l-44 66 q19 17 24.5 30.5 q5.5 13.5 5.5 33.5 l0 327 l-139 -18 l-8 75 l147 18 l0 279 l75 -3 l0 -266 l170 21 l3 -75 l-173 -22 l0 -332 q45 26 158 101 ZM400 724 l484 0 q-9 -351 -23 -647 q-4 -77 -39 -107 q-35 -30 -129 -39 l-61 -6 l-27 80 l77 6 q59 5 78 22.5 q19 17.5 22 73.5 q2 38 10.5 268 q8.5 230 9.5 270 l-189 0 q-2 -96 -5 -153 q-10 -236 -55.5 -351 q-45.5 -115 -187.5 -250 l-65 54 q97 90 141.5 157 q44.5 67 63.5 152 q19 85 26 245 q3 54 5 146 l-136 0 l0 79 Z" /><glyph glyph-name="Identity.8884" unicode="&#x521b;" d="M366 745 q54 -41 124 -103.5 q70 -62.5 110 -104.5 l-51 -64 q-34 44 -99 105.5 q-65 61.5 -123 107.5 q-104 -148 -255 -258 l-44 57 q93 65 173 156 q80 91 117 175 l76 -22 q-15 -27 -28 -49 ZM808 799 l74 -4 l0 -772 q0 -57 -20.5 -75.5 q-20.5 -18.5 -90.5 -26.5 l-77 -8 l-26 76 l86 8 q35 3 44.5 13 q9.5 10 9.5 46 l0 743 ZM697 722 l0 -578 l-71 0 l0 582 l71 -4 ZM477 42 l10 83 l70 -31 q-3 -27 -11 -79 q-7 -47 -31.5 -65 q-24.5 -18 -71.5 -20 q-96 -5 -210 2 q-47 3 -66.5 25.5 q-19.5 22.5 -19.5 69.5 l0 455 l343 0 l-1 -65 q0 -20 -5 -155 q-2 -54 -24.5 -76 q-22.5 -22 -75.5 -27 l-55 -6 l-25 65 l56 4 q34 3 45 13.5 q11 10.5 13 37.5 q1 13 2 41.5 q1 28.5 2 60.5 q1 32 1 40 l-205 0 l0 -377 q0 -19 8 -27 q8 -8 38 -11 q90 -8 167 0 q25 2 33.5 11 q8.5 9 12.5 31 Z" /><glyph glyph-name="Identity.8905" unicode="&#x5230;" d="M803 787 l74 -3 l0 -756 q0 -67 -30.5 -92.5 q-30.5 -25.5 -119.5 -31.5 l-58 -4 l-28 75 l71 4 q54 3 72.5 18.5 q18.5 15.5 18.5 56.5 l0 733 ZM584 70 l1 -39 l1 -33 q-305 -30 -534 -48 l-12 72 q116 7 244 20 l0 152 l-201 0 l0 71 l201 0 l0 143 l-128 -6 q-32 -1 -65 -9 l-17 64 q21 5 31 16 q58 61 143 194 l-185 0 l0 71 l509 0 l0 -71 l-241 0 q-78 -121 -143 -200 q19 1 121 5.5 q102 4.5 143 6.5 q-43 64 -74 101 l54 37 q32 -38 80 -106 q48 -68 71 -110 l-59 -46 q-11 25 -33 62 q-75 -3 -134 -6 l0 -146 l200 0 l0 -71 l-200 0 l0 -145 q38 3 118 11 q80 8 109 10 ZM696 706 l0 -587 l-72 0 l0 590 l72 -3 Z" /><glyph glyph-name="Identity.8911" unicode="&#x5236;" d="M370 593 l1 -122 l213 0 l0 -68 l-213 0 l0 -102 l183 0 l0 -249 q0 -42 -19.5 -58 q-19.5 -16 -70.5 -23 l-35 -5 l-24 66 l35 4 q29 4 38 11.5 q9 7.5 9 31.5 l0 154 l-116 0 l1 -340 l-71 0 l0 340 l-122 0 l0 -272 l-64 0 l0 340 l186 0 l0 102 l-250 0 l0 68 l250 0 l0 122 l-124 0 q-21 -59 -41 -101 l-64 22 q55 122 83 252 l66 -11 q-8 -42 -23 -95 l103 0 l0 139 l69 -3 l0 -136 l194 0 l0 -67 l-194 0 ZM816 787 l70 -3 l0 -755 q0 -62 -24 -85 q-24 -23 -96 -31 l-63 -7 l-26 72 l67 7 q45 5 58.5 16.5 q13.5 11.5 13.5 49.5 l0 736 ZM716 702 l0 -592 l-69 0 l0 595 l69 -3 Z" /><glyph glyph-name="Identity.8934" unicode="&#x524d;" d="M660 680 l265 0 l0 -68 l-872 0 l0 68 l252 0 q-39 76 -62 101 l66 38 q12 -14 40 -58 q28 -44 35 -60 l-39 -21 l227 0 q57 84 84 146 l73 -32 q-5 -9 -30 -50.5 q-25 -41.5 -39 -63.5 ZM764 49 l0 496 l73 -4 l0 -517 q0 -60 -19.5 -81 q-19.5 -21 -80.5 -25 l-64 -5 l-26 71 l81 7 q21 2 28.5 15 q7.5 13 7.5 43 ZM128 -91 l0 615 l347 0 l0 -497 q0 -63 -19 -86 q-19 -23 -79 -27 l-54 -4 l-23 68 l66 5 q21 1 29 15 q8 14 8 44 l0 84 l-202 0 l0 -217 l-73 0 ZM577 79 l0 426 l69 -4 l0 -422 l-69 0 ZM403 455 l-202 0 l0 -98 l202 0 l0 98 ZM201 192 l202 0 l0 99 l-202 0 l0 -99 Z" /><glyph glyph-name="Identity.9012" unicode="&#x529b;" d="M454 604 l392 0 q-5 -194 -22 -533 q-4 -82 -44.5 -113.5 q-40.5 -31.5 -152.5 -39.5 l-79 -6 l-26 80 l97 7 q76 5 100 25 q24 20 27 84 q14 288 16 417 l-311 0 q-4 -129 -21.5 -215.5 q-17.5 -86.5 -61 -160.5 q-43.5 -74 -103.5 -130.5 q-60 -56.5 -164 -130.5 l-56 65 q97 67 153 117.5 q56 50.5 96.5 116.5 q40.5 66 57 143.5 q16.5 77.5 21.5 194.5 l-282 0 l0 79 l284 0 q2 35 4 107.5 q2 72.5 3 91.5 l79 -3 q0 -11 -1.5 -44.5 q-1.5 -33.5 -3 -79 q-1.5 -45.5 -2.5 -72.5 Z" /><glyph glyph-name="Identity.9017" unicode="&#x52a0;" d="M273 802 q0 -71 -3 -167 l206 0 q-13 -559 -13 -588 q0 -58 -20.5 -84 q-20.5 -26 -78.5 -32 l-81 -8 l-25 79 l88 8 q23 2 32 16.5 q9 14.5 9 43.5 q1 19 3.5 131 q2.5 112 5.5 232.5 q3 120.5 3 127.5 l-131 0 l0 -1 q-9 -248 -47.5 -385 q-38.5 -137 -128.5 -271 l-69 37 q87 120 124.5 249 q37.5 129 46.5 366 l0 5 l-120 0 l0 74 l122 0 q2 130 2 171 l75 -4 ZM558 689 l326 0 l0 -771 l-75 0 l0 83 l-177 0 l0 -83 l-74 0 l0 771 ZM632 74 l177 0 l0 541 l-177 0 l0 -541 Z" /><glyph glyph-name="Identity.9018" unicode="&#x52a1;" d="M564 473 q141 -62 383 -101 l-27 -71 q-164 36 -260 63.5 q-96 27.5 -172 65.5 q-172 -88 -425 -145 l-33 68 q227 47 384 119 q-76 51 -150 129 q-64 -63 -146 -123 l-46 46 q80 59 156 140.5 q76 81.5 119 151.5 l68 -28 q-26 -42 -49 -71 l431 0 l0 -61 q-121 -114 -233 -183 ZM313 653 q85 -90 176 -142 q103 57 197 144 l-371 0 l-2 -2 ZM465 350 q-9 -64 -12 -86 l352 0 q-10 -111 -28 -227 q-10 -65 -33 -86.5 q-23 -21.5 -81 -26.5 l-108 -10 l-23 67 l105 9 q31 3 45.5 18.5 q14.5 15.5 21.5 53.5 q9 49 18 137 l-281 0 q-28 -118 -105.5 -187.5 q-77.5 -69.5 -237.5 -119.5 l-37 63 q139 41 207.5 96.5 q68.5 55.5 93.5 147.5 l-225 0 l0 65 l238 0 q8 53 11 93 l79 -7 Z" /><glyph glyph-name="Identity.9025" unicode="&#x52a8;" d="M660 613 l228 0 q-11 -390 -19 -555 q-2 -71 -31.5 -95 q-29.5 -24 -117.5 -35 l-58 -7 l-23 78 l65 6 q57 5 75 21 q18 16 20 68 q10 220 17 446 l-158 0 q-4 -119 -9 -186.5 q-5 -67.5 -15.5 -138.5 q-10.5 -71 -31 -119.5 q-20.5 -48.5 -51.5 -100 q-31 -51.5 -81 -111.5 l-64 45 q48 54 78 100 q30 46 49.5 90.5 q19.5 44.5 29.5 110.5 q10 66 14.5 130.5 q4.5 64.5 7.5 179.5 l-127 0 l0 73 l128 0 l4 190 l73 -4 q-1 -101 -3 -186 ZM461 725 l0 -71 l-354 0 l0 71 l354 0 ZM421 -2 q-6 24 -15 54 q-25 -4 -88 -13 q-63 -9 -106.5 -15 q-43.5 -6 -57.5 -8 q-25 -3 -63 -16 l-28 76 q27 11 44 44 q58 119 107 285 l-158 0 l0 72 l436 0 l0 -72 l-201 0 q-23 -78 -57.5 -172 q-34.5 -94 -58.5 -139 q18 3 99 13.5 q81 10.5 108 14.5 q-42 114 -74 175 l67 26 q29 -58 63.5 -144.5 q34.5 -86.5 47.5 -138.5 l-65 -42 Z" /><glyph glyph-name="Identity.9135" unicode="&#x5316;" d="M375 774 q-39 -114 -100 -224 l0 -645 l-78 0 l0 520 q-52 -75 -120 -152 l-50 56 q187 217 274 469 l74 -24 ZM853 205 l74 -25 q-2 -70 -14 -130 q-13 -64 -39.5 -87 q-26.5 -23 -99.5 -26 q-74 -3 -148 0 q-77 3 -106.5 29.5 q-29.5 26.5 -29.5 100.5 l0 173 q-82 -56 -157 -98 l-40 66 q101 58 197 128 l0 462 l79 -5 l0 -397 q148 120 277 271 l57 -56 q-162 -184 -334 -314 l0 -212 q0 -42 16 -56 q16 -14 60 -16 q57 -3 115 0 q45 2 59 14 q14 12 22 51 q8 40 12 127 Z" /><glyph glyph-name="Identity.9145" unicode="&#x5320;" d="M212 12 l721 0 l0 -74 l-794 0 l0 814 l780 0 l0 -73 l-707 0 l0 -667 ZM712 53 l-76 0 l0 277 l-215 0 q-2 -101 -25 -161 q-23 -60 -85 -134 l-58 44 q65 78 81.5 132.5 q16.5 54.5 16.5 181.5 l0 177 q252 14 460 63 l17 -66 q-188 -45 -406 -60 l0 -108 l493 0 l0 -69 l-203 0 l0 -277 Z" /><glyph glyph-name="Identity.9172" unicode="&#x533b;" d="M209 14 l717 0 l0 -70 l-789 0 l0 807 l778 0 l0 -70 l-706 0 l0 -667 ZM909 308 l-306 0 q-2 -15 -10 -43 q160 -75 283 -158 l-35 -70 q-134 98 -277 168 q-66 -102 -277 -175 l-37 64 q132 42 195.5 91.5 q63.5 49.5 81.5 122.5 l-281 0 l0 67 l290 0 l0 4 q0 9 0.5 31 q0.5 22 1.5 50.5 q1 28.5 1 42.5 l-136 0 q-41 -64 -81 -108 l-55 40 q44 49 84 114 q40 65 61 122 l62 -27 q-16 -40 -34 -76 l414 0 l0 -65 l-242 0 q-3 -114 -3 -127 l0 -1 l300 0 l0 -67 Z" /><glyph glyph-name="Identity.9180" unicode="&#x5343;" d="M928 405 l0 -75 l-395 0 l0 -431 l-83 0 l0 431 l-398 0 l0 75 l398 0 l0 238 q-196 -18 -322 -24 l-13 75 q154 6 366.5 28.5 q212.5 22.5 341.5 46.5 l16 -76 q-103 -18 -306 -41 l0 -247 l395 0 Z" /><glyph glyph-name="Identity.9184" unicode="&#x5347;" d="M930 432 l0 -73 l-205 0 l0 -454 l-79 0 l0 454 l-278 0 q-3 -113 -27 -188.5 q-24 -75.5 -74 -136 q-50 -60.5 -146 -133.5 l-62 61 q98 72 143.5 122.5 q45.5 50.5 64.5 111.5 q19 61 21 163 l-228 0 l0 73 l228 0 l0 212 q-109 -18 -178 -24 l-17 68 q251 25 457 83 l17 -68 q-95 -25 -198 -45 l0 -226 l277 0 l0 366 l79 -3 l0 -363 l205 0 Z" /><glyph glyph-name="Identity.9185" unicode="&#x5348;" d="M930 344 l0 -74 l-379 0 l0 -368 l-83 0 l0 368 l-412 0 l0 74 l412 0 l0 259 l-179 0 q-64 -126 -132 -216 l-70 44 q64 82 122.5 190 q58.5 108 81.5 196 l78 -24 q-18 -55 -44 -115 l505 0 l0 -75 l-279 0 l0 -259 l379 0 Z" /><glyph glyph-name="Identity.9191" unicode="&#x534e;" d="M217 554 q-54 -59 -138 -131 l-46 52 q180 157 280 333 l61 -27 q-42 -77 -84 -136 l0 -365 l-73 0 l0 274 ZM302 495 q123 37 201 69 l0 235 l78 -3 l0 -199 q137 62 263 147 l35 -63 q-136 -94 -298 -165 l0 -73 q0 -37 14 -50.5 q14 -13.5 50 -16.5 q55 -4 111 0 q38 3 54 12 q16 9 21 30 q7 28 11 85 l71 -26 q-2 -47 -21 -112 q-7 -27 -34 -40 q-27 -13 -88 -17 q-79 -5 -157 0 q-58 3 -84 26.5 q-26 23.5 -26 85.5 l0 64 q-79 -30 -168 -58 l-33 69 ZM928 187 l0 -74 l-397 0 l0 -217 l-78 0 l0 217 l-395 0 l0 74 l395 0 l0 113 l78 -3 l0 -110 l397 0 Z" /><glyph glyph-name="Identity.9200" unicode="&#x5357;" d="M926 634 l-400 0 l0 -98 l333 0 l0 -521 q-1 -60 -23.5 -77.5 q-22.5 -17.5 -96.5 -23.5 l-58 -5 l-20 70 l73 6 q32 3 41 13.5 q9 10.5 9 47.5 l0 423 l-598 0 l0 -558 l-71 0 l0 625 l336 0 l0 98 l-396 0 l0 68 l396 0 l0 96 l75 -3 l0 -93 l400 0 l0 -68 ZM740 107 l-217 0 l0 -176 l-72 0 l0 176 l-210 0 l0 62 l210 0 l0 88 l-192 0 l0 63 l122 0 q-34 48 -71 91 l52 40 q44 -51 87 -114 l-21 -17 l84 0 q52 63 93 132 l59 -37 q-34 -52 -68 -95 l125 0 l0 -63 l-198 0 l0 -88 l217 0 l0 -62 Z" /><glyph glyph-name="Identity.9216" unicode="&#x5367;" d="M731 497 q47 -32 113 -88 q66 -56 99 -92 l-45 -72 q-33 41 -91.5 93.5 q-58.5 52.5 -109.5 91.5 l0 -527 l-78 0 l0 895 l78 -3 l0 -344 l34 46 ZM376 199 l0 -182 l177 0 l0 -72 l-459 0 l0 807 l450 0 l0 -74 l-168 0 l0 -160 l125 0 l0 -319 l-125 0 ZM304 678 l-136 0 l0 -160 l136 0 l0 160 ZM428 270 l0 177 l-260 0 l0 -177 l260 0 ZM168 199 l0 -182 l136 0 l0 182 l-136 0 Z" /><glyph glyph-name="Identity.9228" unicode="&#x5373;" d="M303 247 l61 27 q30 -42 72.5 -116.5 q42.5 -74.5 67.5 -131.5 l-65 -44 q-16 38 -47 104 q-62 -33 -228 -110 q-23 -10 -49 -26 l-38 62 q33 26 33 55 l0 688 l356 0 l0 -455 l-287 0 l0 -236 q19 4 79.5 31.5 q60.5 27.5 102.5 50.5 q-39 74 -58 101 ZM552 734 l325 0 l0 -567 q0 -61 -19 -84.5 q-19 -23.5 -81 -30.5 l-63 -7 l-27 74 l81 8 q22 2 29 12.5 q7 10.5 7 38.5 l0 481 l-180 0 l0 -753 l-72 0 l0 828 ZM396 689 l-217 0 l0 -126 l217 0 l0 126 ZM179 366 l217 0 l0 133 l-217 0 l0 -133 Z" /><glyph glyph-name="Identity.9252" unicode="&#x538b;" d="M232 666 l0 -189 q0 -235 -25.5 -344.5 q-25.5 -109.5 -101.5 -238.5 l-73 34 q53 88 75.5 144 q22.5 56 35 148 q12.5 92 12.5 249 l0 272 l760 0 l0 -75 l-683 0 ZM599 27 l343 0 l0 -74 l-728 0 l0 74 l304 0 l0 317 l-249 0 l0 74 l249 0 l0 210 l81 -3 l0 -207 l282 0 l0 -74 l-282 0 l0 -317 ZM658 256 l50 48 q35 -27 91 -88 q56 -61 78 -94 l-53 -55 q-22 34 -78 98 q-56 64 -88 91 Z" /><glyph glyph-name="Identity.9267" unicode="&#x539a;" d="M924 757 l0 -66 l-701 0 l0 -195 q0 -170 -14 -275.5 q-14 -105.5 -37 -166.5 q-23 -61 -75 -154 l-67 38 q73 123 96.5 226 q23.5 103 23.5 326 l0 267 l774 0 ZM854 364 l-542 0 l0 272 l542 0 l0 -272 ZM783 581 l-399 0 l0 -55 l399 0 l0 55 ZM384 418 l399 0 l0 55 l-399 0 l0 -55 ZM939 155 l0 -57 l-310 0 l0 -81 q0 -62 -25 -81.5 q-25 -19.5 -112 -25.5 l-57 -4 l-28 65 l71 5 q53 4 65 12.5 q12 8.5 12 40.5 l0 69 l-322 0 l0 57 l322 0 l0 28 q122 43 170 67 l-425 0 l0 59 l564 0 l0 -58 q-131 -66 -225 -96 l300 0 Z" /><glyph glyph-name="Identity.9315" unicode="&#x53ca;" d="M946 -23 l-44 -73 q-190 91 -310 188 q-125 -104 -349 -197 l-42 70 q212 80 334 176 q-132 125 -201 299 q-17 -153 -73.5 -274.5 q-56.5 -121.5 -165.5 -258.5 l-63 46 q115 138 169.5 259.5 q54.5 121.5 65.5 288.5 q4 68 8 171 l-168 0 l0 73 l649 0 l0 -74 q-46 -90 -111 -176 l189 0 l0 -71 q-78 -174 -186 -282 q121 -93 298 -165 ZM344 613 q77 -266 247 -423 q99 95 162 234 l-202 0 l0 63 q57 76 114 185 l-318 0 l-3 -59 Z" /><glyph glyph-name="Identity.9316" unicode="&#x53cb;" d="M942 -24 l-37 -75 q-214 80 -336 172 q-120 -87 -340 -173 l-41 70 q199 69 321 154 q-105 99 -174 254 q-81 -254 -249 -448 l-64 49 q220 248 284 622 l-235 0 l0 74 l246 0 q8 59 13 134 l81 -6 q-4 -62 -12 -128 l530 0 l0 -74 l-541 0 q-10 -66 -27 -132 l459 0 l0 -71 q-72 -171 -191 -276 q119 -85 313 -146 ZM402 398 q69 -141 167 -229 q112 95 173 229 l-340 0 Z" /><glyph glyph-name="Identity.9317" unicode="&#x53cc;" d="M382 56 q-26 64 -81 166 q-71 -128 -220 -302 l-60 49 q154 169 235 332 q-88 151 -167 256 l58 38 q64 -82 146 -214 q50 124 73 278 l-294 0 l0 74 l367 0 l0 -76 q-30 -207 -98 -356 q70 -122 102 -194 l-61 -51 ZM712 205 q85 -117 248 -242 l-52 -61 q-157 129 -241 241 q-95 -119 -282 -252 l-53 64 q197 128 291 250 q-106 165 -146 427 l69 14 q39 -231 123 -374 q84 139 125 388 l-326 0 l0 73 l400 0 l0 -75 q-26 -150 -62 -257.5 q-36 -107.5 -94 -195.5 Z" /><glyph glyph-name="Identity.9329" unicode="&#x53d8;" d="M360 371 l0 254 l-279 0 l0 67 l383 0 q-15 51 -35 104 l74 14 q12 -28 41 -118 l360 0 l0 -67 l-279 0 l0 -254 l-70 0 l0 254 l-125 0 l0 -254 l-70 0 ZM669 533 l45 48 q43 -30 110 -87.5 q67 -57.5 101 -94.5 l-45 -61 q-33 42 -99.5 102.5 q-66.5 60.5 -111.5 92.5 ZM319 535 q-83 -101 -221 -206 l-48 54 q60 41 119.5 94 q59.5 53 100.5 100 l49 -42 ZM942 -36 l-34 -72 q-294 66 -419 126 q-144 -69 -419 -129 l-30 70 q228 41 371 103 q-89 60 -164 165 l59 35 l-146 0 l0 68 l614 0 l0 -66 q-90 -130 -208 -204 q122 -49 376 -96 ZM313 262 q83 -110 174 -163 q112 64 188 163 l-362 0 Z" /><glyph glyph-name="Identity.9340" unicode="&#x53e3;" d="M149 707 l685 0 l0 -787 l-79 0 l0 89 l-527 0 l0 -94 l-79 0 l0 792 ZM228 87 l527 0 l0 542 l-527 0 l0 -542 Z" /><glyph glyph-name="Identity.9347" unicode="&#x53ea;" d="M178 744 l627 0 l0 -465 l-627 0 l0 465 ZM253 670 l0 -317 l474 0 l0 317 l-474 0 ZM40 -31 q75 44 156.5 116 q81.5 72 138.5 145 l61 -54 q-50 -67 -134.5 -145.5 q-84.5 -78.5 -164.5 -131.5 l-57 70 ZM644 229 q64 -47 150.5 -126 q86.5 -79 132.5 -130 l-54 -69 q-50 61 -134 141 q-84 80 -148 125 l53 59 Z" /><glyph glyph-name="Identity.9377" unicode="&#x5408;" d="M527 793 q128 -189 430 -328 l-41 -75 q-276 133 -426 330 q-135 -185 -426 -329 l-41 75 q301 137 431 327 l73 0 ZM252 488 l477 0 l0 -70 l-477 0 l0 70 ZM185 -92 l0 383 l613 0 l0 -383 l-77 0 l0 52 l-459 0 l0 -52 l-77 0 ZM721 224 l-459 0 l0 -194 l459 0 l0 194 Z" /><glyph glyph-name="Identity.9381" unicode="&#x540c;" d="M862 37 q0 -71 -28.5 -95.5 q-28.5 -24.5 -113.5 -29.5 l-56 -3 l-27 72 l70 4 q51 2 65 15.5 q14 13.5 14 55.5 l0 619 l-604 0 l0 -764 l-72 0 l0 834 l752 0 l0 -708 ZM245 557 l483 0 l0 -67 l-483 0 l0 67 ZM303 381 l365 0 l0 -311 l-365 0 l0 311 ZM371 316 l0 -182 l229 0 l0 182 l-229 0 Z" /><glyph glyph-name="Identity.9383" unicode="&#x540e;" d="M244 516 l676 0 l0 -69 l-676 0 q-1 -173 -34.5 -282 q-33.5 -109 -121.5 -242 l-62 32 q86 123 116 229.5 q30 106.5 30 290.5 l0 248 q365 5 654 54 l19 -74 q-273 -42 -601 -51 l0 -136 ZM309 -96 l0 403 l521 0 l0 -403 l-74 0 l0 66 l-373 0 l0 -66 l-74 0 ZM756 239 l-373 0 l0 -201 l373 0 l0 201 Z" /><glyph glyph-name="Identity.9407" unicode="&#x5426;" d="M455 336 l0 217 q-145 -117 -364 -217 l-40 69 q273 110 433 271 l-378 0 l0 70 l771 0 l0 -70 l-295 0 q-42 -49 -88 -90 l32 -2 l0 -248 l-71 0 ZM594 591 q66 -27 173.5 -83.5 q107.5 -56.5 160.5 -93.5 l-33 -76 q-53 44 -157.5 103 q-104.5 59 -174.5 88 l31 62 ZM190 -91 l0 391 l604 0 l0 -391 l-73 0 l0 57 l-461 0 l0 -57 l-70 0 ZM721 227 l-461 0 l0 -190 l461 0 l0 190 Z" /><glyph glyph-name="Identity.9457" unicode="&#x5458;" d="M206 757 l572 0 l0 -243 l-572 0 l0 243 ZM283 692 l0 -116 l420 0 l0 116 l-420 0 ZM739 355 l-493 0 l0 -250 l-77 0 l0 320 l644 0 l0 -320 l-74 0 l0 250 ZM534 302 q0 -2 -3.5 -28 q-3.5 -26 -9.5 -61.5 q-6 -35.5 -10 -54.5 q-17 -79 -121 -148 q-104 -69 -312 -108 l-28 71 q332 57 381 182 q25 63 25 151 l78 -4 ZM510 69 q189 -71 374 -170 l28 75 q-159 80 -374 156 l-28 -61 Z" /><glyph glyph-name="Identity.9486" unicode="&#x5475;" d="M945 729 l0 -70 l-90 0 l0 -612 q0 -80 -30.5 -108 q-30.5 -28 -127.5 -32 l-65 -4 l-26 74 l81 4 q60 3 77 19 q17 16 17 68 l0 591 l-398 0 l0 70 l562 0 ZM102 37 l0 665 l235 0 l0 -665 l-235 0 ZM166 633 l0 -525 l107 0 l0 525 l-107 0 ZM678 530 l0 -390 l-256 0 l0 390 l256 0 ZM612 210 l0 254 l-124 0 l0 -254 l124 0 Z" /><glyph glyph-name="Identity.9494" unicode="&#x547d;" d="M23 522 q290 128 430 285 l75 0 q71 -78 184 -154.5 q113 -76.5 249 -135.5 l-37 -67 q-291 142 -432 290 q-134 -139 -429 -287 l-40 69 ZM237 545 l506 0 l0 -70 l-506 0 l0 70 ZM847 127 q0 -68 -22.5 -91.5 q-22.5 -23.5 -95.5 -30.5 l-30 -3 l-24 74 l42 4 q41 4 49.5 14.5 q8.5 10.5 8.5 50.5 l0 165 l-190 0 l0 -409 l-71 0 l0 478 l333 0 l0 -252 ZM139 375 l285 0 l0 -366 l-285 0 l0 366 ZM208 307 l0 -229 l147 0 l0 229 l-147 0 Z" /><glyph glyph-name="Identity.9509" unicode="&#x548c;" d="M335 382 q30 -25 77.5 -75 q47.5 -50 73.5 -83 l-50 -62 q-45 70 -131 156 l0 -422 l-70 0 l0 439 q-70 -133 -161 -244 l-47 57 q120 132 202 310 l-167 0 l0 73 l173 0 l0 133 q-100 -16 -152 -21 l-15 69 q81 7 190.5 27.5 q109.5 20.5 183.5 41.5 l14 -69 q-55 -16 -151 -35 l0 -146 l170 0 l0 -73 l-170 0 l0 -105 l30 29 ZM514 705 l364 0 l0 -775 l-73 0 l0 77 l-218 0 l0 -83 l-73 0 l0 781 ZM587 86 l218 0 l0 542 l-218 0 l0 -542 Z" /><glyph glyph-name="Identity.9537" unicode="&#x54a8;" d="M434 641 q-44 -72 -96 -132 l-53 45 q99 111 156 258 l72 -11 q-17 -43 -42 -92 l404 0 l0 -66 q-48 -77 -90 -135 l-60 27 q8 11 40 56.5 q32 45.5 35 49.5 l-366 0 ZM225 586 q-23 34 -68.5 81.5 q-45.5 47.5 -78.5 75.5 l52 51 q30 -24 75.5 -70.5 q45.5 -46.5 68.5 -76.5 l-49 -61 ZM606 542 q35 -71 113.5 -118 q78.5 -47 211.5 -82 l-33 -69 q-129 41 -203.5 85.5 q-74.5 44.5 -115.5 108.5 q-34 -60 -106.5 -105.5 q-72.5 -45.5 -198.5 -88.5 l-37 65 q154 46 221 99 q67 53 77 131 l5 46 l74 -3 q-3 -27 -4 -45 q-2 -16 -4 -24 ZM237 549 l58 -46 q-83 -128 -193 -235 l-55 53 q115 108 190 228 ZM174 -100 l0 356 l636 0 l0 -356 l-78 0 l0 54 l-481 0 l0 -54 l-77 0 ZM732 185 l-481 0 l0 -161 l481 0 l0 161 Z" /><glyph glyph-name="Identity.9562" unicode="&#x54c1;" d="M767 764 l0 -322 l-560 0 l0 322 l560 0 ZM694 512 l0 184 l-415 0 l0 -184 l415 0 ZM100 -77 l0 417 l344 0 l0 -417 l-72 0 l0 56 l-200 0 l0 -56 l-72 0 ZM534 340 l347 0 l0 -417 l-73 0 l0 56 l-202 0 l0 -56 l-72 0 l0 417 ZM372 272 l-200 0 l0 -224 l200 0 l0 224 ZM606 48 l202 0 l0 224 l-202 0 l0 -224 Z" /><glyph glyph-name="Identity.9603" unicode="&#x54ea;" d="M310 683 l0 71 l304 0 l-4 -686 q0 -64 -24.5 -89 q-24.5 -25 -84.5 -32 l-35 -4 l-22 64 l45 4 q36 3 47.5 17 q11.5 14 11.5 61 l0 139 l-104 0 q-13 -101 -47.5 -174.5 q-34.5 -73.5 -103.5 -153.5 l-51 37 q70 79 101 140.5 q31 61.5 43 150.5 l-71 0 l0 70 l77 0 q4 52 4 136 l0 15 l-77 0 l0 71 l78 0 l1 163 l-88 0 ZM846 415 q44 -72 61 -126.5 q17 -54.5 17 -112.5 q0 -77 -25.5 -110.5 q-25.5 -33.5 -83.5 -42.5 l-32 -5 l-22 66 l42 6 q32 5 46 26.5 q14 21.5 14 71.5 q0 90 -79 211 q36 118 62 281 l-113 0 l0 -773 l-62 0 l0 839 l234 0 l0 -66 q-21 -147 -59 -265 ZM286 717 l0 -640 l-200 0 l0 640 l200 0 ZM550 520 q0 37 0 74 q0 37 0.5 61 q0.5 24 0.5 28 l-93 0 l-1 -163 l93 0 ZM224 143 l0 508 l-74 0 l0 -508 l74 0 ZM451 298 l98 0 l0 151 l-93 0 l0 -13 q0 -70 -5 -138 Z" /><glyph glyph-name="Identity.10107" unicode="&#x56e2;" d="M111 757 l767 0 l0 -859 l-77 0 l0 57 l-614 0 l0 -57 l-76 0 l0 859 ZM187 22 l614 0 l0 668 l-614 0 l0 -668 ZM756 540 l0 -67 l-119 0 l0 -292 q0 -58 -22.5 -78 q-22.5 -20 -93.5 -26 l-71 -6 l-23 70 l81 6 q36 3 45.5 12.5 q9.5 9.5 10.5 45.5 l0 236 q-103 -157 -317 -298 l-46 57 q87 50 168.5 121 q81.5 71 136.5 152 l-261 0 l0 67 l319 0 l0 110 l73 -3 l0 -107 l119 0 Z" /><glyph glyph-name="Identity.10134" unicode="&#x56fd;" d="M804 -44 l-622 0 l0 -56 l-74 0 l0 857 l770 0 l0 -857 l-74 0 l0 56 ZM182 690 l0 -665 l622 0 l0 665 l-622 0 ZM226 174 l225 0 l0 173 l-191 0 l0 64 l191 0 l0 124 l-208 0 l0 64 l497 0 l0 -64 l-216 0 l0 -124 l202 0 l0 -64 l-202 0 l0 -173 l233 0 l0 -65 l-531 0 l0 65 ZM630 339 q52 -62 81 -117 l-50 -37 q-36 68 -80 123 l49 31 Z" /><glyph glyph-name="Identity.10145" unicode="&#x5708;" d="M107 761 l771 0 l0 -862 l-71 0 l0 40 l-628 0 l0 -40 l-72 0 l0 862 ZM179 3 l628 0 l0 693 l-628 0 l0 -693 ZM632 378 q56 -63 175 -115 l-30 -53 q-87 43 -142 89 l-5 -72 q-3 -37 -24.5 -52 q-21.5 -15 -85.5 -19 l-42 -2 l-18 52 l52 3 q39 2 50 8 q11 6 13 24 l2 24 l-197 0 l0 -106 q0 -30 9.5 -38.5 q9.5 -8.5 39.5 -10.5 q81 -4 162 0 q55 3 61 25 q7 26 10 56 l61 -21 q-5 -39 -16 -77 q-6 -19 -26 -28.5 q-20 -9.5 -69 -11.5 q-105 -5 -210 0 q-48 2 -67 19.5 q-19 17.5 -19 64.5 l0 131 q-45 -35 -99 -68 l-31 50 q105 59 165 128 l-142 0 l0 55 l182 0 q17 29 29 56 l-191 0 l0 54 l123 0 q-30 42 -83 88 l39 37 q52 -42 92 -90 l-30 -35 l69 0 q22 69 33 144 l60 -9 q-12 -70 -30 -135 l111 0 l-30 32 q20 14 49.5 44.5 q29.5 30.5 45.5 52.5 l40 -38 q-41 -52 -85 -91 l120 0 l0 -54 l-268 0 q-9 -28 -24 -56 l313 0 l0 -55 l-142 0 ZM374 319 l238 0 q-31 29 -52 59 l-134 0 q-26 -33 -52 -59 Z" /><glyph glyph-name="Identity.10177" unicode="&#x5728;" d="M392 613 q-52 -117 -125 -216 l0 -494 l-74 0 l0 401 q-53 -60 -121 -122 l-52 59 q182 150 290 372 l-251 0 l0 72 l284 0 q28 66 47 133 l72 -18 q-17 -58 -39 -115 l486 0 l0 -72 l-517 0 ZM639 42 l279 0 l0 -71 l-619 0 l0 71 l265 0 l0 259 l-223 0 l0 72 l223 0 l0 168 l75 -3 l0 -165 l233 0 l0 -72 l-233 0 l0 -259 Z" /><glyph glyph-name="Identity.10195" unicode="&#x573a;" d="M337 228 l8 -71 q-52 -22 -145 -53.5 q-93 -31.5 -146 -45.5 l-15 72 q66 16 135 39 l0 324 l-112 0 l0 72 l112 0 l0 242 l72 -3 l0 -239 l109 0 l0 -72 l-109 0 l0 -300 q40 14 91 35 ZM494 467 l388 0 q-2 -65 -24 -407 q-4 -71 -36 -96 q-32 -25 -120 -33 l-58 -5 l-22 75 l71 4 q54 3 71.5 18.5 q17.5 15.5 20.5 62.5 q4 33 12 153 q8 120 10 159 l-100 0 q-25 -174 -82.5 -285 q-57.5 -111 -177.5 -211 l-60 45 q114 95 168.5 193 q54.5 98 83.5 258 l-100 0 q-55 -238 -251 -396 l-55 45 q100 80 155 163.5 q55 83.5 82 187.5 l-113 0 l0 62 l333 213 l-304 0 l0 71 l433 0 l0 -73 l-325 -204 Z" /><glyph glyph-name="Identity.10217" unicode="&#x5750;" d="M529 179 l0 -170 l396 0 l0 -68 l-866 0 l0 68 l394 0 l0 170 l-311 0 l0 70 l311 0 l0 547 l76 -3 l0 -544 l313 0 l0 -70 l-313 0 ZM720 508 q-38 -86 -105 -175 l-60 43 q123 154 158 356 l70 -14 q-15 -72 -36 -139 q43 -42 103.5 -108 q60.5 -66 85.5 -102 l-52 -55 q-42 69 -164 194 ZM242 492 q-46 -98 -123 -196 l-59 45 q140 179 179 390 l72 -13 q-15 -85 -40 -155 q96 -100 156 -186 l-52 -55 q-41 69 -133 170 Z" /><glyph glyph-name="Identity.10276" unicode="&#x578b;" d="M699 271 l-24 68 l47 4 q43 5 57 16 q14 11 14 47 l0 381 l72 -2 l0 -398 q0 -60 -24.5 -81 q-24.5 -21 -96.5 -29 l-45 -6 ZM70 258 q58 59 83.5 101 q25.5 42 34.5 97 l-126 0 l0 67 l132 0 l0 35 l0 121 l-102 0 l0 67 l475 0 l0 -67 l-102 0 l0 -156 l122 0 l0 -67 l-122 0 l0 -185 l-71 0 l0 185 l-134 0 q-8 -71 -36.5 -121.5 q-28.5 -50.5 -94.5 -115.5 l-59 39 ZM685 732 l0 -347 l-70 0 l0 349 l70 -2 ZM265 557 l0 -34 l129 0 l0 156 l-129 0 l0 -122 ZM535 0 l398 0 l0 -67 l-880 0 l0 67 l406 0 l0 126 l-302 0 l0 67 l302 0 l0 69 l76 -3 l0 -66 l296 0 l0 -67 l-296 0 l0 -126 Z" /><glyph glyph-name="Identity.10308" unicode="&#x57ab;" d="M65 483 q72 7 168 22 l0 106 l-142 0 l0 65 l142 0 l0 118 l66 -3 l0 -115 l124 0 l0 -65 l-124 0 l0 -95 q58 11 100 20 l1 -28 l1 -37 q-40 -9 -102 -20 l0 -100 q0 -60 -20.5 -80.5 q-20.5 -20.5 -94.5 -27.5 l-49 -5 l-25 65 l58 6 q43 4 54 15.5 q11 11.5 11 45.5 l0 69 q-105 -18 -156 -23 l-12 67 ZM440 540 q24 -10 90 -43 q11 44 13 112 l-91 0 l0 66 l92 0 l0 119 l67 -3 l0 -116 l182 0 l0 -127 q0 -103 13 -162 q12 -52 26 -52 q17 0 30 38 q8 24 18 72 l51 -27 q-28 -88 -34 -101 q-24 -57 -65 -57 q-26 0 -48.5 25.5 q-22.5 25.5 -34.5 76.5 q-17 70 -17 184 l0 64 l-121 0 q-3 -89 -21 -145 q76 -43 114 -69 l-31 -66 q-40 33 -110 75 q-43 -73 -159 -158 l-46 52 q112 70 149 138 q-60 34 -94 47 l27 57 ZM527 114 l0 -126 l390 0 l0 -67 l-852 0 l0 67 l390 0 l0 126 l-295 0 l0 65 l295 0 l0 101 l72 -3 l0 -98 l293 0 l0 -65 l-293 0 Z" /><glyph glyph-name="Identity.10387" unicode="&#x57fa;" d="M688 279 q87 -102 270 -175 l-40 -60 q-110 50 -183 104 q-73 54 -129 131 l-232 0 q-89 -136 -312 -245 l-41 65 q187 83 273 180 l-238 0 l0 60 l175 0 l0 317 l-144 0 l0 59 l144 0 l0 78 l72 -2 l0 -76 l375 0 l0 78 l72 -2 l0 -76 l145 0 l0 -59 l-145 0 l0 -317 l177 0 l0 -60 l-239 0 ZM678 656 l-375 0 l0 -68 l375 0 l0 68 ZM303 530 l0 -66 l375 0 l0 66 l-375 0 ZM303 407 l0 -68 l375 0 l0 68 l-375 0 ZM528 85 l0 -95 l363 0 l0 -62 l-802 0 l0 62 l366 0 l0 95 l-194 0 l0 60 l194 0 l0 92 l73 -2 l0 -90 l189 0 l0 -60 l-189 0 Z" /><glyph glyph-name="Identity.10469" unicode="&#x584c;" d="M335 158 l6 -29 q-53 -24 -144.5 -56.5 q-91.5 -32.5 -143.5 -45.5 l-14 66 q39 10 130 41 l0 347 l-109 0 l0 69 l109 0 l0 241 l70 -2 l0 -239 l100 0 l0 -69 l-100 0 l0 -322 q65 24 90 35 l6 -36 ZM858 756 l0 -313 l-467 0 l0 313 l467 0 ZM791 693 l-334 0 l0 -64 l334 0 l0 64 ZM457 504 l334 0 l0 66 l-334 0 l0 -66 ZM623 376 l256 0 l0 -357 q0 -60 -23.5 -80.5 q-23.5 -20.5 -98.5 -27.5 l-45 -4 l-20 62 l53 5 q45 5 57 14.5 q12 9.5 12 44.5 l0 280 l-191 0 l0 63 ZM325 314 l0 61 l261 0 l0 -360 q0 -56 -24 -76 q-24 -20 -99 -28 l-49 -5 l-22 62 l60 6 q46 5 58.5 15 q12.5 10 12.5 44 l0 281 l-198 0 ZM465 189 l-48 -41 q-25 51 -81 109 l47 33 q53 -53 82 -101 ZM670 290 q54 -54 83 -102 l-45 -42 q-29 52 -83 111 l45 33 ZM507 137 l12 -25 q-104 -62 -220 -113 l-25 55 q97 40 221 112 l12 -29 ZM800 135 l9 -27 q-102 -61 -184 -95 l-24 55 q75 30 187 96 l12 -29 Z" /><glyph glyph-name="Identity.10474" unicode="&#x5851;" d="M265 450 l0 162 l-196 0 l0 61 l134 0 q-22 43 -59 92 l53 31 q47 -60 66 -102 l-30 -21 l85 0 q44 59 75 130 l59 -21 q-22 -48 -63 -109 l125 0 l0 -61 l-185 0 l0 -163 l0 -15 l77 0 l0 136 l62 -2 l0 -195 l-146 0 q-14 -61 -54.5 -106 q-40.5 -45 -118.5 -91 l-40 50 q118 63 145 147 l-134 0 l0 197 l61 -2 l0 -134 l84 0 l0 16 ZM444 280 q68 52 88.5 96.5 q20.5 44.5 20.5 143.5 l0 227 l312 0 l0 -406 q0 -54 -21.5 -72 q-21.5 -18 -92.5 -26 l-36 -4 l-21 59 l42 4 q41 4 52 13 q11 9 11 39 l0 46 l-191 0 q-11 -50 -37.5 -87.5 q-26.5 -37.5 -78.5 -80.5 l-48 48 ZM799 687 l-181 0 l0 -87 l181 0 l0 87 ZM616 457 l183 0 l0 87 l-181 0 l0 -23 q0 -26 -2 -64 ZM524 -1 l396 0 l0 -63 l-867 0 l0 63 l398 0 l0 113 l-302 0 l0 61 l302 0 l0 53 l73 -2 l0 -51 l309 0 l0 -61 l-309 0 l0 -113 Z" /><glyph glyph-name="Identity.10524" unicode="&#x5883;" d="M928 562 l0 -57 l-595 0 l0 57 l147 0 q-6 44 -20 104 l-113 0 l0 56 l235 0 q-13 41 -33 86 l73 13 q18 -42 35 -99 l241 0 l0 -56 l-123 0 q-18 -76 -26 -104 l179 0 ZM337 153 l5 -33 q-150 -59 -289 -92 l-14 68 q56 15 125 36 l0 347 l-102 0 l0 71 l102 0 l0 258 l68 -2 l0 -256 l86 0 l0 -71 l-86 0 l0 -325 q50 16 100 35 l5 -36 ZM524 666 q10 -51 18 -104 l140 0 q16 47 29 104 l-187 0 ZM886 106 l61 -22 q-3 -55 -14 -106 q-6 -28 -25.5 -39 q-19.5 -11 -74.5 -15 q-45 -3 -90 0 q-47 3 -67 21 q-20 18 -20 65 l0 137 l-108 0 q0 -3 -0.5 -7.5 q-0.5 -4.5 -0.5 -5.5 q-5 -93 -67 -145.5 q-62 -52.5 -198 -97.5 l-32 61 q120 34 171.5 76.5 q51.5 42.5 56.5 104.5 q0 1 0.5 6 q0.5 5 0.5 8 l-107 0 l0 293 l474 0 l0 -293 l-124 0 l0 -114 q0 -29 9.5 -38.5 q9.5 -9.5 37.5 -11.5 q25 -1 50 0 q33 2 44 9.5 q11 7.5 15 27.5 q8 45 8 86 ZM781 383 l-343 0 l0 -62 l343 0 l0 62 ZM438 266 l0 -63 l343 0 l0 63 l-343 0 Z" /><glyph glyph-name="Identity.10653" unicode="&#x5904;" d="M721 10 q123 -3 220 2 l-16 -80 q-96 -6 -219 -2 q-135 4 -233 39.5 q-98 35.5 -171 120.5 q-78 -96 -200 -193 l-59 54 q132 102 213 203 q-57 92 -97 233 q-34 -63 -65 -112 l-59 40 q134 191 193 480 l73 -9 q-18 -79 -37 -141 l242 0 l0 -78 q-39 -242 -156 -413 q64 -76 154 -108 q90 -32 217 -36 ZM680 789 l0 -739 l-78 0 l0 742 l78 -3 ZM206 485 q38 -165 97 -266 q98 150 131 350 l-195 0 q-15 -43 -33 -84 ZM895 306 q-100 109 -204 168 l35 59 q114 -67 202 -146 l-33 -81 Z" /><glyph glyph-name="Identity.10656" unicode="&#x5907;" d="M568 483 q141 -55 381 -87 l-26 -72 q-293 49 -440 118 q-183 -80 -427 -123 l-24 66 q212 35 373 100 q-71 47 -139 115 q-76 -71 -154 -123 l-52 56 q95 56 171.5 133.5 q76.5 77.5 119.5 147.5 l80 -21 q-24 -37 -51 -71 l430 0 l0 -73 q-116 -99 -242 -166 ZM315 649 q83 -81 171 -128 q114 55 213 134 l-378 0 l-6 -6 ZM172 -113 l0 439 l629 0 l0 -439 l-76 0 l0 52 l-478 0 l0 -52 l-75 0 ZM454 259 l-207 0 l0 -95 l207 0 l0 95 ZM725 164 l0 95 l-198 0 l0 -95 l198 0 ZM247 6 l207 0 l0 95 l-207 0 l0 -95 ZM527 6 l198 0 l0 95 l-198 0 l0 -95 Z" /><glyph glyph-name="Identity.10662" unicode="&#x590d;" d="M939 -27 l-23 -67 q-244 37 -398 90 q-156 -53 -432 -99 l-27 61 q213 30 366 74 q-97 43 -176 103 q-65 -55 -158 -106 l-42 50 q163 86 256 207 l-119 0 l0 283 q-36 -40 -93 -95 l-59 47 q69 58 133 137.5 q64 79.5 99 148.5 l74 -21 q-17 -32 -39 -67 l596 0 l0 -63 l-639 0 q-33 -43 -57 -71 l608 0 l0 -299 l-480 0 l45 -24 q-18 -22 -36 -42 l489 0 l0 -59 q-95 -77 -217 -130 q135 -37 329 -58 ZM733 529 l-472 0 l0 -67 l472 0 l0 67 ZM261 413 l0 -69 l472 0 l0 69 l-472 0 ZM306 163 q87 -60 207 -103 q128 46 207 103 l-414 0 Z" /><glyph glyph-name="Identity.10671" unicode="&#x5916;" d="M333 789 q-17 -64 -44 -144 l230 0 l0 -74 q-35 -207 -128 -358 q-93 -151 -274 -312 l-60 60 q176 149 264 285.5 q88 136.5 125 324.5 l-185 0 q-31 -77 -63 -138 q82 -49 144 -105 l-43 -77 q-45 54 -137 114 q-38 -64 -65 -101 l-58 55 q70 100 127 228 q57 128 88 255 l79 -13 ZM605 800 l73 -2 l0 -895 l-73 0 l0 897 ZM720 494 q138 -88 222 -163 l-44 -76 q-84 95 -220 178 l42 61 Z" /><glyph glyph-name="Identity.10675" unicode="&#x591a;" d="M524 351 l366 0 l0 -67 q-123 -141 -301 -230.5 q-178 -89.5 -501 -162.5 l-37 66 q307 67 472.5 143 q165.5 76 265.5 184 l-342 0 q-34 -27 -63 -47 q75 -40 135 -84 l-48 -63 q-51 49 -149 107 q-82 -51 -186 -101 l-42 59 q134 59 244.5 134 q110.5 75 182.5 153 q-181 -78 -419 -129 l-35 63 q447 90 681 273 l-361 0 q-4 -2 -21.5 -15 q-17.5 -13 -27.5 -19 q66 -31 122 -68 l-46 -59 q-48 43 -140 87 q-65 -38 -133 -71 l-43 54 q115 54 213.5 122 q98.5 68 160.5 136 l65 -32 q-27 -33 -69 -70 l388 0 l0 -65 q-128 -114 -313 -198 l49 -27 q-35 -41 -68 -73 Z" /><glyph glyph-name="Identity.10688" unicode="&#x5927;" d="M525 480 q58 -315 412 -506 l-52 -72 q-144 87 -245.5 200 q-101.5 113 -143.5 227 q-82 -227 -385 -427 l-56 72 q169 97 278 226.5 q109 129.5 117 287.5 l-360 0 l0 76 l360 0 l0 235 l81 -4 l0 -231 l373 0 l0 -76 l-379 0 l0 -8 Z" /><glyph glyph-name="Identity.10701" unicode="&#x5934;" d="M921 229 l-323 0 q-10 -37 -22 -62 q173 -84 337 -182 l-36 -72 q-63 44 -162 101.5 q-99 57.5 -175 93.5 q-51 -64 -149 -110 q-98 -46 -276 -93 l-32 71 q214 54 306 107 q92 53 125 146 l-449 0 l0 69 l467 0 q11 63 18 212 q2 38 6 281 l78 -3 q-4 -247 -6 -289 q-5 -132 -16 -201 l309 0 l0 -69 ZM491 589 l-43 -65 q-43 37 -124.5 90 q-81.5 53 -131.5 76 l39 63 q138 -72 260 -164 ZM431 390 l-42 -65 q-48 38 -131 90.5 q-83 52.5 -138 77.5 l38 64 q136 -71 273 -167 Z" /><glyph glyph-name="Identity.10770" unicode="&#x5979;" d="M872 145 l71 -25 q-4 -59 -19 -125 q-7 -31 -35 -45.5 q-28 -14.5 -92 -16.5 q-119 -5 -238 0 q-71 3 -100.5 29.5 q-29.5 26.5 -29.5 97.5 l0 347 l-55 -19 l-18 67 q-21 -199 -72 -305 q85 -79 128 -130 l-47 -63 q-40 51 -117 130 q-47 -72 -159 -187 l-57 48 q113 108 163 189 q-66 63 -106 93 q33 140 55 307 l-82 0 l0 71 l90 0 q12 113 16 185 l66 -5 q-6 -92 -16 -180 l146 0 l0 -70 q-2 -31 -8 -82 l73 25 l0 219 l69 -2 l0 -193 l110 38 l0 257 l68 -2 l0 -232 l200 69 q0 -45 -12 -345 q-2 -56 -25 -77.5 q-23 -21.5 -81 -26.5 l-37 -4 l-19 68 l43 4 q31 3 40 15 q9 12 11 51 q0 8 6 213 l-126 -43 l0 -395 l-68 0 l0 372 l-110 -37 l0 -347 q0 -48 17 -62 q17 -14 71 -17 q91 -5 182 0 q49 2 68 11 q19 9 24 32 q11 57 12 98 ZM229 200 q53 117 71 337 l-90 0 q-22 -174 -49 -282 q34 -25 68 -55 Z" /><glyph glyph-name="Identity.10774" unicode="&#x597d;" d="M330 166 q82 -69 133 -122 l-52 -72 q-42 51 -122 124 q-62 -87 -193 -194 l-57 55 q136 104 194 189 q-87 73 -133 106 q38 154 60 298 l-102 0 l0 75 l113 0 q11 77 19 181 l72 -6 q-10 -103 -19 -175 l179 0 l0 -71 q-30 -266 -92 -388 ZM939 391 l0 -74 l-225 0 l0 -285 q0 -67 -28 -92 q-28 -25 -109 -29 l-53 -4 l-24 78 l64 4 q47 3 61 16.5 q14 13.5 14 54.5 l0 257 l-214 0 l0 74 l214 0 l0 119 q82 65 162 151 l-335 0 l0 75 l431 0 l0 -74 q-99 -112 -183 -179 l0 -92 l225 0 ZM178 285 q36 -24 95 -71 q54 111 82 336 l-123 0 q-19 -123 -54 -265 Z" /><glyph glyph-name="Identity.10783" unicode="&#x5986;" d="M249 352 l0 452 l72 -3 l0 -895 l-72 0 l0 352 q-79 -77 -184 -151 l-40 67 q44 26 113 81 q69 55 111 97 ZM936 530 l-97 0 q-19 -135 -48.5 -225 q-29.5 -90 -80.5 -158 q111 -84 215 -174 l-48 -70 q-90 86 -218 186 q-95 -91 -285 -182 l-45 70 q186 81 268 159 q-100 74 -189 130 q43 118 78 264 l-132 0 l0 70 l149 0 q24 109 38 204 l78 -10 q-22 -116 -40 -194 l357 0 l0 -70 ZM211 406 l-66 -34 q-10 55 -38.5 141.5 q-28.5 86.5 -52.5 140.5 l64 25 q24 -49 53.5 -135 q29.5 -86 39.5 -138 ZM648 192 q42 58 67.5 136.5 q25.5 78.5 47.5 201.5 l-200 0 q-34 -145 -65 -236 q76 -49 150 -102 Z" /><glyph glyph-name="Identity.11109" unicode="&#x5acc;" d="M726 199 q82 -128 226 -209 l-45 -58 q-133 85 -209 201 l0 -236 l-63 0 l0 302 l-90 0 l0 -302 l-62 0 l0 217 q-73 -108 -189 -189 l-40 58 q140 88 215 216 l-127 0 l0 61 l141 0 l0 80 l-153 0 l0 62 l153 0 l0 80 l-128 0 l0 60 l128 0 l0 89 l-140 0 l0 62 l127 0 q-30 54 -59 87 l56 38 q40 -46 71 -100 l-33 -25 l141 0 q44 61 82 134 l62 -31 q-18 -36 -62 -103 l167 0 l0 -62 l-197 0 l0 -89 l152 0 l0 -140 l68 0 l0 -62 l-68 0 l0 -141 l-124 0 ZM276 8 q-23 37 -56 75 q-46 -80 -140 -183 l-51 51 q98 99 146 183 q-63 67 -101 96 q28 138 48 317 l-77 0 l0 70 l84 0 q10 114 13 189 l65 -4 q-4 -82 -14 -185 l130 0 l0 -71 q-14 -263 -68 -394 q49 -53 76 -90 l-55 -54 ZM545 631 l0 -89 l90 0 l0 89 l-90 0 ZM142 262 q32 -27 64 -60 q43 112 57 345 l-78 0 q-19 -167 -43 -285 ZM545 482 l0 -80 l90 0 l0 80 l-90 0 ZM787 482 l-89 0 l0 -80 l89 0 l0 80 ZM545 260 l90 0 l0 80 l-90 0 l0 -80 ZM787 260 l0 80 l-89 0 l0 -80 l89 0 Z" /><glyph glyph-name="Identity.11241" unicode="&#x5b50;" d="M924 388 l0 -74 l-387 0 l0 -268 q0 -69 -25.5 -91 q-25.5 -22 -106.5 -29 l-83 -7 l-26 76 l84 6 q51 4 63.5 15.5 q12.5 11.5 12.5 56.5 l0 241 l-394 0 l0 74 l394 0 l0 89 l260 189 l-567 0 l0 73 l694 0 l0 -74 l-306 -223 l0 -54 l387 0 Z" /><glyph glyph-name="Identity.11248" unicode="&#x5b57;" d="M179 619 l0 -143 l-76 0 l0 215 l359 0 q-15 57 -35 106 l78 14 q14 -39 40 -120 l336 0 l0 -216 l-77 0 l0 144 l-625 0 ZM926 262 l0 -72 l-387 0 l0 -148 q0 -73 -22.5 -94 q-22.5 -21 -99.5 -28 l-77 -7 l-25 73 l76 6 q46 4 57.5 15.5 q11.5 11.5 11.5 55.5 l0 127 l-403 0 l0 72 l403 0 l0 56 l174 114 l-416 0 l0 72 l543 0 l0 -71 l-222 -144 l0 -27 l387 0 Z" /><glyph glyph-name="Identity.11263" unicode="&#x5b66;" d="M168 555 l0 -122 l-75 0 l0 193 l158 0 q-39 87 -74 131 l69 29 q14 -18 41.5 -66.5 q27.5 -48.5 38.5 -73.5 l-42 -20 l193 0 q-20 70 -67 157 l70 23 q11 -19 37.5 -79 q26.5 -60 33.5 -84 l-47 -17 l135 0 q62 92 96 174 l73 -29 q-39 -74 -83 -145 l166 0 l0 -193 l-75 0 l0 122 l-648 0 ZM924 229 l0 -73 l-377 0 l0 -126 q0 -66 -27.5 -87.5 q-27.5 -21.5 -109.5 -26.5 l-78 -5 l-22 72 l83 6 q50 4 62.5 14 q12.5 10 12.5 50 l0 103 l-408 0 l0 73 l408 0 l0 48 l167 105 l-413 0 l0 72 l540 0 l0 -69 l-215 -138 l0 -18 l377 0 Z" /><glyph glyph-name="Identity.11298" unicode="&#x5b89;" d="M189 614 l0 -117 l-76 0 l0 187 l349 0 q-16 59 -35 105 l75 21 q25 -62 42 -126 l333 0 l0 -187 l-75 0 l0 117 l-613 0 ZM939 351 l-198 0 q-62 -161 -132 -235 q164 -74 277 -140 l-33 -76 q-112 73 -306 161 q-129 -93 -456 -161 l-28 73 q287 49 406 123 q-152 64 -268 101 q43 62 95 154 l-251 0 l0 71 l289 0 q47 94 75 158 l77 -26 q-37 -82 -63 -132 l516 0 l0 -71 ZM535 147 q66 65 117 204 l-266 0 q-37 -69 -72 -121 q99 -30 221 -83 Z" /><glyph glyph-name="Identity.11301" unicode="&#x5b8c;" d="M172 624 l0 -135 l-73 0 l0 204 l373 0 q-18 60 -34 103 l74 14 q13 -31 41 -117 l329 0 l0 -203 l-73 0 l0 134 l-637 0 ZM776 433 l-571 0 l0 67 l571 0 l0 -67 ZM847 126 l69 -24 q-5 -71 -17 -115 q-8 -31 -38 -46 q-30 -15 -96 -17 l-88 0 q-64 0 -92 27.5 q-28 27.5 -28 92.5 l0 192 l-161 0 q0 -5 -0.5 -12.5 q-0.5 -7.5 -0.5 -9.5 q-8 -126 -71 -198 q-63 -72 -217 -125 l-44 65 q142 46 194.5 102.5 q52.5 56.5 60.5 161.5 q0 2 0.5 7.5 q0.5 5.5 0.5 8.5 l-238 0 l0 69 l821 0 l0 -69 l-269 0 l0 -176 q0 -38 14.5 -52 q14.5 -14 50.5 -16 q30 -2 60 0 q37 2 54.5 11 q17.5 9 22.5 31 q9 37 12 92 Z" /><glyph glyph-name="Identity.11313" unicode="&#x5b98;" d="M546 700 l346 0 l0 -177 l-78 0 l0 109 l-640 0 l0 -109 l-79 0 l0 177 l368 0 q-17 59 -32 94 l77 20 q23 -60 38 -114 ZM274 300 l0 -99 l534 0 l0 -301 l-77 0 l0 52 l-457 0 l0 -57 l-77 0 l0 639 l584 0 l0 -234 l-507 0 ZM703 469 l-429 0 l0 -102 l429 0 l0 102 ZM731 134 l-457 0 l0 -115 l457 0 l0 115 Z" /><glyph glyph-name="Identity.11315" unicode="&#x5b9a;" d="M180 634 l0 -108 l-74 0 l0 176 l366 0 q-18 63 -31 96 l71 17 q20 -55 36 -113 l335 0 l0 -175 l-73 0 l0 107 l-630 0 ZM559 9 q170 -4 380 5 l-21 -74 q-172 -8 -365 -5 q-210 5 -311 150 q-44 -96 -134 -190 l-66 49 q94 92 133 176 q39 84 50 220 l79 -5 q-11 -104 -33 -174 q70 -116 201 -143 l0 406 l-340 0 l0 67 l726 0 l0 -67 l-311 0 l0 -162 l294 0 l0 -69 l-294 0 l0 -184 l12 0 Z" /><glyph glyph-name="Identity.11317" unicode="&#x5b9c;" d="M180 636 l0 -132 l-79 0 l0 201 l366 0 q-18 61 -31 93 l74 14 q14 -33 37 -107 l338 0 l0 -201 l-78 0 l0 132 l-627 0 ZM768 4 l171 0 l0 -67 l-892 0 l0 67 l171 0 l0 534 l550 0 l0 -534 ZM695 470 l-403 0 l0 -110 l403 0 l0 110 ZM695 185 l0 110 l-403 0 l0 -110 l403 0 ZM292 118 l0 -114 l403 0 l0 114 l-403 0 Z" /><glyph glyph-name="Identity.11319" unicode="&#x5b9e;" d="M177 621 l0 -128 l-73 0 l0 196 l364 0 q-21 72 -36 110 l74 14 q14 -34 43 -124 l333 0 l0 -198 l-75 0 l0 130 l-630 0 ZM919 -24 l-32 -73 q-154 95 -366 168 q-57 -59 -157 -99 q-100 -40 -263 -73 l-33 74 q188 35 285.5 78.5 q97.5 43.5 140.5 110.5 l-429 0 l0 68 l459 0 q16 53 23 163 q2 32 6 186 l77 -3 q0 -82 -6 -193 q-3 -92 -18 -153 l312 0 l0 -68 l-335 0 q-5 -12 -17 -34 q79 -25 185.5 -71 q106.5 -46 167.5 -81 ZM499 459 l-30 -73 q-68 57 -222 133 l30 60 q44 -17 114 -55 q70 -38 108 -65 ZM167 381 l31 58 q51 -23 123.5 -64.5 q72.5 -41.5 109.5 -69.5 l-34 -66 q-41 33 -113 76.5 q-72 43.5 -117 65.5 Z" /><glyph glyph-name="Identity.11323" unicode="&#x5ba2;" d="M179 644 l0 -114 l-75 0 l0 178 l360 0 q-28 75 -41 101 l74 18 q30 -64 47 -119 l338 0 l0 -187 l-74 0 l0 123 l-629 0 ZM569 352 q174 -63 379 -76 l-22 -70 q-245 24 -442 107 q-186 -78 -437 -118 l-26 69 q190 19 380 89 q-78 41 -137 88 q-53 -46 -126 -88 l-47 54 q76 40 144.5 98 q68.5 58 110.5 116 l61 -34 q-1 -1 -12 -13.5 q-11 -12.5 -17 -18.5 l400 0 l0 -60 q-87 -82 -209 -143 ZM313 486 q72 -55 172 -100 q127 56 194 109 l-357 0 l-9 -9 ZM201 -91 l0 296 l585 0 l0 -296 l-74 0 l0 41 l-439 0 l0 -41 l-72 0 ZM712 140 l-439 0 l0 -129 l439 0 l0 129 Z" /><glyph glyph-name="Identity.11325" unicode="&#x5ba4;" d="M166 628 l0 -79 l-72 0 l0 144 l369 0 q-18 60 -34 103 l74 14 q13 -31 41 -117 l334 0 l0 -144 l-72 0 l0 79 l-640 0 ZM133 323 q37 7 65 26 q73 50 146 117 l-191 0 l0 63 l668 0 l0 -63 l-182 0 q44 -31 111 -90 q67 -59 102 -99 l-47 -57 q-17 23 -58 64 q-396 -5 -502 -11 q-25 -1 -98 -7 l-14 57 ZM442 466 q-75 -72 -158 -131 q32 0 187.5 4 q155.5 4 211.5 5 q-48 44 -92 75 l46 47 l-195 0 ZM526 0 l396 0 l0 -64 l-872 0 l0 64 l401 0 l0 109 l-303 0 l0 66 l303 0 l0 78 l75 -4 l0 -74 l299 0 l0 -66 l-299 0 l0 -109 Z" /><glyph glyph-name="Identity.11410" unicode="&#x5bf9;" d="M942 605 l0 -74 l-127 0 l0 -485 q0 -73 -31.5 -102 q-31.5 -29 -122.5 -35 l-62 -4 l-25 79 l76 4 q56 3 71.5 18 q15.5 15 15.5 63 l0 462 l-282 0 l0 74 l282 0 l0 195 l78 -3 l0 -192 l127 0 ZM435 620 q-30 -181 -100 -332 q97 -139 148 -228 l-63 -56 q-41 79 -124 207 q-73 -132 -198 -278 l-60 48 q136 152 213 299 q-104 153 -169 230 l57 42 q54 -64 148 -195 q52 121 75 264 l-288 0 l0 73 l361 0 l0 -74 ZM669 227 l-61 -48 q-21 49 -67 124.5 q-46 75.5 -79 118.5 l56 37 q30 -36 77 -108.5 q47 -72.5 74 -123.5 Z" /><glyph glyph-name="Identity.11413" unicode="&#x5bfc;" d="M289 323 q-78 2 -106 26 q-28 24 -28 95 l0 313 l635 0 l0 -248 l-560 0 l0 -49 q0 -42 14.5 -54 q14.5 -12 66.5 -14 q195 -8 390 0 q48 2 67.5 8 q19.5 6 23.5 19 q9 26 13 63 l80 -38 q-6 -35 -19 -73 q-15 -44 -132 -48 q-223 -8 -445 0 ZM713 689 l-483 0 l0 -112 l483 0 l0 112 ZM932 219 l0 -69 l-188 0 l0 -115 q0 -74 -29 -98.5 q-29 -24.5 -121 -30.5 l-58 -4 l-27 73 l73 4 q55 3 71 18 q16 15 16 59 l0 94 l-410 0 q106 -64 176 -122 l-33 -71 q-72 70 -198 147 l36 46 l-190 0 l0 69 l619 0 l0 71 l75 -3 l0 -68 l188 0 Z" /><glyph glyph-name="Identity.11427" unicode="&#x5c0a;" d="M942 168 l0 -60 l-192 0 l0 -80 q0 -60 -23 -79 q-23 -19 -97 -24 l-71 -5 l-24 65 l75 4 q46 3 58 12.5 q12 9.5 12 44.5 l0 62 l-398 0 q92 -44 152 -91 l-28 -60 q-79 61 -177 111 l24 40 l-210 0 l0 60 l637 0 l0 64 l-534 0 l0 367 l213 0 l0 73 l-281 0 l0 57 l246 0 q-38 48 -60 70 l58 42 q13 -12 40.5 -44.5 q27.5 -32.5 35.5 -45.5 l-30 -22 l213 0 q49 58 76 105 l70 -30 q-28 -41 -56 -75 l239 0 l0 -57 l-292 0 l0 -73 l224 0 l0 -367 l-92 0 l0 -64 l192 0 ZM426 672 l0 -73 l126 0 l0 73 l-126 0 ZM358 546 l-144 0 l0 -159 l560 0 l0 46 l-135 0 q-48 0 -67.5 19.5 q-19.5 19.5 -19.5 67.5 l0 26 l-126 0 q-3 -53 -34 -87 q-31 -34 -110 -65 l-33 49 q60 22 83 43.5 q23 21.5 26 59.5 ZM774 546 l-156 0 l0 -8 q0 -32 10.5 -44 q10.5 -12 41.5 -12 l104 0 l0 64 ZM214 334 l0 -48 l560 0 l0 48 l-560 0 Z" /><glyph glyph-name="Identity.11432" unicode="&#x5c0f;" d="M533 30 q0 -61 -27 -83.5 q-27 -22.5 -106 -29.5 l-71 -6 l-30 81 q52 3 100 7 q34 3 43.5 14.5 q9.5 11.5 9.5 48.5 l0 728 l81 -3 l0 -757 ZM636 570 q133 -243 243 -509 l70 41 q-92 223 -245 501 l-68 -33 ZM319 570 q-29 -110 -92 -261 q-63 -151 -125 -245 l-76 35 q58 84 122 231.5 q64 147.5 94 262.5 l77 -23 Z" /><glyph glyph-name="Identity.11434" unicode="&#x5c11;" d="M446 802 l79 -3 l0 -591 l-79 0 l0 594 ZM672 684 q57 -61 138 -161 q81 -100 120 -158 l-57 -59 q-38 65 -118.5 167 q-80.5 102 -139.5 164 l57 47 ZM65 278 q49 66 115.5 189.5 q66.5 123.5 97.5 204.5 l72 -28 q-32 -86 -99.5 -213.5 q-67.5 -127.5 -118.5 -196.5 l-67 44 ZM55 -37 q192 53 315.5 107 q123.5 54 212 122.5 q88.5 68.5 173.5 173.5 l53 -55 q-140 -164 -294 -254.5 q-154 -90.5 -427 -170.5 l-33 77 Z" /><glyph glyph-name="Identity.11478" unicode="&#x5c3d;" d="M618 447 q86 -182 332 -298 l-43 -68 q-123 60 -221.5 157 q-98.5 97 -147.5 209 l-276 0 q-7 -140 -46 -242.5 q-39 -102.5 -123 -220.5 l-61 49 q91 131 123.5 231 q32.5 100 32.5 279 l0 213 l645 0 l0 -309 l-215 0 ZM756 681 l-492 0 l0 -160 l492 0 l0 160 ZM364 325 q56 -14 144.5 -46 q88.5 -32 137.5 -55 l-22 -73 q-87 51 -284 111 l24 63 ZM265 61 l25 67 q82 -18 221.5 -66 q139.5 -48 219.5 -85 l-25 -81 q-73 41 -211 91 q-138 50 -230 74 Z" /><glyph glyph-name="Identity.11483" unicode="&#x5c42;" d="M877 507 l-632 0 l0 -86 q0 -185 -29 -293 q-29 -108 -106 -239 l-75 34 q56 85 82 143 q26 58 40.5 148 q14.5 90 13.5 228 l-3 307 l709 0 l0 -242 ZM803 686 l-558 0 l0 -119 l558 0 l0 119 ZM860 343 l-560 0 l0 63 l560 0 l0 -63 ZM567 175 q-73 -99 -158 -168 q3 0 66.5 3 q63.5 3 139.5 6.5 q76 3.5 125 5.5 q-55 64 -80 88 l55 39 q38 -34 97 -103 q59 -69 92 -116 l-52 -56 q-16 26 -60 85 q-350 -15 -421 -21 q-68 -6 -82 -9 l-16 63 q33 13 58 34 q76 63 145 149 l-226 0 l0 65 l688 0 l0 -65 l-371 0 Z" /><glyph glyph-name="Identity.11511" unicode="&#x5c5e;" d="M859 581 l-652 0 l0 -129 q0 -188 -22.5 -296.5 q-22.5 -108.5 -87.5 -252.5 l-68 28 q64 128 87.5 237.5 q23.5 109.5 23.5 287.5 l0 303 l719 0 l0 -178 ZM794 703 l-587 0 l0 -69 l587 0 l0 69 ZM591 203 l274 0 l0 -198 q0 -54 -19.5 -72 q-19.5 -18 -87.5 -23 l-52 -4 l-20 56 l58 5 q39 4 48 11.5 q9 7.5 9 33.5 l0 141 l-210 0 l0 -87 q58 4 83 5 q-3 5 -10 18 q-7 13 -10 18 l44 20 q41 -64 65 -126 l-47 -24 q-12 31 -19 46 q-203 -16 -329 -19 l-3 52 q36 1 162 7 l0 90 l-204 0 l0 -240 l-66 0 l0 290 l270 0 l0 55 l-234 0 l0 156 l234 0 l0 54 q-126 -5 -276 -7 l-4 53 q396 7 605 27 l3 -53 q-101 -11 -264 -17 l0 -57 l238 0 l0 -156 l-238 0 l0 -55 ZM358 307 l169 0 l0 58 l-169 0 l0 -58 ZM764 365 l-173 0 l0 -58 l173 0 l0 58 Z" /><glyph glyph-name="Identity.11657" unicode="&#x5cf0;" d="M715 519 q100 -48 230 -70 l-27 -64 q-162 35 -266 95 q-100 -54 -248 -97 l-33 56 q135 31 224 79 q-51 38 -93 89 q-31 -35 -78 -75 l-45 49 q58 47 112.5 115 q54.5 68 83.5 126 l67 -18 q-24 -44 -50 -83 l262 0 l0 -59 q-57 -84 -139 -143 ZM308 75 l0 564 l61 -2 l0 -628 l-294 -10 l0 636 l59 -2 l0 -566 l60 3 l0 721 l60 -2 l0 -716 l54 2 ZM545 657 q39 -57 110 -103 q68 45 120 110 l-224 0 l-6 -7 ZM683 155 l0 -76 l228 0 l0 -59 l-228 0 l0 -128 l-68 0 l0 128 l-220 0 l0 59 l220 0 l0 76 l-185 0 l0 59 l185 0 l0 73 l-199 0 l0 60 l199 0 l0 80 l68 -3 l0 -77 l202 0 l0 -60 l-202 0 l0 -73 l188 0 l0 -59 l-188 0 Z" /><glyph glyph-name="Identity.11895" unicode="&#x5dde;" d="M71 -59 q112 111 146.5 213 q34.5 102 34.5 317 l0 327 l72 -3 l0 -327 q0 -229 -38 -344.5 q-38 -115.5 -153 -230.5 l-62 48 ZM780 798 l74 -3 l0 -885 l-74 0 l0 888 ZM510 774 l74 -3 l0 -843 l-74 0 l0 846 ZM49 265 q58 132 89 307 l63 -15 q-31 -166 -89 -314 l-63 22 ZM659 569 q30 -55 62.5 -134.5 q32.5 -79.5 51.5 -140.5 l-64 -28 q-47 153 -111 274 l61 29 ZM390 568 q61 -126 112 -274 l-64 -29 q-45 146 -108 275 l60 28 Z" /><glyph glyph-name="Identity.11902" unicode="&#x5de5;" d="M536 43 l391 0 l0 -76 l-868 0 l0 76 l392 0 l0 599 l-324 0 l0 79 l733 0 l0 -79 l-324 0 l0 -599 Z" /><glyph glyph-name="Identity.11911" unicode="&#x5dee;" d="M914 311 l-493 0 q-28 -51 -69 -101 l474 0 l0 -66 l-252 0 l0 -144 l336 0 l0 -65 l-767 0 l0 65 l350 0 l0 144 l-203 0 l0 2 q-88 -80 -226 -151 l-41 59 q211 99 311 257 l-269 0 l0 63 l304 0 q21 43 36 92 l-263 0 l0 62 l280 0 q8 30 12 60 q0 1 1 5.5 q1 4.5 2 11.5 q1 7 2 13 l-337 0 l0 62 l228 0 q-44 63 -83 104 l59 39 q54 -52 98 -120 l-29 -23 l186 0 q51 65 90 143 l71 -25 q-27 -51 -73 -118 l230 0 l0 -62 l-365 0 q-4 -26 -4 -28 l-12 -62 l342 0 l0 -62 l-357 0 q-13 -46 -32 -92 l463 0 l0 -63 Z" /><glyph glyph-name="Identity.11937" unicode="&#x5e08;" d="M268 415 l0 383 l68 -2 l0 -375 q0 -210 -38.5 -314 q-38.5 -104 -159.5 -214 l-55 51 q120 103 152.5 189 q32.5 86 32.5 282 ZM927 677 l-248 0 l0 -136 l199 0 l0 -397 q0 -58 -19 -78 q-19 -20 -79 -27 l-44 -5 l-22 73 l44 4 q34 3 42.5 13 q8.5 10 8.5 47 l0 300 l-130 0 l0 -567 l-69 0 l0 567 l-120 0 l0 -428 l-69 0 l0 498 l189 0 l0 136 l-222 0 l0 67 l539 0 l0 -67 ZM170 731 l0 -598 l-69 0 l0 600 l69 -2 Z" /><glyph glyph-name="Identity.12044" unicode="&#x5e73;" d="M931 298 l0 -75 l-400 0 l0 -323 l-78 0 l0 323 l-401 0 l0 75 l401 0 l0 378 l-340 0 l0 74 l758 0 l0 -74 l-340 0 l0 -378 l400 0 ZM208 620 q32 -41 81.5 -114.5 q49.5 -73.5 78.5 -123.5 l-64 -39 q-27 51 -75.5 124.5 q-48.5 73.5 -80.5 113.5 l60 39 ZM609 381 q37 35 85.5 110.5 q48.5 75.5 72.5 128.5 l63 -38 q-27 -49 -76.5 -125.5 q-49.5 -76.5 -82.5 -115.5 l-62 40 Z" /><glyph glyph-name="Identity.12045" unicode="&#x5e74;" d="M918 211 l0 -73 l-357 0 l0 -222 l-73 0 l0 222 l-448 0 l0 73 l148 0 l0 267 l300 0 l0 171 l-234 0 q-68 -110 -168 -216 l-50 60 q149 149 226 335 l79 -15 q-19 -42 -45 -92 l583 0 l0 -72 l-318 0 l0 -171 l293 0 l0 -70 l-293 0 l0 -197 l357 0 ZM261 211 l227 0 l0 197 l-227 0 l0 -197 Z" /><glyph glyph-name="Identity.12067" unicode="&#x5e8a;" d="M208 607 l0 -230 q0 -162 -25 -267 q-25 -105 -92 -228 l-73 29 q66 108 89.5 201.5 q23.5 93.5 23.5 261.5 l0 307 l384 0 q-15 52 -38 115 l74 14 q18 -43 44 -129 l318 0 l0 -74 l-705 0 ZM616 369 q108 -192 329 -328 l-53 -66 q-184 128 -290 289 l0 -390 l-77 0 l0 388 q-108 -162 -291 -296 l-52 61 q116 77 194.5 159 q78.5 82 135.5 183 l-250 0 l0 72 l263 0 l0 131 l77 -3 l0 -128 l283 0 l0 -72 l-269 0 Z" /><glyph glyph-name="Identity.12085" unicode="&#x5e9c;" d="M469 588 q-30 -76 -65 -138 l0 -548 l-70 0 l0 436 q-33 -48 -72 -93 l-49 44 q-4 -121 -26.5 -203 q-22.5 -82 -76.5 -187 l-72 33 q64 109 83.5 200 q19.5 91 19.5 248 l0 313 l366 0 q-15 54 -33 100 l74 14 q16 -40 40 -114 l329 0 l0 -69 l-702 0 l0 -236 q0 -57 -1 -83 q120 123 181 301 l74 -18 ZM931 453 l0 -69 l-125 0 l0 -354 q0 -67 -28.5 -92 q-28.5 -25 -113.5 -31 l-57 -4 l-24 72 l69 4 q51 3 66 17.5 q15 14.5 15 57.5 l0 330 l-289 0 l0 69 l289 0 l0 142 l73 -3 l0 -139 l125 0 ZM655 152 l-56 -47 q-42 93 -123 203 l53 37 q26 -32 65.5 -93.5 q39.5 -61.5 60.5 -99.5 Z" /><glyph glyph-name="Identity.12102" unicode="&#x5ead;" d="M208 637 l0 -258 q0 -174 -24 -271 q-24 -97 -93 -215 l-62 33 q65 106 88.5 199 q23.5 93 23.5 246 l0 329 l352 0 q-17 59 -32 96 l74 14 q18 -44 38 -110 l335 0 l0 -63 l-700 0 ZM893 298 l-160 0 l0 -136 l143 0 l0 -64 l-359 0 l0 64 l151 0 l0 136 l-160 0 l0 65 l160 0 l0 113 q-89 -10 -152 -13 l-5 61 q185 9 353 49 l12 -61 q-68 -16 -143 -27 l0 -122 l160 0 l0 -65 ZM625 11 q157 -9 313 0 l-13 -71 q-147 -6 -295 0 q-172 6 -261 79 q-46 -56 -134 -124 l-43 53 q86 65 131 117 q-49 61 -86 163 l54 22 q29 -84 71 -135 q42 64 63 167 l-166 0 l0 58 q83 71 150 147 l-160 0 l0 62 l240 0 l0 -63 q-84 -91 -147 -143 l143 0 l0 -60 q-30 -138 -78 -212 q72 -52 218 -60 Z" /><glyph glyph-name="Identity.12140" unicode="&#x5ed3;" d="M917 720 l0 -66 l-716 0 l0 -255 q0 -187 -22.5 -284 q-22.5 -97 -82.5 -208 l-67 33 q60 109 81.5 198 q21.5 89 21.5 253 l0 329 l360 0 q-15 53 -28 83 l70 14 q13 -31 34 -97 l349 0 ZM428 645 q8 -19 30 -79 l153 0 l0 -57 l-378 0 l0 57 l156 0 q-16 46 -24 65 l63 14 ZM837 313 q47 -62 65.5 -105.5 q18.5 -43.5 18.5 -87.5 q0 -63 -26.5 -88.5 q-26.5 -25.5 -92.5 -30.5 l-42 -3 l-18 63 l49 2 q37 2 52 17.5 q15 15.5 15 54.5 q0 58 -90 166 q46 120 66 212 l-123 0 l0 -608 l-64 0 l0 670 l253 0 l0 -62 q-28 -114 -63 -200 ZM270 461 l297 0 l0 -155 l-297 0 l0 155 ZM506 357 l0 55 l-176 0 l0 -55 l176 0 ZM608 103 l2 -28 q-45 -6 -150 -15 l0 -57 q0 -49 -20.5 -66 q-20.5 -17 -85.5 -23 l-43 -4 l-21 59 l50 4 q38 2 47.5 10.5 q9.5 8.5 9.5 38.5 l0 33 q-136 -10 -187 -12 l-8 57 q85 3 195 11 l0 42 q39 19 93 53 l-240 0 l0 54 l324 0 l0 -59 q-62 -44 -114 -69 l0 -17 q103 9 145 16 l3 -28 Z" /><glyph glyph-name="Identity.12200" unicode="&#x5f0f;" d="M851 165 l64 -30 q-6 -40 -22 -102 q-18 -67 -43 -93 q-25 -26 -61 -26 q-74 0 -134 107 q-88 158 -109 540 l-483 0 l0 73 l480 0 l-6 169 l79 -3 q0 -75 4 -166 l173 0 q-45 69 -104 126 l50 42 q23 -19 58.5 -61 q35.5 -42 55.5 -71 l-34 -36 l95 0 l0 -73 l-290 0 q28 -384 107 -516 q27 -45 59 -45 q13 0 23.5 15.5 q10.5 15.5 20.5 58.5 q14 61 17 91 ZM544 112 l1 -40 l1 -34 q-283 -44 -482 -66 l-12 73 q111 12 211 26 l0 263 l-170 0 l0 71 l416 0 l0 -71 l-168 0 l0 -253 q137 20 203 31 Z" /><glyph glyph-name="Identity.12243" unicode="&#x5f3a;" d="M937 -78 l-62 -36 q-13 36 -36 87 q-261 -24 -511 -38 l-10 70 q79 2 267 12 l0 138 l-202 0 l0 254 l202 0 l0 93 l-166 0 l0 247 l411 0 l0 -247 l-171 0 l0 -93 l207 0 l0 -254 l-207 0 l0 -133 l151 11 q-29 57 -41 77 l57 27 q68 -112 111 -215 ZM163 459 l-10 -146 l158 0 l-16 -280 q-4 -62 -33 -83.5 q-29 -21.5 -106 -26.5 l-49 -3 l-20 70 l67 4 q48 3 59 15.5 q11 12.5 14 56.5 q6 70 10 180 l-158 0 l21 279 l146 0 l0 149 l-180 0 l0 70 l252 0 l0 -285 l-155 0 ZM488 689 l0 -127 l273 0 l0 127 l-273 0 ZM452 215 l133 0 l0 133 l-133 0 l0 -133 ZM799 348 l-140 0 l0 -133 l140 0 l0 133 Z" /><glyph glyph-name="Identity.12283" unicode="&#x5f62;" d="M582 500 l-41 61 q68 43 144.5 107.5 q76.5 64.5 129.5 125.5 l50 -50 q-54 -63 -131 -129 q-77 -66 -152 -115 ZM591 338 l-132 0 l0 -427 l-70 0 l0 427 l-141 0 q-4 -159 -29.5 -242 q-25.5 -83 -100.5 -194 l-65 39 q75 102 98.5 175.5 q23.5 73.5 26.5 221.5 l-132 0 l0 70 l133 0 l0 12 l0 250 l-92 0 l0 71 l470 0 l0 -71 l-98 0 l0 -262 l132 0 l0 -70 ZM249 408 l140 0 l0 262 l-140 0 l0 -248 l0 -14 ZM539 272 q79 50 157.5 118 q78.5 68 137.5 137 l51 -52 q-127 -145 -304 -265 l-42 62 ZM870 272 l49 -51 q-166 -199 -378 -318 l-44 64 q203 107 373 305 Z" /><glyph glyph-name="Identity.12336" unicode="&#x5f97;" d="M334 759 q-41 -63 -108 -135.5 q-67 -72.5 -133 -125.5 l-49 59 q67 49 130 116.5 q63 67.5 100 126.5 l60 -41 ZM851 756 l0 -317 l-457 0 l0 317 l457 0 ZM776 698 l-308 0 l0 -72 l308 0 l0 72 ZM468 497 l308 0 l0 71 l-308 0 l0 -71 ZM330 532 q-35 -66 -85 -136 l0 -495 l-68 0 l0 408 q-49 -57 -105 -112 l-47 60 q65 55 138.5 146 q73.5 91 110.5 163 l56 -34 ZM939 227 l0 -63 l-133 0 l0 -144 q0 -65 -25.5 -87 q-25.5 -22 -102.5 -27 l-50 -4 l-26 74 l63 4 q45 3 56.5 15.5 q11.5 12.5 11.5 53.5 l0 115 l-427 0 l0 63 l427 0 l0 82 l-379 -1 l0 65 l554 0 l0 -63 l-102 0 l0 -83 l133 0 ZM450 158 q101 -75 142 -119 l-48 -60 q-42 53 -139 129 l45 50 Z" /><glyph glyph-name="Identity.12355" unicode="&#x5faa;" d="M317 765 q-36 -60 -102 -139 q-66 -79 -127 -139 l-50 56 q56 53 122.5 132 q66.5 79 98.5 134 l58 -44 ZM938 506 l-239 0 l0 -94 l170 0 l0 -511 l-67 0 l0 47 l-257 0 l0 -49 l-67 0 l0 513 l151 0 l0 94 l-211 0 l0 -66 q0 -179 -20 -292.5 q-20 -113.5 -72 -239.5 l-64 33 q51 122 69 227.5 q18 105.5 18 286.5 l0 268 q252 11 532 57 l16 -69 q-81 -14 -198 -28 l0 -118 l239 0 l0 -59 ZM418 565 l211 0 l0 111 q-109 -13 -211 -18 l0 -93 ZM317 533 q-36 -71 -86 -144 l0 -484 l-68 0 l0 393 q-50 -61 -99 -110 l-43 58 q153 153 235 322 l61 -35 ZM802 277 l0 78 l-257 0 l0 -78 l257 0 ZM545 220 l0 -77 l257 0 l0 77 l-257 0 ZM545 6 l257 0 l0 80 l-257 0 l0 -80 Z" /><glyph glyph-name="Identity.12380" unicode="&#x5fc3;" d="M442 802 q43 -56 106 -154 q63 -98 100 -170 l-66 -46 q-41 81 -101 180 q-60 99 -99 151 l60 39 ZM383 578 l0 -514 q0 -22 8.5 -36 q8.5 -14 35.5 -18 q34 -4 90 -3.5 q56 0.5 93 4.5 q29 3 38.5 15.5 q9.5 12.5 13.5 39.5 q4 24 7 51.5 q3 27.5 3 43.5 l1 16 l73 -27 q-4 -59 -14 -119 q-8 -53 -30 -72 q-22 -19 -67 -24 q-38 -4 -114 -4 q-76 0 -128 4 q-50 4 -70.5 33 q-20.5 29 -20.5 84 l0 532 l81 -6 ZM793 530 q30 -57 76 -170 q46 -113 72 -202 l-75 -37 q-26 94 -68 206.5 q-42 112.5 -71 173.5 l66 29 ZM218 496 q-40 -255 -93 -412 l-80 20 q62 167 96 411 l77 -19 Z" /><glyph glyph-name="Identity.12430" unicode="&#x5ff5;" d="M34 519 q275 106 422 280 l73 0 q153 -177 418 -275 l-36 -66 q-275 109 -418 276 q-141 -163 -419 -280 l-40 65 ZM454 628 q76 -71 115 -128 l-51 -48 q-53 79 -112 135 l48 41 ZM769 376 q-61 -99 -118 -162 l-59 43 q42 44 90 121 l-501 0 l0 65 l588 0 l0 -67 ZM472 315 q74 -88 130 -181 l-58 -46 q-38 75 -125 190 l53 37 ZM363 59 q0 -33 13.5 -46.5 q13.5 -13.5 47.5 -15.5 q74 -5 147 0 q35 2 50.5 12 q15.5 10 20.5 31 q10 41 13 91 l69 -29 q-4 -61 -19 -115 q-8 -28 -35.5 -41 q-27.5 -13 -88.5 -16 q-90 -4 -180 0 q-58 3 -84 27 q-26 24 -26 75 l0 215 l72 -2 l0 -186 ZM800 235 q29 -38 69.5 -109.5 q40.5 -71.5 61.5 -118.5 l-65 -41 q-18 49 -57.5 121.5 q-39.5 72.5 -69.5 112.5 l61 35 ZM50 -12 q70 112 112 246 l69 -20 q-53 -146 -116 -257 l-65 31 Z" /><glyph glyph-name="Identity.12442" unicode="&#x6001;" d="M37 357 q176 55 262.5 115.5 q86.5 60.5 118.5 141.5 l-335 0 l0 70 l356 0 q8 42 13 120 l76 -7 q-4 -57 -13 -113 l386 0 l0 -70 l-357 0 q119 -178 412 -255 l-34 -70 q-306 87 -437 291 q-26 -59 -70 -105 q87 -63 132 -111 l-46 -60 q-21 26 -62.5 63 q-41.5 37 -75.5 61 q-98 -77 -285 -144 l-41 73 ZM443 265 l52 39 q68 -76 117 -162 l-56 -47 q-46 92 -113 170 ZM643 34 q9 40 12 85 l67 -24 q-7 -64 -21 -111 q-9 -28 -33.5 -40.5 q-24.5 -12.5 -85.5 -15.5 q-92 -5 -184 0 q-60 3 -84.5 27 q-24.5 24 -24.5 81 l0 243 l74 -2 l0 -215 q0 -38 11.5 -51.5 q11.5 -13.5 46.5 -15.5 q75 -5 150 0 q37 2 52.5 10.5 q15.5 8.5 19.5 28.5 ZM714 238 l56 37 q35 -43 86 -124 q51 -81 76 -132 l-63 -46 q-23 55 -71.5 137 q-48.5 82 -83.5 128 ZM52 0 q68 116 116 261 l66 -21 q-68 -186 -119 -274 l-63 34 Z" /><glyph glyph-name="Identity.12455" unicode="&#x600e;" d="M258 642 q-67 -127 -149 -227 l-55 50 q125 149 199 347 l70 -22 q-20 -52 -32 -78 l604 0 l0 -70 l-480 0 l0 -94 l413 0 l0 -67 l-413 0 l0 -96 l435 0 l0 -69 l-435 0 l0 -61 l-75 0 l0 387 l-82 0 ZM429 217 l50 44 q25 -22 69.5 -68.5 q44.5 -46.5 64.5 -72.5 l-53 -57 q-18 32 -60.5 81 q-42.5 49 -70.5 73 ZM792 232 q37 -47 85 -119 q48 -72 70 -118 l-60 -45 q-23 52 -69 126 q-46 74 -83 119 l57 37 ZM641 34 q9 37 13 84 l69 -24 q-6 -55 -20 -111 q-8 -29 -34.5 -42.5 q-26.5 -13.5 -88.5 -16.5 q-92 -5 -185 0 q-61 3 -86 27 q-25 24 -25 81 l0 198 l73 -4 l0 -165 q0 -38 11.5 -52 q11.5 -14 47.5 -16 q77 -5 154 0 q36 2 51 11 q15 9 20 30 ZM30 -16 q24 33 64.5 108 q40.5 75 58.5 119 l62 -22 q-18 -47 -58 -124.5 q-40 -77.5 -67 -116.5 l-60 36 Z" /><glyph glyph-name="Identity.12462" unicode="&#x6015;" d="M631 662 l237 0 l0 -757 l-74 0 l0 67 l-329 0 l0 -70 l-73 0 l0 581 l-48 -43 q-35 79 -85 145 l0 -682 l-73 0 l0 899 l73 -5 l0 -183 l38 26 q69 -91 95 -136 l0 158 l159 0 q31 82 40 151 l82 -12 q-13 -66 -42 -139 ZM21 282 q39 136 63 357 l67 -9 q-29 -217 -61 -361 l-69 13 ZM794 589 l-329 0 l0 -233 l329 0 l0 233 ZM465 42 l329 0 l0 243 l-329 0 l0 -243 Z" /><glyph glyph-name="Identity.12480" unicode="&#x6027;" d="M391 521 l-51 -48 q-34 60 -76 112 l0 -680 l-72 0 l0 901 l72 -3 l0 -188 l35 28 q63 -73 92 -122 ZM689 21 l250 0 l0 -71 l-596 0 l0 71 l270 0 l0 233 l-218 0 l0 72 l218 0 l0 202 l-145 0 q-24 -92 -53 -170 l-70 26 q68 170 96 370 l70 -10 q-10 -72 -24 -139 l126 0 l0 197 l76 -3 l0 -194 l223 0 l0 -77 l-223 0 l0 -202 l200 0 l0 -72 l-200 0 l0 -233 ZM27 282 q39 136 63 357 l67 -9 q-29 -217 -61 -361 l-69 13 Z" /><glyph glyph-name="Identity.12539" unicode="&#x6062;" d="M549 230 q-18 58 -65 162 q-46 -202 -178 -407 l-60 44 q94 140 140 273 q46 133 58 318 l-106 0 l0 70 l110 0 q4 71 4 118 l70 -2 l-4 -116 l405 0 l0 -70 l-409 0 l0 -1 q-4 -77 -17 -154 l13 6 q21 -36 50.5 -102 q29.5 -66 42.5 -105 l-54 -34 ZM321 448 q-26 55 -77 121 l0 -664 l-71 0 l0 901 l71 -3 l0 -197 l29 24 q56 -60 100 -136 l-52 -46 ZM26 282 q39 136 63 357 l67 -9 q-29 -217 -61 -361 l-69 13 ZM697 391 q17 -141 79.5 -240 q62.5 -99 179.5 -174 l-47 -62 q-181 120 -236 310 q-27 -93 -89.5 -168 q-62.5 -75 -171.5 -150 l-48 56 q147 92 207 194 q60 102 60 264 l0 151 l66 -2 l0 -150 l0 -29 ZM782 233 l-52 30 q25 37 60 109 q35 72 50 118 l59 -19 q-19 -53 -54.5 -127 q-35.5 -74 -62.5 -111 Z" /><glyph glyph-name="Identity.12565" unicode="&#x607c;" d="M678 682 l258 0 l0 -68 l-597 0 l0 68 l263 0 q-23 76 -38 114 l74 14 q6 -15 40 -128 ZM240 623 l26 21 q20 -22 50 -65.5 q30 -43.5 44 -70.5 l-49 -48 q-17 41 -71 121 l0 -676 l-68 0 l0 897 l68 -2 l0 -177 ZM19 282 q37 129 63 369 l67 -9 q-33 -246 -61 -373 l-69 13 ZM485 65 l-49 47 q83 100 160 224 q-81 131 -144 206 l51 38 q57 -68 131 -181 q60 105 96 185 l60 -26 q-51 -112 -116 -220 q85 -135 129 -229 l-54 -48 q-36 81 -115 213 q-77 -118 -149 -209 ZM812 28 l0 482 l67 -2 l0 -597 l-67 0 l0 48 l-447 0 l0 548 l67 -3 l0 -476 l380 0 Z" /><glyph glyph-name="Identity.12609" unicode="&#x60a8;" d="M344 505 l-53 41 q110 127 169 269 l67 -15 q-15 -37 -43 -90 l414 0 l0 -66 q-34 -70 -74 -124 l-64 30 q34 44 60 91 l-376 0 q-45 -71 -100 -136 ZM318 793 q-34 -87 -81 -165 l0 -387 l-68 0 l0 285 q-47 -62 -94 -110 l-44 57 q67 67 126 161 q59 94 87 174 l74 -15 ZM645 351 q0 -53 -25.5 -74 q-25.5 -21 -92.5 -26 l-44 -3 l-24 68 l57 4 q38 3 48.5 14 q10.5 11 10.5 45 l0 220 l70 -2 l0 -246 ZM496 495 q-82 -134 -176 -225 l-51 44 q101 96 168 214 l59 -33 ZM751 522 q36 -34 89 -100.5 q53 -66.5 79 -109.5 l-54 -49 q-25 47 -75.5 115.5 q-50.5 68.5 -86.5 104.5 l48 39 ZM492 236 q21 -19 55 -60.5 q34 -41.5 52 -67.5 l-53 -53 q-14 30 -47 74 q-33 44 -55 65 l48 42 ZM777 224 q34 -35 83.5 -104.5 q49.5 -69.5 76.5 -116.5 l-57 -50 q-22 48 -70 118.5 q-48 70.5 -85 113.5 l52 39 ZM646 27 q10 37 13 83 l67 -28 q-9 -71 -19 -109 q-7 -26 -34.5 -37 q-27.5 -11 -82.5 -14 q-96 -6 -191 0 q-61 4 -84.5 26 q-23.5 22 -23.5 87 l0 180 l69 -4 l0 -156 q0 -38 12.5 -50 q12.5 -12 49.5 -15 q77 -6 154 0 q37 3 51.5 10.5 q14.5 7.5 18.5 26.5 ZM44 -21 q27 35 66 105 q39 70 57 116 l62 -26 q-19 -49 -57 -120.5 q-38 -71.5 -66 -111.5 l-62 37 Z" /><glyph glyph-name="Identity.12643" unicode="&#x60ca;" d="M922 698 l0 -67 l-569 0 l0 67 l249 0 q-17 60 -35 104 l69 13 q15 -34 41 -117 l245 0 ZM330 445 q-24 63 -80 137 l0 -677 l-70 0 l0 897 l70 -2 l0 -190 l35 25 q64 -75 99 -142 l-54 -48 ZM28 282 q35 126 61 358 l62 -9 q-32 -241 -59 -362 l-64 13 ZM856 256 l-184 0 l0 -239 q0 -57 -24 -78.5 q-24 -21.5 -93 -25.5 l-46 -4 l-22 71 l52 4 q38 3 48.5 14.5 q10.5 11.5 10.5 45.5 l0 212 l-199 0 l0 279 l457 0 l0 -279 ZM468 470 l0 -147 l318 0 l0 147 l-318 0 ZM797 210 q34 -37 86 -111.5 q52 -74.5 76 -118.5 l-55 -50 q-28 55 -78 130 q-50 75 -83 110 l54 40 ZM444 208 l60 -33 q-93 -163 -168 -246 l-57 48 q97 102 165 231 Z" /><glyph glyph-name="Identity.12728" unicode="&#x611f;" d="M899 253 q-28 -65 -89 -65 q-65 0 -122 77 q-6 8 -18 26 q-39 -39 -88 -78 l-49 52 q63 48 104 90 q-46 105 -72 277 l-352 0 l0 -102 q0 -125 -23.5 -205 q-23.5 -80 -88.5 -173 l-64 38 q68 90 88 159.5 q20 69.5 20 203.5 l0 140 l412 0 q-11 95 -12 110 l69 -2 q2 -29 12 -108 l126 0 q-45 43 -80 66 l38 43 q46 -33 106 -86 l-16 -23 l98 0 l0 -61 l-262 0 q23 -139 52 -218 q50 64 107 183 l61 -26 q-79 -152 -137 -224 q12 -20 30 -44 q32 -40 61 -40 q27 0 43 49 q15 47 18 73 l59 -29 q-14 -63 -31 -103 ZM556 551 l0 -55 l-312 0 l0 55 l312 0 ZM524 442 l0 -203 l-259 0 l0 203 l259 0 ZM465 292 l0 100 l-142 0 l0 -100 l142 0 ZM474 221 q70 -66 115 -123 l-48 -59 q-18 30 -53.5 71.5 q-35.5 41.5 -59.5 63.5 l46 47 ZM633 21 q3 8 16 77 l66 -24 q-13 -74 -22 -101 q-7 -25 -33 -37 q-26 -12 -88 -15 q-91 -5 -181 0 q-61 3 -86 24 q-25 21 -25 72 l0 156 l69 -4 l0 -125 q0 -33 13 -44 q13 -11 49 -13 q75 -5 151 0 q37 2 51.5 9.5 q14.5 7.5 19.5 24.5 ZM775 171 q30 -29 74.5 -85 q44.5 -56 68.5 -94 l-55 -50 q-23 41 -66.5 99 q-43.5 58 -74.5 90 l53 40 ZM57 -34 q58 79 113 202 l60 -23 q-45 -119 -105 -212 l-68 33 Z" /><glyph glyph-name="Identity.12775" unicode="&#x614e;" d="M838 143 l108 0 l0 -55 l-654 0 l0 55 l96 0 l0 448 l187 0 l0 70 l-222 0 l0 58 l222 0 l0 84 l69 -2 l0 -82 l254 0 l0 -58 l-254 0 l0 -70 l194 0 l0 -448 ZM322 454 q-26 62 -82 131 l0 -681 l-66 0 l0 890 l66 -2 l0 -195 l42 33 q54 -63 92 -130 l-52 -46 ZM26 282 q35 126 61 358 l61 -9 q-32 -241 -59 -362 l-63 13 ZM771 536 l-315 0 l0 -58 l315 0 l0 58 ZM771 367 l0 58 l-315 0 l0 -58 l315 0 ZM771 314 l-315 0 l0 -59 l315 0 l0 59 ZM456 203 l0 -60 l315 0 l0 60 l-315 0 ZM283 -46 q49 16 126.5 54 q77.5 38 120.5 68 l33 -53 q-112 -69 -250 -125 l-30 56 ZM664 18 l25 54 q142 -55 239 -111 l-27 -64 q-41 29 -114 66 q-73 37 -123 55 Z" /><glyph glyph-name="Identity.12970" unicode="&#x6211;" d="M921 454 l-307 0 q12 -145 31 -236 q103 88 173 200 l58 -38 q-90 -136 -211 -238 q19 -56 48 -101 q34 -50 67 -50 q17 0 27 8 q10 8 20 33 q16 40 28 113 l63 -40 q-18 -73 -43 -130 q-29 -65 -95 -65 q-75 0 -131 95 q-24 40 -41 92 q-94 -69 -212 -128 l-44 68 q135 61 234 134 q-29 113 -44 283 l-211 0 l0 -156 q84 17 155 36 l5 -37 l3 -31 q-73 -19 -163 -39 l0 -193 q0 -61 -27 -83.5 q-27 -22.5 -107 -31.5 l-52 -6 l-22 73 l65 6 q48 4 59.5 16 q11.5 12 11.5 48 l0 156 q-122 -25 -183 -34 l-19 70 q81 12 202 35 l0 171 l-203 0 l0 68 l203 0 l0 134 q-87 -14 -164 -20 l-5 65 q228 22 363 65 l12 -66 q-57 -17 -134 -31 l0 -147 l206 0 q0 12 -1.5 38.5 q-1.5 26.5 -2.5 40.5 l-8 201 l71 -2 q0 -51 8 -195 q1 -13 2.5 -41 q1.5 -28 2.5 -42 l312 0 l0 -68 ZM807 557 q-24 37 -73 89 q-49 52 -84 79 l46 47 q32 -25 82.5 -74.5 q50.5 -49.5 78.5 -83.5 l-50 -57 Z" /><glyph glyph-name="Identity.13016" unicode="&#x623f;" d="M220 480 l0 -53 q0 -187 -26.5 -292.5 q-26.5 -105.5 -94.5 -233.5 l-70 29 q69 122 93.5 218 q24.5 96 24.5 264 l0 297 l336 0 q-12 36 -30 82 l72 19 q28 -70 38 -101 l300 0 l0 -229 l-643 0 ZM792 642 l-572 0 l0 -97 l572 0 l0 97 ZM464 306 q-1 -9 -1.5 -30 q-0.5 -21 -0.5 -31 q0 -5 -0.5 -16 q-0.5 -11 -1.5 -16 l367 0 q-2 -75 -16 -185 q-6 -65 -38 -89.5 q-32 -24.5 -124 -28.5 l-62 -3 l-25 68 l79 4 q59 2 76.5 15.5 q17.5 13.5 22.5 54.5 q1 8 5 49.5 q4 41.5 5 49.5 l-299 0 q-15 -79 -60.5 -136 q-45.5 -57 -146.5 -124 l-57 54 q120 70 159 131.5 q39 61.5 42 173.5 q0 10 0.5 30 q0.5 20 1.5 29 l-142 0 l0 62 l300 0 q-9 30 -28 78 l64 17 q21 -48 36 -95 l308 0 l0 -62 l-464 0 Z" /><glyph glyph-name="Identity.13017" unicode="&#x6240;" d="M940 468 l0 -70 l-140 0 l0 -491 l-74 0 l0 491 l-149 0 q-2 -183 -34.5 -284.5 q-32.5 -101.5 -130.5 -221.5 l-60 53 q96 109 126 200 q30 91 30 276 l0 281 q205 19 362 73 l21 -71 q-147 -50 -314 -68 l0 -168 l363 0 ZM414 208 l-217 0 q-7 -99 -27 -164 q-20 -65 -65 -151 l-69 38 q60 109 78.5 196 q18.5 87 18.5 279 l0 308 q189 19 316 58 l18 -71 q-108 -33 -264 -53 l0 -118 l211 0 l0 -322 ZM342 461 l-139 0 l0 -57 q0 -51 -2 -125 l141 0 l0 182 Z" /><glyph glyph-name="Identity.13018" unicode="&#x6241;" d="M858 473 l-629 0 l0 -15 q0 -179 -34 -298.5 q-34 -119.5 -105 -239.5 l-68 35 q74 115 105.5 227 q31.5 112 31.5 295 l0 234 l323 0 q-13 40 -31 84 l72 19 q19 -42 39 -103 l296 0 l0 -238 ZM787 643 l-557 0 q0 -53 -1 -101 l558 0 l0 101 ZM251 389 l615 0 l0 -383 q0 -55 -20 -75 q-20 -20 -77 -25 l-35 -3 l-23 69 l40 4 q30 3 39.5 12.5 q9.5 9.5 9.5 36.5 l0 103 l-122 0 l0 -194 l-64 0 l0 194 l-115 0 l0 -194 l-64 0 l0 194 l-118 0 l0 -223 l-66 0 l0 484 ZM317 192 l118 0 l0 132 l-118 0 l0 -132 ZM499 192 l115 0 l0 132 l-115 0 l0 -132 ZM678 192 l122 0 l0 132 l-122 0 l0 -132 Z" /><glyph glyph-name="Identity.13028" unicode="&#x624b;" d="M931 269 l0 -73 l-394 0 l0 -161 q0 -67 -26 -88.5 q-26 -21.5 -106 -28.5 l-71 -6 l-26 77 l72 5 q51 4 64 14.5 q13 10.5 13 52.5 l0 135 l-399 0 l0 73 l399 0 l0 153 l-322 0 l0 71 l322 0 l0 163 q-190 -13 -321 -13 l-9 70 q159 1 370.5 16 q211.5 15 345.5 35 l11 -71 q-125 -17 -317 -32 l0 -168 l311 0 l0 -71 l-311 0 l0 -153 l394 0 Z" /><glyph glyph-name="Identity.13036" unicode="&#x6253;" d="M428 409 l9 -71 q-52 -20 -143 -50 l0 -264 q0 -66 -23 -86.5 q-23 -20.5 -101 -28.5 l-49 -5 l-24 78 l57 4 q43 4 55 16 q12 12 12 50 l0 213 q-98 -30 -160 -46 l-23 75 q80 19 183 49 l0 205 l-149 0 l0 70 l149 0 l0 185 l73 -4 l0 -181 l135 0 l0 -70 l-135 0 l0 -183 q97 30 134 44 ZM940 727 l0 -72 l-184 0 l0 -614 q0 -67 -30.5 -92.5 q-30.5 -25.5 -118.5 -33.5 l-57 -5 l-27 78 l71 4 q54 4 69.5 17.5 q15.5 13.5 15.5 52.5 l0 593 l-235 0 l0 72 l496 0 Z" /><glyph glyph-name="Identity.13080" unicode="&#x627f;" d="M521 264 l0 -97 l172 0 l0 -65 l-172 0 l0 -82 q0 -68 -28.5 -91.5 q-28.5 -23.5 -110.5 -31.5 l-53 -5 l-22 72 l67 6 q50 5 63 16 q13 11 13 53 l0 63 l-173 0 l0 65 l173 0 l0 97 l-118 0 l0 66 l118 0 l0 94 l-118 0 l0 63 l118 0 l0 87 l200 100 l-475 0 l0 70 l611 0 l0 -67 l-265 -139 l0 -51 l112 0 l0 -63 l-112 0 l0 -94 l113 0 l0 -66 l-113 0 ZM752 337 q56 -182 198 -320 l-60 -53 q-107 119 -164.5 252 q-57.5 133 -77.5 340 l60 6 q9 -85 25 -153 q72 54 132 117 l47 -54 q-73 -73 -160 -135 ZM301 529 l0 -71 q-23 -155 -69 -264 q-46 -109 -145 -233 l-60 43 q92 104 138.5 215 q46.5 111 66.5 244 l-156 0 l0 66 l225 0 Z" /><glyph glyph-name="Identity.13081" unicode="&#x6280;" d="M943 -38 l-42 -71 q-165 64 -279 171 q-117 -100 -288 -166 l-49 68 q167 57 286 152 q-85 99 -139 235 l61 27 q50 -126 130 -216 q104 100 148 225 l-378 0 l0 67 l197 0 l0 141 l-212 0 l0 69 l212 0 l0 140 l73 -3 l0 -137 l234 0 l0 -69 l-234 0 l0 -141 l189 0 l0 -67 q-65 -161 -177 -276 q107 -95 268 -149 ZM359 335 q-34 -16 -105 -42 l0 -278 q0 -57 -20 -74.5 q-20 -17.5 -89 -24.5 l-49 -5 l-23 73 l61 6 q32 3 41 13.5 q9 10.5 9 46.5 l0 218 q-93 -33 -143 -47 l-22 69 q77 21 165 51 l0 208 l-115 0 l0 70 l115 0 l0 178 l70 -3 l0 -175 l95 0 l0 -70 l-95 0 l0 -184 q74 27 92 35 l13 -65 Z" /><glyph glyph-name="Identity.13117" unicode="&#x62a4;" d="M890 670 l0 -366 l-397 0 q-6 -136 -32.5 -221 q-26.5 -85 -91.5 -189 l-69 40 q75 107 99 200 q24 93 24 277 l0 259 l205 0 q-18 60 -42 111 l70 22 q25 -50 49 -133 l185 0 ZM377 347 q-32 -14 -114 -46 l0 -292 q0 -55 -23.5 -75 q-23.5 -20 -92.5 -25 l-45 -4 l-23 73 l50 4 q38 3 50.5 13.5 q12.5 10.5 12.5 39.5 l0 241 q-78 -28 -145 -47 l-16 73 q59 16 161 53 l0 195 l-122 0 l0 72 l122 0 l0 176 l71 -2 l0 -174 l113 0 l0 -72 l-113 0 l0 -169 q63 23 104 42 l6 -46 l4 -30 ZM818 376 l0 224 l-323 0 l0 -174 l0 -50 l323 0 Z" /><glyph glyph-name="Identity.13163" unicode="&#x62d2;" d="M255 797 l0 -180 l114 0 l0 -69 l-114 0 l0 -181 q71 25 104 39 l5 -39 l4 -34 q-59 -24 -113 -42 l0 -269 q0 -58 -23 -78 q-23 -20 -92 -26 l-45 -4 l-21 71 l50 4 q38 3 49.5 13 q11.5 10 11.5 42 l0 224 q-50 -16 -142 -42 l-16 72 q85 23 158 46 l0 204 l-125 0 l0 69 l125 0 l0 182 l70 -2 ZM483 11 l443 0 l0 -73 l-517 0 l0 806 l503 0 l0 -73 l-429 0 l0 -150 l370 0 l0 -337 l-370 0 l0 -173 ZM781 449 l-298 0 l0 -194 l298 0 l0 194 Z" /><glyph glyph-name="Identity.13186" unicode="&#x62e9;" d="M340 380 l8 -33 q-18 -8 -78 -33 l0 -290 q0 -52 -18 -71 q-18 -19 -73 -26 l-66 -8 l-25 71 l80 9 q20 2 26 13.5 q6 11.5 6 39.5 l0 233 q-126 -49 -145 -56 l-21 71 q62 23 166 65 l0 189 l-120 0 l0 70 l120 0 l0 173 l70 -4 l0 -169 l99 0 l0 -70 l-99 0 l0 -160 q13 5 34 14 q21 9 27 12 l9 -40 ZM698 499 q100 -47 254 -85 l-29 -63 q-190 54 -288 106 q-96 -57 -255 -108 l-29 59 q124 36 219 89 q-74 53 -150 160 l53 33 q69 -99 159 -154 q94 66 151 154 l-385 0 l0 64 l461 0 l0 -67 q-67 -118 -161 -188 ZM665 232 l0 -108 l253 0 l0 -65 l-253 0 l0 -157 l-71 0 l0 157 l-245 0 l0 65 l245 0 l0 108 l-191 0 l0 64 l191 0 l0 100 l71 -4 l0 -96 l200 0 l0 -64 l-200 0 Z" /><glyph glyph-name="Identity.13267" unicode="&#x633a;" d="M299 335 l-64 -29 l0 -289 q0 -56 -23 -77.5 q-23 -21.5 -85 -26.5 l-41 -3 l-21 68 l45 4 q35 3 47 14 q12 11 12 41 l0 240 q-85 -35 -122 -47 l-18 74 q38 11 140 52 l0 193 l-117 0 l0 68 l117 0 l0 193 l66 -2 l0 -191 l92 0 l0 -68 l-92 0 l0 -165 l54 25 l10 -74 ZM695 186 l0 220 l-125 0 l0 65 l125 0 l0 191 q-64 -11 -117 -17 l-7 65 q155 17 307 56 l16 -62 q-59 -15 -131 -29 l0 -204 l142 0 l0 -65 l-142 0 l0 -220 l134 0 l0 -64 l-323 0 l0 64 l121 0 ZM709 8 q114 -6 236 2 l-13 -71 q-121 -8 -235 -2 q-167 9 -259 110 q-46 -64 -124 -144 l-55 50 q91 83 137 151 q-51 86 -78 222 l55 16 q21 -104 59 -176 q47 97 54 228 l-156 0 l0 62 l146 217 l-145 0 l0 65 l221 0 l0 -66 l-145 -215 l141 0 l0 -64 q-18 -185 -74 -288 q78 -89 235 -97 Z" /><glyph glyph-name="Identity.13319" unicode="&#x636e;" d="M348 353 q-49 -23 -99 -44 l0 -290 q0 -61 -22.5 -81.5 q-22.5 -20.5 -91.5 -25.5 l-44 -4 l-19 68 l49 4 q37 3 48 13.5 q11 10.5 11 44.5 l0 243 q-94 -37 -134 -49 l-15 71 q44 13 149 54 l0 189 l-116 0 l0 69 l116 0 l0 181 l69 -2 l0 -179 l94 0 l0 -69 l-94 0 l0 -162 q45 19 86 39 l7 -40 l6 -30 ZM939 335 l-222 0 l0 -111 l156 0 l0 -325 l-67 0 l0 52 l-245 0 l0 -53 l-67 0 l0 326 l155 0 l0 111 l-195 0 q-7 -142 -33 -236 q-26 -94 -86 -192 l-64 38 q68 114 92 220.5 q24 106.5 24 300.5 l0 279 l502 0 l0 -242 l-433 0 l0 -46 q0 -42 -1 -61 l194 0 l0 84 l68 -2 l0 -82 l222 0 l0 -61 ZM819 681 l-363 0 l0 -115 l363 0 l0 115 ZM806 14 l0 146 l-245 0 l0 -146 l245 0 Z" /><glyph glyph-name="Identity.13417" unicode="&#x63d0;" d="M314 346 q-39 -18 -72 -31 l0 -304 q0 -54 -22.5 -74 q-22.5 -20 -85.5 -25 l-40 -4 l-21 71 l43 4 q33 3 44.5 13 q11.5 10 11.5 37 l0 254 q-108 -40 -140 -49 l-9 76 q51 14 149 50 l0 182 l-117 0 l0 70 l117 0 l0 179 l70 -2 l0 -177 l106 0 l0 -70 l-106 0 l0 -154 q10 4 67 28 l3 -45 l2 -29 ZM837 757 l0 -334 l-437 0 l0 334 l437 0 ZM766 697 l-296 0 l0 -77 l296 0 l0 77 ZM470 481 l296 0 l0 81 l-296 0 l0 -81 ZM680 -1 q128 -6 265 2 l-18 -69 q-125 -6 -248 -3 q-94 2 -150.5 32.5 q-56.5 30.5 -97.5 108.5 q-36 -86 -122 -174 l-55 46 q75 73 106 137 q31 64 44 167 l70 -8 q-7 -49 -18 -92 q27 -61 57.5 -91.5 q30.5 -30.5 76.5 -43.5 l0 277 l-266 0 l0 62 l591 0 l0 -62 l-253 0 l0 -101 l212 0 l0 -60 l-212 0 l0 -127 q3 0 9 -0.5 q6 -0.5 9 -0.5 Z" /><glyph glyph-name="Identity.13662" unicode="&#x64c5;" d="M924 722 l0 -57 l-624 0 l0 57 l275 0 q-10 37 -28 80 l69 12 q18 -42 32 -92 l276 0 ZM306 349 q-40 -19 -86 -38 l0 -298 q0 -56 -20.5 -76 q-20.5 -20 -79.5 -25 l-38 -4 l-20 69 l41 4 q31 3 41 12.5 q10 9.5 10 38.5 l0 252 q-78 -30 -115 -42 l-15 72 q45 13 130 46 l0 190 l-92 0 l0 70 l92 0 l0 184 l66 -2 l0 -182 l85 0 l0 -70 l-85 0 l0 -163 q24 11 72 33 l8 -37 l6 -34 ZM871 620 l0 -301 l-542 0 l0 301 l542 0 ZM806 369 l0 202 l-410 0 l0 -202 l410 0 ZM737 533 l0 -126 l-273 0 l0 126 l273 0 ZM683 447 l0 45 l-165 0 l0 -45 l165 0 ZM845 47 l-487 0 l0 227 l487 0 l0 -227 ZM783 228 l-363 0 l0 -42 l363 0 l0 42 ZM420 95 l363 0 l0 43 l-363 0 l0 -43 ZM260 -9 l682 0 l0 -57 l-682 0 l0 57 Z" /><glyph glyph-name="Identity.13670" unicode="&#x64cd;" d="M315 349 q-74 -30 -86 -35 l0 -288 q0 -60 -19.5 -81 q-19.5 -21 -81.5 -26 l-46 -4 l-22 74 l49 4 q33 3 42.5 14 q9.5 11 9.5 44 l0 237 q-88 -32 -122 -42 l-23 71 q68 18 145 45 l0 195 l-102 0 l0 68 l102 0 l0 170 l68 -3 l0 -167 l100 0 l0 -68 l-100 0 l0 -171 q62 25 74 31 l6 -39 l6 -29 ZM811 763 l0 -200 l-412 0 l0 200 l412 0 ZM743 623 l0 82 l-277 0 l0 -82 l277 0 ZM572 510 l0 -199 l-236 0 l0 199 l236 0 ZM632 311 l0 199 l240 0 l0 -199 l-240 0 ZM512 369 l0 84 l-116 0 l0 -84 l116 0 ZM691 453 l0 -84 l122 0 l0 84 l-122 0 ZM950 -3 l-35 -63 q-168 74 -276 180 l0 -216 l-70 0 l0 214 q-120 -112 -286 -180 l-38 63 q175 59 294 166 l-234 0 l0 64 l264 0 l0 64 l70 -3 l0 -61 l266 0 l0 -64 l-235 0 q119 -112 280 -164 Z" /><glyph glyph-name="Identity.13778" unicode="&#x6539;" d="M704 174 q95 -108 253 -206 l-50 -67 q-157 106 -249 214 q-97 -108 -275 -217 l-47 66 q183 102 276 209 q-84 120 -117 258 q-21 -34 -47 -71 l-49 54 q57 80 105 190.5 q48 110.5 67 206.5 l73 -15 q-21 -84 -47 -150 l331 0 l0 -72 l-87 0 q-31 -250 -137 -400 ZM420 164 l12 -79 q-6 -3 -117.5 -56 q-111.5 -53 -131.5 -63 q-40 -22 -66 -40 l-38 73 q23 17 29 26.5 q6 9.5 6 24.5 l0 372 l202 0 l0 229 l-225 0 l0 75 l301 0 l0 -375 l-206 0 l0 -298 q194 93 234 111 ZM544 521 q27 -165 114 -289 q86 128 111 342 l-201 0 q-9 -22 -24 -53 Z" /><glyph glyph-name="Identity.13837" unicode="&#x6574;" d="M536 514 l-37 55 q92 101 137 248 l67 -14 q-19 -53 -37 -92 l262 0 l0 -59 l-67 0 q-30 -121 -98 -197 q70 -52 189 -103 l-36 -60 q-123 55 -199 117 q-73 -61 -189 -117 l-37 60 q117 51 178 102 q-51 54 -80 124 q-27 -37 -53 -64 ZM38 329 q127 60 196 131 l-132 0 l0 164 l162 0 l0 60 l-191 0 l0 55 l191 0 l0 71 l64 -3 l0 -68 l189 0 l0 -55 l-189 0 l0 -60 l158 0 l0 -164 l-158 0 l0 -167 l-64 0 l0 122 q-76 -76 -191 -136 l-35 50 ZM796 652 l-161 0 l-9 -17 q29 -80 89 -138 q56 65 81 155 ZM159 574 l0 -65 l105 0 l0 65 l-105 0 ZM429 574 l-101 0 l0 -65 l101 0 l0 65 ZM458 317 q-84 67 -125 88 l28 44 q66 -33 122 -75 l-25 -57 ZM534 72 l0 -85 l388 0 l0 -60 l-862 0 l0 60 l149 0 l0 170 l73 -3 l0 -167 l177 0 l0 220 l-332 0 l0 61 l728 0 l0 -61 l-321 0 l0 -77 l282 0 l0 -58 l-282 0 Z" /><glyph glyph-name="Identity.13874" unicode="&#x6599;" d="M946 188 l-156 -19 l0 -269 l-70 0 l0 260 l-258 -32 l-5 71 l263 34 l0 566 l70 -2 l0 -555 l151 19 l5 -73 ZM315 298 q27 -24 68.5 -71 q41.5 -47 62.5 -77 l-50 -56 q-32 57 -110 138 l0 -337 l-68 0 l0 365 q-51 -100 -152 -221 l-48 57 q141 165 186 280 l-152 0 l0 70 l166 0 l0 346 l68 -2 l0 -344 l148 0 l0 -70 l-148 0 l0 -108 l29 30 ZM307 512 q43 77 82 210 l61 -20 q-43 -135 -86 -214 l-57 24 ZM651 514 q-25 34 -75.5 80 q-50.5 46 -88.5 74 l44 53 q34 -24 86 -70.5 q52 -46.5 79 -76.5 l-45 -60 ZM190 513 l-61 -28 q-7 42 -29.5 107 q-22.5 65 -42.5 105 l58 22 q18 -37 41.5 -101.5 q23.5 -64.5 33.5 -104.5 ZM625 277 q-25 34 -78.5 80.5 q-53.5 46.5 -93.5 74.5 l44 55 q35 -23 90 -70.5 q55 -47.5 84 -79.5 l-46 -60 Z" /><glyph glyph-name="Identity.13894" unicode="&#x65ad;" d="M335 300 q-56 -110 -119 -177 l-43 55 q91 92 151 221 l-125 0 l0 68 l136 0 l0 321 l66 -3 l0 -318 l137 0 l0 -68 l-137 0 l0 -69 l24 23 q25 -24 63 -70 q38 -46 60 -77 l-45 -52 q-30 55 -102 138 l0 -243 l-66 0 l0 251 ZM941 466 l0 -72 l-110 0 l0 -501 l-69 0 l0 501 l-113 0 q0 -201 -20 -300 q-20 -99 -86 -205 l-64 32 q70 101 85.5 187.5 q15.5 86.5 15.5 298.5 l0 296 q157 19 304 68 l22 -71 q-113 -42 -257 -63 l0 -171 l292 0 ZM482 17 l0 -70 l-380 0 l0 810 l69 -3 l0 -737 l311 0 ZM550 713 q-22 -90 -73 -192 l-59 18 q19 31 41 90 q22 59 31 99 l60 -15 ZM316 547 l-51 -31 q-26 86 -80 186 l52 22 q56 -105 79 -177 Z" /><glyph glyph-name="Identity.13906" unicode="&#x65b9;" d="M392 591 q-6 -97 -7 -129 q0 -4 -0.5 -12.5 q-0.5 -8.5 -0.5 -12.5 l410 0 q-20 -337 -22 -356 q-8 -89 -47 -121 q-39 -32 -149 -36 l-75 -4 l-29 79 l99 4 q74 3 98.5 24 q24.5 21 29.5 83 q1 12 8 126.5 q7 114.5 8 126.5 l-338 0 q-18 -145 -78.5 -249 q-60.5 -104 -192.5 -219 l-58 58 q145 117 199 224.5 q54 107.5 65 294.5 l6 119 l-246 0 l0 73 l406 0 q-19 84 -40 129 l73 20 q29 -75 46 -149 l363 0 l0 -73 l-528 0 Z" /><glyph glyph-name="Identity.13945" unicode="&#x65e0;" d="M891 398 l-406 0 q-30 -159 -121.5 -273.5 q-91.5 -114.5 -272.5 -224.5 l-49 64 q163 93 247 194 q84 101 114 240 l-316 0 l0 72 l328 0 q6 51 7 83 q0 4 3 116 l-279 0 l0 72 l686 0 l0 -72 l-329 0 q0 -74 -3 -122 q-1 -27 -5 -77 l396 0 l0 -72 ZM844 159 l75 -23 q-2 -42 -9 -92 q-9 -64 -35.5 -85.5 q-26.5 -21.5 -100.5 -24.5 q-75 -3 -150 0 q-68 3 -97 29 q-29 26 -29 93 l0 298 l78 -3 l0 -274 q0 -39 16.5 -54.5 q16.5 -15.5 57.5 -17.5 q55 -3 106 0 q47 3 62 16 q15 13 20 55 q6 44 6 83 Z" /><glyph glyph-name="Identity.13967" unicode="&#x65f6;" d="M943 605 l0 -73 l-130 0 l0 -483 q0 -75 -31 -101.5 q-31 -26.5 -127 -33.5 l-55 -4 l-26 81 l70 4 q60 4 74 17.5 q14 13.5 14 61.5 l0 458 l-301 0 l0 73 l301 0 l0 197 l81 -3 l0 -194 l130 0 ZM104 -12 l0 732 l295 0 l0 -732 l-295 0 ZM330 644 l-157 0 l0 -250 l157 0 l0 250 ZM663 214 l-63 -42 q-19 52 -60.5 132 q-41.5 80 -72.5 126 l61 34 q30 -43 72.5 -122 q42.5 -79 62.5 -128 ZM173 65 l157 0 l0 257 l-157 0 l0 -257 Z" /><glyph glyph-name="Identity.14008" unicode="&#x661f;" d="M806 763 l0 -341 l-638 0 l0 341 l638 0 ZM732 702 l-490 0 l0 -79 l490 0 l0 79 ZM242 483 l490 0 l0 79 l-490 0 l0 -79 ZM536 8 l373 0 l0 -65 l-847 0 l0 65 l397 0 l0 99 l-271 0 l0 64 l271 0 l0 88 l-240 0 q-44 -61 -108 -132 l-52 49 q116 117 174 244 l63 -34 q-12 -26 -34 -62 l197 0 l0 74 l77 -3 l0 -71 l331 0 l0 -65 l-331 0 l0 -88 l297 0 l0 -64 l-297 0 l0 -99 Z" /><glyph glyph-name="Identity.14024" unicode="&#x662f;" d="M780 758 l0 -343 l-600 0 l0 343 l600 0 ZM705 697 l-450 0 l0 -79 l450 0 l0 79 ZM255 476 l450 0 l0 80 l-450 0 l0 -80 ZM549 -11 q191 -8 384 3 l-18 -67 q-194 -8 -364 -1 q-115 5 -187 34.5 q-72 29.5 -124 100.5 q-45 -94 -136 -172 l-61 48 q78 65 119 135.5 q41 70.5 62 169.5 l74 -10 q-13 -56 -28 -100 q67 -105 186 -130 l0 276 l-388 0 l0 63 l836 0 l0 -63 l-374 0 l0 -104 l303 0 l0 -61 l-303 0 l0 -121 q3 0 9.5 -0.5 q6.5 -0.5 9.5 -0.5 Z" /><glyph glyph-name="Identity.14127" unicode="&#x6696;" d="M954 -28 l-30 -68 q-154 46 -248 109 q-105 -73 -255 -118 l-34 64 q142 35 238 93 q-74 65 -116 153 q-59 -154 -174 -287 l-54 43 q145 161 201 377 l-114 0 l0 61 l128 0 q9 41 15 84 l-130 0 l0 59 l90 0 q-16 57 -49 111 l43 19 q-43 -3 -79 -3 l-14 63 q102 2 263 18.5 q161 16.5 259 33.5 l9 -64 q-182 -34 -428 -48 q27 -47 50 -106 l-40 -24 l148 0 q-14 69 -42 123 l53 19 q26 -49 44 -117 l-53 -25 l104 0 q43 71 70 149 l60 -18 q-21 -55 -63 -131 l99 0 l0 -59 l-330 0 q-7 -54 -13 -84 l363 0 l0 -61 l-376 0 q-11 -46 -20 -73 l322 0 l0 -60 q-48 -86 -121 -150 q84 -50 224 -83 ZM332 726 l0 -701 l-227 0 l0 701 l227 0 ZM266 655 l-94 0 l0 -245 l94 0 l0 245 ZM172 96 l94 0 l0 247 l-94 0 l0 -247 ZM576 205 q44 -70 102 -115 q61 49 100 115 l-202 0 Z" /><glyph glyph-name="Identity.14221" unicode="&#x66f4;" d="M940 -1 l-18 -76 q-189 15 -302.5 36.5 q-113.5 21.5 -195.5 60.5 q-93 -72 -345 -131 l-30 67 q224 52 306 104 q-64 42 -155 133 l40 36 l-77 0 l0 369 l297 0 l0 89 l-371 0 l0 67 l815 0 l0 -67 l-368 0 l0 -89 l294 0 l0 -369 l-298 0 q-11 -97 -56 -157 q157 -65 464 -73 ZM460 537 l-223 0 l0 -90 l223 0 l0 90 ZM757 537 l-221 0 l0 -90 l221 0 l0 90 ZM237 386 l0 -93 l223 0 l0 18 l0 75 l-223 0 ZM536 293 l221 0 l0 93 l-221 0 l0 -77 l0 -16 ZM257 229 q76 -80 151 -123 q37 46 48 123 l-199 0 Z" /><glyph glyph-name="Identity.14242" unicode="&#x6709;" d="M935 621 l-519 0 q-35 -60 -67 -104 l465 0 l0 -494 q0 -57 -25 -78 q-25 -21 -95 -30 l-67 -8 l-24 72 l65 5 q46 4 58.5 14 q12.5 10 12.5 45 l0 58 l-435 0 l0 -195 l-74 0 l0 472 q-66 -66 -154 -134 l-49 59 q191 144 300 318 l-257 0 l0 70 l296 0 q28 55 51 117 l79 -17 q-15 -40 -43 -100 l482 0 l0 -70 ZM739 339 l0 112 l-435 0 l0 -112 l435 0 ZM304 166 l435 0 l0 109 l-435 0 l0 -109 Z" /><glyph glyph-name="Identity.14244" unicode="&#x670b;" d="M143 393 l0 354 l299 0 l0 -722 q0 -55 -24.5 -77 q-24.5 -22 -91.5 -28 l-44 -4 l-22 74 l51 4 q39 3 52 15 q13 12 13 46 l0 153 l-170 0 q-9 -97 -33 -165.5 q-24 -68.5 -71 -144.5 l-66 33 q63 101 85 191 q22 90 22 271 ZM552 747 l319 0 l0 -729 q0 -57 -24 -77.5 q-24 -20.5 -96 -26.5 l-48 -4 l-24 74 l56 4 q44 3 57 13.5 q13 10.5 13 46.5 l0 160 l-191 0 q-7 -101 -29 -168.5 q-22 -67.5 -72 -141.5 l-66 34 q66 94 85.5 178 q19.5 84 19.5 272 l0 365 ZM376 676 l-164 0 l0 -164 l164 0 l0 164 ZM805 676 l-187 0 l0 -165 l187 0 l0 165 ZM210 277 l166 0 l0 165 l-164 0 l0 -79 q0 -32 -2 -86 ZM617 277 l188 0 l0 164 l-187 0 l0 -84 q0 -55 -1 -80 Z" /><glyph glyph-name="Identity.14246" unicode="&#x670d;" d="M768 101 q57 -58 180 -133 l-44 -58 q-109 67 -177 138 q-56 -65 -142 -126 l-44 45 l0 -70 l-69 0 l0 857 l390 0 q0 -9 -2 -79 q-2 -70 -3 -78 q-4 -54 -24 -75 q-20 -21 -76 -28 l-66 -8 l-25 66 l82 8 q22 2 28.5 10 q6.5 8 8.5 36 q4 56 4 80 l-248 0 l0 -253 l334 0 l0 -67 q-37 -160 -107 -265 ZM123 374 l0 379 l283 0 l0 -723 q0 -52 -20 -76 q-20 -24 -74 -31 l-64 -8 l-23 68 l81 10 q19 2 25 15.5 q6 13.5 6 42.5 l0 174 l-150 0 q-12 -187 -88 -330 l-67 28 q53 91 72 176 q19 85 19 275 ZM337 686 l-147 0 l0 -167 l147 0 l0 167 ZM189 290 l148 0 l0 165 l-147 0 l0 -111 q0 -36 -1 -54 ZM541 -26 q83 52 144 124 q-63 85 -114 227 l60 21 q34 -116 93 -194 q53 85 84 214 l-267 0 l0 -392 Z" /><glyph glyph-name="Identity.14260" unicode="&#x671b;" d="M152 463 l0 163 l-88 0 l0 61 l179 0 q-19 63 -34 101 l64 12 q16 -39 37 -113 l136 0 l0 -61 l-224 0 l0 -170 q13 4 55.5 18 q42.5 14 78 25.5 q35.5 11.5 50.5 17.5 l8 -67 q-22 -6 -100.5 -33 q-78.5 -27 -98.5 -35 q-24 -9 -63 -26 l-29 61 q19 11 24 19 q5 8 5 27 ZM374 365 q71 58 90.5 101.5 q19.5 43.5 19.5 134.5 l0 166 l367 0 l0 -325 q0 -53 -22 -73 q-22 -20 -99 -26 l-46 -4 l-24 61 l59 5 q43 4 53.5 15 q10.5 11 10.5 52 l0 5 l-238 0 q-9 -44 -33 -78 q-24 -34 -76 -79 l-62 45 ZM783 709 l-231 0 l0 -64 l231 0 l0 64 ZM551 530 l232 0 l0 62 l-231 0 l0 -5 q0 -40 -1 -57 ZM532 5 l396 0 l0 -62 l-873 0 l0 62 l399 0 l0 93 l-291 0 l0 61 l291 0 l0 86 l-338 0 l0 61 l752 0 l0 -61 l-336 0 l0 -86 l288 0 l0 -61 l-288 0 l0 -93 Z" /><glyph glyph-name="Identity.14264" unicode="&#x671f;" d="M535 215 l0 -63 l-495 0 l0 63 l110 0 l0 417 l-71 0 l0 63 l71 0 l0 100 l67 -3 l0 -97 l174 0 l0 100 l67 -3 l0 -97 l76 0 l0 -63 l-76 0 l0 -417 l77 0 ZM578 747 l302 0 l0 -727 q0 -55 -18 -71.5 q-18 -16.5 -76 -24.5 l-51 -7 l-26 66 l54 6 q34 4 41.5 12 q7.5 8 7.5 42 l0 161 l-172 0 q-8 -98 -35.5 -163 q-27.5 -65 -92.5 -147 l-64 40 q64 74 90.5 134 q26.5 60 33 126 q6.5 66 6.5 218 l0 335 ZM812 679 l-167 0 l0 -170 l167 0 l0 170 ZM391 632 l-174 0 l0 -95 l174 0 l0 95 ZM217 475 l0 -96 l174 0 l0 96 l-174 0 ZM644 272 l168 0 l0 170 l-167 0 l0 -65 q0 -74 -1 -105 ZM217 318 l0 -103 l174 0 l0 103 l-174 0 ZM374 137 q63 -53 117 -110 l-44 -54 q-46 58 -120 118 l47 46 ZM57 -42 q103 85 158 176 l55 -42 q-55 -78 -156 -183 l-57 49 Z" /><glyph glyph-name="Identity.14280" unicode="&#x672f;" d="M540 528 q69 -137 170.5 -246.5 q101.5 -109.5 246.5 -207.5 l-53 -71 q-255 182 -375 421 l0 -521 l-78 0 l0 519 q-104 -211 -366 -419 l-58 65 q133 92 240 213 q107 121 167 247 l-343 0 l0 68 l360 0 l0 202 l78 -4 l0 -198 l365 0 l0 -68 l-354 0 ZM754 606 q-82 98 -132 142 l45 45 q84 -71 136 -131 l-49 -56 Z" /><glyph glyph-name="Identity.14313" unicode="&#x6750;" d="M411 250 q-50 72 -119 147 l0 -497 l-75 0 l0 491 q-69 -152 -142 -251 l-53 50 q52 65 105 162.5 q53 97.5 89 192.5 l-150 0 l0 72 l151 0 l0 186 l75 -4 l0 -182 l140 0 l0 -72 l-140 0 l0 -107 l24 23 q66 -62 143 -152 l-48 -59 ZM933 611 l0 -73 l-129 0 l0 -495 q0 -69 -30 -94.5 q-30 -25.5 -123 -31.5 l-63 -4 l-26 76 l76 4 q57 3 74 18 q17 15 17 59 l0 386 q-133 -255 -341 -425 l-56 55 q236 185 361 452 l-230 0 l0 73 l266 0 l0 190 l75 -3 l0 -187 l129 0 Z" /><glyph glyph-name="Identity.14444" unicode="&#x67d3;" d="M288 392 q94 50 133 96 q39 46 49 120 l-127 0 l0 67 l131 0 l4 124 l73 -3 q0 -42 -4 -121 l200 0 l0 -220 q0 -19 7.5 -26 q7.5 -7 27.5 -9 q16 -1 32 0 q17 2 25 9 q8 7 12 27 q9 43 11 93 l67 -24 q-8 -77 -19 -117 q-8 -29 -28 -41.5 q-20 -12.5 -60 -14.5 q-30 -2 -60 0 q-48 2 -68 21 q-20 19 -20 69 l0 166 l-132 0 q-13 -97 -60 -159.5 q-47 -62.5 -151 -118.5 l-43 62 ZM327 712 l-29 -68 q-61 47 -160 97 l28 57 q71 -33 161 -86 ZM276 586 l-26 -69 q-66 47 -178 98 l28 57 q87 -35 176 -86 ZM320 449 q-126 -92 -211 -138 l-39 63 q99 49 216 135 l20 -35 l14 -25 ZM949 -6 l-36 -67 q-230 91 -385 228 l0 -258 l-74 0 l0 256 q-140 -128 -381 -222 l-34 68 q238 84 371 198 l-332 0 l0 66 l376 0 l0 103 l74 -2 l0 -101 l373 0 l0 -66 l-328 0 q156 -126 376 -203 Z" /><glyph glyph-name="Identity.14462" unicode="&#x67e5;" d="M566 637 q153 -125 386 -194 q-22 -38 -30 -63 q-2 -7 -13 -3 q-246 92 -382 220 l0 -158 l-78 0 l0 159 q-162 -145 -391 -233 l-36 69 q219 67 386 203 l-316 0 l0 65 l357 0 l0 102 l78 -4 l0 -98 l358 0 l0 -65 l-319 0 ZM205 404 l567 0 l0 -331 l-567 0 l0 331 ZM696 343 l-415 0 l0 -72 l415 0 l0 72 ZM281 135 l415 0 l0 75 l-415 0 l0 -75 ZM89 -67 l0 66 l799 0 l0 -66 l-799 0 Z" /><glyph glyph-name="Identity.14496" unicode="&#x6807;" d="M359 248 q-27 50 -92 124 l0 -486 l-74 0 l0 492 q-54 -130 -118 -226 l-58 41 q49 67 96 160.5 q47 93.5 76 180.5 l-128 0 l0 71 l132 0 l0 185 l74 -3 l0 -182 l116 0 l0 -71 l-116 0 l0 -118 l25 23 q23 -22 59.5 -65.5 q36.5 -43.5 55.5 -70.5 l-48 -55 ZM882 728 l0 -73 l-455 0 l0 73 l455 0 ZM933 410 l-247 0 l0 -402 q0 -59 -27 -80.5 q-27 -21.5 -103 -27.5 l-48 -4 l-26 77 l58 4 q43 3 55 14.5 q12 11.5 12 48.5 l0 370 l-230 0 l0 73 l556 0 l0 -73 ZM482 334 l68 -26 q-73 -200 -164 -340 l-70 34 q98 144 166 332 ZM799 332 q34 -55 83.5 -157 q49.5 -102 74.5 -167 l-68 -41 q-20 68 -68.5 171.5 q-48.5 103.5 -84.5 161.5 l63 32 Z" /><glyph glyph-name="Identity.14544" unicode="&#x6837;" d="M941 200 l0 -72 l-262 0 l0 -227 l-76 0 l0 227 l-255 0 l0 72 l255 0 l0 150 l-194 0 l0 70 l194 0 l0 145 l-204 0 l0 72 l129 0 q-26 73 -68 136 l60 31 q16 -24 39 -67 q23 -43 34 -70 l-51 -30 l125 0 q56 84 97 167 l67 -29 q-57 -100 -83 -138 l157 0 l0 -72 l-226 0 l0 -145 l207 0 l0 -70 l-207 0 l0 -150 l262 0 ZM352 253 q-31 58 -87 119 l0 -472 l-72 0 l0 469 q-37 -98 -103 -211 l-59 44 q99 148 159 339 l-114 0 l0 71 l117 0 l0 187 l72 -3 l0 -184 l98 0 l0 -71 l-98 0 l0 -124 l23 20 q85 -87 110 -128 l-46 -56 Z" /><glyph glyph-name="Identity.14546" unicode="&#x6839;" d="M393 311 l-51 -55 q-28 50 -90 120 l0 -471 l-69 0 l0 476 q-50 -125 -117 -223 l-53 47 q108 148 168 342 l-124 0 l0 69 l126 0 l0 188 l69 -4 l0 -184 l123 0 l0 -69 l-123 0 l0 -126 l25 24 q62 -62 116 -134 ZM740 130 q74 -80 205 -137 l-48 -62 q-138 74 -219 165.5 q-81 91.5 -122 233.5 l-79 0 l0 -331 q15 6 49 21.5 q34 15.5 71 32.5 q37 17 46 21 l13 -72 q-96 -44 -198 -83 q-27 -12 -52 -28 l-32 68 q21 11 27 19.5 q6 8.5 6 27.5 l0 745 l437 0 l0 -421 l-218 0 q29 -86 72 -148 q87 49 152 119 l40 -53 q-65 -67 -150 -118 ZM775 686 l-298 0 l0 -114 l298 0 l0 114 ZM477 507 l0 -112 l298 0 l0 112 l-298 0 Z" /><glyph glyph-name="Identity.14549" unicode="&#x683c;" d="M689 444 q103 -67 260 -107 l-28 -67 q-178 51 -288 128 q-104 -77 -275 -140 l-33 62 q154 54 251 123 q-55 49 -104 115 q-36 -51 -77 -95 l-54 46 q57 58 110.5 146.5 q53.5 88.5 78.5 160.5 l73 -19 q-18 -45 -34 -77 l280 0 l0 -66 q-76 -133 -160 -210 ZM369 373 l-48 -47 q-28 41 -69 90 l0 -504 l-69 0 l0 471 q-42 -123 -111 -229 l-58 47 q112 175 158 352 l-112 0 l0 71 l123 0 l0 180 l69 -4 l0 -176 l105 0 l0 -71 l-105 0 l0 -87 l21 18 q45 -46 96 -111 ZM511 616 q55 -76 120 -129 q70 64 133 167 l-230 0 q-3 -5 -23 -38 ZM427 -95 l0 358 l408 0 l0 -358 l-70 0 l0 56 l-268 0 l0 -56 l-70 0 ZM765 197 l-268 0 l0 -171 l268 0 l0 171 Z" /><glyph glyph-name="Identity.14561" unicode="&#x6848;" d="M194 648 l0 -79 l-76 0 l0 139 l354 0 q-18 61 -32 94 l67 12 q16 -40 37 -106 l323 0 l0 -140 l-75 0 l0 80 l-598 0 ZM221 414 q29 28 63 68 l-223 0 l0 61 l271 0 q32 42 60 86 l76 -19 q-13 -21 -47 -67 l504 0 l0 -61 l-186 0 q-50 -67 -121 -108 q174 -49 256 -76 l-27 -64 q-117 48 -309 102 q-142 -55 -426 -89 l-25 62 q225 21 350 54 q-129 34 -216 51 ZM643 482 l-270 0 q-3 -3 -16.5 -18 q-13.5 -15 -19.5 -21 q92 -19 194 -46 q66 31 112 85 ZM955 -15 l-35 -64 q-137 45 -226.5 87.5 q-89.5 42.5 -163.5 97.5 l0 -218 l-75 0 l0 212 q-145 -106 -391 -184 l-37 69 q141 36 231.5 73.5 q90.5 37.5 163.5 88.5 l-349 0 l0 64 l382 0 l0 77 l75 -3 l0 -74 l384 0 l0 -64 l-344 0 q146 -99 385 -162 Z" /><glyph glyph-name="Identity.14618" unicode="&#x6881;" d="M307 694 l-30 -60 q-29 25 -75 56.5 q-46 31.5 -75 46.5 l30 49 q30 -14 77 -43 q47 -29 73 -49 ZM532 647 l6 42 l-178 0 l0 63 l455 0 q-4 -59 -12 -146 l21 18 q81 -84 116 -139 l-45 -44 q-30 53 -96 125 l-10 -112 q-7 -68 -32.5 -90 q-25.5 -22 -106.5 -29 l-49 -4 l-23 64 l62 5 q49 4 62.5 18 q13.5 14 18.5 62 q11 91 20 209 l-139 0 q-2 -22 -5 -47 q-10 -76 -30 -128.5 q-20 -52.5 -55.5 -91 q-35.5 -38.5 -76 -65 q-40.5 -26.5 -107.5 -57.5 l-38 59 q76 32 122 63 q46 31 79 87.5 q33 56.5 41 137.5 ZM241 564 l-29 -64 q-52 50 -159 105 l28 51 q33 -14 83 -43 q50 -29 77 -49 ZM466 602 q-42 -70 -109 -142 l-46 41 q67 65 110 134 l45 -33 ZM265 497 l19 -24 l20 -27 q-33 -39 -91 -94 q-58 -55 -95 -80 l-40 55 q39 28 98 81 q59 53 89 89 ZM947 -19 l-34 -68 q-238 93 -385 202 l0 -217 l-70 0 l0 221 q-150 -119 -388 -206 l-34 70 q239 77 395 193 l-353 0 l0 62 l380 0 l0 91 l70 -2 l0 -89 l378 0 l0 -62 l-354 0 q173 -124 395 -195 Z" /><glyph glyph-name="Identity.14681" unicode="&#x68c0;" d="M319 266 q-18 35 -67 96 l0 -460 l-67 0 l0 483 q-46 -122 -106 -220 l-58 43 q43 63 87.5 158 q44.5 95 71.5 180 l-113 0 l0 72 l118 0 l0 189 l67 -3 l0 -186 l111 0 l0 -72 l-111 0 l0 -128 l17 17 q61 -59 100 -120 l-50 -49 ZM652 800 q92 -184 309 -334 l-45 -57 q-218 168 -298 315 q-85 -157 -265 -294 l-44 54 q187 134 275 316 l68 0 ZM810 482 l0 -67 l-377 0 l0 67 l377 0 ZM608 99 q-5 53 -25 136 q-20 83 -39 131 l63 16 q17 -45 37.5 -127 q20.5 -82 28.5 -132 l-65 -24 ZM861 354 q-15 -64 -50 -162.5 q-35 -98.5 -69 -173.5 l171 0 l0 -70 l-594 0 l0 70 l349 0 q34 74 71 182 q37 108 51 174 l71 -20 ZM458 64 q-8 57 -33.5 146.5 q-25.5 89.5 -47.5 140.5 l61 21 q22 -51 48.5 -138.5 q26.5 -87.5 34.5 -140.5 l-63 -29 Z" /><glyph glyph-name="Identity.14875" unicode="&#x6982;" d="M883 150 l54 -22 q0 -45 -9 -105 q-8 -52 -23.5 -70 q-15.5 -18 -57.5 -18 l-41 0 q-42 0 -59.5 20.5 q-17.5 20.5 -17.5 74.5 l0 169 q-55 -150 -176 -283 l-52 48 q42 43 82 95 l-41 -17 q-10 32 -16 49 l-151 -99 q-14 -10 -33 -27 l-36 60 q25 24 25 47 l0 252 l-42 -35 q-29 51 -67 99 l0 -473 l-63 0 l0 441 q-38 -97 -88 -184 l-58 48 q39 63 78 153 q39 90 62 177 l-99 0 l0 72 l105 0 l0 187 l63 -3 l0 -184 l86 0 l0 -72 l-86 0 l0 -123 l26 22 q37 -40 83 -111 l0 419 l221 0 l0 -454 l-164 0 l0 -228 q4 3 114 77 q-22 53 -40 90 l50 22 q42 -85 80 -193 q85 120 117 273 l-106 0 l0 65 l21 221 l57 -6 l-20 -212 l60 0 q6 39 12 118 q4 73 6 158 l-139 0 l0 67 l308 0 l0 -67 l-109 0 q-2 -114 -7 -153 q-4 -65 -12 -123 l134 0 l0 -68 l-146 0 q-7 -38 -13 -60 l33 -2 l0 -243 q0 -24 7.5 -32 q7.5 -8 27.5 -8 l14 0 q21 0 28 7.5 q7 7.5 11 33.5 q7 46 7 110 ZM495 694 l-107 0 l0 -135 l107 0 l0 135 ZM388 367 l107 0 l0 132 l-107 0 l0 -132 Z" /><glyph glyph-name="Identity.15034" unicode="&#x6a21;" d="M487 579 l0 65 l-131 0 l0 65 l131 0 l0 95 l65 -2 l0 -93 l151 0 l0 95 l66 -2 l0 -93 l151 0 l0 -65 l-151 0 l0 -65 l-66 0 l0 65 l-151 0 l0 -65 l-65 0 ZM328 273 q-22 42 -73 107 l0 -476 l-68 0 l0 493 q-53 -133 -113 -230 l-59 39 q117 184 167 343 l-121 0 l0 65 l126 0 l0 187 l68 -2 l0 -185 l105 0 l0 -65 l-105 0 l0 -118 l19 18 q51 -48 99 -125 l-45 -51 ZM669 124 q69 -114 286 -158 l-26 -70 q-224 58 -304 178 q-64 -115 -298 -178 l-36 63 q229 53 277 165 l-230 0 l0 62 l245 0 q1 4 1 12 q1 15 1 56 l-197 0 l0 304 l470 0 l0 -304 l-201 0 q0 -9 -0.5 -28.5 q-0.5 -19.5 -1.5 -27.5 l0 -12 l268 0 l0 -62 l-254 0 ZM791 502 l-338 0 l0 -69 l338 0 l0 69 ZM453 381 l0 -70 l338 0 l0 70 l-338 0 Z" /><glyph glyph-name="Identity.15363" unicode="&#x6b6a;" d="M69 421 l-33 71 q280 76 454 189 l-402 0 l0 68 l808 0 l0 -68 l-294 0 q-31 -26 -75 -55 l0 -212 l-70 0 l0 169 q-159 -90 -388 -162 ZM563 555 l18 58 q66 -16 180 -52.5 q114 -36.5 177 -60.5 l-21 -68 q-58 28 -171.5 67 q-113.5 39 -182.5 56 ZM534 149 l0 -128 l388 0 l0 -66 l-868 0 l0 66 l158 0 l0 232 l76 -4 l0 -228 l173 0 l0 299 l-344 0 l0 66 l746 0 l0 -66 l-329 0 l0 -108 l290 0 l0 -63 l-290 0 Z" /><glyph glyph-name="Identity.15464" unicode="&#x6bcf;" d="M250 652 q-58 -101 -132 -184 l-58 50 q59 61 111.5 144 q52.5 83 80.5 156 l71 -23 q-11 -25 -35 -75 l599 0 l0 -68 l-637 0 ZM941 272 l-151 0 q-2 -34 -4 -90 q-2 -56 -3 -71 l113 0 l0 -68 l-116 0 l0 -5 q-4 -69 -26 -96.5 q-22 -27.5 -78 -31.5 l-109 -9 l-25 71 l114 8 q26 2 35.5 14 q9.5 12 12.5 49 l-546 0 l28 229 l-142 0 l0 67 l150 0 l28 226 l579 0 q0 -26 -9 -226 l149 0 l0 -67 ZM289 497 l-21 -158 l451 0 q6 156 6 158 l-436 0 ZM418 490 q46 -17 104 -44 q58 -27 81 -41 l-28 -62 q-95 57 -188 89 l31 58 ZM708 111 q5 106 7 161 l-456 0 l-22 -161 l471 0 ZM565 121 q-99 55 -189 90 l26 53 q44 -14 103.5 -39.5 q59.5 -25.5 84.5 -41.5 l-25 -62 Z" /><glyph glyph-name="Identity.15469" unicode="&#x6bd4;" d="M841 198 l73 -28 q-6 -95 -16 -151 q-7 -38 -39 -58 q-32 -20 -102 -24 q-61 -3 -123 0 q-66 3 -93.5 30.5 q-27.5 27.5 -27.5 99.5 l0 725 l78 -5 l0 -366 q156 104 264 226 l52 -60 q-116 -128 -316 -260 l0 -234 q0 -46 14 -60.5 q14 -14.5 59 -17.5 q40 -3 80 0 q44 3 61.5 13.5 q17.5 10.5 23.5 40.5 q12 63 12 129 ZM228 40 q15 6 114 49 q99 43 117 50 l7 -82 q-16 -7 -116.5 -49.5 q-100.5 -42.5 -123.5 -51.5 q-40 -18 -75 -38 l-33 78 q20 13 26.5 22.5 q6.5 9.5 6.5 26.5 l0 737 l77 -3 l0 -271 l232 0 l0 -75 l-232 0 l0 -393 Z" /><glyph glyph-name="Identity.15579" unicode="&#x6c42;" d="M672 284 q105 -128 283 -218 l-49 -72 q-258 154 -375 390 l0 -350 q0 -65 -28.5 -90 q-28.5 -25 -110.5 -29 l-55 -3 l-24 76 l68 4 q50 3 62 14.5 q12 11.5 12 50.5 l0 203 q-184 -141 -360 -242 l-49 67 q197 104 409 266 l0 221 l-364 0 l0 71 l364 0 l0 163 l76 -4 l0 -159 l197 0 q-48 64 -112 120 l50 47 q78 -69 126 -131 l-32 -36 l143 0 l0 -71 l-372 0 l0 -38 q45 -113 99 -194 q48 41 99.5 96 q51.5 55 79.5 97 l56 -51 q-37 -47 -91.5 -103.5 q-54.5 -56.5 -101.5 -94.5 ZM352 354 l-51 -60 q-24 40 -75 98 q-51 58 -88 92 l48 48 q35 -30 88 -86 q53 -56 78 -92 Z" /><glyph glyph-name="Identity.15700" unicode="&#x6cbb;" d="M742 695 q37 -48 91 -139.5 q54 -91.5 79 -147.5 l-61 -49 q-17 43 -38 84 q-38 -2 -225.5 -12.5 q-187.5 -10.5 -197.5 -11.5 q-31 -1 -64 -8 l-20 71 q22 7 31.5 13.5 q9.5 6.5 22.5 20.5 q42 47 98 136 q56 89 88 159 l70 -32 q-77 -152 -181 -285 q86 4 340 19 q-51 91 -92 145 l59 37 ZM149 764 q36 -21 90.5 -61.5 q54.5 -40.5 82.5 -67.5 l-41 -72 q-26 33 -79 75 q-53 42 -94 67 l41 59 ZM232 336 q-26 32 -82.5 75 q-56.5 43 -100.5 70 l41 59 q39 -22 98.5 -64 q59.5 -42 85.5 -68 l-42 -72 ZM361 -98 l0 408 l473 0 l0 -409 l-75 0 l0 58 l-323 0 l0 -57 l-75 0 ZM211 270 l39 -16 l27 -12 q-19 -67 -58.5 -173 q-39.5 -106 -68.5 -164 l-70 27 q30 61 71 167.5 q41 106.5 60 170.5 ZM759 240 l-323 0 l0 -211 l323 0 l0 211 Z" /><glyph glyph-name="Identity.15745" unicode="&#x6ce8;" d="M641 19 l297 0 l0 -71 l-661 0 l0 71 l288 0 l0 251 l-227 0 l0 73 l227 0 l0 219 l-237 0 l0 74 l249 0 q-28 106 -47 152 l74 14 q15 -35 53 -166 l247 0 l0 -74 l-263 0 l0 -219 l231 0 l0 -73 l-231 0 l0 -251 ZM271 567 q-29 34 -83.5 78 q-54.5 44 -94.5 69 l40 59 q38 -22 93 -63.5 q55 -41.5 87 -71.5 l-42 -71 ZM234 330 q-30 36 -88 80.5 q-58 44.5 -100 67.5 l41 62 q36 -19 95 -62 q59 -43 94 -74 l-42 -74 ZM241 258 l40 -17 q-20 -68 -64 -176 q-44 -108 -77 -167 l-69 34 q32 59 75.5 165 q43.5 106 62.5 173 l32 -12 Z" /><glyph glyph-name="Identity.15828" unicode="&#x6d3b;" d="M270 566 q-32 33 -88 77.5 q-56 44.5 -94 68.5 l41 58 q38 -22 95 -64 q57 -42 87 -70 l-41 -70 ZM938 430 l-293 0 l0 -151 l206 0 l0 -383 l-76 0 l0 55 l-333 0 l0 -55 l-75 0 l0 383 l200 0 l0 151 l-256 0 l0 72 l256 0 l0 154 q-108 -9 -221 -15 l-12 70 q115 5 274 20 q159 15 254 31 l14 -70 q-114 -17 -231 -28 l0 -162 l293 0 l0 -72 ZM40 483 l42 61 q40 -24 101 -70 q61 -46 93 -75 l-43 -72 q-31 33 -91 80.5 q-60 47.5 -102 75.5 ZM205 271 l34 -12 l37 -14 q-16 -64 -55 -168.5 q-39 -104.5 -69 -163.5 l-72 26 q30 55 69.5 160 q39.5 105 55.5 172 ZM775 24 l0 184 l-333 0 l0 -184 l333 0 Z" /><glyph glyph-name="Identity.15834" unicode="&#x6d41;" d="M335 440 q25 12 67.5 68 q42.5 56 74.5 112 l-171 0 l0 67 l246 0 q-22 70 -37 113 l71 14 q8 -18 43 -127 l268 0 l0 -67 l-339 0 q-67 -113 -126 -176 q97 6 314 15 q-47 61 -73 87 l52 40 q28 -28 85 -100 q57 -72 77 -109 l-53 -49 q-18 33 -43 68 q-413 -20 -485 -30 l-11 62 q23 4 40 12 ZM234 578 q-25 28 -80 74.5 q-55 46.5 -77 60.5 l41 56 q31 -20 82.5 -60 q51.5 -40 71.5 -63 l-38 -68 ZM238 425 l-36 -71 q-91 89 -171 138 l41 57 q99 -60 166 -124 ZM361 327 l68 -3 q2 -105 -5 -171.5 q-7 -66.5 -29 -116 q-22 -49.5 -50 -80.5 q-28 -31 -81 -74 l-52 44 q65 51 94 91.5 q29 40.5 43 111 q14 70.5 12 198.5 ZM883 118 l61 -27 q-2 -52 -10 -99 q-7 -42 -24 -55 q-17 -13 -57 -18 q-33 -3 -74 -1 q-44 3 -58 19 q-14 16 -14 60 l0 330 l69 -3 l-1 -315 q0 -13 4.5 -18 q4.5 -5 18.5 -7 q20 -3 42 0 q17 2 24 8 q7 6 10 24 q7 42 9 102 ZM535 -80 l0 405 l72 -3 l0 -402 l-72 0 ZM175 285 l65 -19 q-13 -70 -49 -186 q-36 -116 -63 -176 l-74 29 q30 64 68.5 176.5 q38.5 112.5 52.5 175.5 Z" /><glyph glyph-name="Identity.15888" unicode="&#x6d77;" d="M941 269 l-112 0 q-4 -103 -6 -153 l86 0 l0 -71 l-88 0 q-1 -9 -1 -17 q-2 -70 -35.5 -95 q-33.5 -25 -129.5 -30 l-63 -3 l-29 72 l83 4 q61 3 82 16.5 q21 13.5 23 51.5 l0 1 l-436 0 l24 224 l-78 0 l0 68 l86 0 l22 210 q-15 -21 -51 -63 l-54 49 q116 118 184 282 l71 -16 q-18 -41 -44 -89 l426 0 l0 -66 l-465 0 q-32 -49 -62 -91 l465 0 q0 -2 -8 -216 l110 0 l0 -68 ZM268 581 q-28 31 -81.5 75.5 q-53.5 44.5 -90.5 68.5 l41 55 q32 -19 85.5 -61.5 q53.5 -42.5 84.5 -71.5 l-39 -66 ZM224 359 q-52 61 -181 147 l40 55 q36 -19 94.5 -62 q58.5 -43 87.5 -71 l-41 -69 ZM433 486 l-17 -149 l216 0 q-22 24 -60 55 q-38 31 -63 47 l34 47 l-110 0 ZM766 337 q6 148 6 149 l-220 0 q89 -62 119 -91 l-36 -58 l131 0 ZM185 279 l35 -14 l30 -11 q-17 -67 -55.5 -175.5 q-38.5 -108.5 -68.5 -173.5 l-76 26 q34 62 76 169.5 q42 107.5 59 178.5 ZM408 269 l-17 -153 l226 0 q-21 24 -59.5 56 q-38.5 32 -63.5 48 l34 49 l-120 0 ZM755 116 q6 128 7 153 l-227 0 q70 -46 123 -97 l-35 -56 l132 0 Z" /><glyph glyph-name="Identity.15905" unicode="&#x6d88;" d="M648 805 l0 -278 l218 0 l0 -502 q0 -63 -22 -83 q-22 -20 -93 -26 l-69 -6 l-24 72 l72 7 q44 4 54 13.5 q10 9.5 10 46.5 l0 67 l-364 0 l0 -205 l-72 0 l0 616 l218 0 l0 281 l72 -3 ZM95 715 l41 59 q102 -63 174 -130 l-41 -69 q-71 74 -174 140 ZM518 609 l-51 -50 q-70 102 -141 168 l48 46 q31 -29 75.5 -79.5 q44.5 -50.5 68.5 -84.5 ZM897 723 q-68 -93 -144 -167 l-52 46 q84 81 144 167 l52 -46 ZM224 349 q-29 35 -83.5 79.5 q-54.5 44.5 -95.5 70.5 l41 60 q36 -21 91.5 -63.5 q55.5 -42.5 89.5 -73.5 l-43 -73 ZM794 355 l0 103 l-364 0 l0 -103 l364 0 ZM430 182 l364 0 l0 106 l-364 0 l0 -106 ZM197 279 l73 -24 q-17 -72 -52 -179 q-35 -107 -62 -166 l-74 23 q29 63 65.5 171 q36.5 108 49.5 175 Z" /><glyph glyph-name="Identity.16066" unicode="&#x6e29;" d="M247 577 q-27 33 -79.5 78 q-52.5 45 -89.5 70 l41 57 q33 -19 87 -62.5 q54 -43.5 85 -74.5 l-44 -68 ZM814 758 l0 -359 l-468 0 l0 359 l468 0 ZM749 693 l-337 0 l0 -81 l337 0 l0 81 ZM211 350 q-28 35 -82.5 82.5 q-54.5 47.5 -95.5 74.5 l41 58 q37 -23 94 -69 q57 -46 87 -78 l-44 -68 ZM412 464 l337 0 l0 84 l-337 0 l0 -84 ZM845 2 l83 0 l0 -66 l-711 0 l0 66 l99 0 l0 305 l529 0 l0 -305 ZM205 284 l27 -7 q-11 -71 -42 -183 q-31 -112 -57 -173 l-71 20 q26 58 57.5 170 q31.5 112 45.5 185 l40 -12 ZM381 242 l0 -240 l93 0 l0 240 l-93 0 ZM627 2 l0 240 l-89 0 l0 -240 l89 0 ZM779 2 l0 240 l-89 0 l0 -240 l89 0 Z" /><glyph glyph-name="Identity.16077" unicode="&#x6e34;" d="M275 574 q-28 33 -83 76.5 q-55 43.5 -96 70.5 l40 58 q35 -20 91.5 -63 q56.5 -43 87.5 -73 l-40 -69 ZM841 757 l0 -320 l-475 0 l0 320 l475 0 ZM766 697 l-325 0 l0 -70 l325 0 l0 70 ZM441 496 l325 0 l0 72 l-325 0 l0 -72 ZM275 419 l-44 -70 q-37 37 -91.5 79 q-54.5 42 -94.5 66 l42 60 q84 -50 188 -135 ZM464 361 l424 0 q-9 -266 -13 -330 q-4 -67 -28.5 -89.5 q-24.5 -22.5 -98.5 -30.5 l-61 -6 l-22 63 l73 6 q43 4 54 17 q11 13 14 61 q8 95 11 251 l-397 0 q-25 -29 -56 -56 l45 0 l0 -194 l323 0 l0 -60 l-391 0 l0 235 q-26 -23 -51 -41 l-38 53 q114 83 176 190 l65 -20 q-5 -9 -29 -49 ZM584 300 l66 -16 q-18 -36 -28 -52 q86 -47 153 -102 l-37 -57 q-53 56 -146 115 q-53 -64 -134 -111 l-32 52 q114 62 158 171 ZM175 270 l26 -6 l43 -13 q-10 -62 -40.5 -166 q-30.5 -104 -55.5 -169 l-74 22 q25 57 57 161.5 q32 104.5 44 170.5 Z" /><glyph glyph-name="Identity.16250" unicode="&#x6ee1;" d="M738 707 l184 0 l0 -62 l-184 0 l0 -73 l-70 0 l0 73 l-151 0 l0 -74 l-70 0 l0 74 l-167 0 l0 62 l167 0 l0 97 l70 -4 l0 -93 l151 0 l0 97 l70 -4 l0 -93 ZM124 770 q101 -78 143 -124 l-45 -60 q-27 33 -70 74.5 q-43 41.5 -72 62.5 l44 47 ZM86 548 q35 -24 83.5 -67 q48.5 -43 78.5 -75 l-44 -61 q-70 84 -161 153 l43 50 ZM291 482 l0 62 l615 0 l0 -62 l-190 0 q1 -29 1 -99 l168 0 l0 -367 q0 -58 -19 -76 q-19 -18 -79 -24 l-60 -6 l-23 67 l60 5 q35 3 43 12 q8 9 8 46 l0 281 l-101 0 q-3 -43 -9 -79 q61 -67 97 -118 l-44 -48 q-29 49 -68 96 q-25 -88 -95 -185 l-54 36 q58 78 82 139.5 q24 61.5 28 158.5 l-112 0 q0 -9 -6 -62 q54 -62 79 -101 l-43 -38 q-23 37 -50 72 q-23 -86 -93 -179 l-49 34 l0 -136 l-69 0 l0 472 l170 0 q3 48 3 99 l-190 0 ZM652 383 q0 11 0 32 q0 21 0 37.5 q0 16.5 0 29.5 l-108 0 q0 -33 -2 -99 l110 0 ZM377 55 q49 62 70 118 q21 56 28 148 l-98 0 l0 -266 ZM172 292 l32 -9 l39 -12 q-16 -73 -49 -183.5 q-33 -110.5 -63 -180.5 l-73 27 q36 79 71.5 192 q35.5 113 42.5 166 Z" /><glyph glyph-name="Identity.16722" unicode="&#x70b9;" d="M807 514 l0 -317 l-626 0 l0 317 l244 0 l0 285 l78 -3 l0 -96 l390 0 l0 -73 l-390 0 l0 -113 l304 0 ZM732 270 l0 173 l-476 0 l0 -173 l476 0 ZM42 -68 q32 37 72 108.5 q40 71.5 62 122.5 l67 -25 q-19 -48 -59.5 -123.5 q-40.5 -75.5 -71.5 -122.5 l-70 40 ZM791 162 q31 -38 75.5 -105 q44.5 -67 66.5 -111 l-61 -51 q-21 49 -65 118.5 q-44 69.5 -78 111.5 l62 37 ZM531 126 l67 21 q48 -102 76 -212 l-71 -26 q-8 44 -30.5 109.5 q-22.5 65.5 -41.5 107.5 ZM325 124 l71 14 q36 -128 46 -217 l-74 -21 q-11 117 -43 224 Z" /><glyph glyph-name="Identity.16767" unicode="&#x70e6;" d="M325 40 q-28 68 -91 171 q-33 -148 -141 -306 l-65 38 q96 132 128 236 q32 104 32 267 l0 358 l71 -4 l0 -302 l0 -16 q43 75 70 177 l58 -19 q-10 -42 -34 -104.5 q-24 -62.5 -44 -97.5 l-50 23 q-2 -91 -10 -159 q33 -44 75 -110 q42 -66 60 -104 l-59 -48 ZM570 551 q18 46 32 125 l-226 0 l0 68 l548 0 l0 -68 l-244 0 q-10 -66 -28 -125 l209 0 l0 -428 l-72 0 l0 363 l-308 0 l0 -362 l-72 0 l0 427 l161 0 ZM167 379 l-62 -23 q-8 105 -61 284 l63 14 q16 -51 35 -137 q19 -86 25 -138 ZM668 437 l0 -154 q0 -92 -25.5 -153 q-25.5 -61 -94.5 -115.5 q-69 -54.5 -198 -108.5 l-38 60 q94 39 149 71.5 q55 32.5 85 72.5 q30 40 39 81 q9 41 9 107 l0 142 l74 -3 ZM682 154 q147 -89 248 -187 l-39 -63 q-87 97 -243 197 l34 53 Z" /><glyph glyph-name="Identity.16847" unicode="&#x7136;" d="M485 501 l0 60 q-46 -136 -122 -232 q-76 -96 -220 -202 l-48 61 q158 109 228.5 200 q70.5 91 118.5 246 l-167 0 l-23 -39 q76 -43 119 -76 l-34 -57 q-35 37 -116 84 q-24 -37 -53 -74 q65 -42 114 -85 l-35 -55 q-39 43 -117 94 q-14 -16 -38 -42 l-48 51 q166 184 230 368 l70 -14 q-13 -39 -35 -87 l199 0 l0 -66 q-9 -33 -21 -70 l134 0 l0 22 l0 211 l69 -2 l0 -202 l0 -29 l225 0 l0 -65 l-222 0 q24 -93 82 -162.5 q58 -69.5 165 -130.5 l-49 -62 q-170 125 -227 264 q-26 -76 -81.5 -137.5 q-55.5 -61.5 -153.5 -124.5 l-50 59 q121 72 173 136.5 q52 64.5 64 157.5 l-131 0 ZM844 597 q-64 86 -122 135 l40 35 q28 -22 66.5 -61 q38.5 -39 56.5 -64 l-41 -45 ZM734 127 l61 29 q63 -95 110 -204 l-67 -41 q-38 111 -104 216 ZM79 -67 q26 36 63 105 q37 69 54 115 l62 -25 q-17 -49 -52 -120 q-35 -71 -62 -112 l-65 37 ZM544 128 l62 16 q48 -103 68 -197 l-68 -22 q-8 42 -27.5 104.5 q-19.5 62.5 -34.5 98.5 ZM344 128 l66 10 q30 -95 44 -204 l-70 -18 q-10 117 -40 212 Z" /><glyph glyph-name="Identity.17098" unicode="&#x7231;" d="M234 677 q-44 -2 -120 -2 l-11 65 q147 -2 380 12 q233 14 378 34 l9 -61 q-152 -21 -378 -35 q37 -47 67 -99 l-47 -31 l131 0 q56 67 104 145 l59 -31 q-24 -39 -83 -114 l154 0 l0 -136 l-71 0 l0 77 l-629 0 l0 -77 l-70 0 l0 136 l143 0 q-33 56 -63 92 l47 25 ZM492 560 q-24 54 -67 105 l38 23 q-123 -8 -215 -11 q29 -32 67 -90 l-41 -27 l218 0 ZM939 -31 l-25 -69 q-250 44 -382 106 q-146 -66 -375 -112 l-29 66 q200 33 332 83 q-92 56 -162 145 q-79 -109 -229 -227 l-46 57 q106 78 173 154.5 q67 76.5 107 164.5 l-189 0 l0 62 l213 0 q9 25 20 72 l75 -5 q-12 -46 -18 -67 l471 0 l0 -62 l-494 0 q-19 -45 -40 -82 l458 0 l0 -56 q-77 -92 -192 -156 q123 -45 332 -74 ZM375 194 q64 -73 157 -119 q104 50 168 119 l-325 0 Z" /><glyph glyph-name="Identity.17125" unicode="&#x724c;" d="M941 139 l0 -64 l-217 0 l0 -177 l-71 0 l0 177 l-284 0 l0 64 l84 0 l-31 40 q93 45 142 103 l-136 0 l0 424 l155 0 q27 50 42 104 l68 -19 q-16 -47 -34 -85 l218 0 l0 -424 l-239 0 q-48 -80 -157 -143 l172 0 l0 115 l71 -4 l0 -111 l217 0 ZM182 333 l0 -21 l160 0 l0 -410 l-70 0 l0 339 l-93 0 q-16 -195 -85 -345 l-69 26 q51 104 70 199.5 q19 95.5 19 211.5 l0 425 l68 -3 l0 -255 l82 0 l0 274 l68 -3 l0 -271 l64 0 l0 -70 l-214 0 l0 -97 ZM621 643 l-128 0 l0 -123 l128 0 l0 123 ZM810 520 l0 123 l-124 0 l0 -123 l124 0 ZM493 346 l110 0 q17 44 19 111 l-129 0 l0 -111 ZM668 346 l142 0 l0 111 l-126 0 q0 -60 -16 -111 Z" /><glyph glyph-name="Identity.17480" unicode="&#x73af;" d="M710 459 q123 -115 247 -267 l-55 -59 q-110 149 -238 273 l0 -501 l-74 0 l0 482 q-70 -114 -185 -238 l-60 53 q197 197 289 453 l-218 0 l0 74 l499 0 l0 -74 l-203 0 q-28 -93 -76 -188 l28 -1 l0 -50 l46 43 ZM408 135 l4 -32 l5 -38 q-138 -36 -366 -73 l-13 70 q33 6 159 28 l0 260 l-118 0 l0 73 l118 0 l0 222 l-127 0 l0 73 l324 0 l0 -73 l-124 0 l0 -222 l119 0 l0 -73 l-119 0 l0 -246 q82 17 138 31 Z" /><glyph glyph-name="Identity.17481" unicode="&#x73b0;" d="M484 680 l0 -478 l-73 0 l0 549 l441 0 l0 -548 l-72 0 l0 477 l-296 0 ZM383 131 l6 -40 q-59 -21 -169.5 -50 q-110.5 -29 -175.5 -42 l-15 72 q58 11 151 35 l0 255 l-117 0 l0 72 l117 0 l0 219 l-121 0 l0 73 l309 0 l0 -73 l-117 0 l0 -219 l117 0 l0 -72 l-117 0 l0 -236 q81 23 127 39 l5 -33 ZM873 149 l63 -21 q-4 -82 -15 -136 q-7 -34 -30 -49 q-23 -15 -80 -17 q-44 -2 -88 0 q-56 2 -77 24.5 q-21 22.5 -21 79.5 l0 175 q-33 -94 -102.5 -168.5 q-69.5 -74.5 -188.5 -145.5 l-47 65 q121 73 184 137.5 q63 64.5 89 139.5 q26 75 27 190 q2 32 2 196 l72 -2 q0 -136 -2 -204 q-3 -85 -17 -147 l52 -2 l0 -207 q0 -36 10 -46.5 q10 -10.5 46 -12.5 q24 -2 49 0 q34 2 47.5 10.5 q13.5 8.5 17.5 32.5 q9 53 9 108 Z" /><glyph glyph-name="Identity.17510" unicode="&#x73cd;" d="M659 798 q82 -171 299 -314 l-41 -65 q-202 144 -289 307 q-103 -176 -271 -301 l-45 60 q192 139 281 313 l66 0 ZM357 139 l11 -71 q-150 -48 -322 -80 l-15 70 q85 16 151 33 l0 255 l-113 0 l0 70 l113 0 l0 223 l-122 0 l0 70 l307 0 l0 -70 l-116 0 l0 -223 l98 0 l0 -70 l-98 0 l0 -237 q71 19 106 30 ZM370 340 q172 83 306 211 l43 -51 q-120 -121 -314 -223 l-35 63 ZM413 98 l-32 65 q223 87 380 242 l43 -51 q-155 -161 -391 -256 ZM328 -33 q338 96 527 291 l47 -55 q-195 -200 -538 -309 l-36 73 Z" /><glyph glyph-name="Identity.17567" unicode="&#x7406;" d="M670 3 l270 0 l0 -69 l-611 0 l0 69 l270 0 l0 117 l-212 0 l0 67 l212 0 l0 110 l-198 0 l0 449 l469 0 l0 -449 l-200 0 l0 -110 l227 0 l0 -67 l-227 0 l0 -117 ZM359 122 l6 -71 q-148 -43 -319 -72 l-10 70 q45 6 143 28 l0 272 l-115 0 l0 70 l115 0 l0 227 l-125 0 l0 69 l306 0 l0 -69 l-111 0 l0 -227 l106 0 l0 -70 l-106 0 l0 -256 q76 18 110 29 ZM599 678 l-127 0 l0 -123 l127 0 l0 123 ZM801 555 l0 123 l-131 0 l0 -123 l131 0 ZM472 365 l127 0 l0 123 l-127 0 l0 -123 ZM670 365 l131 0 l0 123 l-131 0 l0 -123 Z" /><glyph glyph-name="Identity.17848" unicode="&#x751f;" d="M552 24 l377 0 l0 -75 l-848 0 l0 75 l392 0 l0 235 l-307 0 l0 73 l307 0 l0 202 l-241 0 q-43 -91 -111 -193 l-66 48 q70 100 115 187.5 q45 87.5 71 189.5 l71 -19 q-25 -85 -47 -138 l208 0 l0 194 l79 -3 l0 -191 l334 0 l0 -75 l-334 0 l0 -202 l301 0 l0 -73 l-301 0 l0 -235 Z" /><glyph glyph-name="Identity.17857" unicode="&#x7528;" d="M152 747 l704 0 l0 -720 q0 -62 -26.5 -84.5 q-26.5 -22.5 -95.5 -27.5 l-61 -4 l-25 75 l61 4 q47 3 58.5 13.5 q11.5 10.5 11.5 48.5 l0 139 l-242 0 l0 -273 l-76 0 l0 273 l-238 0 q-9 -85 -34 -151 q-25 -66 -77 -148 l-71 33 q69 105 90 180 q21 75 21 236 l0 406 ZM461 675 l-233 0 l0 -174 l233 0 l0 174 ZM779 501 l0 174 l-242 0 l0 -174 l242 0 ZM227 265 l234 0 l0 162 l-233 0 l0 -113 q0 -33 -1 -49 ZM537 265 l242 0 l0 162 l-242 0 l0 -162 Z" /><glyph glyph-name="Identity.17960" unicode="&#x758f;" d="M416 451 q54 59 128 168 l-137 0 l0 67 l193 0 q-7 23 -24.5 70.5 q-17.5 47.5 -17.5 48.5 l69 12 q22 -54 46 -131 l218 0 l0 -67 l-270 0 q-77 -112 -130 -173 q129 3 266 10 q-44 57 -74 87 l51 36 q34 -34 83.5 -96 q49.5 -62 73.5 -102 l-52 -46 q-17 31 -35 56 q-318 -12 -347 -14 q-37 -2 -66 -7 l-15 59 q19 6 40 22 ZM384 69 l3 -30 q-151 -43 -356 -72 l-8 69 q31 3 67 9 l0 471 l62 -2 l0 -458 l73 15 l0 455 q34 46 83 130 l-242 0 l0 69 l320 0 l0 -63 q-56 -101 -96 -152 l0 -147 l100 0 l0 -65 l-100 0 l0 -212 q56 13 91 23 l3 -40 ZM437 239 l0 88 l63 -2 l0 -118 q0 -112 -31 -180 q-31 -68 -112 -143 l-54 51 q57 50 83 84.5 q26 34.5 38.5 85 q12.5 50.5 12.5 134.5 ZM886 119 l60 -22 q-6 -77 -13 -117 q-5 -30 -23 -44 q-18 -14 -57 -16 q-25 -2 -51 0 q-42 2 -59.5 18.5 q-17.5 16.5 -17.5 60.5 l0 328 l63 -2 l0 -304 q0 -20 5 -26.5 q5 -6.5 22 -8.5 q16 -2 31 0 q15 2 22 9 q7 7 11 29 q5 31 7 95 ZM577 -78 l0 404 l66 -2 l0 -402 l-66 0 Z" /><glyph glyph-name="Identity.18111" unicode="&#x7626;" d="M251 652 l0 -243 q0 -180 -31 -282.5 q-31 -102.5 -114 -232.5 l-62 41 q67 96 97 178.5 q30 82.5 36 183.5 q-86 -48 -146 -73 l-24 71 q93 39 172 82 l0 339 l335 0 q-10 35 -24 77 l71 13 q12 -29 29 -90 l314 0 l0 -64 l-653 0 ZM165 432 l-64 -28 q-8 48 -32 121.5 q-24 73.5 -44 117.5 l61 23 q20 -44 45 -117 q25 -73 34 -117 ZM939 -36 l-27 -66 q-212 39 -328 87 q-132 -56 -346 -88 l-27 64 q188 27 296 61 q-74 41 -139 102 l28 25 l-93 0 l0 59 l246 0 l0 63 l-233 0 l0 289 q86 14 179 41 l21 -51 q-82 -23 -138 -34 l0 -67 l132 0 l0 -51 l-132 0 l0 -72 l171 0 l0 303 l65 -2 l0 -301 l176 0 l0 72 l-141 0 l0 51 l141 0 l0 67 l-144 0 l0 57 l205 0 l0 -302 l-237 0 l0 -63 l208 0 l0 -59 q-74 -78 -163 -128 q105 -33 280 -57 ZM434 149 q67 -62 147 -98 q81 37 151 98 l-298 0 Z" /><glyph glyph-name="Identity.18205" unicode="&#x7684;" d="M612 647 l278 0 q-7 -431 -17 -605 q-4 -63 -27.5 -87.5 q-23.5 -24.5 -89.5 -29.5 l-86 -7 l-24 76 l97 6 q27 2 39 15 q12 13 15 50 q9 140 15 511 l-228 -1 q-31 -71 -61 -129 l-68 36 q89 150 137 343 l73 -15 q-27 -93 -53 -163 ZM332 799 q-18 -81 -45 -154 l155 0 l0 -704 l-341 0 l0 704 l103 0 q23 62 47 171 l81 -17 ZM372 336 l0 237 l-201 0 l0 -237 l201 0 ZM732 221 l-64 -43 q-63 129 -139 237 l59 40 q78 -103 144 -234 ZM171 11 l201 0 l0 252 l-201 0 l0 -252 Z" /><glyph glyph-name="Identity.18282" unicode="&#x76d1;" d="M600 602 q-52 -139 -113 -242 l-69 34 q51 85 96.5 199 q45.5 114 68.5 213 l76 -13 q-18 -69 -34 -118 l296 0 l0 -73 l-321 0 ZM408 795 l0 -479 l-70 0 l0 481 l70 -2 ZM208 758 l0 -416 l-69 0 l0 418 l69 -2 ZM613 515 l53 50 q39 -31 98 -90.5 q59 -59.5 88 -97.5 l-55 -55 q-28 42 -85 101 q-57 59 -99 92 ZM822 6 l117 0 l0 -68 l-894 0 l0 68 l115 0 l0 270 l662 0 l0 -270 ZM230 209 l0 -203 l133 0 l0 203 l-133 0 ZM557 6 l0 203 l-131 0 l0 -203 l131 0 ZM752 6 l0 203 l-133 0 l0 -203 l133 0 Z" /><glyph glyph-name="Identity.18311" unicode="&#x76ee;" d="M168 746 l650 0 l0 -848 l-76 0 l0 70 l-497 0 l0 -73 l-77 0 l0 851 ZM742 672 l-497 0 l0 -159 l497 0 l0 159 ZM742 441 l-497 0 l0 -161 l497 0 l0 161 ZM245 42 l497 0 l0 166 l-497 0 l0 -166 Z" /><glyph glyph-name="Identity.18317" unicode="&#x76f4;" d="M792 4 l146 0 l0 -67 l-890 0 l0 67 l146 0 l0 567 l261 0 l0 82 l-363 0 l0 66 l363 0 l0 87 l75 -3 l0 -84 l363 0 l0 -66 l-363 0 l0 -82 l262 0 l0 -567 ZM716 506 l-447 0 l0 -77 l447 0 l0 77 ZM716 291 l0 77 l-447 0 l0 -77 l447 0 ZM716 229 l-447 0 l0 -78 l447 0 l0 78 ZM269 89 l0 -85 l447 0 l0 85 l-447 0 Z" /><glyph glyph-name="Identity.18321" unicode="&#x76f8;" d="M279 398 l46 30 q55 -70 102 -152 l-59 -50 q-43 84 -89 145 l0 -469 l-70 0 l0 469 q-40 -110 -122 -239 l-64 48 q48 66 104.5 170 q56.5 104 76.5 191 l-136 0 l0 70 l141 0 l0 186 l70 -3 l0 -183 l128 0 l0 -70 l-128 0 l0 -143 ZM441 735 l438 0 l0 -828 l-71 0 l0 68 l-297 0 l0 -68 l-70 0 l0 828 ZM808 665 l-297 0 l0 -163 l297 0 l0 163 ZM808 433 l-297 0 l0 -156 l297 0 l0 156 ZM511 43 l297 0 l0 165 l-297 0 l0 -165 Z" /><glyph glyph-name="Identity.18340" unicode="&#x770b;" d="M910 417 l-527 0 q-19 -33 -47 -69 l455 0 l0 -447 l-71 0 l0 45 l-408 0 l0 -46 l-71 0 l0 341 q-73 -69 -169 -134 l-46 56 q181 117 272 254 l-229 0 l0 61 l266 0 q17 33 33 71 l-211 0 l0 61 l233 0 q14 48 20 73 q-123 -7 -279 -10 l-5 65 q350 6 702 44 l7 -67 q-188 -18 -348 -27 q-9 -40 -21 -78 l358 0 l0 -61 l-378 0 q-11 -29 -31 -71 l495 0 l0 -61 ZM720 226 l0 62 l-408 0 l0 -62 l408 0 ZM312 170 l0 -56 l408 0 l0 56 l-408 0 ZM312 5 l408 0 l0 53 l-408 0 l0 -53 Z" /><glyph glyph-name="Identity.18360" unicode="&#x771f;" d="M788 143 l151 0 l0 -58 l-895 0 l0 58 l152 0 l0 448 l257 0 l0 65 l-370 0 l0 62 l370 0 l0 87 l75 -3 l0 -84 l372 0 l0 -62 l-372 0 l0 -65 l260 0 l0 -448 ZM715 534 l-446 0 l0 -58 l446 0 l0 58 ZM715 365 l0 57 l-446 0 l0 -57 l446 0 ZM715 311 l-446 0 l0 -57 l446 0 l0 57 ZM269 201 l0 -58 l446 0 l0 58 l-446 0 ZM69 -43 q170 46 311 124 l31 -62 q-146 -75 -316 -130 l-26 68 ZM568 12 l24 61 q154 -44 314 -110 l-22 -68 q-139 64 -316 117 Z" /><glyph glyph-name="Identity.18389" unicode="&#x773c;" d="M755 130 q67 -78 193 -136 l-46 -63 q-131 72 -203.5 161 q-72.5 89 -112.5 234 l-66 0 l0 -324 q89 40 150 73 l14 -69 q-43 -16 -187 -83 q-29 -13 -48 -25 l-30 68 q19 12 23.5 19.5 q4.5 7.5 4.5 25.5 l0 743 l412 0 l0 -428 l-207 0 q27 -85 65 -145 q78 51 144 116 l40 -51 q-60 -61 -146 -116 ZM95 -16 l0 769 l263 0 l0 -769 l-263 0 ZM788 688 l-268 0 l0 -117 l268 0 l0 117 ZM294 686 l-136 0 l0 -167 l136 0 l0 167 ZM520 506 l0 -115 l268 0 l0 115 l-268 0 ZM158 287 l136 0 l0 167 l-136 0 l0 -167 ZM158 50 l136 0 l0 173 l-136 0 l0 -173 Z" /><glyph glyph-name="Identity.18558" unicode="&#x77e5;" d="M327 331 q-3 -50 -13 -92 q112 -121 175 -205 l-57 -59 q-65 100 -141 189 q-48 -124 -186 -267 l-57 52 q104 106 150 191.5 q46 85.5 55 190.5 l-202 0 l0 72 l205 0 l1 200 l-67 0 q-33 -84 -67 -145 l-64 33 q84 150 123 314 l68 -16 q-14 -57 -33 -112 l244 0 l0 -74 l-130 0 q0 -27 -0.5 -73.5 q-0.5 -46.5 -0.5 -83 q0 -36.5 0 -39.5 l0 -4 l149 0 l0 -72 l-152 0 ZM521 713 l341 0 l0 -788 l-73 0 l0 94 l-196 0 l0 -94 l-72 1 l0 787 ZM593 93 l196 0 l0 546 l-196 0 l0 -546 Z" /><glyph glyph-name="Identity.18566" unicode="&#x77ed;" d="M375 12 q-34 57 -114 151 q-44 -128 -166 -264 l-62 48 q97 98 140 186 q43 88 50 204 l-178 0 l0 73 l179 0 l1 186 l-52 0 q-34 -89 -62 -135 l-71 35 q82 127 123 310 l73 -14 q-14 -53 -37 -123 l206 0 l0 -73 l-113 0 l-1 -186 l124 0 l0 -73 l-124 0 q-1 -45 -9 -89 q75 -75 141 -171 l-48 -65 ZM907 743 l0 -75 l-489 0 l0 75 l489 0 ZM862 557 l0 -288 l-415 0 l0 288 l415 0 ZM788 339 l0 152 l-270 0 l0 -152 l270 0 ZM757 11 l170 0 l0 -78 l-552 0 l0 78 l302 0 q62 108 101 239 l75 -24 q-40 -108 -96 -215 ZM556 25 q-33 89 -92 183 l63 32 q44 -65 89 -173 l-60 -42 Z" /><glyph glyph-name="Identity.18649" unicode="&#x7840;" d="M821 302 l68 -3 l0 -397 l-68 0 l0 45 l-383 0 l0 353 l68 -4 l0 -277 l122 0 l0 352 l-175 0 l0 345 l66 -3 l0 -272 l109 0 l0 364 l69 -2 l0 -362 l113 0 l0 275 l65 -3 l0 -342 l-178 0 l0 -352 l124 0 l0 283 ZM68 654 l0 68 l337 0 l0 -68 l-131 0 q-28 -112 -62 -200 l152 0 l0 -485 l-226 0 l0 328 q-29 -51 -60 -91 l-56 46 q131 162 181 402 l-135 0 ZM302 39 l0 344 l-102 0 l0 -344 l102 0 Z" /><glyph glyph-name="Identity.18693" unicode="&#x786c;" d="M945 -12 l-19 -73 q-211 24 -325 93 q-70 -63 -246 -114 l-30 70 q158 42 218 86 q-59 50 -110 128 l45 33 l-47 0 l0 382 l191 0 l0 97 l-223 0 l0 65 l525 0 l0 -65 l-236 0 l0 -97 l189 0 l0 -382 l-192 0 q-6 -89 -38 -146 q111 -62 298 -77 ZM353 2 l-219 0 l0 317 q-24 -45 -54 -90 l-55 50 q119 170 170 385 l-122 0 l0 70 l308 0 l0 -70 l-116 0 q-28 -114 -63 -202 l151 0 l0 -460 ZM622 527 l-124 0 l0 -95 l124 0 l0 95 ZM813 527 l-125 0 l0 -95 l125 0 l0 95 ZM290 74 l0 315 l-92 0 l0 -315 l92 0 ZM498 370 l0 -95 l124 0 l0 22 l0 73 l-124 0 ZM688 275 l125 0 l0 95 l-125 0 l0 -81 l0 -14 ZM492 211 q46 -67 98 -108 q23 40 29 108 l-127 0 Z" /><glyph glyph-name="Identity.18695" unicode="&#x786e;" d="M737 553 l151 0 l0 -529 q0 -59 -20.5 -81 q-20.5 -22 -80.5 -28 l-39 -4 l-24 68 l44 4 q34 3 44 13 q10 10 10 43 l0 83 l-132 0 l0 -195 l-65 0 l0 195 l-136 0 q-8 -62 -29 -114 q-21 -52 -62 -115 l-63 37 q60 88 78 158 q18 70 18 212 l0 193 q-20 -22 -31 -32 l-48 48 q58 58 115.5 142.5 q57.5 84.5 94.5 164.5 l70 -23 q-14 -30 -35 -69 l226 0 l0 -60 q-44 -62 -86 -111 ZM348 -11 l-215 0 l0 345 q-20 -36 -57 -90 l-60 40 q128 179 176 376 l-120 0 l0 70 l321 0 l0 -70 l-133 0 q-28 -118 -69 -211 l157 0 l0 -460 ZM558 657 q-30 -48 -74 -104 l162 0 q42 44 88 104 l-176 0 ZM625 370 l0 113 l-128 0 l0 -113 l128 0 ZM822 370 l0 113 l-132 0 l0 -113 l132 0 ZM197 378 l0 -317 l87 0 l0 317 l-87 0 ZM495 190 l130 0 l0 110 l-128 0 l0 -20 q0 -36 -2 -90 ZM690 190 l132 0 l0 110 l-132 0 l0 -110 Z" /><glyph glyph-name="Identity.19034" unicode="&#x79c1;" d="M922 -58 l-72 -29 q-7 41 -23 96 l-319 -25 q-43 -6 -83 -19 l-24 71 q27 12 35 21.5 q8 9.5 17 35.5 q108 321 183 705 l73 -15 q-87 -436 -190 -724 q173 12 288 22 q-58 195 -113 311 l65 25 q41 -84 92 -232.5 q51 -148.5 71 -242.5 ZM426 194 q-41 66 -123 142 l0 -433 l-71 0 l0 427 q-65 -123 -164 -245 l-52 57 q128 151 203 312 l-153 0 l0 72 l166 0 l0 129 q-88 -13 -157 -20 l-7 73 q217 22 382 66 l12 -74 q-65 -17 -159 -33 l0 -141 l165 0 l0 -72 l-165 0 l0 -82 l28 33 q30 -25 75.5 -71.5 q45.5 -46.5 68.5 -76.5 l-49 -63 Z" /><glyph glyph-name="Identity.19046" unicode="&#x79cd;" d="M889 626 l0 -431 l-202 0 l0 -294 l-72 0 l0 294 l-198 0 l0 431 l198 0 l0 182 l72 -3 l0 -179 l202 0 ZM281 374 q79 -69 128 -126 l-46 -58 q-43 58 -101 112 l0 -401 l-70 0 l0 400 q-44 -98 -118 -207 l-51 47 q116 164 168 309 l-132 0 l0 74 l133 0 l0 134 q-42 -7 -125 -19 l-7 69 q203 31 325 64 l12 -70 q-41 -12 -135 -31 l0 -147 l122 0 l0 -74 l-122 0 l0 -99 l19 23 ZM489 269 l126 0 l0 284 l-126 0 l0 -284 ZM816 269 l0 284 l-129 0 l0 -284 l129 0 Z" /><glyph glyph-name="Identity.19050" unicode="&#x79d1;" d="M940 181 l-151 -14 l0 -269 l-74 0 l0 262 l-329 -31 l-6 72 l335 31 l0 565 l74 -4 l0 -554 l145 14 l6 -72 ZM405 239 l-45 -49 q-32 55 -78 111 l0 -403 l-72 0 l0 418 q-60 -136 -141 -236 l-55 49 q138 168 192 322 l-139 0 l0 69 l143 0 l0 133 q-68 -11 -135 -18 l-17 67 q219 23 355 66 l7 -71 q-49 -15 -138 -31 l0 -146 l127 0 l0 -69 l-127 0 l0 -95 l18 15 q22 -22 55.5 -64 q33.5 -42 49.5 -68 ZM638 516 q-61 66 -172 144 l38 53 q117 -77 175 -136 l-41 -61 ZM608 269 q-98 102 -172 148 l41 51 q84 -50 174 -135 l-43 -64 Z" /><glyph glyph-name="Identity.19081" unicode="&#x79f0;" d="M436 425 l-69 32 q46 68 86 160.5 q40 92.5 61 179.5 l74 -8 q-12 -41 -40 -121 l347 0 l0 -70 q-42 -104 -76 -164 l-64 24 q23 41 64 140 l-299 0 q-40 -95 -84 -173 ZM334 208 q-30 54 -80 113 l0 -424 l-65 0 l0 409 q-53 -134 -105 -215 l-59 44 q104 142 163 323 l-129 0 l0 69 l130 0 l0 129 q-76 -12 -121 -13 l-13 67 q60 1 157 18.5 q97 17.5 158 35.5 l10 -67 q-51 -16 -126 -30 l0 -140 l110 0 l0 -69 l-110 0 l0 -93 l26 23 q66 -66 103 -126 l-49 -54 ZM601 42 l0 477 l73 -3 l0 -501 q0 -57 -27 -80.5 q-27 -23.5 -97 -28.5 l-47 -4 l-25 75 l54 4 q42 3 55.5 15.5 q13.5 12.5 13.5 45.5 ZM470 377 l67 -16 q-65 -205 -171 -373 l-68 33 q51 67 98 165 q47 98 74 191 ZM786 376 q36 -62 85 -172 q49 -110 72 -180 l-62 -40 q-21 74 -69 186.5 q-48 112.5 -85 175.5 l59 30 Z" /><glyph glyph-name="Identity.19092" unicode="&#x79fb;" d="M660 338 l257 0 l0 -65 q-80 -128 -203 -218 q-123 -90 -344 -165 l-35 62 q205 64 312.5 136 q107.5 72 185.5 185 l-229 0 q-31 -33 -48 -48 q56 -40 97 -82 l-41 -51 q-36 43 -101 92 q-51 -45 -118 -90 l-41 51 q191 122 296 280 q-104 -61 -247 -110 l-28 62 q303 93 440 269 l-239 0 q-20 -23 -39 -41 q44 -30 87 -70 l-43 -50 q-41 42 -89 77 q-31 -28 -67 -55 l-41 52 q150 106 236 253 l57 -28 q-19 -34 -49 -74 l267 0 l0 -64 q-92 -128 -234 -214 l54 -21 q-20 -32 -53 -73 ZM354 188 q-47 67 -89 115 l0 -402 l-65 0 l0 434 q-51 -121 -125 -238 l-52 44 q115 166 165 312 l-127 0 l0 65 l139 0 l0 142 q-63 -11 -128 -20 l-7 67 q202 31 316 64 l13 -68 q-64 -18 -129 -30 l0 -155 l121 0 l0 -65 l-121 0 l0 -105 l20 20 q51 -48 115 -135 l-46 -45 Z" /><glyph glyph-name="Identity.19108" unicode="&#x7a0b;" d="M359 175 q-33 60 -93 132 l0 -414 l-64 0 l0 417 q-48 -125 -113 -227 l-60 41 q108 148 167 331 l-127 0 l0 71 l133 0 l0 132 q-72 -14 -123 -17 l-14 69 q61 4 158.5 23.5 q97.5 19.5 157.5 39.5 l14 -68 q-59 -20 -129 -34 l0 -145 l124 0 l0 -71 l-124 0 l0 -107 l28 24 q24 -24 60 -69 q36 -45 54 -74 l-49 -54 ZM855 747 l0 -266 l-425 0 l0 266 l425 0 ZM784 545 l0 137 l-286 0 l0 -137 l286 0 ZM677 16 l253 0 l0 -72 l-583 0 l0 72 l259 0 l0 117 l-182 0 l0 69 l182 0 l0 118 l-207 0 l0 69 l500 0 l0 -69 l-222 0 l0 -118 l190 0 l0 -69 l-190 0 l0 -117 Z" /><glyph glyph-name="Identity.19148" unicode="&#x7a33;" d="M402 526 l-47 47 q107 101 180 244 l68 -20 q-25 -46 -43 -74 l244 0 l0 -55 q-43 -62 -84 -110 l146 0 l0 -337 l-237 0 q50 -81 71 -136 l-51 -35 q-21 71 -71 145 l46 26 l-236 0 l0 60 l412 0 l0 79 l-401 0 l0 58 l401 0 l0 78 l-381 0 l0 47 l-17 -17 ZM336 210 q-27 49 -92 118 l0 -424 l-64 0 l0 411 q-49 -120 -113 -220 l-51 44 q102 144 151 315 l-109 0 l0 68 l122 0 l0 138 q-62 -11 -111 -17 l-8 67 q170 20 296 62 l12 -68 q-49 -15 -125 -31 l0 -151 l120 0 l0 -68 l-120 0 l0 -93 l25 27 q53 -48 110 -126 l-43 -52 ZM724 664 l-203 0 q-45 -62 -88 -106 l209 0 q37 43 82 106 ZM847 181 q23 -38 53 -104.5 q30 -66.5 44 -109.5 l-55 -33 q-12 46 -41.5 114.5 q-29.5 68.5 -53.5 107.5 l53 25 ZM298 -36 q21 37 48.5 102.5 q27.5 65.5 38.5 105.5 l59 -14 q-12 -42 -40.5 -111 q-28.5 -69 -50.5 -112 l-55 29 ZM725 16 q5 32 7 78 l59 -20 q-6 -65 -13 -98 q-5 -26 -27.5 -38 q-22.5 -12 -76.5 -16 q-50 -2 -99 0 q-55 4 -76.5 24 q-21.5 20 -21.5 74 l0 149 l62 -2 l0 -132 q0 -30 10.5 -40 q10.5 -10 41.5 -12 q39 -3 78 0 q30 2 41.5 8.5 q11.5 6.5 14.5 24.5 Z" /><glyph glyph-name="Identity.19300" unicode="&#x7acb;" d="M890 656 l0 -76 l-790 0 l0 76 l370 0 q-28 111 -42 143 l78 15 q7 -19 48 -158 l336 0 ZM600 28 l324 0 l0 -76 l-861 0 l0 76 l454 0 q40 93 91.5 242.5 q51.5 149.5 77.5 254.5 l78 -22 q-24 -96 -73 -237 q-49 -141 -91 -238 ZM354 86 q-26 86 -71 206.5 q-45 120.5 -76 187.5 l73 27 q51 -116 150 -389 l-76 -32 Z" /><glyph glyph-name="Identity.19428" unicode="&#x7b4b;" d="M222 641 q-46 -78 -105 -151 l-55 45 q103 122 167 281 l75 -10 q-19 -47 -44 -98 l249 0 l0 -67 l-171 0 q48 -92 55 -106 l-63 -31 q-22 60 -67 137 l-41 0 ZM634 706 l300 0 l0 -66 l-174 0 q38 -70 61 -118 l-63 -31 q-30 81 -74 149 l-79 0 q-31 -68 -73 -134 l-64 30 q84 137 132 280 l72 -9 q-14 -42 -38 -101 ZM647 532 q0 -9 -0.5 -29 q-0.5 -20 -1.5 -47.5 q-1 -27.5 -1 -44.5 l224 0 q-1 -36 -7.5 -186 q-6.5 -150 -8.5 -182 q-5 -74 -31.5 -97.5 q-26.5 -23.5 -109.5 -29.5 l-56 -3 l-24 72 l67 4 q53 3 69.5 17 q16.5 14 18.5 64 q6 68 12 271 l-156 0 q-6 -160 -44 -253 q-38 -93 -132 -199 l-54 47 q90 97 123.5 177.5 q33.5 80.5 41.5 227.5 l-117 0 l0 70 l120 0 q2 84 2 123 l65 -2 ZM423 497 l0 -481 q0 -56 -23 -75.5 q-23 -19.5 -89 -24.5 l-41 -3 l-20 66 l53 4 q38 1 47 11.5 q9 10.5 9 43.5 l0 90 l-153 0 q-9 -74 -33 -126 q-24 -52 -70 -112 l-63 37 q41 57 60.5 93.5 q19.5 36.5 33 98.5 q13.5 62 13.5 152 l0 226 l276 0 ZM359 431 l-147 0 l0 -89 l147 0 l0 89 ZM211 190 l148 0 l0 91 l-147 0 l0 -43 q0 -33 -1 -48 Z" /><glyph glyph-name="Identity.19732" unicode="&#x7c7b;" d="M92 269 l-32 72 q218 61 363 176 l-332 0 l0 63 l222 0 q-26 34 -73 77.5 q-47 43.5 -83 69.5 l45 50 q32 -21 82.5 -66 q50.5 -45 79.5 -78 l-41 -53 l131 0 l0 218 l73 -3 l0 -215 l365 0 l0 -63 l-365 0 l0 -173 l-73 0 l0 111 q-68 -56 -151 -98.5 q-83 -42.5 -211 -87.5 ZM827 733 q-29 -33 -80 -79.5 q-51 -46.5 -83 -69.5 l-46 50 q31 21 80 67.5 q49 46.5 79 80.5 l50 -49 ZM537 431 l25 60 q65 -19 172.5 -62 q107.5 -43 171.5 -76 l-21 -71 q-61 35 -170 81.5 q-109 46.5 -178 67.5 ZM536 177 q45 -70 146.5 -125 q101.5 -55 253.5 -82 l-25 -77 q-312 77 -415 219 q-43 -72 -144.5 -122.5 q-101.5 -50.5 -279.5 -95.5 l-31 76 q338 71 398 207 l-346 0 l0 65 l360 0 l0 1 l0 74 l76 -3 l0 -71 l0 -1 l362 0 l0 -65 l-355 0 Z" /><glyph glyph-name="Identity.19799" unicode="&#x7cbe;" d="M674 469 l260 0 l0 -56 l-545 0 l0 56 l220 0 l0 62 l-181 0 l0 55 l181 0 l0 64 l-195 0 l0 56 l195 0 l0 89 l65 -2 l0 -87 l225 0 l0 -56 l-225 0 l0 -64 l202 0 l0 -55 l-202 0 l0 -62 ZM257 299 l31 28 q24 -25 60 -72 q36 -47 53 -76 l-50 -52 q-30 62 -94 140 l0 -370 l-64 0 l0 367 q-37 -77 -129 -204 l-52 51 q114 144 166 277 l-126 0 l0 69 l141 0 l0 334 l64 -4 l0 -330 l113 0 l0 -69 l-113 0 l0 -89 ZM404 705 q-10 -42 -32.5 -104.5 q-22.5 -62.5 -40.5 -96.5 l-53 22 q17 32 37.5 93.5 q20.5 61.5 29.5 101.5 l59 -16 ZM168 523 l-57 -26 q-6 41 -25.5 103 q-19.5 62 -36.5 101 l55 18 q16 -34 36 -96 q20 -62 28 -100 ZM434 -93 l0 440 l417 0 l0 -341 q0 -54 -23.5 -74.5 q-23.5 -20.5 -93.5 -24.5 l-45 -3 l-23 60 l55 4 q40 1 52 12 q12 11 12 41 l0 31 l-286 0 l0 -145 l-65 0 ZM785 289 l-286 0 l0 -62 l286 0 l0 62 ZM499 108 l286 0 l0 62 l-286 0 l0 -62 Z" /><glyph glyph-name="Identity.19860" unicode="&#x7cfb;" d="M801 233 q-200 -5 -258 -7 l0 -203 q0 -63 -24 -82 q-24 -19 -108 -27 l-57 -5 l-25 74 l70 6 q46 4 57.5 13.5 q11.5 9.5 11.5 41.5 l0 179 q-170 -6 -246 -11 q-33 -1 -92 -8 l-15 76 q47 6 74 15 q128 45 279 145 q-178 -4 -251 -8 q-22 0 -72 -5 l-14 66 q54 7 77 20 q94 54 195 145 q-234 -13 -287 -15 l-13 73 q162 4 393 19 q231 15 365 32 l12 -73 q-145 -15 -417 -33 l21 -25 q-93 -88 -172 -137 q43 0 256 9 q74 56 155 133 l48 -56 q-90 -84 -201 -162.5 q-111 -78.5 -213 -132.5 q63 2 387 15 q-50 53 -90 88 l54 46 q43 -36 107.5 -105.5 q64.5 -69.5 96.5 -113.5 l-52 -56 q-20 31 -52 69 ZM317 182 l44 -59 q-111 -94 -285 -192 l-37 63 q181 98 278 188 ZM654 179 q169 -86 289 -175 l-35 -71 q-47 39 -140 98 q-93 59 -151 88 l37 60 Z" /><glyph glyph-name="Identity.20283" unicode="&#x7ea2;" d="M121 451 q-27 -2 -50 -7 l-14 70 q26 9 40 25 q31 34 81.5 116 q50.5 82 84.5 156 l64 -35 q-80 -164 -155 -254 q13 0 38.5 1.5 q25.5 1.5 58.5 3 q33 1.5 46 2.5 q25 38 63 102 l60 -39 q-97 -174 -214 -314 q17 3 58 8.5 q41 5.5 83 11.5 q42 6 51 7 l2 -74 q-184 -20 -244 -33 q-44 -6 -76 -13 l-15 72 q44 14 66 39 q37 42 121 164 q-97 -4 -149 -9 ZM699 32 l241 0 l0 -74 l-548 0 l0 74 l231 0 l0 607 l-191 0 l0 76 l469 0 l0 -76 l-202 0 l0 -607 ZM418 84 l2 -40 q-65 -18 -181.5 -42 q-116.5 -24 -184.5 -33 l-10 75 q71 9 188.5 33 q117.5 24 182.5 44 l3 -37 Z" /><glyph glyph-name="Identity.20287" unicode="&#x7ea6;" d="M595 648 l282 0 q0 -25 -8 -292 q-8 -267 -10 -302 q-3 -68 -32.5 -93 q-29.5 -25 -110.5 -31 l-81 -6 l-23 76 l77 5 q57 4 73.5 17.5 q16.5 13.5 20.5 62.5 q7 88 16 487 l-235 0 q-35 -83 -80 -153 l-67 35 q101 157 155 358 l69 -18 q-16 -66 -46 -146 ZM116 443 q-16 0 -49 -7 l-16 70 q29 10 40 24 q32 38 83 120 q51 82 84 154 l63 -33 q-33 -68 -79 -142.5 q-46 -74.5 -79 -114.5 q100 3 145 6 q46 69 70 117 l61 -39 q-43 -75 -113.5 -177.5 q-70.5 -102.5 -114.5 -153.5 q105 12 200 27 l2 -72 q-54 -9 -255 -33 q-38 -6 -67 -13 l-16 73 q41 8 66 37 q40 46 122 165 l-147 -8 ZM696 245 l-58 -51 q-21 44 -66 109 q-45 65 -82 106 l55 39 q88 -94 151 -203 ZM450 92 l2 -41 l2 -30 q-123 -26 -399 -70 l-9 68 q254 35 404 73 Z" /><glyph glyph-name="Identity.20288" unicode="&#x7ea7;" d="M107 454 q-21 -2 -46 -8 l-14 69 q26 11 40 31 q32 42 75 117.5 q43 75.5 71 140.5 l60 -27 q-68 -144 -146 -254 q71 4 122 5 q37 62 61 109 l57 -30 q-38 -73 -100.5 -169.5 q-62.5 -96.5 -108.5 -155.5 l190 25 l3 -67 q-91 -10 -233 -33 q-13 -2 -58 -12 l-18 71 q36 12 59 43 q46 59 108 154 q-114 -8 -122 -9 ZM745 141 q89 -92 221 -168 l-45 -67 q-137 91 -222 180 q-89 -97 -243 -188 l-49 58 q152 82 246 182 q-84 106 -129 241 q-13 -142 -52.5 -246 q-39.5 -104 -128.5 -219 l-62 39 q104 129 141.5 247.5 q37.5 118.5 45.5 305.5 q2 43 5 169 l-83 0 l0 69 l439 0 l0 -69 q-35 -106 -74 -182 l127 0 l0 -68 q-55 -174 -137 -284 ZM535 560 q50 -223 164 -367 q70 95 116 232 l-131 0 l0 60 q40 79 76 190 l-222 0 q0 -16 -1.5 -59 q-1.5 -43 -1.5 -56 ZM347 89 l3 -36 q-51 -16 -147 -39 q-96 -23 -154 -33 l-12 69 q55 8 152 31 q97 23 155 41 l3 -33 Z" /><glyph glyph-name="Identity.20312" unicode="&#x7ebf;" d="M253 446 l-184 -24 l-12 61 q17 2 23 10 q44 55 87.5 144 q43.5 89 66.5 160 l65 -25 q-53 -137 -135 -272 q14 1 39 3 q25 2 46.5 4 q21.5 2 41.5 5 q36 68 63 123 l61 -34 q-35 -79 -98 -180 q-63 -101 -115 -162 q75 10 164 28 l3 -63 q-53 -11 -149.5 -28.5 q-96.5 -17.5 -138.5 -25.5 l-11 69 q22 2 32 11 q74 64 151 196 ZM864 152 l64 -40 q-8 -39 -24 -89 q-37 -116 -121 -116 q-81 0 -146 104 q-15 23 -27 51 q-99 -67 -209 -112 l-39 62 q122 45 223 114 q-28 90 -47 206 l-150 -20 l-8 69 l148 20 q-5 38 -13 112 l-101 -11 l-6 66 l100 11 l0 4 l-12 212 l72 -1 q6 -112 12 -207 l282 32 l7 -66 l-284 -32 l12 -111 l281 37 l7 -68 l-277 -37 q16 -99 39 -172 q101 79 183 179 l50 -45 q-93 -110 -209 -198 q14 -34 30 -59 q38 -62 82 -62 q19 0 33.5 17 q14.5 17 28.5 60 q11 36 19 90 ZM766 623 q-70 89 -127 128 l42 41 q81 -66 127 -118 l-42 -51 ZM372 116 l10 -68 q-15 -7 -147 -42 q-132 -35 -178 -45 l-15 69 q39 5 168.5 39 q129.5 34 161.5 47 Z" /><glyph glyph-name="Identity.20319" unicode="&#x7ec6;" d="M266 510 q35 64 58 113 l58 -31 q-36 -75 -98 -178.5 q-62 -103.5 -99 -154.5 l163 23 l0 -69 q-49 -5 -200 -29 q-21 -3 -58 -12 l-16 71 q29 10 48 37 q43 57 106 163 q-49 -2 -119 -7 q-12 0 -42 -6 l-17 67 q26 13 36 29 q27 33 69 115 q42 82 71 155 l61 -26 q-27 -63 -69.5 -145 q-42.5 -82 -69.5 -121 q34 4 118 6 ZM397 728 l484 0 l0 -814 l-70 0 l0 67 l-346 0 l0 -67 l-68 0 l0 814 ZM603 651 l-138 0 l0 -260 l138 0 l0 260 ZM811 391 l0 260 l-141 0 l0 -260 l141 0 ZM465 316 l0 -258 l138 0 l0 258 l-138 0 ZM670 58 l141 0 l0 258 l-141 0 l0 -258 ZM364 93 l1 -36 l2 -39 q-205 -38 -318 -55 l-9 72 q142 20 324 58 Z" /><glyph glyph-name="Identity.20328" unicode="&#x7ecf;" d="M108 433 q-9 -1 -46 -6 l-17 68 q16 6 22.5 10.5 q6.5 4.5 15.5 15.5 q34 43 78 121.5 q44 78.5 75 150.5 l66 -27 q-66 -151 -149 -262 q62 4 131 6 q51 83 68 115 l62 -32 q-42 -78 -110 -179 q-68 -101 -109 -151 q147 19 185 26 l1 -73 q-128 -16 -233 -31 q-35 -5 -62 -12 l-17 71 q23 8 33 14 q10 6 21 20 q46 53 117 163 l-132 -8 ZM355 389 q109 37 221 114.5 q112 77.5 173 160.5 l-316 0 l0 72 l411 0 l0 -70 q-56 -75 -132 -144 q146 -67 242 -127 l-35 -66 q-105 72 -262 148 q-114 -88 -260 -154 l-42 66 ZM683 219 l0 -203 l240 0 l0 -68 l-547 0 l0 68 l233 0 l0 203 l-174 0 l0 70 l434 0 l0 -70 l-186 0 ZM35 35 q217 42 317 69 l4 -71 q-74 -20 -307 -70 l-14 72 Z" /><glyph glyph-name="Identity.20332" unicode="&#x7ed3;" d="M933 594 l-248 0 l0 -142 l207 0 l0 -70 l-481 0 l0 70 l199 0 l0 142 l-217 0 l0 71 l217 0 l0 137 l75 -3 l0 -134 l248 0 l0 -71 ZM116 436 q-24 -2 -44 -6 l-15 70 q15 5 21.5 10 q6.5 5 14.5 17 q29 38 73.5 120.5 q44.5 82.5 74.5 153.5 l62 -26 q-28 -65 -72.5 -147 q-44.5 -82 -73.5 -122 q6 0 129 7 q28 49 44 81 l58 -27 q-86 -174 -184 -305 l175 25 l2 -70 q-16 -1 -108.5 -14.5 q-92.5 -13.5 -118.5 -18.5 q-32 -3 -58 -11 l-16 72 q32 10 51 34 q62 77 115 166 q-123 -8 -130 -9 ZM433 -102 l0 376 l431 0 l0 -376 l-75 0 l0 66 l-282 0 l0 -66 l-74 0 ZM789 206 l-282 0 l0 -174 l282 0 l0 174 ZM403 93 l3 -50 l1 -25 q-156 -33 -357 -61 l-8 71 q181 21 361 65 Z" /><glyph glyph-name="Identity.20373" unicode="&#x7efc;" d="M455 618 l0 -123 l-68 0 l0 192 l225 0 q-9 32 -35 102 l70 13 q7 -16 39 -115 l220 0 l0 -192 l-68 0 l0 123 l-383 0 ZM102 439 q-22 -2 -45 -8 l-17 75 q25 10 38 29 q75 110 134 263 l67 -22 q-25 -64 -65.5 -141.5 q-40.5 -77.5 -69.5 -119.5 q71 3 118 7 q36 65 58 111 l61 -28 q-37 -78 -98 -181.5 q-61 -103.5 -99 -155.5 q88 12 160 27 l1 -74 q-12 -2 -102.5 -17 q-90.5 -15 -102.5 -17 q-34 -5 -62 -13 l-15 78 q37 12 51 32 q44 62 104 163 q-88 -4 -116 -8 ZM823 430 l-352 0 l0 68 l352 0 l0 -68 ZM931 248 l-246 0 l0 -240 q0 -58 -23.5 -77 q-23.5 -19 -90.5 -26 l-36 -4 l-25 73 l35 4 q44 5 55.5 14.5 q11.5 9.5 11.5 47.5 l0 208 l-226 0 l0 68 l545 0 l0 -68 ZM476 200 l60 -30 q-21 -52 -60.5 -121.5 q-39.5 -69.5 -82.5 -125.5 l-60 40 q92 113 143 237 ZM793 200 q32 -39 75 -109.5 q43 -70.5 66 -118.5 l-60 -42 q-22 55 -63.5 126.5 q-41.5 71.5 -71.5 107.5 l54 36 ZM364 54 l1 -26 q-116 -25 -323 -58 l-8 72 q171 23 327 62 l3 -50 Z" /><glyph glyph-name="Identity.20418" unicode="&#x7f29;" d="M437 633 l0 -90 l-67 0 l0 155 l251 0 q-22 69 -33 98 l70 13 q9 -22 38 -111 l219 0 l0 -136 l-67 0 l0 71 l-411 0 ZM466 583 l63 -10 q-28 -94 -53 -157 l0 -521 l-65 0 l0 384 q-24 -44 -49 -78 l-48 37 l1 -22 q-8 -1 -46 -6 q-38 -5 -81.5 -11 q-43.5 -6 -54.5 -7 q-22 -3 -51 -10 l-14 75 q31 10 44 29 q44 61 99 162 l-110 -6 q-17 0 -39 -6 l-13 71 q20 7 30 25 q27 39 65 117 q38 78 63 149 l65 -20 q-24 -64 -63 -143.5 q-39 -79.5 -67 -124.5 q6 0 45.5 2 q39.5 2 58.5 3 q27 53 50 103 l57 -30 q-35 -77 -88.5 -173.5 q-53.5 -96.5 -89.5 -147.5 q86 9 138 19 l1 -30 q58 89 91 162 q33 73 61 165 ZM930 467 l-181 0 q-9 -54 -19 -98 l148 0 l0 -467 l-64 0 l0 55 l-189 0 l0 -56 l-61 0 l0 468 l98 0 q5 22 20 98 l-152 0 l0 64 l400 0 l0 -64 ZM814 194 l0 112 l-189 0 l0 -112 l189 0 ZM625 18 l189 0 l0 114 l-189 0 l0 -114 ZM345 93 l2 -36 l2 -33 q-125 -25 -302 -49 l-6 70 q143 13 304 48 Z" /><glyph glyph-name="Identity.20435" unicode="&#x7f3a;" d="M94 305 l65 -3 l0 -258 l65 3 l0 323 l-182 0 l0 69 l182 0 l0 172 l-53 0 q-31 -70 -66 -126 l-58 37 q86 131 122 288 l68 -9 q-20 -71 -38 -120 l237 0 l0 -70 l-145 0 l0 -172 l167 0 l0 -69 l-167 0 l0 -320 l60 2 l0 253 l66 -3 l0 -319 l-323 -13 l0 335 ZM679 276 q61 -196 271 -308 l-48 -67 q-195 117 -264 298 q-20 -90 -70 -163 q-50 -73 -143 -143 l-51 57 q98 70 143.5 146 q45.5 76 58.5 180 l-126 0 l0 69 l131 0 q1 5 1 14 q2 60 2 217 l-118 0 l0 68 l119 0 l0 160 l71 -2 l0 -158 l194 0 l0 -299 l80 0 l0 -69 l-251 0 ZM654 370 l0 -25 l128 0 l0 231 l-127 0 q0 -53 -0.5 -126.5 q-0.5 -73.5 -0.5 -79.5 Z" /><glyph glyph-name="Identity.20519" unicode="&#x7f8e;" d="M923 385 l0 -64 l-873 0 l0 64 l399 0 l0 85 l-321 0 l0 61 l321 0 l0 90 l-353 0 l0 61 l223 0 q-51 62 -83 91 l51 44 q57 -51 100 -105 l-32 -30 l207 0 q68 70 111 143 l59 -40 q-32 -51 -78 -103 l222 0 l0 -61 l-349 0 l0 -90 l318 0 l0 -61 l-318 0 l0 -85 l396 0 ZM534 147 q102 -135 404 -182 l-34 -75 q-307 64 -417 207 q-96 -140 -425 -205 l-29 75 q325 55 394 180 l-341 0 l0 64 l358 0 q3 30 3 82 l80 -3 q0 -41 -2 -79 l361 0 l0 -64 l-352 0 Z" /><glyph glyph-name="Identity.20541" unicode="&#x7fa4;" d="M943 196 l0 -69 l-205 0 l0 -228 l-71 0 l0 228 l-175 0 l0 69 l175 0 l0 146 l-140 0 l0 70 l140 0 l0 145 l-150 0 l0 69 l196 0 q60 100 91 189 l74 -19 q-33 -79 -88 -170 l122 0 l0 -69 l-174 0 l0 -145 l158 0 l0 -70 l-158 0 l0 -146 l205 0 ZM682 666 l-62 -36 q-20 64 -76 150 l58 33 q17 -25 42.5 -72 q25.5 -47 37.5 -75 ZM221 344 q-13 -50 -33 -97 l270 0 l0 -292 l-304 0 l0 224 q-37 -64 -83 -127 l-54 46 q93 117 131 246 l-76 0 l0 66 l92 0 q10 50 15 105 l-125 0 l0 65 l128 0 q1 17 5 107 l-110 0 l0 64 l372 0 l0 -171 l56 0 l0 -65 l-56 0 l0 -171 l-228 0 ZM255 687 l-4 -107 l134 0 l0 107 l-130 0 ZM248 515 q-5 -62 -13 -105 l150 0 l0 105 l-137 0 ZM217 183 l0 -164 l177 0 l0 164 l-177 0 Z" /><glyph glyph-name="Identity.20593" unicode="&#x7fd8;" d="M45 343 l-19 64 q84 26 161 67 q0 3 -2 7 q-19 53 -33 116 l-104 -20 l-12 65 l102 20 q-10 50 -22 133 l68 6 q8 -68 18 -126 l194 39 l11 -66 l-193 -38 q10 -44 27 -99 l1 -4 q71 46 120 99 l34 -48 q-53 -62 -128 -110 q41 -71 77 -71 q7 0 12 2.5 q5 2.5 9 9 q4 6.5 5.5 10 q1.5 3.5 6.5 14.5 q12 30 18 67 l52 -24 q-11 -51 -26 -88 q-24 -54 -77 -54 q-32 0 -67 26 q-35 26 -64 76 q-75 -41 -169 -73 ZM571 385 l0 301 l-141 0 l0 66 l199 0 l0 -591 q0 -56 -20 -76.5 q-20 -20.5 -80 -24.5 l-39 -3 l-21 65 l48 2 q36 3 45 13 q9 10 9 45 l0 127 q-74 -59 -117 -79 l-28 58 q60 28 145 97 ZM792 336 q-71 -62 -124 -90 l-28 64 q68 35 152 102 l0 274 l-133 0 l0 66 l190 0 l0 -592 q0 -50 -22.5 -72 q-22.5 -22 -82.5 -26 l-40 -3 l-20 64 l47 2 q36 3 48.5 15 q12.5 12 12.5 43 l0 153 ZM443 612 l49 19 q40 -86 60 -173 l-50 -26 q-18 89 -59 180 ZM705 629 q39 -82 62 -174 l-51 -27 q-6 35 -25 91 q-19 56 -35 90 l49 20 ZM869 111 l61 -25 q-4 -52 -17 -99 q-7 -26 -34 -38.5 q-27 -12.5 -88 -15.5 q-203 -11 -405 0 q-57 3 -80.5 25 q-23.5 22 -23.5 76 l0 189 l-82 0 q0 -3 -0.5 -8.5 q-0.5 -5.5 -0.5 -6.5 q-1 -113 -32.5 -180.5 q-31.5 -67.5 -105.5 -129.5 l-44 47 q66 57 93 112 q27 55 27 155 l0 11 l-100 0 l0 64 l379 0 l0 -64 l-66 0 l0 -168 q0 -35 12 -46.5 q12 -11.5 48 -13.5 q186 -11 373 0 q38 2 53.5 9.5 q15.5 7.5 19.5 25.5 q10 39 13 81 Z" /><glyph glyph-name="Identity.20629" unicode="&#x7ffc;" d="M387 526 l0 188 l-305 0 l0 54 l375 0 l0 -242 l-70 0 ZM503 530 l-8 51 q72 8 175 26 q-64 41 -122 65 l26 42 l-75 0 l0 54 l366 0 l0 -242 l-68 0 l0 188 l-219 0 q75 -29 126 -65 l-20 -39 q66 12 100 21 l2 -22 l3 -29 q-138 -31 -286 -50 ZM380 571 q-150 -32 -303 -53 l-7 53 q98 12 199 31 q-76 49 -126 70 l28 41 q60 -25 128 -65 l-24 -45 q58 10 101 21 l2 -25 l2 -28 ZM684 98 l250 0 l0 -51 l-885 0 l0 51 l249 0 l0 66 l-194 0 l0 50 l194 0 l0 51 l-142 0 l0 244 l670 0 l0 -244 l-142 0 l0 -51 l194 0 l0 -50 l-194 0 l0 -66 ZM459 463 l-235 0 l0 -53 l235 0 l0 53 ZM758 410 l0 53 l-233 0 l0 -53 l233 0 ZM224 364 l0 -52 l235 0 l0 52 l-235 0 ZM525 312 l233 0 l0 52 l-233 0 l0 -52 ZM370 265 l0 -51 l243 0 l0 51 l-243 0 ZM370 164 l0 -66 l243 0 l0 66 l-243 0 ZM91 -49 q191 38 314 90 l22 -53 q-144 -57 -318 -95 l-18 58 ZM559 -11 l22 52 q164 -37 315 -90 l-18 -58 q-169 64 -319 96 Z" /><glyph glyph-name="Identity.20638" unicode="&#x8005;" d="M935 437 l-348 0 q-75 -54 -179 -109 l382 0 l0 -426 l-74 0 l0 50 l-410 0 l0 -50 l-75 0 l0 342 q-57 -25 -172 -70 l-25 71 q266 94 426 192 l-389 0 l0 66 l329 0 l0 126 l-238 0 l0 64 l238 0 l0 111 l76 -3 l0 -108 l221 0 l0 -64 l-221 0 l0 -126 l82 0 q139 103 248 256 l60 -41 q-87 -124 -194 -215 l263 0 l0 -66 ZM716 172 l0 93 l-410 0 l0 -93 l410 0 ZM306 15 l410 0 l0 94 l-410 0 l0 -94 Z" /><glyph glyph-name="Identity.20645" unicode="&#x800c;" d="M910 675 l-372 0 q-19 -81 -45 -153 l358 0 l0 -489 q0 -67 -24 -90.5 q-24 -23.5 -92 -28.5 l-45 -4 l-24 76 l53 4 q37 3 48.5 15 q11.5 12 11.5 50 l0 397 l-147 0 l0 -491 l-69 0 l0 491 l-148 0 l0 -491 l-69 0 l0 491 l-146 0 l0 -537 l-71 0 l0 607 l278 0 q30 77 46 153 l-384 0 l0 72 l841 0 l0 -72 Z" /><glyph glyph-name="Identity.20684" unicode="&#x8033;" d="M933 152 l-1 -69 l-182 -8 l0 -178 l-75 0 l0 174 l-623 -28 l-4 70 l174 8 l0 556 l-125 0 l0 67 l789 0 l0 -67 l-136 0 l0 -533 l183 8 ZM675 677 l-379 0 l0 -137 l379 0 l0 137 ZM296 472 l0 -131 l379 0 l0 131 l-379 0 ZM296 124 l379 17 l0 132 l-379 0 l0 -149 Z" /><glyph glyph-name="Identity.20723" unicode="&#x805a;" d="M37 409 l100 6 l0 294 l-65 0 l0 55 l440 0 l0 -55 l-65 0 l0 -265 q11 1 30 4 q19 3 21 3 l0 -46 q94 43 156 91 q-90 66 -142 95 l36 48 q70 -38 157 -99 q53 53 95 127 l-281 0 l0 61 l349 0 l0 -61 q-43 -92 -113 -162 q101 -75 150 -123 l-42 -63 q-52 56 -159 139 q-77 -62 -192 -116 l-26 50 q-10 -1 -39 -5 l0 -60 l-60 0 l0 53 q-135 -15 -338 -31 l-12 60 ZM387 709 l-188 0 l0 -58 l188 0 l0 58 ZM199 598 l0 -56 l188 0 l0 56 l-188 0 ZM199 490 l0 -70 q95 8 188 17 l0 53 l-188 0 ZM677 98 q112 -68 262 -111 l-30 -67 q-135 54 -227.5 105.5 q-92.5 51.5 -157.5 116.5 l0 -246 l-67 0 l0 356 q-206 -17 -324 -17 l-9 58 q121 0 322 17 q201 17 331 36 l9 -56 q-90 -15 -262 -32 l0 -29 q41 -50 94 -90 q47 20 107.5 54.5 q60.5 34.5 95.5 61.5 l35 -56 q-76 -54 -179 -101 ZM365 230 l22 -49 q-54 -29 -147.5 -68.5 q-93.5 -39.5 -151.5 -55.5 l-26 56 q59 15 154 52 q95 37 149 65 ZM37 -36 q211 60 360 150 l26 -50 q-139 -92 -360 -157 l-26 57 Z" /><glyph glyph-name="Identity.20803" unicode="&#x80aa;" d="M597 591 q-1 -50 -4 -125 q0 -5 -0.5 -14.5 q-0.5 -9.5 -0.5 -13.5 l267 0 q0 -5 -9 -188 q-9 -183 -10 -198 q-4 -73 -32.5 -97.5 q-28.5 -24.5 -111.5 -29.5 l-54 -4 l-25 78 l67 4 q50 3 67 17.5 q17 14.5 20 56.5 q3 26 8.5 144 q5.5 118 5.5 143 l-196 0 q-9 -166 -39 -257 q-30 -91 -108 -196 l-66 41 q88 106 114 203.5 q26 97.5 35 320.5 q2 36 4 115 l-117 0 l0 74 l236 0 q-14 61 -36 122 l66 15 q20 -50 40 -137 l220 0 l0 -74 l-341 0 ZM381 744 l0 -732 q0 -54 -23 -75.5 q-23 -21.5 -86 -26.5 l-42 -4 l-24 77 l47 4 q36 3 48 14.5 q12 11.5 12 43.5 l0 171 l-128 0 q-6 -97 -25.5 -163 q-19.5 -66 -64.5 -155 l-68 31 q58 88 75.5 169 q17.5 81 17.5 277 l0 369 l261 0 ZM313 670 l-125 0 l0 -159 l125 0 l0 159 ZM187 287 l126 0 l0 155 l-125 0 l0 -97 q0 -40 -1 -58 Z" /><glyph glyph-name="Identity.20824" unicode="&#x80bf;" d="M891 626 l0 -425 l-191 0 l0 -300 l-74 0 l0 300 l-186 0 l0 425 l186 0 l0 181 l74 -3 l0 -178 l191 0 ZM116 377 l0 373 l259 0 l0 -735 q0 -51 -19 -67 q-19 -16 -78 -24 l-31 -4 l-26 72 l36 4 q36 4 45 12 q9 8 9 40 l0 173 l-131 0 q-8 -165 -87 -325 l-63 37 q50 99 68 187 q18 88 18 257 ZM311 679 l-130 0 l0 -166 l130 0 l0 166 ZM511 271 l115 0 l0 284 l-115 0 l0 -284 ZM820 271 l0 284 l-120 0 l0 -284 l120 0 ZM181 291 l130 0 l0 154 l-130 0 l0 -154 Z" /><glyph glyph-name="Identity.20891" unicode="&#x8102;" d="M849 617 l70 -22 q0 -25 -8 -65 q-11 -56 -30.5 -73 q-19.5 -17 -78.5 -21 q-121 -8 -242 0 q-63 4 -85.5 27.5 q-22.5 23.5 -22.5 88.5 l0 244 l72 -3 l0 -134 q166 42 332 106 l22 -70 q-159 -58 -354 -106 l0 -27 q0 -36 10.5 -48 q10.5 -12 42.5 -14 q98 -8 197 0 q41 3 53 13 q12 10 17 46 q5 35 5 58 ZM113 379 l0 375 l251 0 l0 -743 q0 -49 -19 -66 q-19 -17 -75 -24 l-39 -5 l-21 74 l42 4 q32 3 40.5 11 q8.5 8 8.5 36 l0 180 l-126 0 q-5 -106 -24 -177 q-19 -71 -59 -146 l-64 30 q49 95 67 180.5 q18 85.5 18 270.5 ZM301 682 l-124 0 l0 -165 l124 0 l0 165 ZM177 292 l124 0 l0 154 l-124 0 l0 -137 l0 -17 ZM460 -98 l0 452 l405 0 l0 -450 l-73 0 l0 49 l-259 0 l0 -51 l-73 0 ZM792 288 l-259 0 l0 -103 l259 0 l0 103 ZM533 18 l259 0 l0 103 l-259 0 l0 -103 Z" /><glyph glyph-name="Identity.20906" unicode="&#x8111;" d="M692 677 l247 0 l0 -68 l-558 0 l0 68 l235 0 q-23 76 -38 114 l74 14 q6 -15 40 -128 ZM108 371 l0 371 l226 0 l0 -731 q0 -51 -20 -71 q-20 -20 -75 -25 l-36 -4 l-20 73 l43 4 q31 2 38 13 q7 11 7 45 l0 171 l-104 0 q-5 -100 -27 -168.5 q-22 -68.5 -67 -152.5 l-55 33 q51 98 70.5 181 q19.5 83 19.5 261 ZM271 674 l-103 0 l0 -166 l103 0 l0 166 ZM524 63 l-47 45 q72 96 144 226 q-73 129 -131 204 l48 35 q48 -62 117 -176 q53 102 86 184 l60 -21 q-48 -113 -109 -227 q78 -133 118 -230 l-51 -42 q-33 85 -101 209 q-67 -116 -134 -207 ZM814 19 l0 490 l68 -2 l0 -601 l-68 0 l0 48 l-408 0 l0 552 l67 -2 l0 -485 l341 0 ZM168 283 l103 0 l0 157 l-103 0 l0 -157 Z" /><glyph glyph-name="Identity.20945" unicode="&#x8138;" d="M380 418 l-24 38 l0 -440 q0 -50 -22 -69.5 q-22 -19.5 -81 -24.5 l-39 -4 l-22 73 l46 4 q34 3 44.5 13.5 q10.5 10.5 10.5 40.5 l0 178 l-120 0 q-5 -74 -18.5 -134 q-13.5 -60 -25.5 -93 q-12 -33 -40 -100 l-62 33 q48 94 68 182 q20 88 20 267 l0 372 l241 0 l0 -265 q164 131 248 311 l67 0 q86 -184 290 -335 l-43 -56 q-33 23 -86 71 l0 -65 l-369 0 l0 68 l366 0 q-130 121 -192 241 q-90 -176 -257 -306 ZM293 680 l-116 0 l0 -162 l116 0 l0 162 ZM176 295 l117 0 l0 156 l-116 0 l0 -69 q0 -60 -1 -87 ZM634 99 q-6 51 -28 133 q-22 82 -41 133 l59 17 q18 -47 40.5 -129.5 q22.5 -82.5 29.5 -130.5 l-60 -23 ZM865 359 q-12 -63 -45 -163 q-33 -100 -66 -176 l168 0 l0 -72 l-544 0 l0 72 l307 0 q31 71 65.5 178 q34.5 107 48.5 175 l66 -14 ZM482 66 q-8 56 -32 145.5 q-24 89.5 -44 140.5 l58 18 q20 -50 45 -138 q25 -88 33 -141 l-60 -25 Z" /><glyph glyph-name="Identity.21012" unicode="&#x817b;" d="M895 129 l54 -26 q-14 -86 -26 -126 q-10 -31 -29.5 -51.5 q-19.5 -20.5 -40.5 -20.5 q-24 0 -47 28 q-23 28 -38 77 q-46 157 -59 487 q0 11 -1.5 51.5 q-1.5 40.5 -1.5 65.5 l-349 0 l0 61 l347 0 q0 20 -1.5 66 q-1.5 46 -1.5 62 l60 -4 q0 -49 3 -124 l97 0 q-18 36 -67 94 l43 29 q46 -51 68 -90 l-37 -33 l75 0 l0 -61 l-178 0 q0 -22 1 -47 q1 -25 2 -50 q1 -25 1 -36 q14 -268 52 -428 q16 -62 32 -62 q20 0 26 43 q12 64 16 95 ZM115 389 l0 355 l206 0 l0 -735 q0 -50 -19 -69 q-19 -19 -71 -24 l-33 -3 l-20 60 l38 4 q29 2 37.5 11 q8.5 9 8.5 39 l0 193 l-92 0 q-12 -171 -83 -325 l-59 31 q50 102 68.5 190 q18.5 88 18.5 273 ZM262 677 l-90 0 l0 -170 l90 0 l0 170 ZM391 550 l263 0 l0 -55 l-263 0 l0 55 ZM172 283 l90 0 l0 161 l-90 0 l0 -151 l0 -10 ZM364 386 l0 56 l314 0 l0 -56 l-314 0 ZM660 62 l-54 0 l0 218 l-163 0 l0 -218 l-55 0 l0 269 l272 0 l0 -269 ZM550 240 l0 -78 q0 -92 -40 -146.5 q-40 -54.5 -158 -105.5 l-28 51 q107 43 140.5 87.5 q33.5 44.5 33.5 122.5 l0 71 l52 -2 ZM546 23 l32 42 q27 -17 69.5 -50 q42.5 -33 66.5 -57 l-36 -50 q-21 24 -62.5 59.5 q-41.5 35.5 -69.5 55.5 Z" /><glyph glyph-name="Identity.21123" unicode="&#x81ea;" d="M482 685 l346 0 l0 -779 l-79 0 l0 62 l-512 0 l0 -65 l-78 0 l0 782 l235 0 q30 70 48 133 l86 -13 q-18 -54 -46 -120 ZM749 612 l-512 0 l0 -144 l512 0 l0 144 ZM749 397 l-512 0 l0 -140 l512 0 l0 140 ZM237 40 l512 0 l0 144 l-512 0 l0 -144 Z" /><glyph glyph-name="Identity.21133" unicode="&#x81f4;" d="M720 157 q76 -98 218 -198 l-46 -66 q-135 102 -214 202 q-72 -98 -220 -207 l-47 61 q147 99 225 206 q-76 119 -108 276 q-12 -20 -18 -29 l-46 56 q92 142 134 346 l68 -13 q-18 -81 -42 -152 l294 0 l0 -71 l-80 0 q-30 -265 -118 -411 ZM464 77 l0 -68 q-122 -22 -433 -50 l-5 68 q64 4 210 20 l0 150 l-165 0 l0 67 l165 0 l0 137 l-100 -6 q-30 -2 -59 -9 l-15 66 q20 7 29 17 q52 67 118 195 l-152 0 l0 70 l430 0 l0 -70 l-201 0 q-70 -128 -121 -201 q73 2 206 10 q-27 51 -60 99 l53 33 q70 -98 123 -205 l-57 -43 q-1 3 -25 53 l-97 -5 l0 -141 l164 0 l0 -67 l-164 0 l0 -142 q107 14 156 22 ZM576 521 q23 -175 101 -302 q66 123 93 349 l-173 0 l-21 -47 Z" /><glyph glyph-name="Identity.21256" unicode="&#x826f;" d="M351 284 l-121 0 l0 -278 q113 34 240 76 l4 -77 q-32 -8 -270 -80 q-48 -16 -58 -20 l-28 73 q21 11 28.5 19 q7.5 8 7.5 23 l0 688 l284 0 q-13 47 -34 95 l77 13 q23 -55 39 -108 l270 0 l0 -424 l-355 0 q47 -82 112 -138 q58 25 137.5 70 q79.5 45 125.5 79 l43 -60 q-91 -66 -240 -135 q112 -65 321 -104 l-32 -74 q-105 23 -181 49 q-76 26 -147.5 67 q-71.5 41 -126 101.5 q-54.5 60.5 -96.5 144.5 ZM713 641 l-483 0 l0 -113 l483 0 l0 113 ZM230 350 l483 0 l0 112 l-483 0 l0 -112 Z" /><glyph glyph-name="Identity.21260" unicode="&#x8273;" d="M857 143 l67 -26 q-1 -23 -8 -66 q-11 -69 -39.5 -93 q-28.5 -24 -103.5 -28 q-119 -6 -238 0 q-70 4 -97.5 32.5 q-27.5 28.5 -27.5 101.5 l0 404 l-58 42 q126 148 193 310 l68 -24 q-23 -52 -40 -83 l242 0 l0 -60 l-95 -138 l136 0 l0 -311 l-382 0 l0 -125 q0 -45 17.5 -61 q17.5 -16 63.5 -18 q105 -6 210 0 q48 3 62.5 16 q14.5 13 22.5 58 q5 28 7 69 ZM255 369 l0 -158 l129 0 l0 -67 l-129 0 l0 -240 l-71 0 l0 240 l-149 0 l0 67 l149 0 l0 158 l-118 0 l0 67 l118 0 l0 149 l-124 0 l0 68 l124 0 l0 154 l71 -3 l0 -151 l116 0 l0 -68 l-116 0 l0 -149 l110 0 l0 -67 l-110 0 ZM539 651 q-40 -67 -92 -136 l195 0 l94 136 l-197 0 ZM474 271 l124 0 l0 177 l-124 0 l0 -177 ZM790 271 l0 177 l-126 0 l0 -177 l126 0 Z" /><glyph glyph-name="Identity.21275" unicode="&#x8282;" d="M680 682 l254 0 l0 -74 l-254 0 l0 -108 l-75 0 l0 108 l-228 0 l0 -108 l-75 0 l0 108 l-255 0 l0 74 l255 0 l0 122 l75 -3 l0 -119 l228 0 l0 122 l75 -3 l0 -119 ZM86 379 l0 73 l739 0 q-8 -226 -11 -281 q-5 -87 -42 -117 q-37 -30 -149 -35 l-75 -3 l-30 78 l98 4 q73 4 93.5 21.5 q20.5 17.5 24.5 76.5 q7 112 7 183 l-339 0 l0 -483 l-79 0 l0 483 l-237 0 Z" /><glyph glyph-name="Identity.21318" unicode="&#x82ad;" d="M677 712 l258 0 l0 -70 l-258 0 l0 -77 l-75 0 l0 77 l-222 0 l0 -77 l-75 0 l0 77 l-258 0 l0 70 l258 0 l0 93 l75 -2 l0 -91 l222 0 l0 93 l75 -2 l0 -91 ZM811 45 q12 57 12 106 l76 -28 q-3 -66 -20 -133 q-8 -32 -39.5 -47.5 q-31.5 -15.5 -105.5 -18.5 q-211 -7 -430 0 q-83 3 -115.5 34 q-32.5 31 -32.5 117 l0 451 l664 0 l0 -300 l-589 0 l0 -130 q0 -58 19.5 -76.5 q19.5 -18.5 79.5 -20.5 q213 -8 390 0 q46 2 66 12.5 q20 10.5 25 33.5 ZM451 459 l-220 0 l0 -164 l220 0 l0 164 ZM744 295 l0 164 l-220 0 l0 -164 l220 0 Z" /><glyph glyph-name="Identity.21375" unicode="&#x82e6;" d="M282 547 l0 87 l-212 0 l0 69 l212 0 l0 100 l73 -2 l0 -98 l271 0 l0 99 l73 -2 l0 -97 l212 0 l0 -69 l-212 0 l0 -88 l-73 0 l0 88 l-271 0 l0 -87 l-73 0 ZM917 398 l-387 0 l0 -128 l275 0 l0 -371 l-75 0 l0 55 l-479 0 l0 -55 l-74 0 l0 371 l275 0 l0 128 l-388 0 l0 70 l388 0 l0 105 l78 -3 l0 -102 l387 0 l0 -70 ZM730 24 l0 174 l-479 0 l0 -174 l479 0 Z" /><glyph glyph-name="Identity.21605" unicode="&#x83cc;" d="M680 720 l254 0 l0 -64 l-254 0 l0 -70 l-72 0 l0 70 l-234 0 l0 -70 l-73 0 l0 70 l-252 0 l0 64 l252 0 l0 87 l73 -3 l0 -84 l234 0 l0 87 l72 -3 l0 -84 ZM129 -99 l0 668 l725 0 l0 -669 l-73 0 l0 47 l-579 0 l0 -46 l-73 0 ZM781 507 l-579 0 l0 -497 l579 0 l0 497 ZM234 111 q125 62 204 144 l-192 0 l0 53 l214 0 l0 79 q-102 -7 -184 -9 l-9 53 q235 4 430 32 l7 -51 q-72 -12 -179 -20 l0 -84 l213 0 l0 -53 l-213 0 l0 -59 l28 42 q39 -19 97 -56 q58 -37 90 -64 l-30 -55 q-31 29 -88 68.5 q-57 39.5 -97 61.5 l0 -154 l-65 0 l0 163 q-80 -83 -196 -145 l-30 54 Z" /><glyph glyph-name="Identity.21813" unicode="&#x849c;" d="M307 558 l0 84 l-244 0 l0 64 l244 0 l0 87 l69 -2 l0 -85 l228 0 l0 88 l69 -2 l0 -86 l244 0 l0 -64 l-244 0 l0 -83 l-69 0 l0 83 l-228 0 l0 -84 l-69 0 ZM119 463 l0 65 l337 0 l0 -65 l-337 0 ZM512 463 l0 65 l347 0 l0 -65 l-347 0 ZM468 300 l-136 0 l0 -292 q0 -58 -22.5 -79 q-22.5 -21 -85.5 -27 l-41 -4 l-20 69 l48 4 q35 2 43.5 13 q8.5 11 8.5 48 l0 268 l-190 0 l0 65 l395 0 l0 -65 ZM916 300 l-193 0 l0 -292 q0 -59 -22 -79.5 q-22 -20.5 -88 -26.5 l-42 -4 l-21 69 l51 4 q36 2 43 12.5 q7 10.5 7 48.5 l0 268 l-155 0 l0 65 l420 0 l0 -65 ZM539 243 l66 -18 q-45 -151 -117 -270 l-62 29 q33 48 60 109 l-56 -37 q-25 79 -81 166 l54 28 q41 -56 85 -153 q35 77 51 146 ZM815 249 q27 -44 66.5 -122.5 q39.5 -78.5 61.5 -134.5 l-63 -35 q-20 57 -57.5 137 q-37.5 80 -65.5 127 l58 28 ZM157 246 l65 -17 q-39 -124 -127 -276 l-64 28 q86 137 126 265 Z" /><glyph glyph-name="Identity.21974" unicode="&#x853d;" d="M321 604 l0 56 l-244 0 l0 63 l244 0 l0 81 l70 -3 l0 -78 l205 0 l0 81 l71 -3 l0 -78 l246 0 l0 -63 l-246 0 l0 -56 l-71 0 l0 56 l-205 0 l0 -56 l-70 0 ZM779 118 q65 -86 176 -156 l-45 -59 q-108 81 -168 159 q-58 -77 -172 -155 l-39 47 q-19 -33 -85 -39 l-36 -3 l-21 63 l38 4 q29 3 39.5 15.5 q10.5 12.5 10.5 44.5 l0 321 l-120 0 l0 -430 l-64 0 l0 430 l-119 0 l0 -266 q30 82 42 197 l61 -5 q-16 -125 -44 -220 l-59 13 l0 -163 l-66 0 l0 508 l93 0 q-37 80 -84 139 l50 34 q52 -66 93 -142 l-40 -31 l73 0 l0 166 l64 -3 l0 -163 l79 0 l-46 29 q60 78 90 145 l54 -33 q-36 -76 -86 -141 l94 0 l0 -91 q98 107 132 259 l65 -17 q-18 -56 -28 -82 l215 0 l0 -64 l-59 0 q-35 -214 -88 -311 ZM802 429 l-120 0 q-6 -12 -14 -26 q22 -136 73 -227 q28 66 61 253 ZM537 -31 q118 71 169 144 q-55 91 -82 220 q-15 -22 -40 -51 l-42 41 l0 -305 q0 -27 -5 -49 ZM471 97 l-57 -24 q-5 42 -20.5 107 q-15.5 65 -29.5 103 l56 16 q39 -115 51 -202 Z" /><glyph glyph-name="Identity.22757" unicode="&#x884c;" d="M354 751 q-47 -62 -118 -132.5 q-71 -70.5 -136 -121.5 l-42 62 q56 42 125 112 q69 70 115 130 l56 -50 ZM887 745 l0 -72 l-457 0 l0 72 l457 0 ZM298 548 l58 -45 q-33 -57 -92 -126 l0 -468 l-75 0 l0 386 q-60 -61 -122 -112 l-44 63 q78 59 156 144.5 q78 85.5 119 157.5 ZM937 457 l0 -72 l-168 0 l0 -345 q0 -67 -29 -92 q-29 -25 -105 -32 l-74 -7 l-23 77 l79 6 q45 3 58.5 16 q13.5 13 13.5 54 l0 323 l-318 0 l0 72 l566 0 Z" /><glyph glyph-name="Identity.23066" unicode="&#x8981;" d="M348 588 l0 99 l-261 0 l0 65 l799 0 l0 -65 l-261 0 l0 -99 l216 0 l0 -223 l-709 0 l0 223 l216 0 ZM556 588 l0 99 l-140 0 l0 -99 l140 0 ZM203 527 l0 -100 l145 0 l0 100 l-145 0 ZM416 527 l0 -100 l140 0 l0 100 l-140 0 ZM770 527 l-145 0 l0 -100 l145 0 l0 100 ZM732 208 q-52 -94 -126 -149 q107 -33 263 -83 l-20 -73 q-138 54 -318 110 q-130 -63 -431 -106 l-27 71 q239 28 357 67 q-137 41 -230 66 q32 38 73 97 l-229 0 l0 60 l267 0 q32 55 51 95 l76 -21 q-19 -40 -39 -74 l530 0 l0 -60 l-197 0 ZM317 141 q119 -32 204 -57 q70 39 123 124 l-280 0 q-24 -38 -47 -67 Z" /><glyph glyph-name="Identity.23130" unicode="&#x89c1;" d="M276 678 l0 -480 l-78 0 l0 554 l589 0 l0 -554 l-78 0 l0 480 l-433 0 ZM846 150 l73 -27 q-1 -58 -16 -123 q-8 -33 -38.5 -50 q-30.5 -17 -99.5 -21 q-77 -5 -153 0 q-69 4 -97 30.5 q-28 26.5 -28 96.5 l0 170 q-44 -100 -142 -179.5 q-98 -79.5 -266 -155.5 l-40 74 q160 67 247 131.5 q87 64.5 122.5 139.5 q35.5 75 38.5 186 q5 80 5 196 l80 -3 q0 -118 -5 -198 q-3 -75 -18 -129 l55 -2 l0 -207 q0 -44 14.5 -58.5 q14.5 -14.5 57.5 -17.5 q57 -5 114 0 q46 4 63.5 13.5 q17.5 9.5 22.5 35.5 q8 41 10 98 Z" /><glyph glyph-name="Identity.23131" unicode="&#x89c2;" d="M488 679 l0 -487 l-70 0 l0 559 l434 0 l0 -557 l-72 0 l0 485 l-292 0 ZM333 21 q-25 67 -80 184 q-63 -132 -167 -272 l-61 46 q119 154 186 311 q-85 165 -143 249 l54 33 q49 -69 120 -198 q37 115 56 261 l-233 0 l0 71 l306 0 l0 -71 q-23 -193 -83 -347 q70 -133 106 -222 l-61 -45 ZM865 149 l69 -25 q-7 -83 -18 -136 q-7 -34 -30.5 -49.5 q-23.5 -15.5 -79.5 -17.5 q-41 -2 -82 0 q-53 2 -74 24 q-21 22 -21 82 l0 163 q-31 -85 -96 -156.5 q-65 -71.5 -180 -146.5 l-46 63 q166 104 222.5 203.5 q56.5 99.5 61.5 273.5 q2 62 2 193 l74 -3 q0 -98 -3 -200 q-2 -86 -14 -148 l47 -2 l0 -213 q0 -37 9.5 -47.5 q9.5 -10.5 42.5 -13.5 q23 -2 46 0 q31 2 42.5 10.5 q11.5 8.5 16.5 34.5 q9 47 11 111 Z" /><glyph glyph-name="Identity.23133" unicode="&#x89c4;" d="M351 23 q-43 82 -105 172 q-18 -79 -52 -142.5 q-34 -63.5 -98 -148.5 l-61 47 q82 99 116.5 180 q34.5 81 44.5 205 l-137 0 l0 73 l140 0 q1 23 1 72 l0 84 l-124 0 l0 73 l124 0 l0 159 l70 -3 l0 -156 l122 0 l0 -73 l-122 0 l0 -84 q0 -49 -1 -72 l136 0 l0 -73 l-139 0 q-1 -8 -2.5 -26 q-1.5 -18 -2.5 -27 q87 -105 147 -206 l-57 -54 ZM505 681 l0 -487 l-71 0 l0 558 l422 0 l0 -557 l-72 0 l0 486 l-279 0 ZM871 150 l65 -25 q-6 -91 -15 -136 q-7 -35 -30 -50 q-23 -15 -76 -17 q-41 -2 -82 0 q-50 2 -72 25 q-22 23 -22 81 l0 171 q-32 -90 -95 -164.5 q-63 -74.5 -166 -145.5 l-50 60 q156 104 213.5 204 q57.5 100 61.5 275 q3 47 3 193 l72 -2 q0 -101 -3 -200 q-1 -76 -16 -149 l49 -4 l0 -211 q0 -34 12 -46.5 q12 -12.5 44 -14.5 q18 -2 36 0 q31 2 44.5 11.5 q13.5 9.5 17.5 34.5 q9 53 9 110 Z" /><glyph glyph-name="Identity.23164" unicode="&#x89e3;" d="M436 661 q-32 -56 -71 -110 l103 0 l0 -555 q0 -44 -16.5 -58 q-16.5 -14 -69.5 -21 l-31 -4 l-19 61 l34 4 q27 3 33.5 9.5 q6.5 6.5 6.5 29.5 l0 125 l-85 0 l0 -185 l-62 0 l0 185 l-87 0 q-11 -130 -70 -244 l-63 29 q46 90 60.5 159.5 q14.5 69.5 14.5 214.5 l0 220 l-42 -45 l-48 47 q133 128 202 287 l68 -16 q-17 -38 -38 -77 l180 0 l0 -56 ZM477 475 q65 48 89.5 84.5 q24.5 36.5 37.5 95.5 q2 10 6 31 l-107 0 l0 61 l386 0 q-11 -156 -13 -175 q-5 -57 -28 -77 q-23 -20 -93 -26 l-34 -3 l-22 63 l45 4 q41 4 51.5 14 q10.5 10 13.5 45 q5 33 9 94 l-141 0 q-2 -23 -8 -51 q-12 -63 -45.5 -110 q-33.5 -47 -102.5 -100 l-44 50 ZM219 656 q-39 -58 -79 -105 l149 0 q29 42 66 105 l-136 0 ZM259 488 l-83 0 l0 -110 l83 0 l0 110 ZM406 378 l0 110 l-85 0 l0 -110 l85 0 ZM941 160 l0 -65 l-183 0 l0 -196 l-66 0 l0 196 l-200 0 l0 65 l200 0 l0 121 l-105 0 q-21 -60 -41 -104 l-59 22 q52 109 78 234 l62 -10 q-4 -21 -19 -76 l84 0 l0 100 l66 -2 l0 -98 l149 0 l0 -66 l-149 0 l0 -121 l183 0 ZM175 206 l84 0 l0 108 l-83 0 l0 -41 q0 -46 -1 -67 ZM321 206 l85 0 l0 108 l-85 0 l0 -108 Z" /><glyph glyph-name="Identity.23610" unicode="&#x8ba1;" d="M337 620 l-57 -52 q-54 89 -145 188 l53 45 q36 -35 81 -89.5 q45 -54.5 68 -91.5 ZM940 468 l0 -76 l-264 0 l0 -487 l-78 0 l0 487 l-246 0 l0 76 l246 0 l0 327 l78 -3 l0 -324 l264 0 ZM269 72 q130 93 176 130 l27 -74 q-70 -49 -207 -148 q-34 -25 -58 -50 l-48 56 q20 17 26 29 q6 12 6 31 l0 371 l-140 0 l0 75 l218 0 l0 -420 Z" /><glyph glyph-name="Identity.23613" unicode="&#x8ba4;" d="M646 649 q15 -233 90.5 -398 q75.5 -165 215.5 -285 l-58 -60 q-211 201 -275 482 q-27 -136 -93 -250.5 q-66 -114.5 -194 -237.5 l-60 57 q164 137 233 297 q69 160 69 425 l0 121 l72 -2 l0 -138 l0 -11 ZM271 543 q-23 41 -73 102 q-50 61 -85 95 l51 47 q35 -32 86 -90.5 q51 -58.5 75 -95.5 l-54 -58 ZM371 213 l25 -77 q-7 -7 -68.5 -63.5 q-61.5 -56.5 -75.5 -70.5 l-48 -48 l-48 56 q17 17 22.5 31 q5.5 14 5.5 38 l0 325 l-139 0 l0 75 l214 0 l0 -377 q61 57 112 111 Z" /><glyph glyph-name="Identity.23618" unicode="&#x8ba9;" d="M629 24 l313 0 l0 -72 l-624 0 l0 72 l236 0 l0 779 l75 -2 l0 -280 l263 0 l0 -72 l-263 0 l0 -425 ZM324 599 l-55 -57 q-22 42 -69 104 q-47 62 -80 96 l54 47 q32 -32 79.5 -92 q47.5 -60 70.5 -98 ZM371 179 l29 -70 q-76 -60 -152 -131 q-14 -12 -52 -50 l-44 56 q28 23 28 61 l0 359 l-134 0 l0 73 l207 0 l0 -409 q12 10 64.5 60 q52.5 50 53.5 51 Z" /><glyph glyph-name="Identity.23639" unicode="&#x8bbe;" d="M327 612 l-59 -59 q-74 120 -144 190 l55 45 q35 -32 79.5 -85.5 q44.5 -53.5 68.5 -90.5 ZM527 625 q0 -127 -128 -207 l-56 56 q66 43 86 80.5 q20 37.5 20 101.5 l0 97 l340 0 l0 -165 q0 -29 10 -39 q10 -10 41 -11 l91 0 l-9 -70 l-107 0 q-56 0 -80.5 20 q-24.5 20 -24.5 66 l0 132 l-183 0 l0 -61 ZM382 163 l34 -66 l-166 -129 q-25 -19 -50 -42 l-49 57 q21 21 26.5 31.5 q5.5 10.5 5.5 28.5 l0 369 l-136 0 l0 70 l212 0 l0 -416 q2 2 58.5 46 q56.5 44 64.5 51 ZM948 -32 l-41 -72 q-172 64 -285 155 q-119 -94 -288 -154 l-40 68 q165 52 274 132 q-86 84 -156 208 l58 32 l-89 0 l0 70 l464 0 l-1 -70 q-57 -134 -165 -237 q102 -74 269 -132 ZM477 337 q67 -120 148 -193 q83 76 142 193 l-290 0 Z" /><glyph glyph-name="Identity.23642" unicode="&#x8bc1;" d="M281 617 l-57 -53 q-23 35 -64.5 90 q-41.5 55 -69.5 83 l60 43 q75 -81 131 -163 ZM688 25 l247 0 l0 -73 l-640 0 l0 73 l111 0 l0 493 l77 -4 l0 -489 l127 0 l0 637 l-250 0 l0 77 l550 0 l0 -77 l-222 0 l0 -258 l201 0 l0 -77 l-201 0 l0 -302 ZM323 175 l30 -68 q-94 -73 -130 -108 q-27 -25 -44 -43 l-44 56 q27 24 27 59 l0 345 l-129 0 l0 76 l201 0 l0 -397 q8 6 44 39.5 q36 33.5 45 40.5 Z" /><glyph glyph-name="Identity.23651" unicode="&#x8bca;" d="M272 484 q95 62 173.5 146.5 q78.5 84.5 124.5 167.5 l69 0 q84 -171 318 -311 l-40 -69 q-222 144 -312 306 q-108 -175 -294 -306 l-39 66 ZM151 787 q34 -33 76.5 -87 q42.5 -54 65.5 -94 l-59 -56 q-22 45 -62.5 101 q-40.5 56 -75.5 91 l55 45 ZM337 341 q182 84 320 210 l40 -54 q-129 -124 -330 -217 l-30 61 ZM229 76 q54 50 90 88 l25 -72 q-125 -111 -127 -113 q-25 -21 -41 -43 l-46 56 q26 26 26 58 l0 362 l-109 0 l0 76 l182 0 l0 -412 ZM359 170 q234 87 393 238 l39 -50 q-161 -160 -402 -255 l-30 67 ZM301 -34 q179 48 311.5 119.5 q132.5 71.5 240.5 174.5 l48 -57 q-214 -207 -567 -312 l-33 75 Z" /><glyph glyph-name="Identity.23675" unicode="&#x8be2;" d="M494 697 l380 0 q0 -25 -3.5 -319.5 q-3.5 -294.5 -3.5 -317.5 q-1 -77 -31 -105 q-30 -28 -113 -36 l-64 -6 l-24 75 l65 5 q57 5 74.5 22.5 q17.5 17.5 18.5 73.5 q6 258 6 536 l-342 0 q-31 -56 -77 -115 l300 0 l0 -451 l-321 0 l0 424 q-24 -28 -37 -42 l-55 45 q126 138 196 325 l69 -19 q-14 -41 -38 -95 ZM276 604 l-56 -54 q-44 92 -136 184 l52 43 q93 -91 140 -173 ZM227 59 q12 12 49 51 q37 39 38 40 l24 -73 q-11 -9 -59.5 -53.5 q-48.5 -44.5 -61.5 -59.5 q-14 -13 -41 -44 l-48 54 q28 30 32 65 l0 363 l-107 0 l0 71 l174 0 l0 -414 ZM613 441 l-186 0 l0 -123 l186 0 l0 123 ZM427 128 l186 0 l0 125 l-186 0 l0 -125 Z" /><glyph glyph-name="Identity.23679" unicode="&#x8be6;" d="M942 206 l0 -72 l-280 0 l0 -232 l-78 0 l0 232 l-269 0 l0 72 l269 0 l0 146 l-209 0 l0 71 l209 0 l0 143 l-235 0 l0 71 l149 0 q-12 30 -37.5 77 q-25.5 47 -38.5 67 l65 35 q36 -49 79 -143 l-57 -36 l161 0 q55 106 83 177 l71 -27 q-27 -67 -72 -150 l160 0 l0 -71 l-250 0 l0 -143 l217 0 l0 -71 l-217 0 l0 -146 l280 0 ZM238 566 q-27 41 -71 95 q-44 54 -71 80 l59 49 q75 -73 140 -165 l-57 -59 ZM250 67 q20 13 63 51 l35 -58 q-12 -8 -57 -48 q-45 -40 -51 -45 q-25 -20 -46 -43 l-51 60 q20 19 26.5 32 q6.5 13 6.5 32 l0 365 l-124 0 l0 75 l198 0 l0 -421 Z" /><glyph glyph-name="Identity.23721" unicode="&#x8c10;" d="M870 572 l61 -18 q0 -16 -6 -62 q-7 -49 -31.5 -66.5 q-24.5 -17.5 -82.5 -21.5 q-50 -3 -100 0 q-56 3 -76.5 22 q-20.5 19 -20.5 71 l0 307 l64 -3 l0 -152 q124 62 185 105 l28 -64 q-69 -44 -213 -114 l0 -57 q0 -32 9 -42 q9 -10 40 -12 q27 -2 79 2 q34 3 44.5 12.5 q10.5 9.5 14.5 42.5 q5 40 5 50 ZM581 461 l-177 -60 q-34 -13 -59 -25 l-27 62 q18 11 24.5 20 q6.5 9 6.5 27 l0 316 l65 -3 l0 -118 l162 0 l0 -64 l-162 0 l0 -144 q130 46 156 58 l11 -69 ZM265 603 l-56 -49 q-29 57 -138 177 l51 43 q102 -100 143 -171 ZM217 73 q9 9 30.5 32 q21.5 23 40 42.5 q18.5 19.5 22.5 23.5 l21 -82 q-92 -87 -123 -113 q-18 -15 -44 -45 l-48 55 q31 34 31 65 l0 350 l-104 0 l0 74 l174 0 l0 -402 ZM620 403 q-4 -16 -27 -82 l251 0 l0 -419 l-68 0 l0 49 l-349 0 l0 -50 l-68 0 l0 420 l160 0 q14 42 29 93 l72 -11 ZM776 167 l0 93 l-349 0 l0 -93 l349 0 ZM427 13 l349 0 l0 94 l-349 0 l0 -94 Z" /><glyph glyph-name="Identity.23745" unicode="&#x8c28;" d="M639 -2 l300 0 l0 -58 l-661 0 l0 58 l296 0 l0 61 l-221 0 l0 57 l221 0 l0 59 l-241 0 l0 58 l241 0 l0 62 l-226 0 l0 182 l226 0 l0 59 l-153 0 l0 121 l-111 0 l0 60 l111 0 l0 80 l70 -2 l0 -78 l227 0 l0 81 l69 -2 l0 -79 l139 0 l0 -60 l-139 0 l0 -121 l-148 0 l0 -59 l227 0 l0 -182 l-227 0 l0 -62 l248 0 l0 -58 l-248 0 l0 -59 l230 0 l0 -57 l-230 0 l0 -61 ZM285 610 l-55 -54 q-19 38 -60.5 93.5 q-41.5 55.5 -73.5 89.5 l54 44 q28 -29 71 -84 q43 -55 64 -89 ZM491 657 l0 -64 l227 0 l0 64 l-227 0 ZM315 170 l22 -68 q-9 -8 -59 -56 q-50 -48 -63 -61 q-24 -24 -36 -41 l-47 54 q18 20 22.5 30.5 q4.5 10.5 4.5 28.5 l0 365 l-116 0 l0 71 l185 0 l0 -409 q11 10 45.5 44.5 q34.5 34.5 41.5 41.5 ZM417 348 l157 0 l0 72 l-157 0 l0 -72 ZM798 420 l-159 0 l0 -72 l159 0 l0 72 Z" /><glyph glyph-name="Identity.23995" unicode="&#x8d22;" d="M939 612 l0 -71 l-116 0 l0 -497 q0 -69 -28.5 -93.5 q-28.5 -24.5 -114.5 -32.5 l-47 -4 l-25 76 l59 5 q52 4 67.5 19 q15.5 15 15.5 60 l0 349 q-98 -187 -272 -350 l-54 55 q198 164 311 413 l-243 0 l0 71 l258 0 l0 190 l73 -3 l0 -187 l116 0 ZM181 671 l0 -508 l-69 0 l0 580 l327 0 l0 -569 l-68 0 l0 497 l-190 0 ZM309 612 l0 -266 q0 -89 -10 -148.5 q-10 -59.5 -39 -111 q-29 -51.5 -69 -91.5 q-40 -40 -111 -96 l-50 54 q133 92 173.5 170.5 q40.5 78.5 40.5 240.5 l0 251 l65 -3 ZM320 140 q106 -90 171 -159 l-49 -63 q-15 19 -31.5 38 q-16.5 19 -38 40.5 q-21.5 21.5 -31.5 31.5 q-10 10 -37 35.5 q-27 25.5 -29 27.5 l45 49 Z" /><glyph glyph-name="Identity.24001" unicode="&#x8d28;" d="M231 664 l0 -229 q0 -196 -25.5 -302.5 q-25.5 -106.5 -97.5 -229.5 l-70 37 q74 126 98 218 q24 92 24 272 l0 302 q320 6 713 48 l14 -71 q-346 -36 -656 -45 ZM924 499 l-307 0 l0 -102 l221 0 l0 -299 l-73 0 l0 231 l-368 0 l0 -233 l-72 0 l0 301 l218 0 l0 102 l-281 0 l0 66 l281 0 l0 93 l74 -3 l0 -90 l307 0 l0 -66 ZM620 297 l-5 -72 q-10 -136 -84 -199 q-74 -63 -276 -119 l-30 67 q186 49 248 97 q62 48 72 155 l3 74 l72 -3 ZM610 113 q183 -66 321 -141 l-29 -67 q-133 81 -319 151 l27 57 Z" /><glyph glyph-name="Identity.24013" unicode="&#x8d34;" d="M920 563 l-226 0 l0 -195 l176 0 l0 -463 l-71 0 l0 61 l-242 0 l0 -60 l-71 0 l0 462 l136 0 l0 433 l72 -2 l0 -165 l226 0 l0 -71 ZM171 662 l0 -509 l-67 0 l0 580 l326 0 l0 -576 l-67 0 l0 505 l-192 0 ZM300 602 l0 -315 q0 -124 -44 -208 q-44 -84 -170 -184 l-46 59 q114 83 154 157.5 q40 74.5 40 178.5 l0 315 l66 -3 ZM799 36 l0 260 l-242 0 l0 -260 l242 0 ZM318 133 q32 -28 84.5 -82 q52.5 -54 73.5 -83 l-55 -55 q-20 30 -69 86.5 q-49 56.5 -80 85.5 l46 48 Z" /><glyph glyph-name="Identity.24014" unicode="&#x8d35;" d="M523 452 l397 0 l0 -64 l-866 0 l0 64 l397 0 l0 71 l-279 0 l0 203 l279 0 l0 82 l72 -3 l0 -79 l279 0 l0 -203 l-279 0 l0 -71 ZM240 579 l211 0 l0 88 l-211 0 l0 -88 ZM734 667 l-211 0 l0 -88 l211 0 l0 88 ZM790 68 l-73 0 l0 189 l-459 0 l0 -192 l-74 0 l0 257 l606 0 l0 -254 ZM526 223 q0 -5 -1 -29 q-1 -24 -1 -30 q-9 -92 -107 -157 q-98 -65 -323 -110 l-27 73 q149 29 233 60.5 q84 31.5 114 63 q30 31.5 34 76.5 q2 22 2 56 l76 -3 ZM503 44 l30 57 q177 -50 376 -136 l-30 -70 q-70 34 -185 79.5 q-115 45.5 -191 69.5 Z" /><glyph glyph-name="Identity.24140" unicode="&#x8db3;" d="M561 12 q162 -5 388 2 l-15 -73 q-194 -6 -371 -2 q-132 3 -209.5 40.5 q-77.5 37.5 -123.5 128.5 q-38 -93 -139 -204 l-61 41 q91 98 128.5 183.5 q37.5 85.5 46.5 229.5 l74 -7 q-6 -87 -20 -146 q30 -83 81 -126.5 q51 -43.5 132 -58.5 l0 404 l-294 0 l0 328 l636 0 l0 -328 l-268 0 l0 -158 l338 0 l0 -72 l-338 0 l0 -181 q5 -1 15 -1 ZM254 679 l0 -182 l484 0 l0 182 l-484 0 Z" /></font>
</defs>
</svg>
