<svg xmlns="http://www.w3.org/2000/svg" xmlns:xlink="http://www.w3.org/1999/xlink" viewBox="0 0 48.64504 81.2671"><defs><linearGradient id="铃琨眄沭噤桢眚_32" x1="206.86271" y1="68.69917" x2="252.36041" y2="68.69917" gradientTransform="translate(-205.3628)" gradientUnits="userSpaceOnUse"><stop offset="0.13009" stop-color="#13161a"/><stop offset="0.13675" stop-color="#232d39"/><stop offset="0.46926" stop-color="#232d39"/><stop offset="0.47558" stop-color="#2d3c48"/><stop offset="0.87561" stop-color="#2d3c48"/><stop offset="0.87878" stop-color="#232d39"/></linearGradient><linearGradient id="铃琨眄沭噤桢眚_99" x1="207.98391" y1="57.14337" x2="251.23912" y2="57.14337" gradientTransform="translate(-205.3628)" gradientUnits="userSpaceOnUse"><stop offset="0.17771" stop-color="#025ca0"/><stop offset="0.18437" stop-color="#007cff"/><stop offset="0.47403" stop-color="#007cff"/><stop offset="0.47558" stop-color="#4ea4ff"/><stop offset="0.80894" stop-color="#4ea4ff"/><stop offset="0.81687" stop-color="#007cff"/></linearGradient><linearGradient id="铃琨眄沭噤桢眚_32-2" x1="206.86271" y1="54.31277" x2="252.36041" y2="54.31277" xlink:href="#铃琨眄沭噤桢眚_32"/><linearGradient id="铃琨眄沭噤桢眚_76" x1="207.98391" y1="42.66047" x2="251.23912" y2="42.66047" gradientTransform="translate(-205.3628)" gradientUnits="userSpaceOnUse"><stop offset="0.13485" stop-color="#ee9b0f"/><stop offset="0.14152" stop-color="#ffb901"/><stop offset="0.47403" stop-color="#ffb901"/><stop offset="0.48034" stop-color="#fad020"/><stop offset="0.87561" stop-color="#fad020"/><stop offset="0.88354" stop-color="#ffb901"/></linearGradient><linearGradient id="铃琨眄沭噤桢眚_32-3" x1="206.86271" y1="39.82987" x2="252.36041" y2="39.82987" xlink:href="#铃琨眄沭噤桢眚_32"/><linearGradient id="铃琨眄沭噤桢眚_99-2" x1="207.98391" y1="28.32427" x2="251.23912" y2="28.32427" xlink:href="#铃琨眄沭噤桢眚_99"/><linearGradient id="铃琨眄沭噤桢眚_32-4" x1="206.86271" y1="25.49367" x2="252.36041" y2="25.49367" xlink:href="#铃琨眄沭噤桢眚_32"/><linearGradient id="铃琨眄沭噤桢眚_103" x1="65.38772" y1="28.60475" x2="67.10324" y2="31.59984" gradientTransform="matrix(-1, 0, 0, 1, 101.92797, 0)" gradientUnits="userSpaceOnUse"><stop offset="0.12122" stop-color="#161c24"/><stop offset="0.12439" stop-color="#202b33"/><stop offset="0.52442" stop-color="#202b33"/><stop offset="0.53074" stop-color="#161c24"/><stop offset="0.86325" stop-color="#161c24"/><stop offset="0.86991" stop-color="#13161a"/></linearGradient><radialGradient id="铃琨眄沭噤桢眚_114" cx="-22.08514" cy="29.57601" r="1.35698" gradientTransform="matrix(-1, 0, 0, 1, 14.15897, 0)" gradientUnits="userSpaceOnUse"><stop offset="0" stop-color="#b3ff0e"/><stop offset="1" stop-color="#7fb50a"/></radialGradient><linearGradient id="铃琨眄沭噤桢眚_103-2" x1="65.38776" y1="42.94092" x2="67.10329" y2="45.93601" xlink:href="#铃琨眄沭噤桢眚_103"/><radialGradient id="铃琨眄沭噤桢眚_114-2" cx="-22.38277" cy="44.09328" r="1.20467" xlink:href="#铃琨眄沭噤桢眚_114"/><linearGradient id="铃琨眄沭噤桢眚_103-3" x1="65.58016" y1="57.49882" x2="67.29568" y2="60.49391" xlink:href="#铃琨眄沭噤桢眚_103"/><radialGradient id="铃琨眄沭噤桢眚_114-3" cx="-22.19047" cy="58.57354" r="1.20468" xlink:href="#铃琨眄沭噤桢眚_114"/><linearGradient id="铃琨眄沭噤桢眚_103-4" x1="65.38772" y1="72.19255" x2="67.10324" y2="75.18764" xlink:href="#铃琨眄沭噤桢眚_103"/><radialGradient id="铃琨眄沭噤桢眚_114-4" cx="-22.4863" cy="73.13793" r="1.20467" xlink:href="#铃琨眄沭噤桢眚_114"/></defs><title>18843 [转换]</title><g style="isolation:isolate"><g id="Layer"><path d="M46.99761,57.98367v8.5721a5.48509,5.48509,0,0,1-.1589,1.4288c-1.2062,6.4453-10.8903,11.4301-22.5742,11.4301a38.89143,38.89143,0,0,1-7.0803-.635c-8.2868-1.5239-14.478-5.6514-15.49389-10.7313a7.35411,7.35411,0,0,1-.159-1.4608l-.03141-4.5082v-4.032h5.5879l10.0964-.0317,24.1934-.032Z" style="fill:url(#铃琨眄沭噤桢眚_32)"/><path d="M46.99761,57.98367a7.12967,7.12967,0,0,1-.7939,3.3021c-1.397,3.1114-4.8261,5.7469-9.4612,7.4615a36.16728,36.16728,0,0,1-12.478,2.1269,38.8916,38.8916,0,0,1-7.0803-.6349,29.79284,29.79284,0,0,1-5.3975-1.492c-4.63539-1.7146-8.0645-4.3501-9.4933-7.4298a7.40949,7.40949,0,0,1-.7935-3.2701c0-5.7151,6.5722-10.541,15.6843-12.2556a38.82528,38.82528,0,0,1,7.0485-.6347C36.80571,45.15707,46.99761,50.90367,46.99761,57.98367Z" style="fill:#43566c"/><path d="M45.87632,46.05837v9.945a5.21307,5.21307,0,0,1-.15111,1.3584c-1.1466,6.1276-10.3535,10.8666-21.4615,10.8666a36.97034,36.97034,0,0,1-6.7313-.6036c-7.8784-1.4489-13.7644-5.3729-14.7303-10.2024a6.99233,6.99233,0,0,1-.1511-1.3888l-.0299-6.0813V46.119h5.3125l9.5988-.0301,23.001-.0305Z" style="fill:url(#铃琨眄沭噤桢眚_99)"/><path d="M45.87632,46.05837a6.7796,6.7796,0,0,1-.75471,3.1394c-1.3282,2.9581-4.5882,5.4636-8.9949,7.0938a34.38412,34.38412,0,0,1-11.863,2.022,36.97034,36.97034,0,0,1-6.7313-.6036,28.3434,28.3434,0,0,1-5.1315-1.4184c-4.4069-1.6302-7.6669-4.1357-9.0253-7.0636a7.04424,7.04424,0,0,1-.7545-3.109c0-5.4334,6.2483-10.0214,14.9113-11.6515a36.90869,36.90869,0,0,1,6.7011-.6034C36.18671,33.86407,45.87632,39.32747,45.87632,46.05837Z" style="fill:#36477b"/><path d="M46.99761,43.59727v8.5722a5.48556,5.48556,0,0,1-.1589,1.4288c-1.2062,6.4453-10.8903,11.43-22.5742,11.43a38.8916,38.8916,0,0,1-7.0803-.6349c-8.2868-1.524-14.478-5.6514-15.49389-10.7314a7.35248,7.35248,0,0,1-.159-1.4608L1.49991,47.693v-4.0319h5.5879l10.0964-.0318,24.1934-.032Z" style="fill:url(#铃琨眄沭噤桢眚_32-2)"/><path d="M46.99761,43.59727a7.12937,7.12937,0,0,1-.7939,3.3021c-1.397,3.1115-4.8261,5.7469-9.4612,7.4616a36.16728,36.16728,0,0,1-12.478,2.1269,38.8916,38.8916,0,0,1-7.0803-.6349,29.80911,29.80911,0,0,1-5.3975-1.492c-4.63539-1.7147-8.0645-4.3501-9.4933-7.4298a7.40949,7.40949,0,0,1-.7935-3.2701c0-5.7152,6.5722-10.541,15.6843-12.2557a38.82541,38.82541,0,0,1,7.0485-.6346C36.80571,30.77077,46.99761,36.51737,46.99761,43.59727Z" style="fill:#43566c"/><path d="M45.87632,31.57547v9.945a5.21279,5.21279,0,0,1-.15111,1.3583c-1.1466,6.1276-10.3535,10.8667-21.4615,10.8667a36.97017,36.97017,0,0,1-6.7313-.6037C9.654,51.693,3.768,47.769,2.80211,42.93937a6.99233,6.99233,0,0,1-.1511-1.3888l-.0299-6.0813v-3.8332h5.3125l9.5988-.0302,23.001-.0304Z" style="fill:url(#铃琨眄沭噤桢眚_76)"/><path d="M45.87632,31.57547a6.7792,6.7792,0,0,1-.75471,3.1393c-1.3282,2.9581-4.5882,5.4636-8.9949,7.0938a34.38407,34.38407,0,0,1-11.863,2.0221,36.97017,36.97017,0,0,1-6.7313-.6037,28.32713,28.32713,0,0,1-5.1315-1.4184c-4.4069-1.6302-7.6669-4.1357-9.0253-7.0636a7.04382,7.04382,0,0,1-.7545-3.1089c0-5.4335,6.2483-10.0215,14.9113-11.6516a36.90869,36.90869,0,0,1,6.7011-.6034C36.18671,19.38107,45.87632,24.84447,45.87632,31.57547Z" style="fill:#36477b"/><path d="M46.99761,29.11437v8.5721a5.48509,5.48509,0,0,1-.1589,1.4288c-1.2062,6.4453-10.8903,11.4301-22.5742,11.4301a38.89143,38.89143,0,0,1-7.0803-.635c-8.2868-1.524-14.478-5.6514-15.49389-10.7313a7.35411,7.35411,0,0,1-.159-1.4608l-.03141-4.5082v-4.032h5.5879l10.0964-.0317,24.1934-.032Z" style="fill:url(#铃琨眄沭噤桢眚_32-3)"/><path d="M46.99761,29.11437a7.12967,7.12967,0,0,1-.7939,3.3021c-1.397,3.1114-4.8261,5.7469-9.4612,7.4615a36.16728,36.16728,0,0,1-12.478,2.1269,38.8916,38.8916,0,0,1-7.0803-.6349,29.801,29.801,0,0,1-5.3975-1.492c-4.63539-1.7146-8.0645-4.3501-9.4933-7.4298a7.40949,7.40949,0,0,1-.7935-3.2701c0-5.7151,6.5722-10.541,15.6843-12.2556a38.81634,38.81634,0,0,1,7.0485-.6347C36.80571,16.28777,46.99761,22.03437,46.99761,29.11437Z" style="fill:#43566c"/><path d="M45.87632,17.23927v9.945a5.21307,5.21307,0,0,1-.15111,1.3584c-1.1466,6.1276-10.3535,10.8666-21.4615,10.8666a36.97923,36.97923,0,0,1-6.7313-.6036c-7.8784-1.4489-13.7644-5.3729-14.7303-10.2024a6.99233,6.99233,0,0,1-.1511-1.3888l-.0299-6.0814v-3.8332h5.3125l9.5988-.0302,23.001-.0304Z" style="fill:url(#铃琨眄沭噤桢眚_99-2)"/><path d="M45.87632,17.23927a6.7796,6.7796,0,0,1-.75471,3.1394c-1.3282,2.9581-4.5882,5.4636-8.9949,7.0937a34.38407,34.38407,0,0,1-11.863,2.0221,36.97923,36.97923,0,0,1-6.7313-.6036,28.33526,28.33526,0,0,1-5.1315-1.4185c-4.4069-1.6301-7.6669-4.1356-9.0253-7.0636a7.0435,7.0435,0,0,1-.7545-3.1089c0-5.4334,6.2483-10.0214,14.9113-11.6515a36.90869,36.90869,0,0,1,6.7011-.6034C36.18671,5.045,45.87632,10.50837,45.87632,17.23927Z" style="fill:#36477b"/><path d="M46.99761,14.77817v8.5722a5.486,5.486,0,0,1-.1589,1.4288c-1.2062,6.4453-10.8903,11.43-22.5742,11.43a38.8916,38.8916,0,0,1-7.0803-.6349c-8.2868-1.524-14.478-5.6514-15.49389-10.7314a7.35329,7.35329,0,0,1-.159-1.4608l-.03141-4.5082V14.842h5.5879l10.0964-.0318,24.1934-.032Z" style="fill:url(#铃琨眄沭噤桢眚_32-4)"/><path d="M46.99761,14.77817a7.12967,7.12967,0,0,1-.7939,3.3021c-1.397,3.1115-4.8261,5.7469-9.4612,7.4616a36.16728,36.16728,0,0,1-12.478,2.1269,38.90049,38.90049,0,0,1-7.0803-.6349,29.80911,29.80911,0,0,1-5.3975-1.492c-4.63539-1.7147-8.0645-4.3501-9.4933-7.4298a7.40982,7.40982,0,0,1-.7935-3.2701c0-5.7152,6.5722-10.541,15.6843-12.2557a38.82541,38.82541,0,0,1,7.0485-.6346C36.80571,1.95167,46.99761,7.69827,46.99761,14.77817Z" style="fill:#43566c"/><path d="M24.26451,22.38867a32.87418,32.87418,0,0,0,11.32481-1.9193c3.83289-1.4178,6.59889-3.4996,7.59209-5.7133l.0777-.1602a3.80525,3.80525,0,0,0,.4254-1.7846c0-4.4997-7.9885-9.5138-19.4515-9.5138a35.39569,35.39569,0,0,0-6.44369.579c-7.51621,1.4146-12.97641,5.1994-12.97641,8.9983a4.14288,4.14288,0,0,0,.4619,1.8247c1.0538,2.2703,3.8377,4.3545,7.6617,5.7683a26.61064,26.61064,0,0,0,4.835,1.3386A35.59211,35.59211,0,0,0,24.26451,22.38867Z" style="fill:#2d3c48"/><path d="M24.26451,21.56047a32.02646,32.02646,0,0,0,11.036-1.8675c3.6259-1.341,6.2229-3.2643,7.1255-5.2758l.0882-.1828a3.02286,3.02286,0,0,0,.34211-1.4231c0-3.6266-7.08511-8.6856-18.62331-8.6856a34.54043,34.54043,0,0,0-6.2925.5653c-7.0106,1.3192-12.2994,4.8378-12.2994,8.1838a3.34066,3.34066,0,0,0,.3786,1.4631c.96,2.0681,3.5837,4.0149,7.2039,5.3535a25.93362,25.93362,0,0,0,4.6951,1.2997A34.77549,34.77549,0,0,0,24.26451,21.56047Z" style="fill:#43566c"/><path d="M46.20371,16.14727c-1.3968,3.1114-4.8261,5.7469-9.4612,7.4615a36.16478,36.16478,0,0,1-12.478,2.1272,38.87052,38.87052,0,0,1-7.0803-.6354,29.7766,29.7766,0,0,1-5.3975-1.4918c-4.63539-1.7146-8.0645-4.3501-9.4933-7.4298a7.76544,7.76544,0,0,1-.6653-2.2323,7.26345,7.26345,0,0,0-.1282.8953,7.40982,7.40982,0,0,0,.7935,3.2701c1.4288,3.0797,4.85791,5.7151,9.4933,7.4298a29.80911,29.80911,0,0,0,5.3975,1.492,38.898,38.898,0,0,0,7.0803.6349,36.16728,36.16728,0,0,0,12.478-2.1269c4.6351-1.7147,8.0644-4.3501,9.4612-7.4616a7.12967,7.12967,0,0,0,.7939-3.3021,7.35784,7.35784,0,0,0-.0974-1.0875A7.03077,7.03077,0,0,1,46.20371,16.14727Z" style="fill:#383838;mix-blend-mode:screen"/><path id="_路径_" data-name="&lt;路径&gt;" d="M34.66071,31.49907l.6337.4134.0774-.1202a2.09623,2.09623,0,0,0,1.3623-1.1185,2.62051,2.62051,0,0,0,.374-1.241,1.12433,1.12433,0,0,0-.1359-.5896l.0093-.0706s-.5834-.3922-.6081-.4024l-.0079-.0045v.0012c-.4863-.1898-1.2196.2706-1.6868,1.0804a2.74579,2.74579,0,0,0-.365,1.0692A.96417.96417,0,0,0,34.66071,31.49907Z" style="fill:url(#铃琨眄沭噤桢眚_103)"/><path id="_路径_2" data-name="&lt;路径&gt;" d="M35.20951,31.874c.4827.2782,1.2735-.1889,1.766-1.0436s.5007-1.773.0179-2.0513c-.4826-.2781-1.2733.1891-1.7659,1.0438S34.72691,31.59587,35.20951,31.874Z" style="fill:#13161a"/><path d="M35.52391,31.70557a1.74137,1.74137,0,0,0,1.2366-.9989c.4521-.7854.4206-1.5327.1092-1.7122a.37684.37684,0,0,0-.1909-.0469,1.74191,1.74191,0,0,0-1.2358.9988c-.4521.7854-.4206,1.5327-.1092,1.7122A.37181.37181,0,0,0,35.52391,31.70557Z" style="fill:url(#铃琨眄沭噤桢眚_114)"/><path id="_路径_3" data-name="&lt;路径&gt;" d="M34.66071,45.83527l.6337.4134.0774-.1203a2.09592,2.09592,0,0,0,1.3623-1.1185,2.62047,2.62047,0,0,0,.374-1.2409,1.12447,1.12447,0,0,0-.1359-.5897l.0093-.0706s-.5834-.3922-.6081-.4023l-.0079-.0045v.0011c-.4863-.1898-1.2196.2707-1.6868,1.0804a2.74687,2.74687,0,0,0-.365,1.0692A.96434.96434,0,0,0,34.66071,45.83527Z" style="fill:url(#铃琨眄沭噤桢眚_103-2)"/><path id="_路径_4" data-name="&lt;路径&gt;" d="M35.20951,46.21007c.4827.2783,1.2735-.1889,1.766-1.0436s.5007-1.7729.0179-2.0512c-.4826-.2781-1.2733.189-1.7659,1.0437S34.72691,45.932,35.20951,46.21007Z" style="fill:#13161a"/><path d="M35.52391,46.04167a1.74137,1.74137,0,0,0,1.2366-.9989c.4521-.7853.4206-1.5326.1092-1.7122a.37785.37785,0,0,0-.1909-.0469,1.74185,1.74185,0,0,0-1.2358.9989c-.4521.7853-.4206,1.5326-.1092,1.7122A.37277.37277,0,0,0,35.52391,46.04167Z" style="fill:url(#铃琨眄沭噤桢眚_114-2)"/><path id="_路径_5" data-name="&lt;路径&gt;" d="M34.46841,60.39317l.6336.4134.0774-.1202a2.0959,2.0959,0,0,0,1.3623-1.1186,2.62058,2.62058,0,0,0,.3741-1.2409,1.12491,1.12491,0,0,0-.1359-.5896l.0093-.0707s-.5835-.3922-.6082-.4023l-.0078-.0045v.0011c-.4863-.1898-1.2196.2707-1.68689,1.0804a2.748,2.748,0,0,0-.365,1.0692A.96418.96418,0,0,0,34.46841,60.39317Z" style="fill:url(#铃琨眄沭噤桢眚_103-3)"/><path id="_路径_6" data-name="&lt;路径&gt;" d="M35.01721,60.768c.4827.2783,1.2734-.1889,1.766-1.0436s.5006-1.7729.0179-2.0512c-.4826-.2781-1.2733.189-1.7659,1.0438S34.53461,60.48987,35.01721,60.768Z" style="fill:#13161a"/><path d="M35.33151,60.59957a1.74138,1.74138,0,0,0,1.2367-.9988c.45211-.7854.4206-1.5327.1092-1.7123a.37785.37785,0,0,0-.1909-.0469,1.74168,1.74168,0,0,0-1.2358.9989c-.4522.7853-.4206,1.5327-.1092,1.7122A.37265.37265,0,0,0,35.33151,60.59957Z" style="fill:url(#铃琨眄沭噤桢眚_114-3)"/><path id="_路径_7" data-name="&lt;路径&gt;" d="M34.66071,75.08687l.6337.4134.0774-.1202a2.09623,2.09623,0,0,0,1.3623-1.1185,2.62051,2.62051,0,0,0,.374-1.241,1.12433,1.12433,0,0,0-.1359-.5896l.0093-.0706s-.5834-.3922-.6081-.4024l-.0079-.0044v.0011c-.4863-.1898-1.2196.2706-1.6868,1.0804a2.74579,2.74579,0,0,0-.365,1.0692A.96409.96409,0,0,0,34.66071,75.08687Z" style="fill:url(#铃琨眄沭噤桢眚_103-4)"/><path id="_路径_8" data-name="&lt;路径&gt;" d="M35.20951,75.46177c.4827.2783,1.2735-.1889,1.766-1.0436s.5007-1.773.0179-2.0512c-.4826-.2782-1.2733.189-1.7659,1.0437S34.72691,75.18367,35.20951,75.46177Z" style="fill:#13161a"/><path d="M35.52391,75.29337a1.74137,1.74137,0,0,0,1.2366-.9989c.4521-.7853.4206-1.5327.1092-1.7122a.37684.37684,0,0,0-.1909-.0469,1.74191,1.74191,0,0,0-1.2358.9988c-.4521.7854-.4206,1.5327-.1092,1.7123A.37277.37277,0,0,0,35.52391,75.29337Z" style="fill:url(#铃琨眄沭噤桢眚_114-4)"/></g></g></svg>