<svg xmlns="http://www.w3.org/2000/svg" xmlns:xlink="http://www.w3.org/1999/xlink" viewBox="0 0 106.54771 69.08111"><defs><linearGradient id="铃琨眄沭噤桢眚_4" x1="218.01711" y1="21.8653" x2="220.91581" y2="21.8653" gradientTransform="translate(-205.3628)" gradientUnits="userSpaceOnUse"><stop offset="0.13009" stop-color="#13161a"/><stop offset="0.13675" stop-color="#151a21"/><stop offset="0.46926" stop-color="#151a21"/><stop offset="0.47558" stop-color="#1e2830"/><stop offset="0.87561" stop-color="#1e2830"/><stop offset="0.87878" stop-color="#151a21"/></linearGradient><linearGradient id="铃琨眄沭噤桢眚_32" x1="217.81651" y1="20.725" x2="221.11651" y2="20.725" gradientTransform="translate(-205.3628)" gradientUnits="userSpaceOnUse"><stop offset="0.13009" stop-color="#13161a"/><stop offset="0.13675" stop-color="#232d39"/><stop offset="0.46926" stop-color="#232d39"/><stop offset="0.47558" stop-color="#2d3c48"/><stop offset="0.87561" stop-color="#2d3c48"/><stop offset="0.87878" stop-color="#232d39"/></linearGradient><linearGradient id="铃琨眄沭噤桢眚_4-2" x1="241.29771" y1="5.58445" x2="243.61581" y2="5.58445" xlink:href="#铃琨眄沭噤桢眚_4"/><linearGradient id="铃琨眄沭噤桢眚_32-2" x1="241.13722" y1="4.67255" x2="243.77631" y2="4.67255" xlink:href="#铃琨眄沭噤桢眚_32"/><linearGradient id="铃琨眄沭噤桢眚_4-3" x1="254.90341" y1="44.03165" x2="257.22151" y2="44.03165" xlink:href="#铃琨眄沭噤桢眚_4"/><linearGradient id="铃琨眄沭噤桢眚_32-3" x1="254.74291" y1="43.11975" x2="257.38201" y2="43.11975" xlink:href="#铃琨眄沭噤桢眚_32"/><linearGradient id="铃琨眄沭噤桢眚_4-4" x1="258.78711" y1="46.39285" x2="261.10522" y2="46.39285" xlink:href="#铃琨眄沭噤桢眚_4"/><linearGradient id="铃琨眄沭噤桢眚_32-4" x1="258.62661" y1="45.48095" x2="261.26561" y2="45.48095" xlink:href="#铃琨眄沭噤桢眚_32"/><linearGradient id="铃琨眄沭噤桢眚_4-5" x1="262.61941" y1="44.55215" x2="264.93741" y2="44.55215" xlink:href="#铃琨眄沭噤桢眚_4"/><linearGradient id="铃琨眄沭噤桢眚_32-5" x1="262.45891" y1="43.64025" x2="265.09791" y2="43.64025" xlink:href="#铃琨眄沭噤桢眚_32"/><linearGradient id="铃琨眄沭噤桢眚_4-6" x1="262.88122" y1="18.55855" x2="265.19922" y2="18.55855" xlink:href="#铃琨眄沭噤桢眚_4"/><linearGradient id="铃琨眄沭噤桢眚_32-6" x1="262.72071" y1="17.64665" x2="265.35971" y2="17.64665" xlink:href="#铃琨眄沭噤桢眚_32"/><linearGradient id="铃琨眄沭噤桢眚_4-7" x1="281.25411" y1="31.86175" x2="283.57222" y2="31.86175" xlink:href="#铃琨眄沭噤桢眚_4"/><linearGradient id="铃琨眄沭噤桢眚_32-7" x1="281.09361" y1="30.94985" x2="283.73271" y2="30.94985" xlink:href="#铃琨眄沭噤桢眚_32"/><linearGradient id="铃琨眄沭噤桢眚_4-8" x1="284.44371" y1="29.7978" x2="286.76171" y2="29.7978" xlink:href="#铃琨眄沭噤桢眚_4"/><linearGradient id="铃琨眄沭噤桢眚_32-8" x1="284.28322" y1="28.8859" x2="286.92222" y2="28.8859" xlink:href="#铃琨眄沭噤桢眚_32"/></defs><title>18843 [转换]</title><g style="isolation:isolate"><g id="Layer"><polygon points="64.991 66.328 61.983 59.097 2.431 24.163 28.902 8.621 68.681 51.564 64.991 66.328" style="fill:#ccc;mix-blend-mode:multiply"/><polygon points="38.418 4.856 38.103 4.667 41.147 2.9 41.462 3.09 38.418 4.856" style="fill:#ffe438"/><polygon points="41.462 3.09 41.462 3.295 38.418 5.062 38.418 4.856 41.462 3.09" style="fill:#ffb901"/><polygon points="38.103 4.667 38.103 4.872 38.418 5.062 38.418 4.856 38.103 4.667" style="fill:#ee9b0f"/><polygon points="39 5.19 38.686 5 41.729 3.233 42.044 3.423 39 5.19" style="fill:#ffe438"/><polygon points="42.044 3.423 42.044 3.628 39 5.395 39 5.19 42.044 3.423" style="fill:#ffb901"/><polygon points="38.686 5 38.686 5.205 39 5.395 39 5.19 38.686 5" style="fill:#ee9b0f"/><polygon points="39.582 5.523 39.268 5.333 42.311 3.566 42.626 3.756 39.582 5.523" style="fill:#ffe438"/><polygon points="42.626 3.756 42.626 3.961 39.582 5.728 39.582 5.523 42.626 3.756" style="fill:#ffb901"/><polygon points="39.268 5.333 39.268 5.539 39.582 5.728 39.582 5.523 39.268 5.333" style="fill:#ee9b0f"/><polygon points="40.165 5.857 39.85 5.667 42.894 3.9 43.208 4.09 40.165 5.857" style="fill:#ffe438"/><polygon points="43.208 4.09 43.208 4.295 40.165 6.062 40.165 5.857 43.208 4.09" style="fill:#ffb901"/><polygon points="39.85 5.667 39.85 5.872 40.165 6.062 40.165 5.857 39.85 5.667" style="fill:#ee9b0f"/><polygon points="40.747 6.19 40.432 6 43.476 4.233 43.791 4.423 40.747 6.19" style="fill:#ffe438"/><polygon points="43.791 4.423 43.791 4.628 40.747 6.395 40.747 6.19 43.791 4.423" style="fill:#ffb901"/><polygon points="40.432 6 40.432 6.205 40.747 6.395 40.747 6.19 40.432 6" style="fill:#ee9b0f"/><polygon points="41.329 6.524 41.014 6.334 44.058 4.567 44.373 4.757 41.329 6.524" style="fill:#ffe438"/><polygon points="44.373 4.757 44.373 4.962 41.329 6.729 41.329 6.524 44.373 4.757" style="fill:#ffb901"/><polygon points="41.014 6.334 41.014 6.539 41.329 6.729 41.329 6.524 41.014 6.334" style="fill:#ee9b0f"/><polygon points="41.911 6.857 41.597 6.667 44.64 4.9 44.955 5.09 41.911 6.857" style="fill:#ffe438"/><polygon points="44.955 5.09 44.955 5.295 41.911 7.062 41.911 6.857 44.955 5.09" style="fill:#ffb901"/><polygon points="41.597 6.667 41.597 6.872 41.911 7.062 41.911 6.857 41.597 6.667" style="fill:#ee9b0f"/><polygon points="42.494 7.19 42.179 7 45.223 5.234 45.537 5.423 42.494 7.19" style="fill:#ffe438"/><polygon points="45.537 5.423 45.537 5.629 42.494 7.396 42.494 7.19 45.537 5.423" style="fill:#ffb901"/><polygon points="42.179 7 42.179 7.206 42.494 7.396 42.494 7.19 42.179 7" style="fill:#ee9b0f"/><polygon points="43.076 7.524 42.761 7.334 45.805 5.567 46.119 5.757 43.076 7.524" style="fill:#ffe438"/><polygon points="46.119 5.757 46.119 5.962 43.076 7.729 43.076 7.524 46.119 5.757" style="fill:#ffb901"/><polygon points="42.761 7.334 42.761 7.539 43.076 7.729 43.076 7.524 42.761 7.334" style="fill:#ee9b0f"/><polygon points="43.658 7.857 43.343 7.667 46.387 5.9 46.702 6.09 43.658 7.857" style="fill:#ffe438"/><polygon points="46.702 6.09 46.702 6.295 43.658 8.062 43.658 7.857 46.702 6.09" style="fill:#ffb901"/><polygon points="43.343 7.667 43.343 7.872 43.658 8.062 43.658 7.857 43.343 7.667" style="fill:#ee9b0f"/><polygon points="44.24 8.191 43.926 8.001 46.969 6.234 47.284 6.424 44.24 8.191" style="fill:#ffe438"/><polygon points="47.284 6.424 47.284 6.629 44.24 8.396 44.24 8.191 47.284 6.424" style="fill:#ffb901"/><polygon points="43.926 8.001 43.926 8.206 44.24 8.396 44.24 8.191 43.926 8.001" style="fill:#ee9b0f"/><polygon points="44.822 8.524 44.508 8.334 47.551 6.567 47.866 6.757 44.822 8.524" style="fill:#ffe438"/><polygon points="47.866 6.757 47.866 6.962 44.822 8.729 44.822 8.524 47.866 6.757" style="fill:#ffb901"/><polygon points="44.508 8.334 44.508 8.539 44.822 8.729 44.822 8.524 44.508 8.334" style="fill:#ee9b0f"/><polygon points="45.405 8.857 45.09 8.668 48.134 6.901 48.448 7.091 45.405 8.857" style="fill:#ffe438"/><polygon points="48.448 7.091 48.448 7.296 45.405 9.063 45.405 8.857 48.448 7.091" style="fill:#ffb901"/><polygon points="45.09 8.668 45.09 8.873 45.405 9.063 45.405 8.857 45.09 8.668" style="fill:#ee9b0f"/><polygon points="45.987 9.191 45.672 9.001 48.716 7.234 49.03 7.424 45.987 9.191" style="fill:#ffe438"/><polygon points="49.03 7.424 49.03 7.629 45.987 9.396 45.987 9.191 49.03 7.424" style="fill:#ffb901"/><polygon points="45.672 9.001 45.672 9.206 45.987 9.396 45.987 9.191 45.672 9.001" style="fill:#ee9b0f"/><polygon points="46.569 9.524 46.254 9.334 49.298 7.568 49.613 7.757 46.569 9.524" style="fill:#ffe438"/><polygon points="49.613 7.757 49.613 7.963 46.569 9.729 46.569 9.524 49.613 7.757" style="fill:#ffb901"/><polygon points="46.254 9.334 46.254 9.54 46.569 9.729 46.569 9.524 46.254 9.334" style="fill:#ee9b0f"/><polygon points="47.151 9.858 46.837 9.668 49.88 7.901 50.195 8.091 47.151 9.858" style="fill:#ffe438"/><polygon points="50.195 8.091 50.195 8.296 47.151 10.063 47.151 9.858 50.195 8.091" style="fill:#ffb901"/><polygon points="46.837 9.668 46.837 9.873 47.151 10.063 47.151 9.858 46.837 9.668" style="fill:#ee9b0f"/><polygon points="47.733 10.191 47.419 10.001 50.462 8.234 50.777 8.424 47.733 10.191" style="fill:#ffe438"/><polygon points="50.777 8.424 50.777 8.629 47.733 10.396 47.733 10.191 50.777 8.424" style="fill:#ffb901"/><polygon points="47.419 10.001 47.419 10.206 47.733 10.396 47.733 10.191 47.419 10.001" style="fill:#ee9b0f"/><polygon points="66.286 20.982 65.971 20.792 69.015 19.025 69.33 19.215 66.286 20.982" style="fill:#ffe438"/><polygon points="69.33 19.215 69.33 19.42 66.286 21.187 66.286 20.982 69.33 19.215" style="fill:#ffb901"/><polygon points="65.971 20.792 65.971 20.997 66.286 21.187 66.286 20.982 65.971 20.792" style="fill:#ee9b0f"/><polygon points="66.868 21.315 66.554 21.125 69.597 19.358 69.912 19.548 66.868 21.315" style="fill:#ffe438"/><polygon points="69.912 19.548 69.912 19.753 66.868 21.52 66.868 21.315 69.912 19.548" style="fill:#ffb901"/><polygon points="66.554 21.125 66.554 21.33 66.868 21.52 66.868 21.315 66.554 21.125" style="fill:#ee9b0f"/><polygon points="67.451 21.648 67.136 21.459 70.18 19.692 70.494 19.882 67.451 21.648" style="fill:#ffe438"/><polygon points="70.494 19.882 70.494 20.087 67.451 21.854 67.451 21.648 70.494 19.882" style="fill:#ffb901"/><polygon points="67.136 21.459 67.136 21.664 67.451 21.854 67.451 21.648 67.136 21.459" style="fill:#ee9b0f"/><polygon points="68.033 21.982 67.718 21.792 70.762 20.025 71.076 20.215 68.033 21.982" style="fill:#ffe438"/><polygon points="71.076 20.215 71.076 20.42 68.033 22.187 68.033 21.982 71.076 20.215" style="fill:#ffb901"/><polygon points="67.718 21.792 67.718 21.997 68.033 22.187 68.033 21.982 67.718 21.792" style="fill:#ee9b0f"/><polygon points="68.615 22.315 68.3 22.125 71.344 20.358 71.659 20.548 68.615 22.315" style="fill:#ffe438"/><polygon points="71.659 20.548 71.659 20.753 68.615 22.52 68.615 22.315 71.659 20.548" style="fill:#ffb901"/><polygon points="68.3 22.125 68.3 22.331 68.615 22.52 68.615 22.315 68.3 22.125" style="fill:#ee9b0f"/><polygon points="69.197 22.649 68.883 22.459 71.926 20.692 72.241 20.882 69.197 22.649" style="fill:#ffe438"/><polygon points="72.241 20.882 72.241 21.087 69.197 22.854 69.197 22.649 72.241 20.882" style="fill:#ffb901"/><polygon points="68.883 22.459 68.883 22.664 69.197 22.854 69.197 22.649 68.883 22.459" style="fill:#ee9b0f"/><polygon points="69.779 22.982 69.465 22.792 72.508 21.025 72.823 21.215 69.779 22.982" style="fill:#ffe438"/><polygon points="72.823 21.215 72.823 21.42 69.779 23.187 69.779 22.982 72.823 21.215" style="fill:#ffb901"/><polygon points="69.465 22.792 69.465 22.997 69.779 23.187 69.779 22.982 69.465 22.792" style="fill:#ee9b0f"/><polygon points="70.362 23.316 70.047 23.126 73.091 21.359 73.405 21.549 70.362 23.316" style="fill:#ffe438"/><polygon points="73.405 21.549 73.405 21.754 70.362 23.521 70.362 23.316 73.405 21.549" style="fill:#ffb901"/><polygon points="70.047 23.126 70.047 23.331 70.362 23.521 70.362 23.316 70.047 23.126" style="fill:#ee9b0f"/><polygon points="70.944 23.649 70.629 23.459 73.673 21.692 73.987 21.882 70.944 23.649" style="fill:#ffe438"/><polygon points="73.987 21.882 73.987 22.087 70.944 23.854 70.944 23.649 73.987 21.882" style="fill:#ffb901"/><polygon points="70.629 23.459 70.629 23.664 70.944 23.854 70.944 23.649 70.629 23.459" style="fill:#ee9b0f"/><polygon points="71.526 23.982 71.211 23.792 74.255 22.026 74.57 22.215 71.526 23.982" style="fill:#ffe438"/><polygon points="74.57 22.215 74.57 22.421 71.526 24.188 71.526 23.982 74.57 22.215" style="fill:#ffb901"/><polygon points="71.211 23.792 71.211 23.998 71.526 24.188 71.526 23.982 71.211 23.792" style="fill:#ee9b0f"/><polygon points="72.108 24.316 71.794 24.126 74.837 22.359 75.152 22.549 72.108 24.316" style="fill:#ffe438"/><polygon points="75.152 22.549 75.152 22.754 72.108 24.521 72.108 24.316 75.152 22.549" style="fill:#ffb901"/><polygon points="71.794 24.126 71.794 24.331 72.108 24.521 72.108 24.316 71.794 24.126" style="fill:#ee9b0f"/><polygon points="72.69 24.649 72.376 24.459 75.419 22.692 75.734 22.882 72.69 24.649" style="fill:#ffe438"/><polygon points="75.734 22.882 75.734 23.087 72.69 24.854 72.69 24.649 75.734 22.882" style="fill:#ffb901"/><polygon points="72.376 24.459 72.376 24.664 72.69 24.854 72.69 24.649 72.376 24.459" style="fill:#ee9b0f"/><polygon points="73.273 24.983 72.958 24.793 76.002 23.026 76.316 23.216 73.273 24.983" style="fill:#ffe438"/><polygon points="76.316 23.216 76.316 23.421 73.273 25.188 73.273 24.983 76.316 23.216" style="fill:#ffb901"/><polygon points="72.958 24.793 72.958 24.998 73.273 25.188 73.273 24.983 72.958 24.793" style="fill:#ee9b0f"/><polygon points="73.855 25.316 73.54 25.126 76.584 23.359 76.899 23.549 73.855 25.316" style="fill:#ffe438"/><polygon points="76.899 23.549 76.899 23.754 73.855 25.521 73.855 25.316 76.899 23.549" style="fill:#ffb901"/><polygon points="73.54 25.126 73.54 25.331 73.855 25.521 73.855 25.316 73.54 25.126" style="fill:#ee9b0f"/><polygon points="74.437 25.649 74.122 25.46 77.166 23.693 77.481 23.883 74.437 25.649" style="fill:#ffe438"/><polygon points="77.481 23.883 77.481 24.088 74.437 25.855 74.437 25.649 77.481 23.883" style="fill:#ffb901"/><polygon points="74.122 25.46 74.122 25.665 74.437 25.855 74.437 25.649 74.122 25.46" style="fill:#ee9b0f"/><polygon points="75.019 25.983 74.705 25.793 77.748 24.026 78.063 24.216 75.019 25.983" style="fill:#ffe438"/><polygon points="78.063 24.216 78.063 24.421 75.019 26.188 75.019 25.983 78.063 24.216" style="fill:#ffb901"/><polygon points="74.705 25.793 74.705 25.998 75.019 26.188 75.019 25.983 74.705 25.793" style="fill:#ee9b0f"/><polygon points="75.602 26.316 75.287 26.126 78.331 24.36 78.645 24.549 75.602 26.316" style="fill:#ffe438"/><polygon points="78.645 24.549 78.645 24.755 75.602 26.521 75.602 26.316 78.645 24.549" style="fill:#ffb901"/><polygon points="75.287 26.126 75.287 26.332 75.602 26.521 75.602 26.316 75.287 26.126" style="fill:#ee9b0f"/><polygon points="48.897 10.887 48.583 10.697 51.626 8.93 51.941 9.12 48.897 10.887" style="fill:#ffe438"/><polygon points="51.941 9.12 51.941 9.325 48.897 11.092 48.897 10.887 51.941 9.12" style="fill:#ffb901"/><polygon points="48.583 10.697 48.583 10.902 48.897 11.092 48.897 10.887 48.583 10.697" style="fill:#ee9b0f"/><polygon points="49.577 11.279 49.262 11.089 52.306 9.322 52.62 9.512 49.577 11.279" style="fill:#ffe438"/><polygon points="52.62 9.512 52.62 9.717 49.577 11.484 49.577 11.279 52.62 9.512" style="fill:#ffb901"/><polygon points="49.262 11.089 49.262 11.294 49.577 11.484 49.577 11.279 49.262 11.089" style="fill:#ee9b0f"/><polygon points="50.256 11.671 49.942 11.481 52.985 9.714 53.3 9.904 50.256 11.671" style="fill:#ffe438"/><polygon points="53.3 9.904 53.3 10.109 50.256 11.876 50.256 11.671 53.3 9.904" style="fill:#ffb901"/><polygon points="49.942 11.481 49.942 11.686 50.256 11.876 50.256 11.671 49.942 11.481" style="fill:#ee9b0f"/><polygon points="50.936 12.063 50.621 11.873 53.665 10.107 53.979 10.296 50.936 12.063" style="fill:#ffe438"/><polygon points="53.979 10.296 53.979 10.502 50.936 12.268 50.936 12.063 53.979 10.296" style="fill:#ffb901"/><polygon points="50.621 11.873 50.621 12.079 50.936 12.268 50.936 12.063 50.621 11.873" style="fill:#ee9b0f"/><polygon points="51.615 12.456 51.301 12.266 54.344 10.499 54.659 10.689 51.615 12.456" style="fill:#ffe438"/><polygon points="54.659 10.689 54.659 10.894 51.615 12.661 51.615 12.456 54.659 10.689" style="fill:#ffb901"/><polygon points="51.301 12.266 51.301 12.471 51.615 12.661 51.615 12.456 51.301 12.266" style="fill:#ee9b0f"/><polygon points="52.295 12.848 51.98 12.658 55.024 10.891 55.338 11.081 52.295 12.848" style="fill:#ffe438"/><polygon points="55.338 11.081 55.338 11.286 52.295 13.053 52.295 12.848 55.338 11.081" style="fill:#ffb901"/><polygon points="51.98 12.658 51.98 12.863 52.295 13.053 52.295 12.848 51.98 12.658" style="fill:#ee9b0f"/><polygon points="52.974 13.24 52.66 13.05 55.703 11.283 56.018 11.473 52.974 13.24" style="fill:#ffe438"/><polygon points="56.018 11.473 56.018 11.678 52.974 13.445 52.974 13.24 56.018 11.473" style="fill:#ffb901"/><polygon points="52.66 13.05 52.66 13.255 52.974 13.445 52.974 13.24 52.66 13.05" style="fill:#ee9b0f"/><polygon points="53.654 13.632 53.339 13.442 56.383 11.675 56.697 11.865 53.654 13.632" style="fill:#ffe438"/><polygon points="56.697 11.865 56.697 12.071 53.654 13.837 53.654 13.632 56.697 11.865" style="fill:#ffb901"/><polygon points="53.339 13.442 53.339 13.648 53.654 13.837 53.654 13.632 53.339 13.442" style="fill:#ee9b0f"/><polygon points="54.333 14.024 54.019 13.835 57.062 12.068 57.377 12.258 54.333 14.024" style="fill:#ffe438"/><polygon points="57.377 12.258 57.377 12.463 54.333 14.23 54.333 14.024 57.377 12.258" style="fill:#ffb901"/><polygon points="54.019 13.835 54.019 14.04 54.333 14.23 54.333 14.024 54.019 13.835" style="fill:#ee9b0f"/><polygon points="55.013 14.417 54.698 14.227 57.742 12.46 58.056 12.65 55.013 14.417" style="fill:#ffe438"/><polygon points="58.056 12.65 58.056 12.855 55.013 14.622 55.013 14.417 58.056 12.65" style="fill:#ffb901"/><polygon points="54.698 14.227 54.698 14.432 55.013 14.622 55.013 14.417 54.698 14.227" style="fill:#ee9b0f"/><polygon points="55.692 14.809 55.378 14.619 58.421 12.852 58.736 13.042 55.692 14.809" style="fill:#ffe438"/><polygon points="58.736 13.042 58.736 13.247 55.692 15.014 55.692 14.809 58.736 13.042" style="fill:#ffb901"/><polygon points="55.378 14.619 55.378 14.824 55.692 15.014 55.692 14.809 55.378 14.619" style="fill:#ee9b0f"/><polygon points="56.372 15.201 56.057 15.011 59.101 13.244 59.415 13.434 56.372 15.201" style="fill:#ffe438"/><polygon points="59.415 13.434 59.415 13.639 56.372 15.406 56.372 15.201 59.415 13.434" style="fill:#ffb901"/><polygon points="56.057 15.011 56.057 15.216 56.372 15.406 56.372 15.201 56.057 15.011" style="fill:#ee9b0f"/><polygon points="57.051 15.593 56.737 15.403 59.78 13.637 60.095 13.826 57.051 15.593" style="fill:#ffe438"/><polygon points="60.095 13.826 60.095 14.032 57.051 15.799 57.051 15.593 60.095 13.826" style="fill:#ffb901"/><polygon points="56.737 15.403 56.737 15.609 57.051 15.799 57.051 15.593 56.737 15.403" style="fill:#ee9b0f"/><polygon points="57.731 15.986 57.416 15.796 60.46 14.029 60.774 14.219 57.731 15.986" style="fill:#ffe438"/><polygon points="60.774 14.219 60.774 14.424 57.731 16.191 57.731 15.986 60.774 14.219" style="fill:#ffb901"/><polygon points="57.416 15.796 57.416 16.001 57.731 16.191 57.731 15.986 57.416 15.796" style="fill:#ee9b0f"/><polygon points="58.41 16.378 58.096 16.188 61.139 14.421 61.454 14.611 58.41 16.378" style="fill:#ffe438"/><polygon points="61.454 14.611 61.454 14.816 58.41 16.583 58.41 16.378 61.454 14.611" style="fill:#ffb901"/><polygon points="58.096 16.188 58.096 16.393 58.41 16.583 58.41 16.378 58.096 16.188" style="fill:#ee9b0f"/><polygon points="59.09 16.77 58.775 16.58 61.819 14.813 62.133 15.003 59.09 16.77" style="fill:#ffe438"/><polygon points="62.133 15.003 62.133 15.208 59.09 16.975 59.09 16.77 62.133 15.003" style="fill:#ffb901"/><polygon points="58.775 16.58 58.775 16.785 59.09 16.975 59.09 16.77 58.775 16.58" style="fill:#ee9b0f"/><polygon points="59.769 17.162 59.455 16.972 62.498 15.206 62.813 15.395 59.769 17.162" style="fill:#ffe438"/><polygon points="62.813 15.395 62.813 15.601 59.769 17.367 59.769 17.162 62.813 15.395" style="fill:#ffb901"/><polygon points="59.455 16.972 59.455 17.178 59.769 17.367 59.769 17.162 59.455 16.972" style="fill:#ee9b0f"/><polygon points="60.449 17.555 60.134 17.365 63.178 15.598 63.492 15.788 60.449 17.555" style="fill:#ffe438"/><polygon points="63.492 15.788 63.492 15.993 60.449 17.76 60.449 17.555 63.492 15.788" style="fill:#ffb901"/><polygon points="60.134 17.365 60.134 17.57 60.449 17.76 60.449 17.555 60.134 17.365" style="fill:#ee9b0f"/><polygon points="61.128 17.947 60.814 17.757 63.857 15.99 64.172 16.18 61.128 17.947" style="fill:#ffe438"/><polygon points="64.172 16.18 64.172 16.385 61.128 18.152 61.128 17.947 64.172 16.18" style="fill:#ffb901"/><polygon points="60.814 17.757 60.814 17.962 61.128 18.152 61.128 17.947 60.814 17.757" style="fill:#ee9b0f"/><polygon points="61.808 18.339 61.493 18.149 64.537 16.382 64.851 16.572 61.808 18.339" style="fill:#ffe438"/><polygon points="64.851 16.572 64.851 16.777 61.808 18.544 61.808 18.339 64.851 16.572" style="fill:#ffb901"/><polygon points="61.493 18.149 61.493 18.354 61.808 18.544 61.808 18.339 61.493 18.149" style="fill:#ee9b0f"/><polygon points="62.487 18.731 62.173 18.541 65.216 16.774 65.531 16.964 62.487 18.731" style="fill:#ffe438"/><polygon points="65.531 16.964 65.531 17.169 62.487 18.936 62.487 18.731 65.531 16.964" style="fill:#ffb901"/><polygon points="62.173 18.541 62.173 18.746 62.487 18.936 62.487 18.731 62.173 18.541" style="fill:#ee9b0f"/><polygon points="63.167 19.123 62.852 18.934 65.896 17.167 66.21 17.357 63.167 19.123" style="fill:#ffe438"/><polygon points="66.21 17.357 66.21 17.562 63.167 19.329 63.167 19.123 66.21 17.357" style="fill:#ffb901"/><polygon points="62.852 18.934 62.852 19.139 63.167 19.329 63.167 19.123 62.852 18.934" style="fill:#ee9b0f"/><polygon points="63.846 19.516 63.532 19.326 66.575 17.559 66.89 17.749 63.846 19.516" style="fill:#ffe438"/><polygon points="66.89 17.749 66.89 17.954 63.846 19.721 63.846 19.516 66.89 17.749" style="fill:#ffb901"/><polygon points="63.532 19.326 63.532 19.531 63.846 19.721 63.846 19.516 63.532 19.326" style="fill:#ee9b0f"/><polygon points="64.526 19.908 64.211 19.718 67.255 17.951 67.569 18.141 64.526 19.908" style="fill:#ffe438"/><polygon points="67.569 18.141 67.569 18.346 64.526 20.113 64.526 19.908 67.569 18.141" style="fill:#ffb901"/><polygon points="64.211 19.718 64.211 19.923 64.526 20.113 64.526 19.908 64.211 19.718" style="fill:#ee9b0f"/><polygon points="65.205 20.3 64.891 20.11 67.934 18.343 68.249 18.533 65.205 20.3" style="fill:#ffe438"/><polygon points="68.249 18.533 68.249 18.738 65.205 20.505 65.205 20.3 68.249 18.533" style="fill:#ffb901"/><polygon points="64.891 20.11 64.891 20.315 65.205 20.505 65.205 20.3 64.891 20.11" style="fill:#ee9b0f"/><polygon points="72.987 62.075 6.262 23.551 36.921 5.808 103.647 44.332 72.987 62.075" style="fill:#388726"/><polygon points="72.987 60.247 6.262 21.723 36.921 3.981 103.647 42.505 72.987 60.247" style="fill:#29966d"/><path d="M56.24711,43.76415a2.45479,2.45479,0,0,1,.4466-.0402h.0104a2.27354,2.27354,0,0,1,1.1205.3091l1.9105.9847-1.7941,1.2673-2.3452-1.2185.0024-.0013a.80329.80329,0,0,1-.2945-.3174.46943.46943,0,0,1-.05029-.2072C55.25342,44.17855,55.66981,43.87275,56.24711,43.76415Z" style="fill:#b3b3b3;mix-blend-mode:multiply"/><path d="M12.34591,21.79905a2.46291,2.46291,0,0,1,.4466-.0402h.0103a2.27332,2.27332,0,0,1,1.12061.3092l1.32549.757-2.0198,1.151-1.5345-.8745.0024-.0014a.80284.80284,0,0,1-.29459-.3174.46921.46921,0,0,1-.05021-.2072C11.35221,22.21345,11.76861,21.90775,12.34591,21.79905Z" style="fill:#b3b3b3;mix-blend-mode:multiply"/><polygon points="49.834 39.524 39.551 33.666 51.575 26.712 61.857 32.57 53.536 39.873 49.834 39.524" style="fill:#b3b3b3;mix-blend-mode:multiply"/><polygon points="25.148 31.708 22.138 29.937 27.07 27.085 30.08 28.856 26.667 31.852 25.148 31.708" style="fill:#b3b3b3;mix-blend-mode:multiply"/><path d="M22.94171,28.51065a.23163.23163,0,0,1-.0258.1072.52.52,0,0,1-.307.2421,1.17358,1.17358,0,0,1-.405.069,1.26124,1.26124,0,0,1-.2297-.0206.964.964,0,0,1-.1752-.0484.52875.52875,0,0,1-.3081-.2411.24021.24021,0,0,1-.0257-.1061c0-.1855.21321-.3421.509-.3977a1.25831,1.25831,0,0,1,.2287-.0206C22.61091,28.09445,22.94171,28.28085,22.94171,28.51065Z" style="fill:#ebebeb"/><path d="M24.65861,27.67605a.23153.23153,0,0,1-.0257.1072.51987.51987,0,0,1-.3071.2421,1.17253,1.17253,0,0,1-.4049.0691,1.27131,1.27131,0,0,1-.2298-.0206.97107.97107,0,0,1-.1751-.0485.528.528,0,0,1-.3081-.2411.24033.24033,0,0,1-.0258-.1061c0-.1855.21331-.3421.509-.3977a1.25942,1.25942,0,0,1,.2288-.0206C24.32791,27.25985,24.65861,27.44635,24.65861,27.67605Z" style="fill:#ebebeb"/><path d="M26.32511,26.66655a.23176.23176,0,0,1-.0258.1072.52.52,0,0,1-.307.2421,1.1726,1.1726,0,0,1-.40489.069,1.26157,1.26157,0,0,1-.22981-.0206.9637.9637,0,0,1-.17519-.0484.52812.52812,0,0,1-.308-.2411.24007.24007,0,0,1-.02581-.1061c0-.1855.2133-.3421.509-.3978a1.26742,1.26742,0,0,1,.2287-.0205C25.99431,26.25035,26.32511,26.43675,26.32511,26.66655Z" style="fill:#ebebeb"/><path d="M47.78631,18.83325a.23042.23042,0,0,1-.0258.1071.5201.5201,0,0,1-.307.2422,1.175,1.175,0,0,1-.4049.069,1.26154,1.26154,0,0,1-.2298-.0206.97449.97449,0,0,1-.1752-.0484.52829.52829,0,0,1-.308-.2412.24019.24019,0,0,1-.0258-.1061c0-.1854.2133-.3421.509-.3977a1.25831,1.25831,0,0,1,.2287-.0206C47.45561,18.417,47.78631,18.60345,47.78631,18.83325Z" style="fill:#ebebeb"/><path d="M49.50331,17.99865a.23136.23136,0,0,1-.0258.1071.5201.5201,0,0,1-.307.2422,1.1732,1.1732,0,0,1-.405.069,1.26124,1.26124,0,0,1-.2297-.0206.964.964,0,0,1-.1752-.0484.52913.52913,0,0,1-.3081-.2411.24177.24177,0,0,1-.0257-.1061c0-.1855.2133-.3421.509-.3978a1.25831,1.25831,0,0,1,.2287-.0206C49.17251,17.58235,49.50331,17.76885,49.50331,17.99865Z" style="fill:#ebebeb"/><path d="M51.16971,16.98915a.23154.23154,0,0,1-.0257.1071.52031.52031,0,0,1-.3071.2422,1.17494,1.17494,0,0,1-.4049.069,1.26244,1.26244,0,0,1-.2298-.0206.98193.98193,0,0,1-.1751-.0484.52857.52857,0,0,1-.3081-.2412.24019.24019,0,0,1-.0258-.1061c0-.1854.2133-.3421.509-.3977a1.2595,1.2595,0,0,1,.2288-.0206C50.839,16.57285,51.16971,16.75935,51.16971,16.98915Z" style="fill:#ebebeb"/><polygon points="59.896 51.131 33.506 35.984 34.313 26.605 27.183 22.55 18.562 27.618 12.126 24.163 21.487 18.76 16.823 16.026 36.798 4.048 57.19 16.677 41.882 25.117 40.224 23.94 53.762 16.59 36.784 6.076 20.217 16.009 24.93 18.772 15.48 24.227 18.478 25.659 27.169 20.55 36.133 25.648 35.326 35.032 59.894 49.134 67.083 44.969 68.681 46.062 59.896 51.131" style="fill:#104732"/><polygon points="34.113 35.666 34.92 26.286 27.179 21.883 18.549 26.956 13.312 24.145 22.635 18.764 17.954 16.02 36.794 4.724 56.048 16.648 41.92 24.437 41.313 24.006 54.911 16.623 36.789 5.4 19.086 16.014 23.782 18.768 14.242 24.275 18.506 26.312 27.174 21.217 35.527 25.967 34.72 35.35 59.895 49.8 67.058 45.651 67.598 46.021 59.895 50.466 34.113 35.666" style="fill:#29966d"/><path d="M80.09091,37.28055l3.3988-1.9623c.3712-.2143.3246-.5887-.104-.8362h0a1.61,1.61,0,0,0-1.4484-.0601l-3.3988,1.9623c-.3712.2143-.3246.5887.104.8362h0A1.61,1.61,0,0,0,80.09091,37.28055Z" style="fill:#fff"/><path d="M82.207,38.51105l3.3988-1.9622c.3712-.2144.3247-.5888-.104-.8363h0a1.61026,1.61026,0,0,0-1.44839-.06l-3.39871,1.9623c-.37129.2143-.3247.5887.1039.8362h0A1.60965,1.60965,0,0,0,82.207,38.51105Z" style="fill:#fff"/><path d="M84.32311,39.74165l3.3988-1.9622c.3712-.2144.3247-.5888-.104-.8363h0a1.61,1.61,0,0,0-1.4484-.06l-3.3987,1.9623c-.3713.2143-.3247.5887.104.8362h0A1.60943,1.60943,0,0,0,84.32311,39.74165Z" style="fill:#fff"/><polygon points="42.09 37.226 39.551 35.765 41.953 34.346 44.492 35.807 42.09 37.226" style="fill:#ebebeb"/><polygon points="46.318 39.662 43.779 38.202 46.181 36.783 48.72 38.243 46.318 39.662" style="fill:#ebebeb"/><polygon points="50.547 42.099 48.008 40.638 50.409 39.219 52.948 40.68 50.547 42.099" style="fill:#ebebeb"/><polygon points="57.493 42.505 54.954 41.044 57.356 39.625 59.895 41.086 57.493 42.505" style="fill:#ebebeb"/><polygon points="61.925 39.985 59.386 38.525 61.787 37.106 64.326 38.566 61.925 39.985" style="fill:#ebebeb"/><polygon points="66.356 37.466 63.817 36.005 66.219 34.586 68.758 36.047 66.356 37.466" style="fill:#ebebeb"/><polygon points="70.788 34.946 68.249 33.486 70.65 32.067 73.189 33.527 70.788 34.946" style="fill:#ebebeb"/><polygon points="63.082 24.539 60.543 23.078 62.945 21.659 65.484 23.12 63.082 24.539" style="fill:#ebebeb"/><polygon points="67.311 26.975 64.772 25.515 67.173 24.096 69.712 25.556 67.311 26.975" style="fill:#ebebeb"/><polygon points="71.539 29.411 69 27.951 71.401 26.532 73.94 27.992 71.539 29.411" style="fill:#ebebeb"/><polygon points="41.01 32.161 38.471 30.701 40.873 29.282 43.412 30.742 41.01 32.161" style="fill:#ebebeb"/><polygon points="45.442 29.641 42.903 28.181 45.305 26.762 47.844 28.222 45.442 29.641" style="fill:#ebebeb"/><polygon points="49.874 27.122 47.334 25.662 49.736 24.243 52.275 25.703 49.874 27.122" style="fill:#ebebeb"/><polygon points="54.305 24.602 51.766 23.142 54.168 21.723 56.707 23.183 54.305 24.602" style="fill:#ebebeb"/><path d="M15.65161,23.465a.48546.48546,0,0,1-.054.2247,1.0904,1.0904,0,0,1-.6438.5077,2.45908,2.45908,0,0,1-.8491.1448,2.645,2.645,0,0,1-.4817-.0432,2.03115,2.03115,0,0,1-.3673-.1016,1.10842,1.10842,0,0,1-.646-.5055.50529.50529,0,0,1-.054-.2225c0-.3889.4472-.7173,1.0673-.834a2.6479,2.6479,0,0,1,.4796-.0431C14.95811,22.59225,15.65161,22.98325,15.65161,23.465Z" style="fill:#fff"/><polygon points="103.647 42.505 103.647 44.332 72.987 62.075 72.987 60.247 103.647 42.505" style="fill:#17694a"/><polygon points="6.262 21.723 6.262 23.551 72.987 62.075 72.987 60.247 6.262 21.723" style="fill:#104732"/><polygon points="16.239 22.248 13.229 20.477 18.161 17.625 21.172 19.396 17.758 22.392 16.239 22.248" style="fill:#b3b3b3;mix-blend-mode:multiply"/><polygon points="17.771 21.731 15.424 20.35 19.269 18.126 21.616 19.507 17.771 21.731" style="fill:#364557"/><polygon points="21.616 19.507 21.616 20.168 17.771 22.392 17.771 21.731 21.616 19.507" style="fill:#202b33"/><polygon points="15.424 20.35 15.424 21.011 17.771 22.392 17.771 21.731 15.424 20.35" style="fill:#161c24"/><path d="M15.553,19.56725v3.7768a.34934.34934,0,0,1-.0101.0911c-.0769.4106-.6938.7282-1.4382.7282a2.47746,2.47746,0,0,1-.4511-.0405c-.528-.0971-.9224-.36-.9871-.6837-.00609-.0303-.0102-3.2913-.0102-3.3237l-.002-.2872v-.2569h.35611l.64319-.002,1.5414-.0021Z" style="fill:url(#铃琨眄沭噤桢眚_4)"/><path d="M15.553,19.56725a.45424.45424,0,0,1-.05059.2104,1.02121,1.02121,0,0,1-.60271.4754,2.30552,2.30552,0,0,1-.795.1355,2.47746,2.47746,0,0,1-.4511-.0405,1.898,1.898,0,0,1-.3439-.095,1.03785,1.03785,0,0,1-.6048-.4734.47136.47136,0,0,1-.0506-.2083c0-.3641.4188-.6716.9993-.7808a2.4716,2.4716,0,0,1,.4491-.0405C14.90371,18.75005,15.553,19.11625,15.553,19.56725Z" style="fill:#344354"/><path d="M15.75371,18.10875v4.2998a.39735.39735,0,0,1-.0115.1036c-.0875.4675-.7899.8291-1.6374.8291a2.815,2.815,0,0,1-.5135-.0461c-.6011-.1105-1.0501-.4099-1.1238-.7783-.0069-.0346-.0116-3.7472-.0116-3.784l-.0022-.327v-.2925h.4053l.7323-.0023,1.7548-.0023Z" style="fill:url(#铃琨眄沭噤桢眚_32)"/><path d="M15.75371,18.10875a.51655.51655,0,0,1-.0576.2395,1.16186,1.16186,0,0,1-.6862.5412,2.62364,2.62364,0,0,1-.9051.1543,2.815,2.815,0,0,1-.5135-.0461,2.15233,2.15233,0,0,1-.3915-.1082,1.18126,1.18126,0,0,1-.6886-.5389.5382.5382,0,0,1-.0575-.2372c0-.4145.47671-.7645,1.1376-.8889a2.8173,2.8173,0,0,1,.5112-.046C15.01451,17.17845,15.75371,17.59525,15.75371,18.10875Z" style="fill:#43566c"/><path d="M11.61811,21.72115a.473.473,0,0,1-.05269.2189,1.06269,1.06269,0,0,1-.62711.4946,2.39991,2.39991,0,0,1-.8272.1409,2.58352,2.58352,0,0,1-.4693-.042,1.98685,1.98685,0,0,1-.3578-.0989,1.08042,1.08042,0,0,1-.6293-.4925.49234.49234,0,0,1-.0526-.2168c0-.3788.4357-.6987,1.0397-.8124a2.57721,2.57721,0,0,1,.4672-.0421C10.94251,20.87085,11.61811,21.25185,11.61811,21.72115Z" style="fill:#fff"/><path d="M8.89831,22.22785a1.78028,1.78028,0,0,1,.7435-.3049,2.56828,2.56828,0,0,1,.4672-.0421,2.042,2.042,0,0,1,1.2123.3483.77552.77552,0,0,0,.24411-.2891.473.473,0,0,0,.05269-.2189c0-.4693-.6756-.8503-1.5091-.8503a2.56828,2.56828,0,0,0-.4672.0421c-.604.1137-1.0397.4335-1.0397.8124a.49067.49067,0,0,0,.0527.2167A.787.787,0,0,0,8.89831,22.22785Z" style="fill:#104732"/><path d="M35.48,5.09735a2.46261,2.46261,0,0,1,.4465-.0402h.0104a2.27325,2.27325,0,0,1,1.1206.3092l1.3255.757-2.0198,1.151-1.5346-.8745.0024-.0014a.80329.80329,0,0,1-.2945-.3174.46945.46945,0,0,1-.0503-.2072C34.48621,5.51175,34.90261,5.20605,35.48,5.09735Z" style="fill:#b3b3b3;mix-blend-mode:multiply"/><path d="M38.33181,6.86375a.38793.38793,0,0,1-.0432.1797.872.872,0,0,1-.5148.406,1.96925,1.96925,0,0,1-.679.1157,2.123,2.123,0,0,1-.3853-.0345,1.62775,1.62775,0,0,1-.2937-.0812.88647.88647,0,0,1-.5166-.4043.40386.40386,0,0,1-.0431-.178c0-.311.3576-.5736.8534-.6669a2.11806,2.11806,0,0,1,.3836-.0345C37.77721,6.16575,38.33181,6.47845,38.33181,6.86375Z" style="fill:#fff"/><path d="M38.253,3.74675v3.0203a.28235.28235,0,0,1-.0081.0728c-.06149.3284-.5549.5823-1.1502.5823a1.985,1.985,0,0,1-.3607-.0323c-.4222-.0777-.73759-.2879-.7894-.5468-.0048-.0242-.0081-2.6321-.0081-2.658l-.0016-.2296V3.75h.2847l.5144-.0016,1.2326-.0016Z" style="fill:url(#铃琨眄沭噤桢眚_4-2)"/><path d="M38.253,3.74675a.36333.36333,0,0,1-.0405.1682.81693.81693,0,0,1-.482.3802,1.8436,1.8436,0,0,1-.6358.1083,1.985,1.985,0,0,1-.3607-.0323,1.52357,1.52357,0,0,1-.275-.076.83.83,0,0,1-.4837-.3786.37807.37807,0,0,1-.0404-.1666c0-.2911.3349-.537.7991-.6244a1.9803,1.9803,0,0,1,.3591-.0323C37.73371,3.09325,38.253,3.38605,38.253,3.74675Z" style="fill:#344354"/><path d="M38.41351,2.58035v3.4385a.31632.31632,0,0,1-.0093.0829c-.0699.3739-.6316.663-1.3093.663a2.25926,2.25926,0,0,1-.4107-.0368c-.4807-.0884-.83979-.3278-.8987-.6225-.0055-.0276-.0092-2.9965-.0092-3.026l-.00189-.2615v-.2339h.32419l.5856-.0018,1.4033-.0019Z" style="fill:url(#铃琨眄沭噤桢眚_32-2)"/><path d="M38.41351,2.58035a.41417.41417,0,0,1-.04609.1916.92981.92981,0,0,1-.54881.4328,2.09843,2.09843,0,0,1-.7237.1233,2.25926,2.25926,0,0,1-.4107-.0368,1.73533,1.73533,0,0,1-.3131-.0865.94454.94454,0,0,1-.5506-.431.42955.42955,0,0,1-.04609-.1897c0-.3315.38119-.6114.90979-.7108a2.24463,2.24463,0,0,1,.4088-.0369C37.82231,1.83635,38.41351,2.16975,38.41351,2.58035Z" style="fill:#43566c"/><path d="M48.18071,43.16a2.45406,2.45406,0,0,1,.4466-.0402h.0103a2.2742,2.2742,0,0,1,1.1206.3091l2.1361,1.1009-2.0197,1.1511-2.3453-1.2184.0025-.0014a.80287.80287,0,0,1-.2946-.3174.46945.46945,0,0,1-.0503-.2072C47.18691,43.57435,47.60331,43.26855,48.18071,43.16Z" style="fill:#b3b3b3;mix-blend-mode:multiply"/><path d="M51.93751,45.31085a.38764.38764,0,0,1-.0432.1797.872.872,0,0,1-.5148.406,1.96684,1.96684,0,0,1-.679.1158,2.114,2.114,0,0,1-.3853-.0346,1.61982,1.61982,0,0,1-.2937-.0812.88647.88647,0,0,1-.5166-.4043.40344.40344,0,0,1-.0431-.1779c0-.311.35761-.5736.8534-.6669a2.11806,2.11806,0,0,1,.3836-.0345C51.38291,44.613,51.93751,44.92565,51.93751,45.31085Z" style="fill:#fff"/><path d="M51.85871,42.194v3.0203a.28284.28284,0,0,1-.0081.0728c-.0615.3283-.5549.5823-1.1501.5823a1.97625,1.97625,0,0,1-.3608-.0324c-.4222-.0776-.7376-.2879-.7894-.5467-.0048-.0243-.0081-2.6321-.0081-2.658l-.0016-.2297v-.2054h.2847l.5144-.0016,1.2326-.0016Z" style="fill:url(#铃琨眄沭噤桢眚_4-3)"/><path d="M51.85871,42.194a.36333.36333,0,0,1-.0405.1682.81615.81615,0,0,1-.482.3801,1.841,1.841,0,0,1-.6357.1084,1.9853,1.9853,0,0,1-.3608-.0323,1.51746,1.51746,0,0,1-.275-.0761.82956.82956,0,0,1-.4836-.3785.37747.37747,0,0,1-.0405-.1666c0-.2912.3349-.537.7991-.6244a1.9803,1.9803,0,0,1,.3591-.0323C51.33942,41.54045,51.85871,41.83315,51.85871,42.194Z" style="fill:#344354"/><path d="M52.01921,41.02755v3.4385a.31679.31679,0,0,1-.0093.0829c-.0699.3738-.6316.663-1.3093.663a2.25021,2.25021,0,0,1-.4107-.0369c-.4807-.0884-.8398-.3278-.8987-.6224-.0055-.0276-.0092-2.9966-.0092-3.0261l-.0019-.2614v-.2339h.3242l.5856-.0019,1.4033-.0018Z" style="fill:url(#铃琨眄沭噤桢眚_32-3)"/><path d="M52.01921,41.02755a.41324.41324,0,0,1-.0461.1915.92906.92906,0,0,1-.5488.4328,2.096,2.096,0,0,1-.7237.1234,2.25926,2.25926,0,0,1-.4107-.0368,1.73532,1.73532,0,0,1-.3131-.0866.94405.94405,0,0,1-.5506-.4309.42956.42956,0,0,1-.0461-.1897c0-.3315.38131-.6114.9098-.7109a2.25368,2.25368,0,0,1,.4088-.0368C51.428,40.28355,52.01921,40.61685,52.01921,41.02755Z" style="fill:#43566c"/><path d="M52.33321,45.63985a2.454,2.454,0,0,1,.4466-.0402h.0103a2.27391,2.27391,0,0,1,1.1206.3091l1.9105.9847-1.7941,1.2673-2.3452-1.2185.0024-.0013a.80256.80256,0,0,1-.2945-.3174.46945.46945,0,0,1-.0503-.2072C51.33951,46.05425,51.75591,45.74845,52.33321,45.63985Z" style="fill:#b3b3b3;mix-blend-mode:multiply"/><path d="M55.82121,47.67215a.38752.38752,0,0,1-.0432.1797.87194.87194,0,0,1-.5148.406,1.96967,1.96967,0,0,1-.679.1157,2.1223,2.1223,0,0,1-.3853-.0345,1.62546,1.62546,0,0,1-.2937-.0812.8865.8865,0,0,1-.5166-.4043.40387.40387,0,0,1-.04319-.1779c0-.311.35769-.5736.85349-.6669a2.10825,2.10825,0,0,1,.3836-.0346C55.26661,46.97415,55.82121,47.28685,55.82121,47.67215Z" style="fill:#fff"/><path d="M55.74242,44.55515v3.0203a.28237.28237,0,0,1-.00811.0728c-.0615.3284-.55489.5823-1.1502.5823a1.984,1.984,0,0,1-.36069-.0323c-.42221-.0776-.73761-.2879-.78941-.5468-.0048-.0242-.0081-2.632-.0081-2.6579l-.0016-.2297v-.2054h.2847l.51441-.0017,1.23259-.0016Z" style="fill:url(#铃琨眄沭噤桢眚_4-4)"/><path d="M55.74242,44.55515a.36292.36292,0,0,1-.04051.1682.81657.81657,0,0,1-.482.3802,1.84355,1.84355,0,0,1-.6358.1084,1.98382,1.98382,0,0,1-.36069-.0324,1.5206,1.5206,0,0,1-.275-.076.82986.82986,0,0,1-.48371-.3785.37872.37872,0,0,1-.0404-.1666c0-.2912.3349-.5371.79911-.6245a1.97929,1.97929,0,0,1,.35909-.0323C55.22311,43.90165,55.74242,44.19445,55.74242,44.55515Z" style="fill:#344354"/><path d="M55.90281,43.38875v3.4386a.31592.31592,0,0,1-.0092.0828c-.0699.3739-.6316.663-1.3094.663a2.259,2.259,0,0,1-.4106-.0368c-.4807-.0884-.8398-.3278-.8987-.6225-.0056-.0276-.0093-2.9965-.0093-3.026l-.0018-.2615v-.2339h.3241l.5857-.0018,1.4033-.0019Z" style="fill:url(#铃琨眄沭噤桢眚_32-4)"/><path d="M55.90281,43.38875a.414.414,0,0,1-.046.1916.92979.92979,0,0,1-.5488.4328,2.09859,2.09859,0,0,1-.7238.1233,2.25008,2.25008,0,0,1-.4106-.0368,1.72491,1.72491,0,0,1-.3131-.0865.94454.94454,0,0,1-.5506-.431.4297.4297,0,0,1-.0461-.1897c0-.3315.3812-.6114.9098-.7108a2.24479,2.24479,0,0,1,.40881-.0368C55.31171,42.64485,55.90281,42.97815,55.90281,43.38875Z" style="fill:#43566c"/><path d="M59.65351,45.83145a.38764.38764,0,0,1-.0432.1797.872.872,0,0,1-.5148.406,1.96967,1.96967,0,0,1-.679.1157,2.12222,2.12222,0,0,1-.3853-.0345,1.62318,1.62318,0,0,1-.2937-.0812.88647.88647,0,0,1-.5166-.4043.404.404,0,0,1-.0432-.178c0-.3109.35771-.5735.8535-.6668a2.10816,2.10816,0,0,1,.3836-.0346C59.09891,45.13345,59.65351,45.44615,59.65351,45.83145Z" style="fill:#fff"/><path d="M59.57461,42.71445v3.0203a.278.278,0,0,1-.0081.0728c-.0614.3284-.5548.5823-1.15009.5823a1.98421,1.98421,0,0,1-.36071-.0323c-.4222-.0777-.7376-.2879-.7894-.5468-.00489-.0242-.0081-2.632-.0081-2.6579l-.0016-.2297v-.2055h.2847l.5144-.0016,1.2326-.0016Z" style="fill:url(#铃琨眄沭噤桢眚_4-5)"/><path d="M59.57461,42.71445a.36292.36292,0,0,1-.0404.1682.81657.81657,0,0,1-.482.3802,1.8435,1.8435,0,0,1-.63579.1084,1.984,1.984,0,0,1-.36071-.0324,1.52106,1.52106,0,0,1-.275-.076.82987.82987,0,0,1-.4837-.3785.37745.37745,0,0,1-.0404-.1667c0-.2911.33481-.537.7991-.6244a1.97948,1.97948,0,0,1,.3591-.0323C59.05542,42.061,59.57461,42.35375,59.57461,42.71445Z" style="fill:#344354"/><path d="M59.73511,41.54805v3.4386a.31592.31592,0,0,1-.0092.0828c-.0699.3739-.6317.663-1.3094.663a2.259,2.259,0,0,1-.4106-.0368c-.4807-.0884-.8398-.3278-.8987-.6225-.0056-.0276-.0093-2.9965-.0093-3.026l-.0018-.2615v-.2339h.3241l.5857-.0018,1.4033-.0019Z" style="fill:url(#铃琨眄沭噤桢眚_32-5)"/><path d="M59.73511,41.54805a.41383.41383,0,0,1-.046.1916.92979.92979,0,0,1-.5488.4328,2.09859,2.09859,0,0,1-.7238.1233,2.259,2.259,0,0,1-.4106-.0368,1.72491,1.72491,0,0,1-.3131-.0865.94511.94511,0,0,1-.5507-.431.43081.43081,0,0,1-.046-.1897c0-.3315.3812-.6114.9098-.7108a2.24476,2.24476,0,0,1,.4088-.0368C59.144,40.80415,59.73511,41.13745,59.73511,41.54805Z" style="fill:#43566c"/><path d="M56.12281,17.62255a2.46293,2.46293,0,0,1,.44661-.0402l.01029.0001a2.27181,2.27181,0,0,1,1.1206.3091l2.13611,1.1009-2.01971,1.151-2.3452-1.2184.0024-.0014a.80181.80181,0,0,1-.29449-.3174.469.469,0,0,1-.05031-.2072C55.12911,18.037,55.54551,17.73125,56.12281,17.62255Z" style="fill:#b3b3b3;mix-blend-mode:multiply"/><path d="M59.91531,19.83785a.38753.38753,0,0,1-.0432.1796.87209.87209,0,0,1-.5148.4061,1.96967,1.96967,0,0,1-.679.1157,2.11234,2.11234,0,0,1-.3853-.0346,1.61508,1.61508,0,0,1-.2937-.0811.88685.88685,0,0,1-.5166-.4043.404.404,0,0,1-.0432-.178c0-.311.3577-.5736.8535-.6669a2.11612,2.11612,0,0,1,.3835-.0345C59.36071,19.13985,59.91531,19.45255,59.91531,19.83785Z" style="fill:#fff"/><path d="M59.83642,16.72085v3.0203a.27853.27853,0,0,1-.00811.0728c-.0614.3283-.5548.5823-1.1501.5823a1.98418,1.98418,0,0,1-.3607-.0323c-.4222-.0777-.7376-.288-.7894-.5468-.0049-.0242-.0081-2.6321-.0081-2.658l-.00159-.2297V16.724h.28469l.5144-.0016,1.2326-.0016Z" style="fill:url(#铃琨眄沭噤桢眚_4-6)"/><path d="M59.83642,16.72085a.36323.36323,0,0,1-.04041.1682.81693.81693,0,0,1-.482.3802,1.8436,1.8436,0,0,1-.6358.1083,1.98418,1.98418,0,0,1-.3607-.0323,1.52106,1.52106,0,0,1-.275-.076.83.83,0,0,1-.4837-.3786.377.377,0,0,1-.04039-.1666c0-.2912.33479-.537.79909-.6244a1.97948,1.97948,0,0,1,.3591-.0323C59.31721,16.06735,59.83642,16.36015,59.83642,16.72085Z" style="fill:#344354"/><path d="M59.99691,15.55445V18.993a.3162.3162,0,0,1-.0092.0829c-.0699.3738-.6317.663-1.3094.663a2.259,2.259,0,0,1-.4106-.0368c-.4807-.0884-.8398-.3278-.8987-.6225-.00559-.0276-.0093-2.9966-.0093-3.026l-.0018-.2615v-.2339h.3241l.5857-.0018,1.4033-.0019Z" style="fill:url(#铃琨眄沭噤桢眚_32-6)"/><path d="M59.99691,15.55445a.41326.41326,0,0,1-.046.1915.92937.92937,0,0,1-.5488.4328,2.09614,2.09614,0,0,1-.7238.1234,2.259,2.259,0,0,1-.4106-.0368,1.73327,1.73327,0,0,1-.3131-.0866.94462.94462,0,0,1-.5507-.4309.43081.43081,0,0,1-.046-.1897c0-.3315.3812-.6114.9098-.7109a2.25368,2.25368,0,0,1,.4088-.0368C59.40581,14.81045,59.99691,15.14385,59.99691,15.55445Z" style="fill:#43566c"/><path d="M74.68491,31.06705a2.46373,2.46373,0,0,1,.4466-.0402h.0104a2.27266,2.27266,0,0,1,1.12051.3092l1.91049.9846-1.7941,1.2673-2.3452-1.2184.0024-.0014a.80329.80329,0,0,1-.2945-.3174.46945.46945,0,0,1-.0503-.2072C73.69121,31.48145,74.10761,31.17575,74.68491,31.06705Z" style="fill:#b3b3b3;mix-blend-mode:multiply"/><path d="M77.879,28.98905a2.454,2.454,0,0,1,.4466-.0402h.0103a2.27286,2.27286,0,0,1,1.1206.3091l1.9105.9847L79.57291,31.51l-2.3452-1.2185.0024-.0013a.80183.80183,0,0,1-.2945-.3174.46958.46958,0,0,1-.0503-.2072C76.88531,29.40345,77.30171,29.09765,77.879,28.98905Z" style="fill:#b3b3b3;mix-blend-mode:multiply"/><path d="M78.28821,33.14105a.38712.38712,0,0,1-.0432.1796.87169.87169,0,0,1-.5148.4061,1.96925,1.96925,0,0,1-.679.1157,2.123,2.123,0,0,1-.3853-.0345,1.62775,1.62775,0,0,1-.2937-.0812.88593.88593,0,0,1-.5165-.4043.40261.40261,0,0,1-.0432-.178c0-.311.3576-.5736.8534-.6669a2.11806,2.11806,0,0,1,.3836-.0345C77.73361,32.44305,78.28821,32.75575,78.28821,33.14105Z" style="fill:#fff"/><path d="M78.20942,30.02405v3.0203a.28237.28237,0,0,1-.00811.0728c-.0615.3284-.55489.5823-1.1501.5823a1.9851,1.9851,0,0,1-.36079-.0323c-.42221-.0777-.73761-.288-.78941-.5468-.0048-.0242-.0081-2.6321-.0081-2.658l-.0016-.2296v-.2055h.2847l.51441-.0016,1.23259-.0016Z" style="fill:url(#铃琨眄沭噤桢眚_4-7)"/><path d="M78.20942,30.02405a.36321.36321,0,0,1-.04051.1682.81662.81662,0,0,1-.482.3802,1.84344,1.84344,0,0,1-.6357.1083,1.9851,1.9851,0,0,1-.36079-.0323,1.52517,1.52517,0,0,1-.275-.076.83.83,0,0,1-.48361-.3786.37682.37682,0,0,1-.0405-.1666c0-.2912.3349-.537.79911-.6244a1.98011,1.98011,0,0,1,.35909-.0323C77.69011,29.37055,78.20942,29.66335,78.20942,30.02405Z" style="fill:#344354"/><path d="M78.36991,28.85765v3.4385a.31632.31632,0,0,1-.0093.0829c-.0699.3739-.6316.663-1.3093.663a2.25926,2.25926,0,0,1-.4107-.0368c-.4807-.0884-.8398-.3278-.8987-.6225-.00549-.0276-.0092-2.9965-.0092-3.026l-.0019-.2615v-.2339h.3242l.5856-.0018,1.4033-.0019Z" style="fill:url(#铃琨眄沭噤桢眚_32-7)"/><path d="M78.36991,28.85765a.41406.41406,0,0,1-.0461.1916.92931.92931,0,0,1-.5488.4327,2.096,2.096,0,0,1-.7237.1234,2.25926,2.25926,0,0,1-.4107-.0368,1.72717,1.72717,0,0,1-.3131-.0866.94405.94405,0,0,1-.5506-.4309.4297.4297,0,0,1-.0461-.1897c0-.3315.3813-.6114.9098-.7109a2.25371,2.25371,0,0,1,.40881-.0368C77.77871,28.11365,78.36991,28.44705,78.36991,28.85765Z" style="fill:#43566c"/><path d="M81.47781,31.07705a.38764.38764,0,0,1-.0432.1797.87191.87191,0,0,1-.5149.406,1.9663,1.9663,0,0,1-.6789.1157,2.12149,2.12149,0,0,1-.3853-.0345,1.62318,1.62318,0,0,1-.2937-.0812.88583.88583,0,0,1-.5166-.4043.40355.40355,0,0,1-.0432-.1779c0-.311.3576-.5736.8535-.6669a2.10714,2.10714,0,0,1,.3835-.0346C80.92321,30.37905,81.47781,30.69175,81.47781,31.07705Z" style="fill:#fff"/><path d="M81.39891,27.96005v3.0203a.278.278,0,0,1-.0081.0728c-.06139.3284-.5548.5824-1.1501.5824a1.98319,1.98319,0,0,1-.3607-.0324c-.4222-.0776-.7377-.2879-.7894-.5467-.0049-.0243-.0081-2.6321-.0081-2.658l-.0016-.2297v-.2054h.2847l.5144-.0017,1.2326-.0016Z" style="fill:url(#铃琨眄沭噤桢眚_4-8)"/><path d="M81.39891,27.96005a.36362.36362,0,0,1-.0404.1683.81676.81676,0,0,1-.48209.3801,1.84307,1.84307,0,0,1-.63571.1084,1.97433,1.97433,0,0,1-.3607-.0324,1.52106,1.52106,0,0,1-.275-.076.82987.82987,0,0,1-.4837-.3785.3775.3775,0,0,1-.0404-.1666c0-.2912.3348-.5371.7991-.6244a1.96962,1.96962,0,0,1,.3591-.0324C80.87971,27.30655,81.39891,27.59935,81.39891,27.96005Z" style="fill:#344354"/><path d="M81.55942,26.79375v3.4385a.31593.31593,0,0,1-.00921.0828c-.07.3739-.6317.663-1.3094.663a2.2609,2.2609,0,0,1-.4107-.0368c-.4806-.0884-.83969-.3278-.89869-.6225-.00551-.0276-.00921-2.9965-.00921-3.026l-.00179-.2615v-.2339h.32409l.5856-.0018,1.40331-.0018Z" style="fill:url(#铃琨眄沭噤桢眚_32-8)"/><path d="M81.55942,26.79375a.414.414,0,0,1-.046.1915.93007.93007,0,0,1-.54881.4328,2.09859,2.09859,0,0,1-.7238.1233,2.252,2.252,0,0,1-.4107-.0368,1.7238,1.7238,0,0,1-.313-.0865.94467.94467,0,0,1-.55069-.431.43035.43035,0,0,1-.046-.1897c0-.3314.38119-.6114.90969-.7108a2.25562,2.25562,0,0,1,.4089-.0368C80.96821,26.04975,81.55942,26.38305,81.55942,26.79375Z" style="fill:#43566c"/><polygon points="36.126 23.755 22.26 15.746 35.119 8.28 48.985 16.288 36.126 23.755" style="fill:#fff"/><polygon points="23.656 15.744 35.121 9.088 47.589 16.29 36.125 22.946 23.656 15.744" style="fill:#29966d"/><polygon points="36.014 12.691 35.7 12.501 37.568 11.412 37.882 11.602 36.014 12.691" style="fill:#fff"/><polygon points="36.886 13.189 36.572 12.999 38.439 11.91 38.754 12.1 36.886 13.189" style="fill:#fff"/><polygon points="37.758 13.687 37.443 13.497 39.311 12.408 39.626 12.597 37.758 13.687" style="fill:#fff"/><polygon points="38.63 14.184 38.315 13.994 40.183 12.905 40.498 13.095 38.63 14.184" style="fill:#fff"/><polygon points="39.501 14.682 39.187 14.492 41.055 13.403 41.369 13.593 39.501 14.682" style="fill:#fff"/><polygon points="40.373 15.18 40.058 14.99 41.926 13.901 42.241 14.091 40.373 15.18" style="fill:#fff"/><polygon points="41.245 15.677 40.93 15.488 42.798 14.398 43.113 14.588 41.245 15.677" style="fill:#fff"/><polygon points="28.409 17.675 28.095 17.485 29.963 16.396 30.277 16.586 28.409 17.675" style="fill:#fff"/><polygon points="29.281 18.173 28.967 17.983 30.834 16.894 31.149 17.083 29.281 18.173" style="fill:#fff"/><polygon points="30.153 18.67 29.838 18.48 31.706 17.391 32.021 17.581 30.153 18.67" style="fill:#fff"/><polygon points="31.025 19.168 30.71 18.978 32.578 17.889 32.892 18.079 31.025 19.168" style="fill:#fff"/><polygon points="31.896 19.666 31.582 19.476 33.45 18.387 33.764 18.577 31.896 19.666" style="fill:#fff"/><polygon points="32.768 20.163 32.453 19.974 34.321 18.884 34.636 19.074 32.768 20.163" style="fill:#fff"/><polygon points="33.64 20.661 33.325 20.471 35.193 19.382 35.508 19.572 33.64 20.661" style="fill:#fff"/><polygon points="34.909 12.371 35.223 12.181 33.356 11.092 33.041 11.282 34.909 12.371" style="fill:#fff"/><polygon points="34.037 12.869 34.352 12.679 32.484 11.59 32.169 11.779 34.037 12.869" style="fill:#fff"/><polygon points="33.165 13.366 33.48 13.176 31.612 12.087 31.297 12.277 33.165 13.366" style="fill:#fff"/><polygon points="32.294 13.864 32.608 13.674 30.74 12.585 30.426 12.775 32.294 13.864" style="fill:#fff"/><polygon points="31.422 14.362 31.736 14.172 29.869 13.083 29.554 13.273 31.422 14.362" style="fill:#fff"/><polygon points="30.55 14.859 30.865 14.669 28.997 13.58 28.682 13.77 30.55 14.859" style="fill:#fff"/><polygon points="29.678 15.357 29.993 15.167 28.125 14.078 27.811 14.268 29.678 15.357" style="fill:#fff"/><polygon points="43.332 17.912 43.646 17.722 41.778 16.633 41.464 16.823 43.332 17.912" style="fill:#fff"/><polygon points="42.46 18.41 42.775 18.22 40.907 17.131 40.592 17.321 42.46 18.41" style="fill:#fff"/><polygon points="41.588 18.908 41.903 18.718 40.035 17.629 39.72 17.819 41.588 18.908" style="fill:#fff"/><polygon points="40.716 19.405 41.031 19.215 39.163 18.126 38.849 18.316 40.716 19.405" style="fill:#fff"/><polygon points="39.845 19.903 40.159 19.713 38.292 18.624 37.977 18.814 39.845 19.903" style="fill:#fff"/><polygon points="38.973 20.401 39.288 20.211 37.42 19.122 37.105 19.312 38.973 20.401" style="fill:#fff"/><polygon points="38.101 20.898 38.416 20.709 36.548 19.619 36.233 19.809 38.101 20.898" style="fill:#fff"/><polygon points="53.547 39.086 43.104 33.08 58.898 23.94 69.341 29.946 53.547 39.086" style="fill:#ebebeb"/><polygon points="53.599 38.056 52.546 38.223 43.284 32.976 44.492 32.277 53.599 38.056" style="fill:#b3b3b3"/><polygon points="69.341 29.946 69.341 30.734 53.547 39.873 53.547 39.086 69.341 29.946" style="fill:#bfbfbf"/><polygon points="43.104 33.08 43.104 33.868 53.547 39.873 53.547 39.086 43.104 33.08" style="fill:gray"/><polygon points="53.599 36.638 44.197 31.231 58.416 23.003 67.817 28.41 53.599 36.638" style="fill:#364557"/><polygon points="67.817 28.41 67.817 29.828 53.599 38.056 53.599 36.638 67.817 28.41" style="fill:#bfbfbf"/><polygon points="44.197 31.231 44.197 32.649 53.599 38.056 53.599 36.638 44.197 31.231" style="fill:gray"/><polygon points="53.599 35.786 44.197 30.379 58.416 22.151 67.817 27.558 53.599 35.786" style="fill:#364557"/><polygon points="67.817 27.558 67.817 28.406 53.599 36.634 53.599 35.786 67.817 27.558" style="fill:#202b33"/><polygon points="44.197 30.379 44.197 31.227 53.599 36.634 53.599 35.786 44.197 30.379" style="fill:#161c24"/><polygon points="46.25 30.57 58.725 23.412 59.328 23.761 46.853 30.918 46.25 30.57" style="fill:#ebebeb"/><polygon points="47.697 31.377 60.172 24.219 60.775 24.567 48.301 31.725 47.697 31.377" style="fill:#ebebeb"/><polygon points="49.145 32.183 61.62 25.025 62.223 25.374 49.748 32.531 49.145 32.183" style="fill:#ebebeb"/><polygon points="58.677 28.43 63.012 25.893 63.615 26.241 59.281 28.778 58.677 28.43" style="fill:#ebebeb"/><polygon points="59.952 29.176 64.286 26.639 64.889 26.987 60.555 29.524 59.952 29.176" style="fill:#ebebeb"/><polygon points="26.667 30.298 23.656 28.527 28.589 25.674 31.599 27.445 26.667 30.298" style="fill:#364557"/><polygon points="31.599 27.445 31.599 28.999 26.667 31.852 26.667 30.298 31.599 27.445" style="fill:#202b33"/><polygon points="23.656 28.527 23.656 30.081 26.667 31.852 26.667 30.298 23.656 28.527" style="fill:#161c24"/><polygon points="72.768 40.131 70.093 38.575 78.857 33.507 81.532 35.062 72.768 40.131" style="fill:#364557"/><polygon points="81.532 35.062 81.532 36.949 72.768 42.018 72.768 40.131 81.532 35.062" style="fill:#202b33"/><polygon points="70.093 38.575 70.093 40.462 72.768 42.018 72.768 40.131 70.093 38.575" style="fill:#161c24"/><polygon points="68.345 46.671 62.016 42.948 72.385 36.95 78.714 40.674 71.538 46.972 68.345 46.671" style="fill:#b3b3b3;mix-blend-mode:multiply"/><polygon points="71.482 42.151 66.133 39.004 74.897 33.935 80.246 37.082 71.482 42.151" style="fill:#364557"/><polygon points="80.246 37.082 80.246 41.903 71.482 46.972 71.482 42.151 80.246 37.082" style="fill:#202b33"/><polygon points="66.133 39.004 66.133 43.825 71.482 46.972 71.482 42.151 66.133 39.004" style="fill:#161c24"/><polygon points="90.642 42.03 86.67 39.748 92.954 36.176 96.925 38.458 90.642 42.03" style="fill:#e6e6e6"/><polygon points="96.925 38.458 96.925 43.319 90.642 46.891 90.642 42.03 96.925 38.458" style="fill:#202b33"/><polygon points="86.67 39.748 86.67 44.608 90.642 46.891 90.642 42.03 86.67 39.748" style="fill:gray"/><polygon points="81.665 47.473 77.694 45.191 83.977 41.62 87.949 43.902 81.665 47.473" style="fill:#e6e6e6"/><polygon points="87.949 43.902 87.949 48.763 81.665 52.334 81.665 47.473 87.949 43.902" style="fill:#202b33"/><polygon points="77.694 45.191 77.694 50.052 81.665 52.334 81.665 47.473 77.694 45.191" style="fill:gray"/><polygon points="72.773 52.831 68.802 50.548 75.085 46.977 79.057 49.259 72.773 52.831" style="fill:#e6e6e6"/><polygon points="79.057 49.259 79.057 54.12 72.773 57.691 72.773 52.831 79.057 49.259" style="fill:#202b33"/><polygon points="68.802 50.548 68.802 55.409 72.773 57.691 72.773 52.831 68.802 50.548" style="fill:gray"/><polygon points="104.765 43.795 65.412 66.617 65.412 56.629 104.765 34.095 104.765 43.795" style="fill:#e7e7e7"/><polygon points="104.344 33.806 104.765 34.095 65.412 56.629 64.991 56.34 104.344 33.806" style="fill:#fff"/><polygon points="65.412 66.617 64.991 66.328 64.991 56.34 65.412 56.629 65.412 66.617" style="fill:gray"/><polygon points="90.993 42.504 90.491 43.212 90.491 49.615 96.592 46.06 97.49 45.266 90.993 42.504" style="fill:#b3b3b3;mix-blend-mode:multiply"/><polygon points="90.993 42.507 91.419 42.768 97.49 39.263 97.149 39.042 90.993 42.507" style="fill:#96afcc"/><polygon points="97.49 39.263 97.49 45.27 91.419 48.775 91.419 42.768 97.49 39.263" style="fill:#718399"/><polygon points="96.807 40.448 96.807 44.875 92.103 47.587 92.103 43.172 92.299 43.057 92.588 42.889 92.917 42.699 96.807 40.448" style="fill:#161c24"/><polygon points="92.524 46.081 92.19 46.277 92.103 46.225 92.103 45.833 92.524 46.081" style="fill:#96afcc"/><polygon points="93.148 45.723 92.813 45.919 92.103 45.504 92.103 45.111 93.148 45.723" style="fill:#96afcc"/><polygon points="93.771 45.371 93.436 45.562 92.103 44.777 92.103 44.39 93.771 45.371" style="fill:#96afcc"/><polygon points="94.394 45.013 94.065 45.204 92.103 44.055 92.103 43.668 94.394 45.013" style="fill:#96afcc"/><polygon points="95.023 44.655 94.689 44.846 92.103 43.334 92.103 43.172 92.299 43.057 95.023 44.655" style="fill:#96afcc"/><polygon points="95.647 44.298 95.312 44.488 92.588 42.889 92.917 42.699 95.647 44.298" style="fill:#96afcc"/><polygon points="95.69 41.096 95.69 44.323 92.106 46.392 92.106 47.585 96.803 44.873 96.803 40.454 95.69 41.096" style="fill:#3f5166"/><polygon points="90.993 42.507 90.993 48.514 91.419 48.775 91.419 42.768 90.993 42.507" style="fill:#3f5166"/><polygon points="95.69 44.323 96.803 44.873 92.106 47.585 92.106 46.392 95.69 44.323" style="fill:#96afcc"/><polygon points="82.017 47.79 81.515 48.499 81.515 54.902 87.616 51.346 88.514 50.553 82.017 47.79" style="fill:#b3b3b3;mix-blend-mode:multiply"/><polygon points="82.017 47.794 82.443 48.055 88.514 44.549 88.173 44.329 82.017 47.794" style="fill:#96afcc"/><polygon points="88.514 44.549 88.514 50.557 82.443 54.062 82.443 48.055 88.514 44.549" style="fill:#718399"/><polygon points="87.831 45.735 87.831 50.162 83.127 52.874 83.127 48.459 83.323 48.344 83.612 48.176 83.941 47.986 87.831 45.735" style="fill:#161c24"/><polygon points="83.548 51.368 83.213 51.564 83.127 51.512 83.127 51.12 83.548 51.368" style="fill:#96afcc"/><polygon points="84.171 51.01 83.837 51.206 83.127 50.791 83.127 50.398 84.171 51.01" style="fill:#96afcc"/><polygon points="84.795 50.658 84.46 50.848 83.127 50.063 83.127 49.677 84.795 50.658" style="fill:#96afcc"/><polygon points="85.418 50.3 85.089 50.491 83.127 49.342 83.127 48.955 85.418 50.3" style="fill:#96afcc"/><polygon points="86.047 49.942 85.712 50.133 83.127 48.621 83.127 48.459 83.323 48.344 86.047 49.942" style="fill:#96afcc"/><polygon points="86.67 49.584 86.336 49.775 83.612 48.176 83.941 47.986 86.67 49.584" style="fill:#96afcc"/><polygon points="86.714 46.383 86.714 49.609 83.13 51.679 83.13 52.872 87.827 50.159 87.827 45.74 86.714 46.383" style="fill:#3f5166"/><polygon points="82.017 47.794 82.017 53.801 82.443 54.062 82.443 48.055 82.017 47.794" style="fill:#3f5166"/><polygon points="86.714 49.615 87.827 50.165 83.13 52.878 83.13 51.685 86.714 49.615" style="fill:#96afcc"/><polygon points="73.041 53.077 72.538 53.786 72.538 60.189 78.64 56.633 79.538 55.84 73.041 53.077" style="fill:#b3b3b3;mix-blend-mode:multiply"/><polygon points="73.041 53.081 73.467 53.342 79.538 49.836 79.197 49.615 73.041 53.081" style="fill:#96afcc"/><polygon points="79.538 49.836 79.538 55.843 73.467 59.349 73.467 53.342 79.538 49.836" style="fill:#718399"/><polygon points="78.854 51.022 78.854 55.448 74.151 58.161 74.151 53.746 74.347 53.63 74.635 53.463 74.964 53.273 78.854 51.022" style="fill:#161c24"/><polygon points="74.572 56.655 74.237 56.851 74.151 56.799 74.151 56.406 74.572 56.655" style="fill:#96afcc"/><polygon points="75.195 56.297 74.86 56.493 74.151 56.077 74.151 55.685 75.195 56.297" style="fill:#96afcc"/><polygon points="75.819 55.945 75.484 56.135 74.151 55.35 74.151 54.964 75.819 55.945" style="fill:#96afcc"/><polygon points="76.442 55.587 76.113 55.777 74.151 54.629 74.151 54.242 76.442 55.587" style="fill:#96afcc"/><polygon points="77.071 55.229 76.736 55.419 74.151 53.907 74.151 53.746 74.347 53.63 77.071 55.229" style="fill:#96afcc"/><polygon points="77.694 54.871 77.359 55.062 74.635 53.463 74.964 53.273 77.694 54.871" style="fill:#96afcc"/><polygon points="77.738 51.67 77.738 54.896 74.154 56.966 74.154 58.158 78.85 55.446 78.85 51.027 77.738 51.67" style="fill:#3f5166"/><polygon points="73.041 53.081 73.041 59.088 73.467 59.349 73.467 53.342 73.041 53.081" style="fill:#3f5166"/><polygon points="77.742 54.893 78.854 55.443 74.157 58.156 74.157 56.963 77.742 54.893" style="fill:#96afcc"/><path d="M62.48331,47.87255l3.3988-1.9623c.3712-.2143.3246-.5887-.104-.8362h0a1.60965,1.60965,0,0,0-1.4484-.06l-3.3988,1.9622c-.3712.2144-.3247.5888.104.8363h0A1.61,1.61,0,0,0,62.48331,47.87255Z" style="fill:#fff"/><path d="M64.59942,49.10315l3.39879-1.9623c.37121-.2143.3247-.5887-.104-.8362h0a1.60965,1.60965,0,0,0-1.4484-.06l-3.3988,1.9622c-.3712.2144-.32459.5888.104.8362h0A1.61,1.61,0,0,0,64.59942,49.10315Z" style="fill:#fff"/><path d="M66.71551,50.33375l3.3988-1.9623c.3712-.2143.3247-.5887-.104-.8362h0a1.61,1.61,0,0,0-1.4484-.0601l-3.3987,1.9623c-.3713.2143-.3247.5887.104.8362h0A1.60977,1.60977,0,0,0,66.71551,50.33375Z" style="fill:#fff"/><path d="M28.95351,31.97215a.23125.23125,0,0,1-.0257.1071.52062.52062,0,0,1-.3071.2422,1.17262,1.17262,0,0,1-.4049.069,1.26244,1.26244,0,0,1-.2298-.0206.96316.96316,0,0,1-.1751-.0484.52884.52884,0,0,1-.3081-.2411.24061.24061,0,0,1-.0258-.1062c0-.1854.2133-.342.509-.3977a1.2595,1.2595,0,0,1,.2288-.0206C28.62281,31.55585,28.95351,31.74235,28.95351,31.97215Z" style="fill:#ebebeb"/><path d="M30.67051,31.13755a.23176.23176,0,0,1-.0258.1072.52.52,0,0,1-.307.2421,1.17262,1.17262,0,0,1-.4049.069,1.26162,1.26162,0,0,1-.2298-.0206.96426.96426,0,0,1-.1752-.0484.52821.52821,0,0,1-.308-.2411.24019.24019,0,0,1-.0258-.1061c0-.1855.2133-.3421.509-.3977a1.25839,1.25839,0,0,1,.2287-.0206C30.33971,30.72135,30.67051,30.90785,30.67051,31.13755Z" style="fill:#ebebeb"/><path d="M32.337,30.12805a.23136.23136,0,0,1-.0258.1071.5201.5201,0,0,1-.307.2422,1.176,1.176,0,0,1-.405.069,1.26124,1.26124,0,0,1-.2297-.0206.964.964,0,0,1-.1752-.0484.52913.52913,0,0,1-.3081-.2411.2405.2405,0,0,1-.0257-.1062c0-.1854.2132-.342.509-.3977a1.25831,1.25831,0,0,1,.2287-.0206C32.00621,29.71175,32.337,29.89825,32.337,30.12805Z" style="fill:#ebebeb"/><path d="M87.92511,35.25a.23154.23154,0,0,0,.0257.1071.52065.52065,0,0,0,.3071.2422,1.175,1.175,0,0,0,.4049.069,1.26154,1.26154,0,0,0,.2298-.0206.97085.97085,0,0,0,.1751-.0484.52822.52822,0,0,0,.3081-.2412.24019.24019,0,0,0,.0258-.1061c0-.1854-.2133-.3421-.509-.3977a1.2586,1.2586,0,0,0-.2288-.0206C88.25581,34.83365,87.92511,35.02015,87.92511,35.25Z" style="fill:#ebebeb"/><path d="M86.20811,34.41535a.23148.23148,0,0,0,.0258.1071.5201.5201,0,0,0,.307.2422,1.17266,1.17266,0,0,0,.4049.069,1.26154,1.26154,0,0,0,.2298-.0206.964.964,0,0,0,.1752-.0484.52913.52913,0,0,0,.3081-.2411.24177.24177,0,0,0,.0257-.1061c0-.1855-.2133-.3421-.509-.3978a1.25831,1.25831,0,0,0-.2287-.0206C86.53891,33.999,86.20811,34.18555,86.20811,34.41535Z" style="fill:#ebebeb"/><path d="M84.54161,33.40575a.23165.23165,0,0,0,.02581.1072.52.52,0,0,0,.307.2422,1.1759,1.1759,0,0,0,.405.069,1.26314,1.26314,0,0,0,.22979-.0206.98169.98169,0,0,0,.1751-.0484.52892.52892,0,0,0,.30811-.2412.2402.2402,0,0,0,.02569-.1061c0-.1854-.2132-.3421-.5089-.3977a1.26021,1.26021,0,0,0-.22879-.0206C84.87242,32.98955,84.54161,33.176,84.54161,33.40575Z" style="fill:#ebebeb"/></g></g></svg>