<svg xmlns="http://www.w3.org/2000/svg" viewBox="0 0 69.22 88.45884"><title>18843 [转换]</title><g style="isolation:isolate"><g id="Layer"><polygon points="24.688 81.289 27.317 82.825 30.335 81.082 27.748 79.566 24.688 81.289" style="fill:#2e3b4a"/><polygon points="30.335 81.082 30.335 85.628 27.317 87.371 27.317 82.825 30.335 81.082" style="fill:#161c24"/><polygon points="24.688 81.289 24.688 85.834 27.317 87.371 27.317 82.825 24.688 81.289" style="fill:#10161a"/><polygon points="1.606 67.999 4.235 69.535 7.252 67.792 4.666 66.276 1.606 67.999" style="fill:#2e3b4a"/><polygon points="7.252 67.792 7.252 72.338 4.235 74.081 4.235 69.535 7.252 67.792" style="fill:#161c24"/><polygon points="1.606 67.999 1.606 72.544 4.235 74.081 4.235 69.535 1.606 67.999" style="fill:#10161a"/><polygon points="42.111 71.232 44.739 72.769 47.757 71.026 45.171 69.509 42.111 71.232" style="fill:#2e3b4a"/><polygon points="47.757 71.026 47.757 75.572 44.739 77.314 44.739 72.769 47.757 71.026" style="fill:#161c24"/><polygon points="42.111 71.232 42.111 75.778 44.739 77.314 44.739 72.769 42.111 71.232" style="fill:#10161a"/><polygon points="1.606 12.794 27.294 27.626 47.757 15.809 22.356 1.114 1.606 12.794" style="fill:#364557"/><polygon points="47.757 15.809 47.757 74.444 27.294 86.26 27.294 27.626 47.757 15.809" style="fill:#202b33"/><polygon points="28.334 28.226 46.718 17.61 46.718 73.844 28.334 84.459 28.334 28.226" style="fill:#1d272e"/><polygon points="45.613 18.248 45.613 73.356 28.334 83.334 28.334 84.459 46.718 73.844 46.718 17.61 45.613 18.248" style="fill:#364557"/><polygon points="1.606 12.794 1.606 71.429 27.294 86.26 27.294 27.626 1.606 12.794" style="fill:#161c24"/><polygon points="3.165 71.462 3.165 19.199 25.735 32.23 25.735 84.492 3.165 71.462" style="fill:#10161a"/><polygon points="3.498 71.275 3.498 19.391 3.165 19.199 3.165 71.462 25.735 84.492 25.735 84.113 3.498 71.275" style="fill:#364557"/><polygon points="3.498 71.275 3.165 71.462 3.165 19.199 3.498 19.391 3.498 71.275" style="fill:#202b33"/><polygon points="45.613 18.248 46.718 17.61 46.718 73.844 45.613 73.356 45.613 18.248" style="fill:#161c24"/><polygon points="47.757 15.809 47.757 74.444 68.22 86.26 68.22 27.626 47.757 15.809" style="fill:#202b33"/><polygon points="46.718 16.409 46.718 75.044 67.18 86.86 67.18 28.226 46.718 16.409" style="fill:#161c24"/><polygon points="65.621 29.125 65.621 84.158 62.647 82.443 53.997 77.442 48.279 74.141 48.279 19.113 52.105 21.322 57.096 24.202 65.621 29.125" style="fill:#86acd9"/><polygon points="65.621 38.825 65.621 44.501 52.105 21.322 57.096 24.202 65.621 38.825" style="fill:#545454;mix-blend-mode:screen"/><polygon points="65.621 73.855 65.621 79.532 48.279 49.788 48.279 44.111 65.621 73.855" style="fill:#545454;mix-blend-mode:screen"/><polygon points="65.621 54.165 65.621 64.062 48.279 34.198 48.279 24.301 65.621 54.165" style="fill:#545454;mix-blend-mode:screen"/><polygon points="62.647 82.443 53.997 77.442 48.279 67.597 48.279 57.699 62.647 82.443" style="fill:#545454;mix-blend-mode:screen"/><polygon points="49.284 73.754 49.284 19.692 48.277 19.111 48.277 74.144 65.621 84.159 65.621 83.187 49.284 73.754" style="fill:#202b33"/><polygon points="68.22 27.626 67.18 28.226 46.718 16.409 47.757 15.809 68.22 27.626" style="fill:#364557"/><polygon points="67.18 86.86 68.22 86.26 68.22 27.626 67.18 28.226 67.18 86.86" style="fill:#202b33"/><polygon points="49.284 73.754 48.277 74.144 65.621 84.159 65.621 83.187 49.284 73.754" style="fill:#364557"/><polygon points="49.284 64.307 48.277 64.697 65.621 74.712 65.621 73.74 49.284 64.307" style="fill:#364557"/><polygon points="48.277 64.697 48.277 65.672 65.621 75.686 65.621 74.715 48.277 64.697" style="fill:#161c24"/><polygon points="49.284 52.28 48.277 52.67 65.621 62.685 65.621 61.713 49.284 52.28" style="fill:#364557"/><polygon points="48.277 52.67 48.277 53.645 65.621 63.659 65.621 62.688 48.277 52.67" style="fill:#161c24"/><polygon points="49.284 40.253 48.277 40.643 65.621 50.658 65.621 49.686 49.284 40.253" style="fill:#364557"/><polygon points="48.277 40.643 48.277 41.618 65.621 51.632 65.621 50.661 48.277 40.643" style="fill:#161c24"/><polygon points="49.284 28.226 48.277 28.616 65.621 38.631 65.621 37.659 49.284 28.226" style="fill:#364557"/><polygon points="48.277 28.616 48.277 29.59 65.621 39.605 65.621 38.634 48.277 28.616" style="fill:#161c24"/><polygon points="3.98 11.675 27.026 24.981 45.383 14.38 22.595 1.197 3.98 11.675" style="fill:#4f6580"/><polygon points="45.383 14.38 45.383 15.438 27.026 26.039 27.026 24.981 45.383 14.38" style="fill:#202b33"/><polygon points="3.98 11.675 3.98 12.733 27.026 26.039 27.026 24.981 3.98 11.675" style="fill:#161c24"/><polygon points="12.755 8.562 13.294 8.868 7.295 12.248 6.756 11.937 12.755 8.562" style="fill:#080a0d"/><polygon points="12.755 8.825 13.065 9.001 13.294 8.868 12.755 8.562 6.756 11.937 6.985 12.067 12.755 8.825" style="fill:#4f6580"/><polygon points="12.755 8.562 12.755 8.825 13.065 9.001 13.294 8.868 12.755 8.562" style="fill:#161c24"/><polygon points="13.623 9.062 14.162 9.368 8.163 12.749 7.624 12.438 13.623 9.062" style="fill:#080a0d"/><polygon points="13.623 9.325 13.933 9.501 14.162 9.368 13.623 9.062 7.624 12.438 7.854 12.567 13.623 9.325" style="fill:#4f6580"/><polygon points="13.623 9.062 13.623 9.325 13.933 9.501 14.162 9.368 13.623 9.062" style="fill:#161c24"/><polygon points="14.492 9.562 15.03 9.868 9.032 13.249 8.493 12.938 14.492 9.562" style="fill:#080a0d"/><polygon points="14.492 9.825 14.802 10.001 15.03 9.868 14.492 9.562 8.493 12.938 8.722 13.068 14.492 9.825" style="fill:#4f6580"/><polygon points="14.492 9.562 14.492 9.825 14.802 10.001 15.03 9.868 14.492 9.562" style="fill:#161c24"/><polygon points="15.36 10.063 15.899 10.368 9.9 13.749 9.361 13.438 15.36 10.063" style="fill:#080a0d"/><polygon points="15.36 10.325 15.67 10.501 15.899 10.368 15.36 10.063 9.361 13.438 9.591 13.568 15.36 10.325" style="fill:#4f6580"/><polygon points="15.36 10.063 15.36 10.325 15.67 10.501 15.899 10.368 15.36 10.063" style="fill:#161c24"/><polygon points="16.228 10.563 16.767 10.869 10.768 14.25 10.229 13.938 16.228 10.563" style="fill:#080a0d"/><polygon points="16.228 10.826 16.538 11.002 16.767 10.869 16.228 10.563 10.229 13.938 10.459 14.068 16.228 10.826" style="fill:#4f6580"/><polygon points="16.228 10.563 16.228 10.826 16.538 11.002 16.767 10.869 16.228 10.563" style="fill:#161c24"/><polygon points="17.097 11.063 17.636 11.369 11.637 14.75 11.098 14.439 17.097 11.063" style="fill:#080a0d"/><polygon points="17.097 11.326 17.407 11.502 17.636 11.369 17.097 11.063 11.098 14.439 11.327 14.568 17.097 11.326" style="fill:#4f6580"/><polygon points="17.097 11.063 17.097 11.326 17.407 11.502 17.636 11.369 17.097 11.063" style="fill:#161c24"/><polygon points="23.115 2.729 23.653 3.035 17.655 6.416 17.115 6.105 23.115 2.729" style="fill:#080a0d"/><polygon points="23.115 2.992 23.424 3.168 23.653 3.035 23.115 2.729 17.115 6.105 17.345 6.235 23.115 2.992" style="fill:#4f6580"/><polygon points="23.115 2.729 23.115 2.992 23.424 3.168 23.653 3.035 23.115 2.729" style="fill:#161c24"/><polygon points="23.983 3.23 24.522 3.536 18.523 6.916 17.984 6.605 23.983 3.23" style="fill:#080a0d"/><polygon points="23.983 3.493 24.293 3.669 24.522 3.536 23.983 3.23 17.984 6.605 18.213 6.735 23.983 3.493" style="fill:#4f6580"/><polygon points="23.983 3.23 23.983 3.493 24.293 3.669 24.522 3.536 23.983 3.23" style="fill:#161c24"/><polygon points="24.851 3.73 25.39 4.036 19.391 7.417 18.852 7.106 24.851 3.73" style="fill:#080a0d"/><polygon points="24.851 3.993 25.161 4.169 25.39 4.036 24.851 3.73 18.852 7.106 19.082 7.235 24.851 3.993" style="fill:#4f6580"/><polygon points="24.851 3.73 24.851 3.993 25.161 4.169 25.39 4.036 24.851 3.73" style="fill:#161c24"/><polygon points="25.72 4.23 26.259 4.536 20.26 7.917 19.721 7.606 25.72 4.23" style="fill:#080a0d"/><polygon points="25.72 4.493 26.03 4.669 26.259 4.536 25.72 4.23 19.721 7.606 19.95 7.736 25.72 4.493" style="fill:#4f6580"/><polygon points="25.72 4.23 25.72 4.493 26.03 4.669 26.259 4.536 25.72 4.23" style="fill:#161c24"/><polygon points="26.588 4.731 27.127 5.036 21.128 8.417 20.589 8.106 26.588 4.731" style="fill:#080a0d"/><polygon points="26.588 4.993 26.898 5.169 27.127 5.036 26.588 4.731 20.589 8.106 20.819 8.236 26.588 4.993" style="fill:#4f6580"/><polygon points="26.588 4.731 26.588 4.993 26.898 5.169 27.127 5.036 26.588 4.731" style="fill:#161c24"/><polygon points="27.457 5.231 27.995 5.537 21.997 8.918 21.457 8.606 27.457 5.231" style="fill:#080a0d"/><polygon points="27.457 5.494 27.766 5.67 27.995 5.537 27.457 5.231 21.457 8.606 21.687 8.736 27.457 5.494" style="fill:#4f6580"/><polygon points="27.457 5.231 27.457 5.494 27.766 5.67 27.995 5.537 27.457 5.231" style="fill:#161c24"/><polygon points="28.928 55.548 45.194 46.149 45.194 49.719 28.928 59.115 28.928 55.548" style="fill:#293542"/><polygon points="44.934 46.599 44.934 49.569 29.188 58.664 29.188 55.698 44.934 46.599" style="fill:#10161a"/><polygon points="44.567 46.811 44.567 49.354 29.188 58.238 29.188 58.664 44.934 49.569 44.934 46.599 44.567 46.811" style="fill:#3f5166"/><polygon points="44.567 46.811 44.567 49.354 44.934 49.569 44.934 46.599 44.567 46.811" style="fill:#161c24"/><polygon points="44.821 45.965 45.194 46.149 28.928 55.548 28.555 55.363 44.821 45.965" style="fill:#3f5166"/><polygon points="28.928 59.115 28.555 58.93 28.555 55.363 28.928 55.548 28.928 59.115" style="fill:#161c24"/><polygon points="36.003 51.762 36.003 54.305 36.37 54.519 36.37 51.55 36.003 51.762" style="fill:#161c24"/><polygon points="36.737 51.338 36.737 54.305 36.37 54.519 36.37 51.55 36.737 51.338" style="fill:#293542"/><polygon points="38.09 50.552 38.09 53.095 38.457 53.309 38.457 50.34 38.09 50.552" style="fill:#161c24"/><polygon points="38.824 50.128 38.824 53.095 38.457 53.309 38.457 50.34 38.824 50.128" style="fill:#293542"/><polygon points="33.748 53.06 33.748 55.603 34.115 55.817 34.115 52.848 33.748 53.06" style="fill:#161c24"/><polygon points="34.482 52.636 34.482 55.603 34.115 55.817 34.115 52.848 34.482 52.636" style="fill:#293542"/><polygon points="36.737 51.338 36.737 53.877 38.09 53.095 38.09 50.552 36.737 51.338" style="fill:#c92222"/><polygon points="36.737 51.338 36.737 52.674 38.09 51.892 38.09 50.552 36.737 51.338" style="fill:#5fe134"/><polygon points="36.003 52.937 36.355 53.082 34.482 54.169 34.482 53.803 36.003 52.937" style="fill:#364557"/><polygon points="36.355 53.082 36.355 53.313 34.482 54.4 34.482 54.17 36.355 53.082" style="fill:#293542"/><polygon points="32.528 55.088 32.821 55.259 33.556 54.835 33.274 54.668 32.528 55.088" style="fill:#5fe134"/><polygon points="33.556 54.835 33.556 55.562 32.821 55.987 32.821 55.259 33.556 54.835" style="fill:#46c91a"/><polygon points="32.528 55.088 32.528 55.815 32.821 55.987 32.821 55.259 32.528 55.088" style="fill:#3aa615"/><polygon points="32.528 53.987 32.821 54.158 33.556 53.734 33.274 53.567 32.528 53.987" style="fill:#c93b3b"/><polygon points="33.556 53.734 33.556 54.461 32.821 54.886 32.821 54.158 33.556 53.734" style="fill:#c92222"/><polygon points="32.528 53.987 32.528 54.714 32.821 54.886 32.821 54.158 32.528 53.987" style="fill:#ad1010"/><polygon points="29.307 56.991 29.6 57.163 30.335 56.738 30.052 56.571 29.307 56.991" style="fill:#eef539"/><polygon points="30.335 56.738 30.335 57.466 29.6 57.89 29.6 57.163 30.335 56.738" style="fill:#d6dd1d"/><polygon points="29.307 56.991 29.307 57.718 29.6 57.89 29.6 57.163 29.307 56.991" style="fill:#b5ba18"/><polygon points="29.307 55.89 29.6 56.062 30.335 55.637 30.052 55.471 29.307 55.89" style="fill:#3b50c9"/><polygon points="30.335 55.637 30.335 56.365 29.6 56.789 29.6 56.062 30.335 55.637" style="fill:#223bc9"/><polygon points="29.307 55.89 29.307 56.618 29.6 56.789 29.6 56.062 29.307 55.89" style="fill:#1028ad"/><polygon points="30.891 56.04 31.184 56.212 31.919 55.787 31.636 55.62 30.891 56.04" style="fill:#22c2ff"/><polygon points="31.919 55.787 31.919 56.514 31.184 56.939 31.184 56.212 31.919 55.787" style="fill:#08b2f2"/><polygon points="30.891 56.04 30.891 56.767 31.184 56.939 31.184 56.212 30.891 56.04" style="fill:#07a4de"/><polygon points="30.891 54.939 31.184 55.111 31.919 54.686 31.636 54.519 30.891 54.939" style="fill:#f2ab47"/><polygon points="31.919 54.686 31.919 55.414 31.184 55.838 31.184 55.111 31.919 54.686" style="fill:#f29e29"/><polygon points="30.891 54.939 30.891 55.666 31.184 55.838 31.184 55.111 30.891 54.939" style="fill:#d68514"/><polygon points="39.602 51.892 39.602 50.018 43.789 47.6 43.789 49.454 39.602 51.892" style="fill:#637487"/><polygon points="28.928 73.256 45.194 63.858 45.194 72.866 28.928 82.261 28.928 73.256" style="fill:#293542"/><polygon points="44.934 64.308 44.934 72.716 29.188 81.811 29.188 73.407 44.934 64.308" style="fill:#10161a"/><polygon points="44.567 64.52 44.567 72.501 29.188 81.385 29.188 81.811 44.934 72.715 44.934 64.308 44.567 64.52" style="fill:#3f5166"/><polygon points="44.567 64.52 44.567 72.501 44.934 72.715 44.934 64.308 44.567 64.52" style="fill:#161c24"/><polygon points="44.821 63.673 45.194 63.858 28.928 73.256 28.555 73.072 44.821 63.673" style="fill:#3f5166"/><polygon points="28.928 82.261 28.555 82.077 28.555 73.072 28.928 73.256 28.928 82.261" style="fill:#161c24"/><polygon points="29.307 80.138 29.6 80.31 30.335 79.885 30.052 79.718 29.307 80.138" style="fill:#96afcc"/><polygon points="30.335 79.885 30.335 80.612 29.6 81.037 29.6 80.31 30.335 79.885" style="fill:#718399"/><polygon points="29.307 80.138 29.307 80.865 29.6 81.037 29.6 80.31 29.307 80.138" style="fill:#3f5166"/><polygon points="29.307 79.037 29.6 79.209 30.335 78.784 30.052 78.617 29.307 79.037" style="fill:#96afcc"/><polygon points="30.335 78.784 30.335 79.512 29.6 79.936 29.6 79.209 30.335 78.784" style="fill:#718399"/><polygon points="29.307 79.037 29.307 79.764 29.6 79.936 29.6 79.209 29.307 79.037" style="fill:#3f5166"/><polygon points="29.307 77.894 29.6 78.066 30.335 77.641 30.052 77.474 29.307 77.894" style="fill:#96afcc"/><polygon points="30.335 77.641 30.335 78.368 29.6 78.793 29.6 78.066 30.335 77.641" style="fill:#718399"/><polygon points="29.307 77.894 29.307 78.621 29.6 78.793 29.6 78.066 29.307 77.894" style="fill:#3f5166"/><polygon points="29.307 76.793 29.6 76.965 30.335 76.54 30.052 76.373 29.307 76.793" style="fill:#96afcc"/><polygon points="30.335 76.54 30.335 77.268 29.6 77.692 29.6 76.965 30.335 76.54" style="fill:#718399"/><polygon points="29.307 76.793 29.307 77.52 29.6 77.692 29.6 76.965 29.307 76.793" style="fill:#3f5166"/><polygon points="29.307 75.65 29.6 75.822 30.335 75.397 30.052 75.23 29.307 75.65" style="fill:#96afcc"/><polygon points="30.335 75.397 30.335 76.124 29.6 76.549 29.6 75.822 30.335 75.397" style="fill:#718399"/><polygon points="29.307 75.65 29.307 76.377 29.6 76.549 29.6 75.822 29.307 75.65" style="fill:#3f5166"/><polygon points="29.307 74.549 29.6 74.721 30.335 74.296 30.052 74.13 29.307 74.549" style="fill:#96afcc"/><polygon points="30.335 74.296 30.335 75.024 29.6 75.448 29.6 74.721 30.335 74.296" style="fill:#718399"/><polygon points="29.307 74.549 29.307 75.276 29.6 75.448 29.6 74.721 29.307 74.549" style="fill:#3f5166"/><polygon points="29.307 73.492 29.6 73.663 30.335 73.239 30.052 73.072 29.307 73.492" style="fill:#96afcc"/><polygon points="30.335 73.239 30.335 73.966 29.6 74.391 29.6 73.663 30.335 73.239" style="fill:#718399"/><polygon points="29.307 73.492 29.307 74.219 29.6 74.391 29.6 73.663 29.307 73.492" style="fill:#3f5166"/><polygon points="30.792 80.176 30.792 73.256 43.789 65.701 43.789 72.601 30.792 80.176" style="fill:#637487"/><polygon points="28.928 69 45.194 59.601 45.194 63.171 28.928 72.567 28.928 69" style="fill:#293542"/><polygon points="44.934 60.051 44.934 63.021 29.188 72.116 29.188 69.15 44.934 60.051" style="fill:#10161a"/><polygon points="44.567 60.263 44.567 62.806 29.188 71.69 29.188 72.116 44.934 63.021 44.934 60.051 44.567 60.263" style="fill:#3f5166"/><polygon points="44.567 60.263 44.567 62.806 44.934 63.021 44.934 60.051 44.567 60.263" style="fill:#161c24"/><polygon points="44.821 59.417 45.194 59.601 28.928 69 28.555 68.816 44.821 59.417" style="fill:#3f5166"/><polygon points="28.928 72.567 28.555 72.382 28.555 68.816 28.928 69 28.928 72.567" style="fill:#161c24"/><polygon points="32.528 68.54 32.821 68.712 33.556 68.287 33.274 68.12 32.528 68.54" style="fill:#96afcc"/><polygon points="33.556 68.287 33.556 69.014 32.821 69.439 32.821 68.712 33.556 68.287" style="fill:#718399"/><polygon points="32.528 68.54 32.528 69.267 32.821 69.439 32.821 68.712 32.528 68.54" style="fill:#3f5166"/><polygon points="32.528 67.439 32.821 67.611 33.556 67.186 33.274 67.019 32.528 67.439" style="fill:#96afcc"/><polygon points="33.556 67.186 33.556 67.914 32.821 68.338 32.821 67.611 33.556 67.186" style="fill:#718399"/><polygon points="32.528 67.439 32.528 68.166 32.821 68.338 32.821 67.611 32.528 67.439" style="fill:#3f5166"/><polygon points="29.307 70.443 29.6 70.615 30.335 70.19 30.052 70.024 29.307 70.443" style="fill:#96afcc"/><polygon points="30.335 70.19 30.335 70.918 29.6 71.342 29.6 70.615 30.335 70.19" style="fill:#718399"/><polygon points="29.307 70.443 29.307 71.171 29.6 71.342 29.6 70.615 29.307 70.443" style="fill:#3f5166"/><polygon points="29.307 69.342 29.6 69.514 30.335 69.09 30.052 68.923 29.307 69.342" style="fill:#96afcc"/><polygon points="30.335 69.09 30.335 69.817 29.6 70.241 29.6 69.514 30.335 69.09" style="fill:#718399"/><polygon points="29.307 69.342 29.307 70.07 29.6 70.241 29.6 69.514 29.307 69.342" style="fill:#3f5166"/><polygon points="30.891 69.492 31.184 69.664 31.919 69.239 31.636 69.073 30.891 69.492" style="fill:#96afcc"/><polygon points="31.919 69.239 31.919 69.967 31.184 70.391 31.184 69.664 31.919 69.239" style="fill:#718399"/><polygon points="30.891 69.492 30.891 70.219 31.184 70.391 31.184 69.664 30.891 69.492" style="fill:#3f5166"/><polygon points="30.891 68.391 31.184 68.563 31.919 68.139 31.636 67.972 30.891 68.391" style="fill:#96afcc"/><polygon points="31.919 68.139 31.919 68.866 31.184 69.29 31.184 68.563 31.919 68.139" style="fill:#718399"/><polygon points="30.891 68.391 30.891 69.119 31.184 69.29 31.184 68.563 30.891 68.391" style="fill:#3f5166"/><polygon points="34.182 68.548 34.182 66.674 43.789 61.052 43.789 62.906 34.182 68.548" style="fill:#637487"/><polygon points="28.928 64.546 45.194 55.147 45.194 58.717 28.928 68.112 28.928 64.546" style="fill:#293542"/><polygon points="44.934 55.597 44.934 58.566 29.188 67.662 29.188 64.696 44.934 55.597" style="fill:#10161a"/><polygon points="44.567 55.809 44.567 58.352 29.188 67.236 29.188 67.662 44.934 58.566 44.934 55.597 44.567 55.809" style="fill:#3f5166"/><polygon points="44.567 55.809 44.567 58.352 44.934 58.566 44.934 55.597 44.567 55.809" style="fill:#161c24"/><polygon points="44.821 54.962 45.194 55.147 28.928 64.546 28.555 64.361 44.821 54.962" style="fill:#3f5166"/><polygon points="28.928 68.112 28.555 67.928 28.555 64.361 28.928 64.546 28.928 68.112" style="fill:#161c24"/><polygon points="32.528 64.085 32.821 64.257 33.556 63.833 33.274 63.666 32.528 64.085" style="fill:#96afcc"/><polygon points="33.556 63.833 33.556 64.56 32.821 64.984 32.821 64.257 33.556 63.833" style="fill:#718399"/><polygon points="32.528 64.085 32.528 64.813 32.821 64.984 32.821 64.257 32.528 64.085" style="fill:#3f5166"/><polygon points="32.528 62.985 32.821 63.156 33.556 62.732 33.274 62.565 32.528 62.985" style="fill:#96afcc"/><polygon points="33.556 62.732 33.556 63.459 32.821 63.884 32.821 63.156 33.556 62.732" style="fill:#718399"/><polygon points="32.528 62.985 32.528 63.712 32.821 63.884 32.821 63.156 32.528 62.985" style="fill:#3f5166"/><polygon points="29.307 65.989 29.6 66.16 30.335 65.736 30.052 65.569 29.307 65.989" style="fill:#96afcc"/><polygon points="30.335 65.736 30.335 66.463 29.6 66.888 29.6 66.16 30.335 65.736" style="fill:#718399"/><polygon points="29.307 65.989 29.307 66.716 29.6 66.888 29.6 66.16 29.307 65.989" style="fill:#3f5166"/><polygon points="29.307 64.888 29.6 65.06 30.335 64.635 30.052 64.468 29.307 64.888" style="fill:#96afcc"/><polygon points="30.335 64.635 30.335 65.363 29.6 65.787 29.6 65.06 30.335 64.635" style="fill:#718399"/><polygon points="29.307 64.888 29.307 65.615 29.6 65.787 29.6 65.06 29.307 64.888" style="fill:#3f5166"/><polygon points="30.891 65.038 31.184 65.209 31.919 64.785 31.636 64.618 30.891 65.038" style="fill:#96afcc"/><polygon points="31.919 64.785 31.919 65.512 31.184 65.937 31.184 65.209 31.919 64.785" style="fill:#718399"/><polygon points="30.891 65.038 30.891 65.765 31.184 65.937 31.184 65.209 30.891 65.038" style="fill:#3f5166"/><polygon points="30.891 63.937 31.184 64.109 31.919 63.684 31.636 63.517 30.891 63.937" style="fill:#96afcc"/><polygon points="31.919 63.684 31.919 64.411 31.184 64.836 31.184 64.109 31.919 63.684" style="fill:#718399"/><polygon points="30.891 63.937 30.891 64.664 31.184 64.836 31.184 64.109 30.891 63.937" style="fill:#3f5166"/><polygon points="34.182 64.093 34.182 62.219 43.789 56.598 43.789 58.452 34.182 64.093" style="fill:#637487"/><polygon points="28.928 60.091 45.194 50.692 45.194 54.262 28.928 63.658 28.928 60.091" style="fill:#293542"/><polygon points="44.934 51.143 44.934 54.112 29.188 63.208 29.188 60.241 44.934 51.143" style="fill:#10161a"/><polygon points="44.567 51.355 44.567 53.898 29.188 62.781 29.188 63.208 44.934 54.112 44.934 51.143 44.567 51.355" style="fill:#3f5166"/><polygon points="44.567 51.355 44.567 53.898 44.934 54.112 44.934 51.143 44.567 51.355" style="fill:#161c24"/><polygon points="44.821 50.508 45.194 50.692 28.928 60.091 28.555 59.907 44.821 50.508" style="fill:#3f5166"/><polygon points="28.928 63.658 28.555 63.473 28.555 59.907 28.928 60.091 28.928 63.658" style="fill:#161c24"/><polygon points="32.528 59.631 32.821 59.803 33.556 59.378 33.274 59.211 32.528 59.631" style="fill:#96afcc"/><polygon points="33.556 59.378 33.556 60.106 32.821 60.53 32.821 59.803 33.556 59.378" style="fill:#718399"/><polygon points="32.528 59.631 32.528 60.358 32.821 60.53 32.821 59.803 32.528 59.631" style="fill:#3f5166"/><polygon points="32.528 58.53 32.821 58.702 33.556 58.277 33.274 58.111 32.528 58.53" style="fill:#96afcc"/><polygon points="33.556 58.277 33.556 59.005 32.821 59.429 32.821 58.702 33.556 58.277" style="fill:#718399"/><polygon points="32.528 58.53 32.528 59.258 32.821 59.429 32.821 58.702 32.528 58.53" style="fill:#3f5166"/><polygon points="29.307 61.534 29.6 61.706 30.335 61.282 30.052 61.115 29.307 61.534" style="fill:#96afcc"/><polygon points="30.335 61.282 30.335 62.009 29.6 62.433 29.6 61.706 30.335 61.282" style="fill:#718399"/><polygon points="29.307 61.534 29.307 62.262 29.6 62.433 29.6 61.706 29.307 61.534" style="fill:#3f5166"/><polygon points="29.307 60.434 29.6 60.605 30.335 60.181 30.052 60.014 29.307 60.434" style="fill:#96afcc"/><polygon points="30.335 60.181 30.335 60.908 29.6 61.333 29.6 60.605 30.335 60.181" style="fill:#718399"/><polygon points="29.307 60.434 29.307 61.161 29.6 61.333 29.6 60.605 29.307 60.434" style="fill:#3f5166"/><polygon points="30.891 60.583 31.184 60.755 31.919 60.33 31.636 60.164 30.891 60.583" style="fill:#96afcc"/><polygon points="31.919 60.33 31.919 61.058 31.184 61.482 31.184 60.755 31.919 60.33" style="fill:#718399"/><polygon points="30.891 60.583 30.891 61.311 31.184 61.482 31.184 60.755 30.891 60.583" style="fill:#3f5166"/><polygon points="30.891 59.482 31.184 59.654 31.919 59.23 31.636 59.063 30.891 59.482" style="fill:#96afcc"/><polygon points="31.919 59.23 31.919 59.957 31.184 60.381 31.184 59.654 31.919 59.23" style="fill:#718399"/><polygon points="30.891 59.482 30.891 60.21 31.184 60.381 31.184 59.654 30.891 59.482" style="fill:#3f5166"/><polygon points="34.182 59.639 34.182 57.765 43.789 52.143 43.789 53.998 34.182 59.639" style="fill:#637487"/><polygon points="28.928 46.821 45.194 37.422 45.194 40.992 28.928 50.388 28.928 46.821" style="fill:#293542"/><polygon points="44.934 37.872 44.934 40.842 29.188 49.937 29.188 46.971 44.934 37.872" style="fill:#10161a"/><polygon points="44.567 38.084 44.567 40.627 29.188 49.511 29.188 49.937 44.934 40.842 44.934 37.872 44.567 38.084" style="fill:#3f5166"/><polygon points="44.567 38.084 44.567 40.627 44.934 40.842 44.934 37.872 44.567 38.084" style="fill:#161c24"/><polygon points="44.821 37.238 45.194 37.422 28.928 46.821 28.555 46.637 44.821 37.238" style="fill:#3f5166"/><polygon points="28.928 50.388 28.555 50.203 28.555 46.637 28.928 46.821 28.928 50.388" style="fill:#161c24"/><polygon points="36.003 43.035 36.003 45.578 36.37 45.793 36.37 42.823 36.003 43.035" style="fill:#161c24"/><polygon points="36.737 42.611 36.737 45.578 36.37 45.793 36.37 42.823 36.737 42.611" style="fill:#293542"/><polygon points="38.09 41.825 38.09 44.368 38.457 44.582 38.457 41.613 38.09 41.825" style="fill:#161c24"/><polygon points="38.824 41.401 38.824 44.368 38.457 44.582 38.457 41.613 38.824 41.401" style="fill:#293542"/><polygon points="33.748 44.333 33.748 46.876 34.115 47.09 34.115 44.121 33.748 44.333" style="fill:#161c24"/><polygon points="34.482 43.909 34.482 46.876 34.115 47.09 34.115 44.121 34.482 43.909" style="fill:#293542"/><polygon points="36.737 42.611 36.737 45.15 38.09 44.368 38.09 41.825 36.737 42.611" style="fill:#c92222"/><polygon points="36.737 42.611 36.737 43.948 38.09 43.165 38.09 41.825 36.737 42.611" style="fill:#5fe134"/><polygon points="36.003 44.21 36.355 44.355 34.482 45.442 34.482 45.076 36.003 44.21" style="fill:#364557"/><polygon points="36.355 44.355 36.355 44.586 34.482 45.674 34.482 45.443 36.355 44.355" style="fill:#293542"/><polygon points="32.528 46.361 32.821 46.532 33.556 46.108 33.274 45.941 32.528 46.361" style="fill:#5fe134"/><polygon points="33.556 46.108 33.556 46.835 32.821 47.26 32.821 46.532 33.556 46.108" style="fill:#46c91a"/><polygon points="32.528 46.361 32.528 47.088 32.821 47.26 32.821 46.532 32.528 46.361" style="fill:#3aa615"/><polygon points="32.528 45.26 32.821 45.432 33.556 45.007 33.274 44.84 32.528 45.26" style="fill:#c93b3b"/><polygon points="33.556 45.007 33.556 45.734 32.821 46.159 32.821 45.432 33.556 45.007" style="fill:#c92222"/><polygon points="32.528 45.26 32.528 45.987 32.821 46.159 32.821 45.432 32.528 45.26" style="fill:#ad1010"/><polygon points="29.307 48.264 29.6 48.436 30.335 48.011 30.052 47.845 29.307 48.264" style="fill:#eef539"/><polygon points="30.335 48.011 30.335 48.739 29.6 49.163 29.6 48.436 30.335 48.011" style="fill:#d6dd1d"/><polygon points="29.307 48.264 29.307 48.991 29.6 49.163 29.6 48.436 29.307 48.264" style="fill:#b5ba18"/><polygon points="29.307 47.163 29.6 47.335 30.335 46.911 30.052 46.744 29.307 47.163" style="fill:#3b50c9"/><polygon points="30.335 46.911 30.335 47.638 29.6 48.062 29.6 47.335 30.335 46.911" style="fill:#223bc9"/><polygon points="29.307 47.163 29.307 47.891 29.6 48.062 29.6 47.335 29.307 47.163" style="fill:#1028ad"/><polygon points="30.891 47.313 31.184 47.485 31.919 47.06 31.636 46.893 30.891 47.313" style="fill:#22c2ff"/><polygon points="31.919 47.06 31.919 47.788 31.184 48.212 31.184 47.485 31.919 47.06" style="fill:#08b2f2"/><polygon points="30.891 47.313 30.891 48.04 31.184 48.212 31.184 47.485 30.891 47.313" style="fill:#07a4de"/><polygon points="30.891 46.212 31.184 46.384 31.919 45.959 31.636 45.793 30.891 46.212" style="fill:#f2ab47"/><polygon points="31.919 45.959 31.919 46.687 31.184 47.111 31.184 46.384 31.919 45.959" style="fill:#f29e29"/><polygon points="30.891 46.212 30.891 46.94 31.184 47.111 31.184 46.384 30.891 46.212" style="fill:#d68514"/><polygon points="39.602 43.165 39.602 41.291 43.789 38.873 43.789 40.727 39.602 43.165" style="fill:#637487"/><polygon points="28.928 51.149 45.194 41.75 45.194 45.319 28.928 54.715 28.928 51.149" style="fill:#293542"/><polygon points="44.934 42.2 44.934 45.169 29.188 54.265 29.188 51.299 44.934 42.2" style="fill:#10161a"/><polygon points="44.567 42.412 44.567 44.955 29.188 53.838 29.188 54.265 44.934 45.169 44.934 42.2 44.567 42.412" style="fill:#3f5166"/><polygon points="44.567 42.412 44.567 44.955 44.934 45.169 44.934 42.2 44.567 42.412" style="fill:#161c24"/><polygon points="44.821 41.565 45.194 41.75 28.928 51.149 28.555 50.964 44.821 41.565" style="fill:#3f5166"/><polygon points="28.928 54.715 28.555 54.531 28.555 50.964 28.928 51.149 28.928 54.715" style="fill:#161c24"/><polygon points="36.003 47.363 36.003 49.906 36.37 50.12 36.37 47.151 36.003 47.363" style="fill:#161c24"/><polygon points="36.737 46.939 36.737 49.906 36.37 50.12 36.37 47.151 36.737 46.939" style="fill:#293542"/><polygon points="38.09 46.152 38.09 48.695 38.457 48.91 38.457 45.94 38.09 46.152" style="fill:#161c24"/><polygon points="38.824 45.728 38.824 48.695 38.457 48.91 38.457 45.94 38.824 45.728" style="fill:#293542"/><polygon points="33.748 48.661 33.748 51.203 34.115 51.418 34.115 48.448 33.748 48.661" style="fill:#161c24"/><polygon points="34.482 48.236 34.482 51.203 34.115 51.418 34.115 48.448 34.482 48.236" style="fill:#293542"/><polygon points="36.737 46.939 36.737 49.478 38.09 48.695 38.09 46.152 36.737 46.939" style="fill:#c92222"/><polygon points="36.737 46.939 36.737 48.275 38.09 47.493 38.09 46.152 36.737 46.939" style="fill:#5fe134"/><polygon points="36.003 48.538 36.355 48.682 34.482 49.77 34.482 49.404 36.003 48.538" style="fill:#364557"/><polygon points="36.355 48.682 36.355 48.914 34.482 50.001 34.482 49.771 36.355 48.682" style="fill:#293542"/><polygon points="32.528 50.688 32.821 50.86 33.556 50.435 33.274 50.269 32.528 50.688" style="fill:#5fe134"/><polygon points="33.556 50.435 33.556 51.163 32.821 51.587 32.821 50.86 33.556 50.435" style="fill:#46c91a"/><polygon points="32.528 50.688 32.528 51.416 32.821 51.587 32.821 50.86 32.528 50.688" style="fill:#3aa615"/><polygon points="32.528 49.587 32.821 49.759 33.556 49.335 33.274 49.168 32.528 49.587" style="fill:#c93b3b"/><polygon points="33.556 49.335 33.556 50.062 32.821 50.486 32.821 49.759 33.556 49.335" style="fill:#c92222"/><polygon points="32.528 49.587 32.528 50.315 32.821 50.486 32.821 49.759 32.528 49.587" style="fill:#ad1010"/><polygon points="29.307 52.592 29.6 52.763 30.335 52.339 30.052 52.172 29.307 52.592" style="fill:#eef539"/><polygon points="30.335 52.339 30.335 53.066 29.6 53.491 29.6 52.763 30.335 52.339" style="fill:#d6dd1d"/><polygon points="29.307 52.592 29.307 53.319 29.6 53.491 29.6 52.763 29.307 52.592" style="fill:#b5ba18"/><polygon points="29.307 51.491 29.6 51.662 30.335 51.238 30.052 51.071 29.307 51.491" style="fill:#3b50c9"/><polygon points="30.335 51.238 30.335 51.965 29.6 52.39 29.6 51.662 30.335 51.238" style="fill:#223bc9"/><polygon points="29.307 51.491 29.307 52.218 29.6 52.39 29.6 51.662 29.307 51.491" style="fill:#1028ad"/><polygon points="30.891 51.64 31.184 51.812 31.919 51.388 31.636 51.221 30.891 51.64" style="fill:#22c2ff"/><polygon points="31.919 51.388 31.919 52.115 31.184 52.54 31.184 51.812 31.919 51.388" style="fill:#08b2f2"/><polygon points="30.891 51.64 30.891 52.368 31.184 52.54 31.184 51.812 30.891 51.64" style="fill:#07a4de"/><polygon points="30.891 50.54 31.184 50.711 31.919 50.287 31.636 50.12 30.891 50.54" style="fill:#f2ab47"/><polygon points="31.919 50.287 31.919 51.014 31.184 51.439 31.184 50.711 31.919 50.287" style="fill:#f29e29"/><polygon points="30.891 50.54 30.891 51.267 31.184 51.439 31.184 50.711 30.891 50.54" style="fill:#d68514"/><polygon points="39.602 47.493 39.602 45.619 43.789 43.201 43.789 45.055 39.602 47.493" style="fill:#637487"/><polygon points="28.928 42.389 45.194 32.99 45.194 36.56 28.928 45.955 28.928 42.389" style="fill:#293542"/><polygon points="44.934 33.44 44.934 36.41 29.188 45.505 29.188 42.539 44.934 33.44" style="fill:#10161a"/><polygon points="44.567 33.652 44.567 36.195 29.188 45.079 29.188 45.505 44.934 36.41 44.934 33.44 44.567 33.652" style="fill:#3f5166"/><polygon points="44.567 33.652 44.567 36.195 44.934 36.41 44.934 33.44 44.567 33.652" style="fill:#161c24"/><polygon points="44.821 32.805 45.194 32.99 28.928 42.389 28.555 42.204 44.821 32.805" style="fill:#3f5166"/><polygon points="28.928 45.955 28.555 45.771 28.555 42.204 28.928 42.389 28.928 45.955" style="fill:#161c24"/><polygon points="36.003 38.603 36.003 41.146 36.37 41.36 36.37 38.391 36.003 38.603" style="fill:#161c24"/><polygon points="36.737 38.179 36.737 41.146 36.37 41.36 36.37 38.391 36.737 38.179" style="fill:#293542"/><polygon points="38.09 37.393 38.09 39.936 38.457 40.15 38.457 37.181 38.09 37.393" style="fill:#161c24"/><polygon points="38.824 36.969 38.824 39.936 38.457 40.15 38.457 37.181 38.824 36.969" style="fill:#293542"/><polygon points="33.748 39.901 33.748 42.444 34.115 42.658 34.115 39.689 33.748 39.901" style="fill:#161c24"/><polygon points="34.482 39.477 34.482 42.444 34.115 42.658 34.115 39.689 34.482 39.477" style="fill:#293542"/><polygon points="36.737 38.179 36.737 40.718 38.09 39.936 38.09 37.393 36.737 38.179" style="fill:#c92222"/><polygon points="36.737 38.179 36.737 39.515 38.09 38.733 38.09 37.393 36.737 38.179" style="fill:#5fe134"/><polygon points="36.003 39.778 36.355 39.923 34.482 41.01 34.482 40.644 36.003 39.778" style="fill:#364557"/><polygon points="36.355 39.923 36.355 40.154 34.482 41.241 34.482 41.011 36.355 39.923" style="fill:#293542"/><polygon points="32.528 41.929 32.821 42.1 33.556 41.676 33.274 41.509 32.528 41.929" style="fill:#5fe134"/><polygon points="33.556 41.676 33.556 42.403 32.821 42.828 32.821 42.1 33.556 41.676" style="fill:#46c91a"/><polygon points="32.528 41.929 32.528 42.656 32.821 42.828 32.821 42.1 32.528 41.929" style="fill:#3aa615"/><polygon points="32.528 40.828 32.821 40.999 33.556 40.575 33.274 40.408 32.528 40.828" style="fill:#c93b3b"/><polygon points="33.556 40.575 33.556 41.302 32.821 41.727 32.821 40.999 33.556 40.575" style="fill:#c92222"/><polygon points="32.528 40.828 32.528 41.555 32.821 41.727 32.821 40.999 32.528 40.828" style="fill:#ad1010"/><polygon points="29.307 43.832 29.6 44.004 30.335 43.579 30.052 43.412 29.307 43.832" style="fill:#eef539"/><polygon points="30.335 43.579 30.335 44.306 29.6 44.731 29.6 44.004 30.335 43.579" style="fill:#d6dd1d"/><polygon points="29.307 43.832 29.307 44.559 29.6 44.731 29.6 44.004 29.307 43.832" style="fill:#b5ba18"/><polygon points="29.307 42.731 29.6 42.903 30.335 42.478 30.052 42.311 29.307 42.731" style="fill:#3b50c9"/><polygon points="30.335 42.478 30.335 43.206 29.6 43.63 29.6 42.903 30.335 42.478" style="fill:#223bc9"/><polygon points="29.307 42.731 29.307 43.458 29.6 43.63 29.6 42.903 29.307 42.731" style="fill:#1028ad"/><polygon points="30.891 42.881 31.184 43.052 31.919 42.628 31.636 42.461 30.891 42.881" style="fill:#22c2ff"/><polygon points="31.919 42.628 31.919 43.355 31.184 43.78 31.184 43.052 31.919 42.628" style="fill:#08b2f2"/><polygon points="30.891 42.881 30.891 43.608 31.184 43.78 31.184 43.052 30.891 42.881" style="fill:#07a4de"/><polygon points="30.891 41.78 31.184 41.952 31.919 41.527 31.636 41.36 30.891 41.78" style="fill:#f2ab47"/><polygon points="31.919 41.527 31.919 42.255 31.184 42.679 31.184 41.952 31.919 41.527" style="fill:#f29e29"/><polygon points="30.891 41.78 30.891 42.507 31.184 42.679 31.184 41.952 30.891 41.78" style="fill:#d68514"/><polygon points="39.602 38.733 39.602 36.859 43.789 34.441 43.789 36.295 39.602 38.733" style="fill:#637487"/><polygon points="28.928 37.957 45.194 28.558 45.194 32.127 28.928 41.523 28.928 37.957" style="fill:#293542"/><polygon points="44.934 29.008 44.934 31.977 29.188 41.073 29.188 38.107 44.934 29.008" style="fill:#10161a"/><polygon points="44.567 29.22 44.567 31.763 29.188 40.646 29.188 41.073 44.934 31.977 44.934 29.008 44.567 29.22" style="fill:#3f5166"/><polygon points="44.567 29.22 44.567 31.763 44.934 31.977 44.934 29.008 44.567 29.22" style="fill:#161c24"/><polygon points="44.821 28.373 45.194 28.558 28.928 37.957 28.555 37.772 44.821 28.373" style="fill:#3f5166"/><polygon points="28.928 41.523 28.555 41.339 28.555 37.772 28.928 37.957 28.928 41.523" style="fill:#161c24"/><polygon points="36.003 34.171 36.003 36.714 36.37 36.928 36.37 33.959 36.003 34.171" style="fill:#161c24"/><polygon points="36.737 33.747 36.737 36.714 36.37 36.928 36.37 33.959 36.737 33.747" style="fill:#293542"/><polygon points="38.09 32.961 38.09 35.503 38.457 35.718 38.457 32.749 38.09 32.961" style="fill:#161c24"/><polygon points="38.824 32.536 38.824 35.503 38.457 35.718 38.457 32.749 38.824 32.536" style="fill:#293542"/><polygon points="33.748 35.469 33.748 38.012 34.115 38.226 34.115 35.257 33.748 35.469" style="fill:#161c24"/><polygon points="34.482 35.044 34.482 38.012 34.115 38.226 34.115 35.257 34.482 35.044" style="fill:#293542"/><polygon points="36.737 33.747 36.737 36.286 38.09 35.503 38.09 32.961 36.737 33.747" style="fill:#c92222"/><polygon points="36.737 33.747 36.737 35.083 38.09 34.301 38.09 32.961 36.737 33.747" style="fill:#5fe134"/><polygon points="36.003 35.346 36.355 35.49 34.482 36.578 34.482 36.212 36.003 35.346" style="fill:#364557"/><polygon points="36.355 35.49 36.355 35.722 34.482 36.809 34.482 36.579 36.355 35.49" style="fill:#293542"/><polygon points="32.528 37.496 32.821 37.668 33.556 37.243 33.274 37.077 32.528 37.496" style="fill:#5fe134"/><polygon points="33.556 37.243 33.556 37.971 32.821 38.395 32.821 37.668 33.556 37.243" style="fill:#46c91a"/><polygon points="32.528 37.496 32.528 38.224 32.821 38.395 32.821 37.668 32.528 37.496" style="fill:#3aa615"/><polygon points="32.528 36.395 32.821 36.567 33.556 36.143 33.274 35.976 32.528 36.395" style="fill:#c93b3b"/><polygon points="33.556 36.143 33.556 36.87 32.821 37.295 32.821 36.567 33.556 36.143" style="fill:#c92222"/><polygon points="32.528 36.395 32.528 37.123 32.821 37.295 32.821 36.567 32.528 36.395" style="fill:#ad1010"/><polygon points="29.307 39.4 29.6 39.571 30.335 39.147 30.052 38.98 29.307 39.4" style="fill:#eef539"/><polygon points="30.335 39.147 30.335 39.874 29.6 40.299 29.6 39.571 30.335 39.147" style="fill:#d6dd1d"/><polygon points="29.307 39.4 29.307 40.127 29.6 40.299 29.6 39.571 29.307 39.4" style="fill:#b5ba18"/><polygon points="29.307 38.299 29.6 38.471 30.335 38.046 30.052 37.879 29.307 38.299" style="fill:#3b50c9"/><polygon points="30.335 38.046 30.335 38.773 29.6 39.198 29.6 38.471 30.335 38.046" style="fill:#223bc9"/><polygon points="29.307 38.299 29.307 39.026 29.6 39.198 29.6 38.471 29.307 38.299" style="fill:#1028ad"/><polygon points="30.891 38.449 31.184 38.62 31.919 38.196 31.636 38.029 30.891 38.449" style="fill:#22c2ff"/><polygon points="31.919 38.196 31.919 38.923 31.184 39.348 31.184 38.62 31.919 38.196" style="fill:#08b2f2"/><polygon points="30.891 38.449 30.891 39.176 31.184 39.348 31.184 38.62 30.891 38.449" style="fill:#07a4de"/><polygon points="30.891 37.348 31.184 37.519 31.919 37.095 31.636 36.928 30.891 37.348" style="fill:#f2ab47"/><polygon points="31.919 37.095 31.919 37.822 31.184 38.247 31.184 37.519 31.919 37.095" style="fill:#f29e29"/><polygon points="30.891 37.348 30.891 38.075 31.184 38.247 31.184 37.519 30.891 37.348" style="fill:#d68514"/><polygon points="39.602 34.301 39.602 32.427 43.789 30.009 43.789 31.863 39.602 34.301" style="fill:#637487"/><polygon points="28.928 33.524 45.194 24.125 45.194 27.695 28.928 37.091 28.928 33.524" style="fill:#293542"/><polygon points="44.934 24.576 44.934 27.545 29.188 36.641 29.188 33.674 44.934 24.576" style="fill:#10161a"/><polygon points="44.567 24.788 44.567 27.331 29.188 36.214 29.188 36.641 44.934 27.545 44.934 24.576 44.567 24.788" style="fill:#3f5166"/><polygon points="44.567 24.788 44.567 27.331 44.934 27.545 44.934 24.576 44.567 24.788" style="fill:#161c24"/><polygon points="44.821 23.941 45.194 24.125 28.928 33.524 28.555 33.34 44.821 23.941" style="fill:#3f5166"/><polygon points="28.928 37.091 28.555 36.907 28.555 33.34 28.928 33.524 28.928 37.091" style="fill:#161c24"/><polygon points="36.003 29.739 36.003 32.281 36.37 32.496 36.37 29.526 36.003 29.739" style="fill:#161c24"/><polygon points="36.737 29.314 36.737 32.281 36.37 32.496 36.37 29.526 36.737 29.314" style="fill:#293542"/><polygon points="38.09 28.528 38.09 31.071 38.457 31.286 38.457 28.316 38.09 28.528" style="fill:#161c24"/><polygon points="38.824 28.104 38.824 31.071 38.457 31.286 38.457 28.316 38.824 28.104" style="fill:#293542"/><polygon points="33.748 31.036 33.748 33.579 34.115 33.794 34.115 30.824 33.748 31.036" style="fill:#161c24"/><polygon points="34.482 30.612 34.482 33.579 34.115 33.794 34.115 30.824 34.482 30.612" style="fill:#293542"/><polygon points="36.737 29.314 36.737 31.854 38.09 31.071 38.09 28.528 36.737 29.314" style="fill:#c92222"/><polygon points="36.737 29.314 36.737 30.651 38.09 29.869 38.09 28.528 36.737 29.314" style="fill:#5fe134"/><polygon points="36.003 30.913 36.355 31.058 34.482 32.146 34.482 31.78 36.003 30.913" style="fill:#364557"/><polygon points="36.355 31.058 36.355 31.289 34.482 32.377 34.482 32.146 36.355 31.058" style="fill:#293542"/><polygon points="32.528 33.064 32.821 33.236 33.556 32.811 33.274 32.644 32.528 33.064" style="fill:#5fe134"/><polygon points="33.556 32.811 33.556 33.539 32.821 33.963 32.821 33.236 33.556 32.811" style="fill:#46c91a"/><polygon points="32.528 33.064 32.528 33.791 32.821 33.963 32.821 33.236 32.528 33.064" style="fill:#3aa615"/><polygon points="32.528 31.963 32.821 32.135 33.556 31.71 33.274 31.544 32.528 31.963" style="fill:#c93b3b"/><polygon points="33.556 31.71 33.556 32.438 32.821 32.862 32.821 32.135 33.556 31.71" style="fill:#c92222"/><polygon points="32.528 31.963 32.528 32.691 32.821 32.862 32.821 32.135 32.528 31.963" style="fill:#ad1010"/><polygon points="29.307 34.967 29.6 35.139 30.335 34.715 30.052 34.548 29.307 34.967" style="fill:#eef539"/><polygon points="30.335 34.715 30.335 35.442 29.6 35.866 29.6 35.139 30.335 34.715" style="fill:#d6dd1d"/><polygon points="29.307 34.967 29.307 35.695 29.6 35.866 29.6 35.139 29.307 34.967" style="fill:#b5ba18"/><polygon points="29.307 33.867 29.6 34.038 30.335 33.614 30.052 33.447 29.307 33.867" style="fill:#3b50c9"/><polygon points="30.335 33.614 30.335 34.341 29.6 34.766 29.6 34.038 30.335 33.614" style="fill:#223bc9"/><polygon points="29.307 33.867 29.307 34.594 29.6 34.766 29.6 34.038 29.307 33.867" style="fill:#1028ad"/><polygon points="30.891 34.016 31.184 34.188 31.919 33.764 31.636 33.597 30.891 34.016" style="fill:#22c2ff"/><polygon points="31.919 33.764 31.919 34.491 31.184 34.915 31.184 34.188 31.919 33.764" style="fill:#08b2f2"/><polygon points="30.891 34.016 30.891 34.744 31.184 34.915 31.184 34.188 30.891 34.016" style="fill:#07a4de"/><polygon points="30.891 32.916 31.184 33.087 31.919 32.663 31.636 32.496 30.891 32.916" style="fill:#f2ab47"/><polygon points="31.919 32.663 31.919 33.39 31.184 33.815 31.184 33.087 31.919 32.663" style="fill:#f29e29"/><polygon points="30.891 32.916 30.891 33.643 31.184 33.815 31.184 33.087 30.891 32.916" style="fill:#d68514"/><polygon points="39.602 29.869 39.602 27.995 43.789 25.577 43.789 27.431 39.602 29.869" style="fill:#637487"/><polygon points="28.928 29.092 45.194 19.693 45.194 23.263 28.928 32.659 28.928 29.092" style="fill:#293542"/><polygon points="44.934 20.143 44.934 23.113 29.188 32.208 29.188 29.242 44.934 20.143" style="fill:#10161a"/><polygon points="44.567 20.355 44.567 22.898 29.188 31.782 29.188 32.208 44.934 23.113 44.934 20.143 44.567 20.355" style="fill:#3f5166"/><polygon points="44.567 20.355 44.567 22.898 44.934 23.113 44.934 20.143 44.567 20.355" style="fill:#161c24"/><polygon points="44.821 19.509 45.194 19.693 28.928 29.092 28.555 28.908 44.821 19.509" style="fill:#3f5166"/><polygon points="28.928 32.659 28.555 32.474 28.555 28.908 28.928 29.092 28.928 32.659" style="fill:#161c24"/><polygon points="36.003 25.306 36.003 27.849 36.37 28.064 36.37 25.094 36.003 25.306" style="fill:#161c24"/><polygon points="36.737 24.882 36.737 27.849 36.37 28.064 36.37 25.094 36.737 24.882" style="fill:#293542"/><polygon points="38.09 24.096 38.09 26.639 38.457 26.854 38.457 23.884 38.09 24.096" style="fill:#161c24"/><polygon points="38.824 23.672 38.824 26.639 38.457 26.854 38.457 23.884 38.824 23.672" style="fill:#293542"/><polygon points="33.748 26.604 33.748 29.147 34.115 29.362 34.115 26.392 33.748 26.604" style="fill:#161c24"/><polygon points="34.482 26.18 34.482 29.147 34.115 29.362 34.115 26.392 34.482 26.18" style="fill:#293542"/><polygon points="36.737 24.882 36.737 27.421 38.09 26.639 38.09 24.096 36.737 24.882" style="fill:#c92222"/><polygon points="36.737 24.882 36.737 26.219 38.09 25.436 38.09 24.096 36.737 24.882" style="fill:#5fe134"/><polygon points="36.003 26.481 36.355 26.626 34.482 27.713 34.482 27.348 36.003 26.481" style="fill:#364557"/><polygon points="36.355 26.626 36.355 26.857 34.482 27.945 34.482 27.714 36.355 26.626" style="fill:#293542"/><polygon points="32.528 28.632 32.821 28.804 33.556 28.379 33.274 28.212 32.528 28.632" style="fill:#5fe134"/><polygon points="33.556 28.379 33.556 29.106 32.821 29.531 32.821 28.804 33.556 28.379" style="fill:#46c91a"/><polygon points="32.528 28.632 32.528 29.359 32.821 29.531 32.821 28.804 32.528 28.632" style="fill:#3aa615"/><polygon points="32.528 27.531 32.821 27.703 33.556 27.278 33.274 27.111 32.528 27.531" style="fill:#c93b3b"/><polygon points="33.556 27.278 33.556 28.006 32.821 28.43 32.821 27.703 33.556 27.278" style="fill:#c92222"/><polygon points="32.528 27.531 32.528 28.258 32.821 28.43 32.821 27.703 32.528 27.531" style="fill:#ad1010"/><polygon points="29.307 30.535 29.6 30.707 30.335 30.282 30.052 30.116 29.307 30.535" style="fill:#eef539"/><polygon points="30.335 30.282 30.335 31.01 29.6 31.434 29.6 30.707 30.335 30.282" style="fill:#d6dd1d"/><polygon points="29.307 30.535 29.307 31.263 29.6 31.434 29.6 30.707 29.307 30.535" style="fill:#b5ba18"/><polygon points="29.307 29.434 29.6 29.606 30.335 29.182 30.052 29.015 29.307 29.434" style="fill:#3b50c9"/><polygon points="30.335 29.182 30.335 29.909 29.6 30.333 29.6 29.606 30.335 29.182" style="fill:#223bc9"/><polygon points="29.307 29.434 29.307 30.162 29.6 30.333 29.6 29.606 29.307 29.434" style="fill:#1028ad"/><polygon points="30.891 29.584 31.184 29.756 31.919 29.331 31.636 29.165 30.891 29.584" style="fill:#22c2ff"/><polygon points="31.919 29.331 31.919 30.059 31.184 30.483 31.184 29.756 31.919 29.331" style="fill:#08b2f2"/><polygon points="30.891 29.584 30.891 30.311 31.184 30.483 31.184 29.756 30.891 29.584" style="fill:#07a4de"/><polygon points="30.891 28.483 31.184 28.655 31.919 28.231 31.636 28.064 30.891 28.483" style="fill:#f2ab47"/><polygon points="31.919 28.231 31.919 28.958 31.184 29.382 31.184 28.655 31.919 28.231" style="fill:#f29e29"/><polygon points="30.891 28.483 30.891 29.211 31.184 29.382 31.184 28.655 30.891 28.483" style="fill:#d68514"/><polygon points="39.602 25.436 39.602 23.562 43.789 21.144 43.789 22.998 39.602 25.436" style="fill:#637487"/></g></g></svg>