<svg xmlns="http://www.w3.org/2000/svg" xmlns:xlink="http://www.w3.org/1999/xlink" viewBox="0 0 99.39872 72.36206"><defs><linearGradient id="铃琨眄沭噤桢眚_82" x1="57.52085" y1="45.29227" x2="57.54773" y2="48.00641" gradientUnits="userSpaceOnUse"><stop offset="0" stop-color="#0b1a73"/><stop offset="1" stop-color="#0d208c"/></linearGradient><linearGradient id="铃琨眄沭噤桢眚_82-2" x1="57.53545" y1="49.48788" x2="57.53545" y2="51.93329" xlink:href="#铃琨眄沭噤桢眚_82"/><linearGradient id="铃琨眄沭噤桢眚_82-3" x1="57.53545" y1="52.98133" x2="57.53545" y2="55.77609" xlink:href="#铃琨眄沭噤桢眚_82"/><linearGradient id="铃琨眄沭噤桢眚_82-4" x1="86.53499" y1="27.96306" x2="86.56186" y2="30.51596" xlink:href="#铃琨眄沭噤桢眚_82"/><linearGradient id="铃琨眄沭噤桢眚_82-5" x1="86.5192" y1="32.15055" x2="86.57295" y2="34.78408" xlink:href="#铃琨眄沭噤桢眚_82"/><linearGradient id="铃琨眄沭噤桢眚_82-6" x1="86.50173" y1="36.18233" x2="86.58235" y2="38.92334" xlink:href="#铃琨眄沭噤桢眚_82"/><radialGradient id="铃琨眄沭噤桢眚_114" cx="458.34699" cy="26.93977" r="0.99619" gradientTransform="matrix(-1, 0, 0, 1, 548.31399, 0)" gradientUnits="userSpaceOnUse"><stop offset="0" stop-color="#b3ff0e"/><stop offset="1" stop-color="#7fb50a"/></radialGradient><radialGradient id="铃琨眄沭噤桢眚_114-2" cx="458.34699" cy="31.55727" r="0.99619" xlink:href="#铃琨眄沭噤桢眚_114"/><radialGradient id="铃琨眄沭噤桢眚_114-3" cx="458.34699" cy="36.17477" r="0.99619" xlink:href="#铃琨眄沭噤桢眚_114"/><radialGradient id="铃琨眄沭噤桢眚_114-4" cx="487.59759" cy="44.54417" r="0.99619" xlink:href="#铃琨眄沭噤桢眚_114"/><radialGradient id="铃琨眄沭噤桢眚_114-5" cx="487.59759" cy="48.64457" r="0.99619" xlink:href="#铃琨眄沭噤桢眚_114"/><radialGradient id="铃琨眄沭噤桢眚_114-6" cx="487.59759" cy="53.06339" r="0.99623" xlink:href="#铃琨眄沭噤桢眚_114"/></defs><title>18843 [转换]</title><g style="isolation:isolate"><g id="Layer"><polygon points="93.246 20.699 34.969 54.345 1 34.397 0.748 34.249 59.025 0.603 92.704 20.383 93.246 20.699" style="fill:#2f3d4d"/><polygon points="92.367 20.185 34.969 53.324 1.625 33.743 0.748 34.249 1 34.397 34.969 54.345 93.246 20.699 92.704 20.383 92.367 20.185" style="fill:#556f8c"/><polygon points="93.243 20.702 93.243 34.714 34.969 68.359 34.969 54.346 93.243 20.702" style="fill:#10141a"/><polygon points="0.749 34.246 0.749 48.259 34.969 68.359 34.969 54.346 0.749 34.246" style="fill:#161c24"/><polygon points="2.684 47.152 2.684 37.626 33.034 55.453 33.034 64.978 2.684 47.152" style="fill:#10161a"/><polygon points="3.208 46.896 3.208 37.934 2.684 37.626 2.684 47.152 33.034 64.978 33.034 64.415 3.208 46.896" style="fill:#364557"/><polygon points="34.028 57.269 98.119 20.009 96.694 19.169 32.604 56.429 34.028 57.269" style="fill:#2f3d4d"/><polygon points="98.119 20.009 98.119 34.021 34.028 71.282 34.028 57.269 98.119 20.009" style="fill:#202b33"/><polygon points="94.133 24.532 94.133 33.845 95.048 33.31 95.048 24.202 94.133 24.532" style="fill:#10161a"/><polygon points="37.029 57.599 37.029 66.912 37.945 66.376 37.945 57.269 37.029 57.599" style="fill:#10161a"/><polygon points="32.604 56.429 32.604 70.442 34.028 71.282 34.028 57.269 32.604 56.429" style="fill:#161c24"/><path d="M40.0259,54.96612l.322-.1859v1.4021l-.322.1859c-.3364.1942-.6095.0385-.6095-.3475a1.33962,1.33962,0,0,1,.6095-1.0546Z" style="fill:#10161a"/><path d="M40.176,54.87942v1.2287l-.322.1859a.51565.51565,0,0,1-.3074.0787.39563.39563,0,0,0,.4793-.0045l.322-.1859v-1.4021Z" style="fill:#556f8c"/><path d="M41.7413,54.67842a1.24715,1.24715,0,0,1-.1783.5978,1.27243,1.27243,0,0,1-.4341.4552l-.3191.1842v-1.4021l.3191-.1842C41.4682,54.13342,41.7413,54.28912,41.7413,54.67842Z" style="fill:#10161a"/><path d="M41.4388,54.24962a.45939.45939,0,0,1,.1306.3546,1.24809,1.24809,0,0,1-.1782.5978,1.27243,1.27243,0,0,1-.4341.4552l-.1473.085v.1734l.3191-.1842a1.27243,1.27243,0,0,0,.4341-.4552,1.24684,1.24684,0,0,0,.1783-.5978C41.7413,54.41972,41.6193,54.26732,41.4388,54.24962Z" style="fill:#556f8c"/><polygon points="40.176 56.108 40.348 56.182 40.348 54.78 40.176 54.879 40.176 56.108" style="fill:#161c24"/><path d="M40.0259,56.78392l.322-.1859v1.4021l-.322.1859c-.3364.1942-.6095.0385-.6095-.3475a1.33921,1.33921,0,0,1,.6095-1.0546Z" style="fill:#10161a"/><path d="M40.176,56.69722v1.2287l-.322.1859a.51477.51477,0,0,1-.3074.0786.3956.3956,0,0,0,.4793-.0044l.322-.1859V56.598Z" style="fill:#556f8c"/><path d="M41.7413,56.49622a1.23857,1.23857,0,0,1-.1783.5978,1.26222,1.26222,0,0,1-.4341.4551l-.3191.1843v-1.4021l.3191-.1842C41.4682,55.95122,41.7413,56.10692,41.7413,56.49622Z" style="fill:#10161a"/><path d="M41.4388,56.06732a.45963.45963,0,0,1,.1306.3547,1.23882,1.23882,0,0,1-.1782.5977,1.26173,1.26173,0,0,1-.4341.4552l-.1473.085v.1735l.3191-.1843a1.26222,1.26222,0,0,0,.4341-.4551,1.23857,1.23857,0,0,0,.1783-.5978C41.7413,56.23752,41.6193,56.08512,41.4388,56.06732Z" style="fill:#556f8c"/><polygon points="40.176 57.926 40.348 58 40.348 56.598 40.176 56.697 40.176 57.926" style="fill:#161c24"/><path d="M40.0259,58.60172l.322-.186v1.4021l-.322.1859c-.3364.1942-.6095.0385-.6095-.3475a1.33924,1.33924,0,0,1,.6095-1.0545Z" style="fill:#10161a"/><path d="M40.176,58.515v1.2286l-.322.1859a.51565.51565,0,0,1-.3074.0787.39548.39548,0,0,0,.4793-.0045l.322-.1859v-1.4021Z" style="fill:#556f8c"/><path d="M41.7413,58.314a1.2379,1.2379,0,0,1-.1783.5977,1.26254,1.26254,0,0,1-.4341.4552l-.3191.1842v-1.402l.3191-.1843C41.4682,57.769,41.7413,57.92472,41.7413,58.314Z" style="fill:#10161a"/><path d="M41.4388,57.88512a.45948.45948,0,0,1,.1306.3547,1.23882,1.23882,0,0,1-.1782.5977,1.26254,1.26254,0,0,1-.4341.4552l-.1473.085v.1734l.3191-.1842a1.26254,1.26254,0,0,0,.4341-.4552,1.2379,1.2379,0,0,0,.1783-.5977C41.7413,58.05522,41.6193,57.90292,41.4388,57.88512Z" style="fill:#556f8c"/><polygon points="40.176 59.744 40.348 59.818 40.348 58.416 40.176 58.515 40.176 59.744" style="fill:#161c24"/><path d="M40.0259,60.41942l.322-.1859v1.4021l-.322.1859c-.3364.1942-.6095.0385-.6095-.3475a1.33962,1.33962,0,0,1,.6095-1.0546Z" style="fill:#10161a"/><path d="M40.176,60.33272v1.2287l-.322.1859a.51565.51565,0,0,1-.3074.0787.39563.39563,0,0,0,.4793-.0045l.322-.1859v-1.4021Z" style="fill:#556f8c"/><path d="M41.7413,60.13172a1.238,1.238,0,0,1-.1783.5978,1.26334,1.26334,0,0,1-.4341.4552l-.3191.1842v-1.4021l.3191-.1842C41.4682,59.58672,41.7413,59.74242,41.7413,60.13172Z" style="fill:#10161a"/><path d="M41.4388,59.70292a.45939.45939,0,0,1,.1306.3546,1.23918,1.23918,0,0,1-.1782.5978,1.26334,1.26334,0,0,1-.4341.4552l-.1473.085v.1734l.3191-.1842a1.26334,1.26334,0,0,0,.4341-.4552,1.238,1.238,0,0,0,.1783-.5978C41.7413,59.873,41.6193,59.72062,41.4388,59.70292Z" style="fill:#556f8c"/><polygon points="40.176 61.561 40.348 61.636 40.348 60.234 40.176 60.333 40.176 61.561" style="fill:#161c24"/><path d="M40.0259,62.23722l.322-.1859v1.4021l-.322.1859c-.3364.1942-.6095.0385-.6095-.3475a1.33921,1.33921,0,0,1,.6095-1.0546Z" style="fill:#10161a"/><path d="M40.176,62.15052v1.2287l-.322.1859a.51477.51477,0,0,1-.3074.0786.3956.3956,0,0,0,.4793-.0044l.322-.1859v-1.4021Z" style="fill:#556f8c"/><path d="M41.7413,61.94952a1.23857,1.23857,0,0,1-.1783.5978,1.26222,1.26222,0,0,1-.4341.4551l-.3191.1843v-1.4021l.3191-.1842C41.4682,61.40452,41.7413,61.56022,41.7413,61.94952Z" style="fill:#10161a"/><path d="M41.4388,61.52062a.45963.45963,0,0,1,.1306.3547,1.23882,1.23882,0,0,1-.1782.5977,1.26173,1.26173,0,0,1-.4341.4552l-.1473.085v.1735l.3191-.1843a1.26222,1.26222,0,0,0,.4341-.4551,1.23857,1.23857,0,0,0,.1783-.5978C41.7413,61.69082,41.6193,61.53842,41.4388,61.52062Z" style="fill:#556f8c"/><polygon points="40.176 63.379 40.348 63.453 40.348 62.051 40.176 62.151 40.176 63.379" style="fill:#161c24"/><path d="M40.0259,64.055l.322-.186v1.4021l-.322.1859c-.3364.1942-.6095.0385-.6095-.3475a1.33924,1.33924,0,0,1,.6095-1.0545Z" style="fill:#10161a"/><path d="M40.176,63.96832v1.2286l-.322.1859a.51565.51565,0,0,1-.3074.0787.39548.39548,0,0,0,.4793-.0045l.322-.1859V63.869Z" style="fill:#556f8c"/><path d="M41.7413,63.76732a1.2379,1.2379,0,0,1-.1783.5977,1.26254,1.26254,0,0,1-.4341.4552l-.3191.1842v-1.402l.3191-.1843C41.4682,63.22232,41.7413,63.378,41.7413,63.76732Z" style="fill:#10161a"/><path d="M41.4388,63.33842a.45948.45948,0,0,1,.1306.3547,1.23882,1.23882,0,0,1-.1782.5977,1.26254,1.26254,0,0,1-.4341.4552l-.1473.085v.1734l.3191-.1842a1.26254,1.26254,0,0,0,.4341-.4552,1.2379,1.2379,0,0,0,.1783-.5977C41.7413,63.50852,41.6193,63.35622,41.4388,63.33842Z" style="fill:#556f8c"/><polygon points="40.176 65.197 40.348 65.271 40.348 63.869 40.176 63.968 40.176 65.197" style="fill:#161c24"/><path d="M40.0259,65.87272l.322-.1859v1.4021l-.322.1859c-.3364.1942-.6095.0385-.6095-.3475a1.33962,1.33962,0,0,1,.6095-1.0546Z" style="fill:#10161a"/><path d="M40.176,65.786v1.2287l-.322.1859a.51565.51565,0,0,1-.3074.0787.39563.39563,0,0,0,.4793-.0045l.322-.1859v-1.4021Z" style="fill:#556f8c"/><path d="M41.7413,65.585a1.24715,1.24715,0,0,1-.1783.5978,1.27243,1.27243,0,0,1-.4341.4552l-.3191.1842v-1.4021l.3191-.1842C41.4682,65.04,41.7413,65.19572,41.7413,65.585Z" style="fill:#10161a"/><path d="M41.4388,65.15622a.45939.45939,0,0,1,.1306.3546,1.24809,1.24809,0,0,1-.1782.5978,1.27243,1.27243,0,0,1-.4341.4552l-.1473.085v.1734l.3191-.1842a1.27243,1.27243,0,0,0,.4341-.4552,1.24684,1.24684,0,0,0,.1783-.5978C41.7413,65.32632,41.6193,65.17392,41.4388,65.15622Z" style="fill:#556f8c"/><polygon points="40.176 67.015 40.348 67.089 40.348 65.687 40.176 65.786 40.176 67.015" style="fill:#161c24"/><path d="M91.7613,24.72312l.322-.1859v1.4021l-.322.1859c-.3364.1942-.6095.0385-.6095-.3475a1.34033,1.34033,0,0,1,.6095-1.0546Z" style="fill:#10161a"/><path d="M91.9115,24.63642v1.2287l-.322.1859a.5161.5161,0,0,1-.3075.0787.39563.39563,0,0,0,.4793-.0045l.322-.1859v-1.4021Z" style="fill:#556f8c"/><path d="M93.4767,24.43542a1.24777,1.24777,0,0,1-.1782.5978,1.27185,1.27185,0,0,1-.4342.4552l-.3191.1842v-1.4021l.3191-.1842C93.2036,23.89042,93.4767,24.04622,93.4767,24.43542Z" style="fill:#10161a"/><path d="M93.1742,24.00662a.45942.45942,0,0,1,.1307.3546,1.24684,1.24684,0,0,1-.1783.5978,1.27161,1.27161,0,0,1-.4341.4552l-.1473.085v.1734l.3191-.1842a1.27185,1.27185,0,0,0,.4342-.4552,1.24777,1.24777,0,0,0,.1782-.5978C93.4767,24.17672,93.3547,24.02432,93.1742,24.00662Z" style="fill:#556f8c"/><polygon points="91.911 25.865 92.083 25.939 92.083 24.537 91.911 24.636 91.911 25.865" style="fill:#161c24"/><path d="M91.7613,26.54092l.322-.1859v1.4021l-.322.1859c-.3364.1942-.6095.0385-.6095-.3475a1.33992,1.33992,0,0,1,.6095-1.0546Z" style="fill:#10161a"/><path d="M91.9115,26.45422v1.2287l-.322.1859a.5161.5161,0,0,1-.3075.0787.39563.39563,0,0,0,.4793-.0045l.322-.1859V26.355Z" style="fill:#556f8c"/><path d="M93.4767,26.25322a1.23918,1.23918,0,0,1-.1782.5978,1.26358,1.26358,0,0,1-.4342.4552l-.3191.1842v-1.4021l.3191-.1842C93.2036,25.70822,93.4767,25.86392,93.4767,26.25322Z" style="fill:#10161a"/><path d="M93.1742,25.82442a.45942.45942,0,0,1,.1307.3546,1.23857,1.23857,0,0,1-.1783.5978,1.26222,1.26222,0,0,1-.4341.4551l-.1473.0851v.1734l.3191-.1843a1.26246,1.26246,0,0,0,.4342-.4551,1.23887,1.23887,0,0,0,.1782-.5978C93.4767,25.99452,93.3547,25.84212,93.1742,25.82442Z" style="fill:#556f8c"/><polygon points="91.911 27.683 92.083 27.757 92.083 26.355 91.911 26.454 91.911 27.683" style="fill:#161c24"/><path d="M91.7613,28.35872l.322-.1859v1.4021l-.322.1859c-.3364.1942-.6095.0385-.6095-.3475a1.33992,1.33992,0,0,1,.6095-1.0546Z" style="fill:#10161a"/><path d="M91.9115,28.272v1.2286l-.322.1859a.51466.51466,0,0,1-.3075.0787.39548.39548,0,0,0,.4793-.0045l.322-.1859v-1.402Z" style="fill:#556f8c"/><path d="M93.4767,28.071a1.23882,1.23882,0,0,1-.1782.5977,1.262,1.262,0,0,1-.4342.4552l-.3191.1843v-1.4021l.3191-.1843C93.2036,27.526,93.4767,27.68172,93.4767,28.071Z" style="fill:#10161a"/><path d="M93.1742,27.64212a.45951.45951,0,0,1,.1307.3547,1.2379,1.2379,0,0,1-.1783.5977,1.26173,1.26173,0,0,1-.4341.4552l-.1473.085v.1735l.3191-.1843a1.262,1.262,0,0,0,.4342-.4552,1.23882,1.23882,0,0,0,.1782-.5977C93.4767,27.81232,93.3547,27.65992,93.1742,27.64212Z" style="fill:#556f8c"/><polygon points="91.911 29.501 92.083 29.575 92.083 28.173 91.911 28.272 91.911 29.501" style="fill:#161c24"/><path d="M91.7613,30.17642l.322-.1859v1.4021l-.322.1859c-.3364.1942-.6095.0385-.6095-.3475a1.34033,1.34033,0,0,1,.6095-1.0546Z" style="fill:#10161a"/><path d="M91.9115,30.08972v1.2287l-.322.1859a.5161.5161,0,0,1-.3075.0787.39563.39563,0,0,0,.4793-.0045l.322-.1859v-1.4021Z" style="fill:#556f8c"/><path d="M93.4767,29.88872a1.23887,1.23887,0,0,1-.1782.5978,1.26278,1.26278,0,0,1-.4342.4552l-.3191.1842v-1.4021l.3191-.1842C93.2036,29.34372,93.4767,29.49952,93.4767,29.88872Z" style="fill:#10161a"/><path d="M93.1742,29.45992a.45942.45942,0,0,1,.1307.3546,1.238,1.238,0,0,1-.1783.5978,1.26254,1.26254,0,0,1-.4341.4552l-.1473.085v.1734l.3191-.1842a1.26278,1.26278,0,0,0,.4342-.4552,1.23887,1.23887,0,0,0,.1782-.5978C93.4767,29.63,93.3547,29.47762,93.1742,29.45992Z" style="fill:#556f8c"/><polygon points="91.911 31.318 92.083 31.393 92.083 29.991 91.911 30.09 91.911 31.318" style="fill:#161c24"/><path d="M91.7613,31.99422l.322-.1859v1.4021l-.322.1859c-.3364.1942-.6095.0385-.6095-.3475a1.33992,1.33992,0,0,1,.6095-1.0546Z" style="fill:#10161a"/><path d="M91.9115,31.90752v1.2287l-.322.1859a.5161.5161,0,0,1-.3075.0787.39563.39563,0,0,0,.4793-.0045l.322-.1859v-1.4021Z" style="fill:#556f8c"/><path d="M93.4767,31.70652a1.23918,1.23918,0,0,1-.1782.5978,1.26358,1.26358,0,0,1-.4342.4552l-.3191.1842v-1.4021l.3191-.1842C93.2036,31.16152,93.4767,31.31722,93.4767,31.70652Z" style="fill:#10161a"/><path d="M93.1742,31.27772a.45942.45942,0,0,1,.1307.3546,1.23857,1.23857,0,0,1-.1783.5978,1.26222,1.26222,0,0,1-.4341.4551l-.1473.0851v.1734l.3191-.1843a1.26246,1.26246,0,0,0,.4342-.4551,1.23887,1.23887,0,0,0,.1782-.5978C93.4767,31.44782,93.3547,31.29542,93.1742,31.27772Z" style="fill:#556f8c"/><polygon points="91.911 33.136 92.083 33.21 92.083 31.808 91.911 31.908 91.911 33.136" style="fill:#161c24"/><path d="M91.7613,33.812l.322-.1859v1.4021l-.322.1859c-.3364.1942-.6095.0385-.6095-.3475a1.33992,1.33992,0,0,1,.6095-1.0546Z" style="fill:#10161a"/><path d="M91.9115,33.72532v1.2286l-.322.1859a.51466.51466,0,0,1-.3075.0787.39548.39548,0,0,0,.4793-.0045l.322-.1859v-1.402Z" style="fill:#556f8c"/><path d="M93.4767,33.52432a1.23882,1.23882,0,0,1-.1782.5977,1.262,1.262,0,0,1-.4342.4552l-.3191.1843v-1.4021l.3191-.1843C93.2036,32.97932,93.4767,33.135,93.4767,33.52432Z" style="fill:#10161a"/><path d="M93.1742,33.09542a.45951.45951,0,0,1,.1307.3547,1.2379,1.2379,0,0,1-.1783.5977,1.26173,1.26173,0,0,1-.4341.4552l-.1473.085v.1735l.3191-.1843a1.262,1.262,0,0,0,.4342-.4552,1.23882,1.23882,0,0,0,.1782-.5977C93.4767,33.26562,93.3547,33.11322,93.1742,33.09542Z" style="fill:#556f8c"/><polygon points="91.911 34.954 92.083 35.028 92.083 33.626 91.911 33.725 91.911 34.954" style="fill:#161c24"/><path d="M91.7613,35.62972l.322-.1859v1.4021l-.322.1859c-.3364.1942-.6095.0385-.6095-.3475a1.34033,1.34033,0,0,1,.6095-1.0546Z" style="fill:#10161a"/><path d="M91.9115,35.543v1.2287l-.322.1859a.5161.5161,0,0,1-.3075.0787.39563.39563,0,0,0,.4793-.0045l.322-.1859v-1.4021Z" style="fill:#556f8c"/><path d="M93.4767,35.342a1.24777,1.24777,0,0,1-.1782.5978,1.27185,1.27185,0,0,1-.4342.4552l-.3191.1842v-1.4021l.3191-.1842C93.2036,34.797,93.4767,34.95282,93.4767,35.342Z" style="fill:#10161a"/><path d="M93.1742,34.91322a.45942.45942,0,0,1,.1307.3546,1.24684,1.24684,0,0,1-.1783.5978,1.27161,1.27161,0,0,1-.4341.4552l-.1473.085v.1734l.3191-.1842a1.27185,1.27185,0,0,0,.4342-.4552,1.24777,1.24777,0,0,0,.1782-.5978C93.4767,35.08332,93.3547,34.93092,93.1742,34.91322Z" style="fill:#556f8c"/><polygon points="91.911 36.772 92.083 36.846 92.083 35.444 91.911 35.543 91.911 36.772" style="fill:#161c24"/><path d="M62.6273,41.66242l.322-.1859v1.4021l-.322.1859c-.3364.1942-.6095.0385-.6095-.3475a1.33921,1.33921,0,0,1,.6095-1.0546Z" style="fill:#10161a"/><path d="M62.7774,41.57572v1.2287l-.322.1859a.51477.51477,0,0,1-.3074.0786.3956.3956,0,0,0,.4793-.0044l.322-.186v-1.402Z" style="fill:#556f8c"/><path d="M64.3427,41.37472a1.24679,1.24679,0,0,1-.1783.5977,1.2708,1.2708,0,0,1-.4341.4552l-.3191.1843v-1.4021l.3191-.1843C64.0695,40.82972,64.3427,40.98542,64.3427,41.37472Z" style="fill:#10161a"/><path d="M64.0402,40.94582a.45948.45948,0,0,1,.1306.3547,1.24773,1.24773,0,0,1-.1782.5977,1.271,1.271,0,0,1-.4342.4552l-.1472.085v.1735l.3191-.1843a1.27211,1.27211,0,0,0,.4341-.4551,1.24747,1.24747,0,0,0,.1783-.5978C64.3427,41.116,64.2207,40.96362,64.0402,40.94582Z" style="fill:#556f8c"/><polygon points="62.777 42.804 62.949 42.879 62.949 41.477 62.777 41.576 62.777 42.804" style="fill:#161c24"/><path d="M62.6273,43.48012l.322-.1859v1.4021l-.322.1859c-.3364.1942-.6095.0385-.6095-.3475a1.33962,1.33962,0,0,1,.6095-1.0546Z" style="fill:#10161a"/><path d="M62.7774,43.39342v1.2287l-.322.1859a.51565.51565,0,0,1-.3074.0787.39548.39548,0,0,0,.4793-.0045l.322-.1859v-1.4021Z" style="fill:#556f8c"/><path d="M64.3427,43.19252a1.2379,1.2379,0,0,1-.1783.5977,1.26254,1.26254,0,0,1-.4341.4552l-.3191.1842v-1.402l.3191-.1843C64.0695,42.64742,64.3427,42.80322,64.3427,43.19252Z" style="fill:#10161a"/><path d="M64.0402,42.76362a.45939.45939,0,0,1,.1306.3546,1.23887,1.23887,0,0,1-.1782.5978,1.26195,1.26195,0,0,1-.4342.4552l-.1472.085v.1734l.3191-.1842a1.26254,1.26254,0,0,0,.4341-.4552,1.238,1.238,0,0,0,.1783-.5978C64.3427,42.93372,64.2207,42.78132,64.0402,42.76362Z" style="fill:#556f8c"/><polygon points="62.777 44.622 62.949 44.696 62.949 43.294 62.777 43.393 62.777 44.622" style="fill:#161c24"/><path d="M62.6273,45.29792l.322-.1859v1.4021l-.322.1859c-.3364.1942-.6095.0385-.6095-.3475a1.33962,1.33962,0,0,1,.6095-1.0546Z" style="fill:#10161a"/><path d="M62.7774,45.21122v1.2287l-.322.1859a.51565.51565,0,0,1-.3074.0787.39563.39563,0,0,0,.4793-.0045l.322-.1859V45.112Z" style="fill:#556f8c"/><path d="M64.3427,45.01022a1.238,1.238,0,0,1-.1783.5978,1.26334,1.26334,0,0,1-.4341.4552l-.3191.1842v-1.4021l.3191-.1842C64.0695,44.46522,64.3427,44.62092,64.3427,45.01022Z" style="fill:#10161a"/><path d="M64.0402,44.58142a.45939.45939,0,0,1,.1306.3546,1.2395,1.2395,0,0,1-.1782.5978,1.26275,1.26275,0,0,1-.4342.4552l-.1472.085v.1734l.3191-.1842a1.26334,1.26334,0,0,0,.4341-.4552,1.238,1.238,0,0,0,.1783-.5978C64.3427,44.75152,64.2207,44.59912,64.0402,44.58142Z" style="fill:#556f8c"/><polygon points="62.777 46.44 62.949 46.514 62.949 45.112 62.777 45.211 62.777 46.44" style="fill:#161c24"/><path d="M62.6273,47.11572l.322-.1859v1.4021l-.322.1859c-.3364.1942-.6095.0385-.6095-.3475a1.33921,1.33921,0,0,1,.6095-1.0546Z" style="fill:#10161a"/><path d="M62.7774,47.029v1.2287l-.322.1859a.51477.51477,0,0,1-.3074.0786.3956.3956,0,0,0,.4793-.0044l.322-.186v-1.402Z" style="fill:#556f8c"/><path d="M64.3427,46.828a1.2379,1.2379,0,0,1-.1783.5977,1.26173,1.26173,0,0,1-.4341.4552l-.3191.1843v-1.4021l.3191-.1843C64.0695,46.283,64.3427,46.43872,64.3427,46.828Z" style="fill:#10161a"/><path d="M64.0402,46.39912a.45948.45948,0,0,1,.1306.3547,1.23882,1.23882,0,0,1-.1782.5977,1.26115,1.26115,0,0,1-.4342.4552l-.1472.085v.1735l.3191-.1843a1.26222,1.26222,0,0,0,.4341-.4551,1.23857,1.23857,0,0,0,.1783-.5978C64.3427,46.56932,64.2207,46.41692,64.0402,46.39912Z" style="fill:#556f8c"/><polygon points="62.777 48.258 62.949 48.332 62.949 46.93 62.777 47.029 62.777 48.258" style="fill:#161c24"/><path d="M62.6273,48.93342l.322-.1859v1.4021l-.322.1859c-.3364.1942-.6095.0385-.6095-.3475a1.33962,1.33962,0,0,1,.6095-1.0546Z" style="fill:#10161a"/><path d="M62.7774,48.84672v1.2287l-.322.1859a.51565.51565,0,0,1-.3074.0787.39548.39548,0,0,0,.4793-.0045l.322-.1859v-1.4021Z" style="fill:#556f8c"/><path d="M64.3427,48.64582a1.2379,1.2379,0,0,1-.1783.5977,1.26254,1.26254,0,0,1-.4341.4552l-.3191.1842v-1.402l.3191-.1843C64.0695,48.10072,64.3427,48.25652,64.3427,48.64582Z" style="fill:#10161a"/><path d="M64.0402,48.21692a.45939.45939,0,0,1,.1306.3546,1.23887,1.23887,0,0,1-.1782.5978,1.26195,1.26195,0,0,1-.4342.4552l-.1472.085v.1734l.3191-.1842a1.26254,1.26254,0,0,0,.4341-.4552,1.238,1.238,0,0,0,.1783-.5978C64.3427,48.387,64.2207,48.23462,64.0402,48.21692Z" style="fill:#556f8c"/><polygon points="62.777 50.075 62.949 50.15 62.949 48.748 62.777 48.847 62.777 50.075" style="fill:#161c24"/><path d="M62.6273,50.75122l.322-.1859v1.4021l-.322.1859c-.3364.1942-.6095.0385-.6095-.3475a1.33962,1.33962,0,0,1,.6095-1.0546Z" style="fill:#10161a"/><path d="M62.7774,50.66452v1.2287l-.322.1859a.51565.51565,0,0,1-.3074.0787.39563.39563,0,0,0,.4793-.0045l.322-.1859v-1.4021Z" style="fill:#556f8c"/><path d="M64.3427,50.46352a1.238,1.238,0,0,1-.1783.5978,1.26334,1.26334,0,0,1-.4341.4552l-.3191.1842v-1.4021l.3191-.1842C64.0695,49.91852,64.3427,50.07422,64.3427,50.46352Z" style="fill:#10161a"/><path d="M64.0402,50.03472a.45939.45939,0,0,1,.1306.3546,1.2395,1.2395,0,0,1-.1782.5978,1.26275,1.26275,0,0,1-.4342.4552l-.1472.085v.1734l.3191-.1842a1.26334,1.26334,0,0,0,.4341-.4552,1.238,1.238,0,0,0,.1783-.5978C64.3427,50.20482,64.2207,50.05242,64.0402,50.03472Z" style="fill:#556f8c"/><polygon points="62.777 51.893 62.949 51.967 62.949 50.565 62.777 50.665 62.777 51.893" style="fill:#161c24"/><path d="M62.6273,52.569l.322-.1859v1.4021l-.322.1859c-.3364.1942-.6095.0385-.6095-.3475a1.33921,1.33921,0,0,1,.6095-1.0546Z" style="fill:#10161a"/><path d="M62.7774,52.48232V53.711l-.322.1859a.51477.51477,0,0,1-.3074.0786.3956.3956,0,0,0,.4793-.0044l.322-.186v-1.402Z" style="fill:#556f8c"/><path d="M64.3427,52.28132a1.24679,1.24679,0,0,1-.1783.5977,1.2708,1.2708,0,0,1-.4341.4552l-.3191.1843v-1.4021l.3191-.1843C64.0695,51.73632,64.3427,51.892,64.3427,52.28132Z" style="fill:#10161a"/><path d="M64.0402,51.85242a.45948.45948,0,0,1,.1306.3547,1.24773,1.24773,0,0,1-.1782.5977,1.271,1.271,0,0,1-.4342.4552l-.1472.085v.1735l.3191-.1843a1.27211,1.27211,0,0,0,.4341-.4551,1.24747,1.24747,0,0,0,.1783-.5978C64.3427,52.02262,64.2207,51.87022,64.0402,51.85242Z" style="fill:#556f8c"/><polygon points="62.777 53.711 62.949 53.785 62.949 52.383 62.777 52.482 62.777 53.711" style="fill:#161c24"/><path d="M69.156,37.75882l.322-.186v1.4021l-.322.1859c-.3364.1942-.6095.0385-.6095-.3475a1.33924,1.33924,0,0,1,.6095-1.0545Z" style="fill:#10161a"/><path d="M69.3061,37.67212v1.2286l-.322.1859a.51565.51565,0,0,1-.3074.0787.39548.39548,0,0,0,.4793-.0045l.322-.1859v-1.4021Z" style="fill:#556f8c"/><path d="M70.8714,37.47112a1.24679,1.24679,0,0,1-.1783.5977,1.27077,1.27077,0,0,1-.4341.4552l-.3191.1842v-1.402l.3191-.1843C70.5983,36.92612,70.8714,37.08182,70.8714,37.47112Z" style="fill:#10161a"/><path d="M70.5689,37.04222a.45951.45951,0,0,1,.1307.3547,1.24679,1.24679,0,0,1-.1783.5977,1.27161,1.27161,0,0,1-.4341.4552l-.1473.085v.1734l.3191-.1842a1.27161,1.27161,0,0,0,.4341-.4552,1.24679,1.24679,0,0,0,.1783-.5977C70.8714,37.21232,70.7494,37.06,70.5689,37.04222Z" style="fill:#556f8c"/><polygon points="69.306 38.901 69.478 38.975 69.478 37.573 69.306 37.672 69.306 38.901" style="fill:#161c24"/><path d="M69.156,39.57652l.322-.1859v1.4021l-.322.1859c-.3364.1942-.6095.0385-.6095-.3475a1.33962,1.33962,0,0,1,.6095-1.0546Z" style="fill:#10161a"/><path d="M69.3061,39.48982v1.2287l-.322.1859a.51565.51565,0,0,1-.3074.0787.39563.39563,0,0,0,.4793-.0045l.322-.1859v-1.4021Z" style="fill:#556f8c"/><path d="M70.8714,39.28882a1.238,1.238,0,0,1-.1783.5978,1.26251,1.26251,0,0,1-.4341.4552l-.3191.1842v-1.4021l.3191-.1842C70.5983,38.74382,70.8714,38.89952,70.8714,39.28882Z" style="fill:#10161a"/><path d="M70.5689,38.86a.45942.45942,0,0,1,.1307.3546,1.23826,1.23826,0,0,1-.1783.5978,1.26334,1.26334,0,0,1-.4341.4552l-.1473.085v.1734l.3191-.1842a1.26334,1.26334,0,0,0,.4341-.4552,1.238,1.238,0,0,0,.1783-.5978C70.8714,39.03012,70.7494,38.87772,70.5689,38.86Z" style="fill:#556f8c"/><polygon points="69.306 40.719 69.478 40.793 69.478 39.391 69.306 39.49 69.306 40.719" style="fill:#161c24"/><path d="M69.156,41.39432l.322-.1859v1.4021l-.322.1859c-.3364.1942-.6095.0385-.6095-.3475a1.33921,1.33921,0,0,1,.6095-1.0546Z" style="fill:#10161a"/><path d="M69.3061,41.30762v1.2287l-.322.1859a.51477.51477,0,0,1-.3074.0786.3956.3956,0,0,0,.4793-.0044l.322-.1859v-1.4021Z" style="fill:#556f8c"/><path d="M70.8714,41.10662a1.23857,1.23857,0,0,1-.1783.5978,1.26139,1.26139,0,0,1-.4341.4551l-.3191.1843v-1.4021l.3191-.1842C70.5983,40.56162,70.8714,40.71732,70.8714,41.10662Z" style="fill:#10161a"/><path d="M70.5689,40.67772a.45966.45966,0,0,1,.1307.3547,1.2379,1.2379,0,0,1-.1783.5977,1.26173,1.26173,0,0,1-.4341.4552l-.1473.085v.1735l.3191-.1843a1.26222,1.26222,0,0,0,.4341-.4551,1.23857,1.23857,0,0,0,.1783-.5978C70.8714,40.84792,70.7494,40.69552,70.5689,40.67772Z" style="fill:#556f8c"/><polygon points="69.306 42.536 69.478 42.611 69.478 41.208 69.306 41.308 69.306 42.536" style="fill:#161c24"/><path d="M69.156,43.21212l.322-.186v1.4021l-.322.1859c-.3364.1942-.6095.0385-.6095-.3475a1.33924,1.33924,0,0,1,.6095-1.0545Z" style="fill:#10161a"/><path d="M69.3061,43.12542V44.354l-.322.1859a.51565.51565,0,0,1-.3074.0787.39548.39548,0,0,0,.4793-.0045l.322-.1859v-1.4021Z" style="fill:#556f8c"/><path d="M70.8714,42.92442a1.2379,1.2379,0,0,1-.1783.5977,1.26171,1.26171,0,0,1-.4341.4552l-.3191.1842v-1.402l.3191-.1843C70.5983,42.37942,70.8714,42.53512,70.8714,42.92442Z" style="fill:#10161a"/><path d="M70.5689,42.49552a.45951.45951,0,0,1,.1307.3547,1.2379,1.2379,0,0,1-.1783.5977,1.26254,1.26254,0,0,1-.4341.4552l-.1473.085v.1734l.3191-.1842a1.26254,1.26254,0,0,0,.4341-.4552,1.2379,1.2379,0,0,0,.1783-.5977C70.8714,42.66562,70.7494,42.51332,70.5689,42.49552Z" style="fill:#556f8c"/><polygon points="69.306 44.354 69.478 44.428 69.478 43.026 69.306 43.125 69.306 44.354" style="fill:#161c24"/><path d="M69.156,45.02982l.322-.1859V46.246l-.322.1859c-.3364.1942-.6095.0385-.6095-.3475a1.33962,1.33962,0,0,1,.6095-1.0546Z" style="fill:#10161a"/><path d="M69.3061,44.94312v1.2287l-.322.1859a.51565.51565,0,0,1-.3074.0787.39563.39563,0,0,0,.4793-.0045l.322-.1859v-1.4021Z" style="fill:#556f8c"/><path d="M70.8714,44.74212a1.238,1.238,0,0,1-.1783.5978,1.26251,1.26251,0,0,1-.4341.4552l-.3191.1842v-1.4021l.3191-.1842C70.5983,44.19712,70.8714,44.35282,70.8714,44.74212Z" style="fill:#10161a"/><path d="M70.5689,44.31332a.45942.45942,0,0,1,.1307.3546,1.23826,1.23826,0,0,1-.1783.5978,1.26334,1.26334,0,0,1-.4341.4552l-.1473.085v.1734l.3191-.1842a1.26334,1.26334,0,0,0,.4341-.4552,1.238,1.238,0,0,0,.1783-.5978C70.8714,44.48342,70.7494,44.331,70.5689,44.31332Z" style="fill:#556f8c"/><polygon points="69.306 46.172 69.478 46.246 69.478 44.844 69.306 44.943 69.306 46.172" style="fill:#161c24"/><path d="M69.156,46.84762l.322-.1859v1.4021l-.322.1859c-.3364.1942-.6095.0385-.6095-.3475a1.33921,1.33921,0,0,1,.6095-1.0546Z" style="fill:#10161a"/><path d="M69.3061,46.76092v1.2287l-.322.1859a.51477.51477,0,0,1-.3074.0786.3956.3956,0,0,0,.4793-.0044l.322-.1859v-1.4021Z" style="fill:#556f8c"/><path d="M70.8714,46.55992a1.23857,1.23857,0,0,1-.1783.5978,1.26139,1.26139,0,0,1-.4341.4551l-.3191.1843V46.395l.3191-.1842C70.5983,46.01492,70.8714,46.17062,70.8714,46.55992Z" style="fill:#10161a"/><path d="M70.5689,46.131a.45966.45966,0,0,1,.1307.3547,1.2379,1.2379,0,0,1-.1783.5977,1.26173,1.26173,0,0,1-.4341.4552l-.1473.085v.1735l.3191-.1843a1.26222,1.26222,0,0,0,.4341-.4551,1.23857,1.23857,0,0,0,.1783-.5978C70.8714,46.30122,70.7494,46.14882,70.5689,46.131Z" style="fill:#556f8c"/><polygon points="69.306 47.99 69.478 48.064 69.478 46.662 69.306 46.761 69.306 47.99" style="fill:#161c24"/><path d="M69.156,48.66542l.322-.186v1.4021l-.322.1859c-.3364.1942-.6095.0385-.6095-.3475a1.33924,1.33924,0,0,1,.6095-1.0545Z" style="fill:#10161a"/><path d="M69.3061,48.57872v1.2286l-.322.1859a.51565.51565,0,0,1-.3074.0787.39548.39548,0,0,0,.4793-.0045l.322-.1859v-1.4021Z" style="fill:#556f8c"/><path d="M70.8714,48.37772a1.24679,1.24679,0,0,1-.1783.5977,1.27077,1.27077,0,0,1-.4341.4552l-.3191.1842v-1.402l.3191-.1843C70.5983,47.83272,70.8714,47.98842,70.8714,48.37772Z" style="fill:#10161a"/><path d="M70.5689,47.94882a.45951.45951,0,0,1,.1307.3547,1.24679,1.24679,0,0,1-.1783.5977,1.27161,1.27161,0,0,1-.4341.4552l-.1473.085v.1734l.3191-.1842a1.27161,1.27161,0,0,0,.4341-.4552,1.24679,1.24679,0,0,0,.1783-.5977C70.8714,48.11892,70.7494,47.96662,70.5689,47.94882Z" style="fill:#556f8c"/><polygon points="69.306 49.807 69.478 49.882 69.478 48.479 69.306 48.579 69.306 49.807" style="fill:#161c24"/><polygon points="3.208 46.896 2.684 47.152 2.684 37.626 3.208 37.934 3.208 46.896" style="fill:#202b33"/><polygon points="54.098 43.304 34.969 54.345 1 34.397 54.098 43.304" style="fill:#364759;mix-blend-mode:screen"/><polygon points="92.704 20.383 40.058 11.554 59.025 0.603 92.704 20.383" style="fill:#364759;mix-blend-mode:screen"/><polygon points="62.018 38.732 58.748 40.621 5.257 31.65 8.526 29.761 62.018 38.732" style="fill:#364759;mix-blend-mode:screen"/><polygon points="89.527 22.824 86.257 24.713 32.765 15.742 36.035 13.853 89.527 22.824" style="fill:#364759;mix-blend-mode:screen"/><polygon points="81.817 27.314 67.403 35.634 13.912 26.662 28.326 18.343 81.817 27.314" style="fill:#364759;mix-blend-mode:screen"/><path d="M41.5434,58.43062a4.18544,4.18544,0,0,0-1.393-1.2318l-2.2057-1.1609v1.0319l1.4317.8255a3.835,3.835,0,0,1,1.0319.9158,3.25632,3.25632,0,0,1,.7611,1.8832v5.7852a1.00415,1.00415,0,0,1-.3483.8384.85553.85553,0,0,1-.6449.1548,1.90887,1.90887,0,0,1-.7998-.2645l-1.4317-.8319v1.0319l.8513.4901.5804.3354a1.27947,1.27947,0,0,0,.129.0709,2.84392,2.84392,0,0,0,1.3028.3741c.0709,0,.1419-.0065.2064-.0129a1.41372,1.41372,0,0,0,.4515-.129l.1096-.0645a1.55247,1.55247,0,0,0,.632-1.393v-6.2237A4.0873,4.0873,0,0,0,41.5434,58.43062Z" style="fill:#334552"/><path d="M40.8469,67.32432l-.89,1.0384-.4515-.0581-1.8187-.2386-.6578-1.1544.9158-.5353,1.4317.8319a1.90887,1.90887,0,0,0,.7998.2645,1.14958,1.14958,0,0,0,.0709-.3483l.574.1935Z" style="fill:#42556c"/><path d="M42.2077,67.07932a1.55247,1.55247,0,0,1-.632,1.393l-.1096.0645-.7611.445-.0451.0258.1483-.3289.4837-1.0641Z" style="fill:#1a2229"/><path d="M41.5434,58.43062l-.9222.5224-.2129-.1419-3.3794-2.2379.9158-.5353,2.2057,1.1609A4.18544,4.18544,0,0,1,41.5434,58.43062Z" style="fill:#42556c"/><path d="M39.2281,57.73412l-1.2834-.6772-.9158-.4837v1.0254l1.4317.832a3.68118,3.68118,0,0,1,1.793,2.799v5.7851a.621.621,0,0,1-.0065.1097,1.14958,1.14958,0,0,1-.0709.3483c-.1871.5159-.7159.69-1.3802.4256a2.19857,2.19857,0,0,1-.3354-.1548l-1.4317-.8319V67.937l1.4317.832a2.161,2.161,0,0,0,2.1993.2386l.0451-.0258a1.11289,1.11289,0,0,0,.3096-.316,1.89392,1.89392,0,0,0,.2773-1.0512v-6.2237A3.82246,3.82246,0,0,0,39.2281,57.73412Z" style="fill:#161c24"/><path d="M98.6473,25.35772a4.187,4.187,0,0,0-1.3931-1.2318L95.0485,22.965v1.0319l1.4317.8255a3.84024,3.84024,0,0,1,1.032.9158,3.25643,3.25643,0,0,1,.761,1.8833v5.7851a1.00415,1.00415,0,0,1-.3483.8384.8553.8553,0,0,1-.6449.1548,1.90857,1.90857,0,0,1-.7998-.2644l-1.4317-.832v1.0319l.8513.4902.5804.3353a1.27947,1.27947,0,0,0,.129.0709,2.84392,2.84392,0,0,0,1.3028.3741c.071,0,.1419-.0064.2064-.0129a1.41372,1.41372,0,0,0,.4515-.129l.1096-.0645a1.55247,1.55247,0,0,0,.632-1.393v-6.2237A4.088,4.088,0,0,0,98.6473,25.35772Z" style="fill:#334552"/><path d="M97.9507,34.25152l-.89,1.0383-.4515-.0581-1.8187-.2386-.6578-1.1544.9158-.5353,1.4317.832a1.90857,1.90857,0,0,0,.7998.2644,1.14958,1.14958,0,0,0,.0709-.3483l.574.1935Z" style="fill:#42556c"/><path d="M99.3115,34.00642a1.55247,1.55247,0,0,1-.632,1.393l-.1096.0645-.7611.4451-.0451.0257.1483-.3289.4837-1.0641Z" style="fill:#1a2229"/><path d="M98.6473,25.35772l-.9223.5224-.2128-.1419-3.3795-2.2379.9158-.5353,2.2057,1.1609A4.187,4.187,0,0,1,98.6473,25.35772Z" style="fill:#42556c"/><path d="M96.3319,24.66122l-1.2834-.6772-.9158-.4837v1.0255l1.4317.8319a3.68135,3.68135,0,0,1,1.793,2.7991v5.7851a.62047.62047,0,0,1-.0065.1096,1.14958,1.14958,0,0,1-.0709.3483c-.1871.5159-.7159.6901-1.3802.4257a2.18991,2.18991,0,0,1-.3354-.1549l-1.4317-.8319v1.0255l1.4317.8319a2.16073,2.16073,0,0,0,2.1993.2386l.0451-.0257a1.11192,1.11192,0,0,0,.3096-.3161,1.89392,1.89392,0,0,0,.2773-1.0512V28.318A3.82229,3.82229,0,0,0,96.3319,24.66122Z" style="fill:#161c24"/><polygon points="46.314 51.213 46.314 54.874 42.798 56.906 42.798 53.244 46.314 51.213" style="fill:#10161a"/><polygon points="45.948 51.425 45.948 54.674 42.798 56.493 42.798 56.905 46.314 54.875 46.314 51.213 45.948 51.425" style="fill:#556f8c"/><polygon points="45.948 54.674 46.314 54.875 46.314 51.213 45.948 51.425 45.948 54.674" style="fill:#161c24"/><polygon points="46.314 54.014 42.798 56.04 42.798 55.685 45.948 53.876 46.314 54.014" style="fill:#556f8c"/><polygon points="46.314 54.014 46.314 54.194 42.798 56.22 42.798 56.04 46.314 54.014" style="fill:#202b33"/><polygon points="46.314 53.281 42.798 55.306 42.798 54.958 45.948 53.142 46.314 53.281" style="fill:#556f8c"/><polygon points="46.314 53.281 46.314 53.467 42.798 55.493 42.798 55.312 46.314 53.281" style="fill:#202b33"/><polygon points="46.314 52.553 42.798 54.579 42.798 54.23 45.948 52.415 46.314 52.553" style="fill:#556f8c"/><polygon points="46.314 52.553 46.314 52.733 42.798 54.759 42.798 54.579 46.314 52.553" style="fill:#202b33"/><polygon points="46.314 51.826 42.798 53.852 42.798 53.497 45.948 51.681 46.314 51.826" style="fill:#556f8c"/><polygon points="46.314 51.826 46.314 52.006 42.798 54.032 42.798 53.852 46.314 51.826" style="fill:#202b33"/><polygon points="46.314 55.441 46.314 59.103 42.798 61.135 42.798 57.473 46.314 55.441" style="fill:#10161a"/><polygon points="45.948 55.654 45.948 58.903 42.798 60.722 42.798 61.134 46.314 59.104 46.314 55.442 45.948 55.654" style="fill:#556f8c"/><polygon points="45.948 58.903 46.314 59.104 46.314 55.442 45.948 55.654 45.948 58.903" style="fill:#161c24"/><polygon points="46.314 58.243 42.798 60.269 42.798 59.914 45.948 58.105 46.314 58.243" style="fill:#556f8c"/><polygon points="46.314 58.243 46.314 58.423 42.798 60.449 42.798 60.269 46.314 58.243" style="fill:#202b33"/><polygon points="46.314 57.51 42.798 59.535 42.798 59.187 45.948 57.371 46.314 57.51" style="fill:#556f8c"/><polygon points="46.314 57.51 46.314 57.696 42.798 59.722 42.798 59.541 46.314 57.51" style="fill:#202b33"/><polygon points="46.314 56.782 42.798 58.808 42.798 58.459 45.948 56.644 46.314 56.782" style="fill:#556f8c"/><polygon points="46.314 56.782 46.314 56.962 42.798 58.988 42.798 58.808 46.314 56.782" style="fill:#202b33"/><polygon points="46.314 56.055 42.798 58.081 42.798 57.726 45.948 55.91 46.314 56.055" style="fill:#556f8c"/><polygon points="46.314 56.055 46.314 56.235 42.798 58.261 42.798 58.081 46.314 56.055" style="fill:#202b33"/><polygon points="46.314 59.631 46.314 63.292 42.798 65.324 42.798 61.663 46.314 59.631" style="fill:#10161a"/><polygon points="45.948 59.843 45.948 63.093 42.798 64.911 42.798 65.324 46.314 63.293 46.314 59.631 45.948 59.843" style="fill:#556f8c"/><polygon points="45.948 63.093 46.314 63.293 46.314 59.631 45.948 59.843 45.948 63.093" style="fill:#161c24"/><polygon points="46.314 62.432 42.798 64.458 42.798 64.103 45.948 62.294 46.314 62.432" style="fill:#556f8c"/><polygon points="46.314 62.432 46.314 62.612 42.798 64.638 42.798 64.458 46.314 62.432" style="fill:#202b33"/><polygon points="46.314 61.699 42.798 63.725 42.798 63.376 45.948 61.56 46.314 61.699" style="fill:#556f8c"/><polygon points="46.314 61.699 46.314 61.885 42.798 63.911 42.798 63.731 46.314 61.699" style="fill:#202b33"/><polygon points="46.314 60.971 42.798 62.997 42.798 62.648 45.948 60.833 46.314 60.971" style="fill:#556f8c"/><polygon points="46.314 60.971 46.314 61.152 42.798 63.178 42.798 62.997 46.314 60.971" style="fill:#202b33"/><polygon points="46.314 60.244 42.798 62.27 42.798 61.915 45.948 60.1 46.314 60.244" style="fill:#556f8c"/><polygon points="46.314 60.244 46.314 60.424 42.798 62.45 42.798 62.27 46.314 60.244" style="fill:#202b33"/><path d="M54.3358,48.11912v.216a.76187.76187,0,0,1-.3802.6593l-6.0922,3.5034a.37548.37548,0,0,1-.5635-.325v-.2159a.76163.76163,0,0,1,.3803-.6593l6.0921-3.5034A.37543.37543,0,0,1,54.3358,48.11912Z" style="fill:#10161a"/><path d="M53.8488,47.774a.36043.36043,0,0,1,.0739.2137v.2159a.76163.76163,0,0,1-.3803.6593l-6.0921,3.5034a.3431.3431,0,0,1-.0765.0202.371.371,0,0,0,.4896.1113l6.0922-3.5034a.76187.76187,0,0,0,.3802-.6593v-.216A.36734.36734,0,0,0,53.8488,47.774Z" style="fill:#556f8c"/><path d="M54.3358,50.05652v.2159a.76163.76163,0,0,1-.3802.6593l-6.0922,3.5035a.37548.37548,0,0,1-.5635-.325v-.2159a.76151.76151,0,0,1,.3803-.6593l6.0921-3.5035A.37548.37548,0,0,1,54.3358,50.05652Z" style="fill:#10161a"/><path d="M53.8488,49.71142a.36037.36037,0,0,1,.0739.2136v.216a.76175.76175,0,0,1-.3803.6593l-6.0921,3.5034a.33751.33751,0,0,1-.0765.0201.37085.37085,0,0,0,.4896.1113l6.0922-3.5034a.76163.76163,0,0,0,.3802-.6593v-.2159A.36734.36734,0,0,0,53.8488,49.71142Z" style="fill:#556f8c"/><path d="M54.3358,51.99392v.2159a.76175.76175,0,0,1-.3802.6593l-6.0922,3.5034a.37543.37543,0,0,1-.5635-.3249v-.216a.76175.76175,0,0,1,.3803-.6593l6.0921-3.5034A.37548.37548,0,0,1,54.3358,51.99392Z" style="fill:#10161a"/><path d="M53.8488,51.64872a.36067.36067,0,0,1,.0739.2137v.2159a.76151.76151,0,0,1-.3803.6593l-6.0921,3.5035a.34283.34283,0,0,1-.0765.0201.371.371,0,0,0,.4896.1113l6.0922-3.5034a.76187.76187,0,0,0,.3802-.6593v-.2159A.3674.3674,0,0,0,53.8488,51.64872Z" style="fill:#556f8c"/><path d="M54.3358,53.93132v.2159a.76187.76187,0,0,1-.3802.6593l-6.0922,3.5034a.37548.37548,0,0,1-.5635-.325V57.769a.76163.76163,0,0,1,.3803-.6593l6.0921-3.5034A.37544.37544,0,0,1,54.3358,53.93132Z" style="fill:#10161a"/><path d="M53.8488,53.58612a.36043.36043,0,0,1,.0739.2137v.2159a.76163.76163,0,0,1-.3803.6593l-6.0921,3.5034a.3431.3431,0,0,1-.0765.0202.371.371,0,0,0,.4896.1113l6.0922-3.5034a.76187.76187,0,0,0,.3802-.6593v-.2159A.36736.36736,0,0,0,53.8488,53.58612Z" style="fill:#556f8c"/><path d="M54.3358,55.86862v.2159a.76163.76163,0,0,1-.3802.6593l-6.0922,3.5035a.37548.37548,0,0,1-.5635-.325v-.2159a.76151.76151,0,0,1,.3803-.6593l6.0921-3.5035A.37548.37548,0,0,1,54.3358,55.86862Z" style="fill:#10161a"/><path d="M53.8488,55.52352a.36037.36037,0,0,1,.0739.2136v.216a.76175.76175,0,0,1-.3803.6593l-6.0921,3.5034a.3431.3431,0,0,1-.0765.0202.37083.37083,0,0,0,.4896.1112l6.0922-3.5034a.76163.76163,0,0,0,.3802-.6593v-.2159A.36734.36734,0,0,0,53.8488,55.52352Z" style="fill:#556f8c"/><path d="M54.3358,57.806v.2159a.76175.76175,0,0,1-.3802.6593l-6.0922,3.5034a.3754.3754,0,0,1-.5635-.3249v-.216a.76175.76175,0,0,1,.3803-.6593l6.0921-3.5034A.37548.37548,0,0,1,54.3358,57.806Z" style="fill:#10161a"/><path d="M53.8488,57.46092a.36013.36013,0,0,1,.0739.2136v.2159a.76151.76151,0,0,1-.3803.6593l-6.0921,3.5035a.34283.34283,0,0,1-.0765.0201.371.371,0,0,0,.4896.1113l6.0922-3.5034a.76163.76163,0,0,0,.3802-.6593V57.806A.3673.3673,0,0,0,53.8488,57.46092Z" style="fill:#556f8c"/><path d="M68.3336,39.68152v.2159a.76163.76163,0,0,1-.3802.6593l-2.6111,1.5098a.37548.37548,0,0,1-.5635-.325v-.2159a.76175.76175,0,0,1,.3802-.6593l2.6111-1.5098A.37548.37548,0,0,1,68.3336,39.68152Z" style="fill:#10161a"/><path d="M67.8467,39.33642a.361.361,0,0,1,.0738.2136v.2159a.76191.76191,0,0,1-.3802.6594L64.9291,41.935a.34168.34168,0,0,1-.0765.0202.37111.37111,0,0,0,.4897.1113l2.6111-1.5098a.76163.76163,0,0,0,.3802-.6593v-.2159A.36729.36729,0,0,0,67.8467,39.33642Z" style="fill:#556f8c"/><path d="M68.3336,41.61892v.2159a.76175.76175,0,0,1-.3802.6593l-2.6111,1.5098a.37548.37548,0,0,1-.5635-.325V43.463a.76163.76163,0,0,1,.3802-.6593l2.6111-1.5098A.37548.37548,0,0,1,68.3336,41.61892Z" style="fill:#10161a"/><path d="M67.8467,41.27372a.36126.36126,0,0,1,.0738.2137v.2159a.76163.76163,0,0,1-.3802.6593l-2.6112,1.5098a.34168.34168,0,0,1-.0765.0202.37111.37111,0,0,0,.4897.1113l2.6111-1.5098a.76187.76187,0,0,0,.3802-.6593v-.2159A.36735.36735,0,0,0,67.8467,41.27372Z" style="fill:#556f8c"/><path d="M68.3336,43.55622v.216a.76187.76187,0,0,1-.3802.6593l-2.6111,1.5097a.3754.3754,0,0,1-.5635-.3249v-.2159a.76163.76163,0,0,1,.3802-.6593l2.6111-1.5098A.37543.37543,0,0,1,68.3336,43.55622Z" style="fill:#10161a"/><path d="M67.8467,43.21112a.361.361,0,0,1,.0738.2137v.2159a.76175.76175,0,0,1-.3802.6593l-2.6112,1.5098a.33615.33615,0,0,1-.0765.0201.37111.37111,0,0,0,.4897.1113l2.6111-1.5097a.76187.76187,0,0,0,.3802-.6593v-.2159A.36731.36731,0,0,0,67.8467,43.21112Z" style="fill:#556f8c"/><path d="M68.3336,45.49362v.2159a.76163.76163,0,0,1-.3802.6593l-2.6111,1.5098a.37544.37544,0,0,1-.5635-.325v-.2159a.76187.76187,0,0,1,.3802-.6593l2.6111-1.5098A.37548.37548,0,0,1,68.3336,45.49362Z" style="fill:#10161a"/><path d="M67.8467,45.14852a.361.361,0,0,1,.0738.2136v.216a.76187.76187,0,0,1-.3802.6593l-2.6112,1.5098a.34686.34686,0,0,1-.0765.0201.37111.37111,0,0,0,.4897.1113l2.6111-1.5098a.76163.76163,0,0,0,.3802-.6593v-.2159A.36729.36729,0,0,0,67.8467,45.14852Z" style="fill:#556f8c"/><path d="M68.3336,47.431v.2159a.76175.76175,0,0,1-.3802.6593L65.3423,49.816a.37548.37548,0,0,1-.5635-.325v-.2159a.76175.76175,0,0,1,.3802-.6593l2.6111-1.5098A.37548.37548,0,0,1,68.3336,47.431Z" style="fill:#10161a"/><path d="M67.8467,47.08582a.36126.36126,0,0,1,.0738.2137v.2159a.76163.76163,0,0,1-.3802.6593l-2.6112,1.5098a.34168.34168,0,0,1-.0765.0202.37111.37111,0,0,0,.4897.1113l2.6111-1.5098a.76187.76187,0,0,0,.3802-.6593V47.431A.36735.36735,0,0,0,67.8467,47.08582Z" style="fill:#556f8c"/><path d="M68.3336,49.36842v.2159a.76187.76187,0,0,1-.3802.6593l-2.6111,1.5098a.37548.37548,0,0,1-.5635-.325v-.2159a.76163.76163,0,0,1,.3802-.6593l2.6111-1.5098A.37544.37544,0,0,1,68.3336,49.36842Z" style="fill:#10161a"/><path d="M67.8467,49.02322a.36126.36126,0,0,1,.0738.2137v.2159a.76175.76175,0,0,1-.3802.6593l-2.6112,1.5098a.33615.33615,0,0,1-.0765.0201.371.371,0,0,0,.4897.1113l2.6111-1.5097a.76187.76187,0,0,0,.3802-.6593v-.2159A.36731.36731,0,0,0,67.8467,49.02322Z" style="fill:#556f8c"/><polygon points="59.294 43.92 59.294 47.581 55.777 49.613 55.777 45.952 59.294 43.92" style="fill:url(#铃琨眄沭噤桢眚_82)"/><polygon points="58.514 44.37 58.514 47.202 55.777 48.784 55.777 49.613 59.294 47.581 59.294 43.92 58.514 44.37" style="fill:#1028ad"/><polygon points="59.294 47.581 58.514 47.202 55.777 48.784 55.777 49.613 59.294 47.581" style="fill:#3b50c9"/><polygon points="59.294 48.076 59.294 51.737 55.777 53.769 55.777 50.108 59.294 48.076" style="fill:url(#铃琨眄沭噤桢眚_82-2)"/><polygon points="58.514 48.526 58.514 51.358 55.777 52.94 55.777 53.769 59.294 51.737 59.294 48.076 58.514 48.526" style="fill:#1028ad"/><polygon points="59.294 51.737 58.514 51.358 55.777 52.94 55.777 53.769 59.294 51.737" style="fill:#3b50c9"/><polygon points="59.294 52.202 59.294 55.864 55.777 57.896 55.777 54.234 59.294 52.202" style="fill:url(#铃琨眄沭噤桢眚_82-3)"/><polygon points="58.514 52.653 58.514 55.485 55.777 57.066 55.777 57.895 59.294 55.864 59.294 52.202 58.514 52.653" style="fill:#1028ad"/><polygon points="59.294 55.864 58.514 55.485 55.777 57.066 55.777 57.895 59.294 55.864" style="fill:#3b50c9"/><polygon points="75.331 34.072 75.331 37.733 71.815 39.765 71.815 36.104 75.331 34.072" style="fill:#10161a"/><polygon points="74.965 34.284 74.965 37.534 71.815 39.353 71.815 39.765 75.331 37.735 75.331 34.072 74.965 34.284" style="fill:#556f8c"/><polygon points="74.965 37.534 75.331 37.735 75.331 34.072 74.965 34.284 74.965 37.534" style="fill:#161c24"/><polygon points="75.331 36.873 71.815 38.899 71.815 38.545 74.965 36.735 75.331 36.873" style="fill:#556f8c"/><polygon points="75.331 36.873 75.331 37.054 71.815 39.08 71.815 38.899 75.331 36.873" style="fill:#202b33"/><polygon points="75.331 36.14 71.815 38.166 71.815 37.817 74.965 36.002 75.331 36.14" style="fill:#556f8c"/><polygon points="75.331 36.14 75.331 36.326 71.815 38.352 71.815 38.172 75.331 36.14" style="fill:#202b33"/><polygon points="75.331 35.413 71.815 37.439 71.815 37.09 74.965 35.274 75.331 35.413" style="fill:#556f8c"/><polygon points="75.331 35.413 75.331 35.593 71.815 37.619 71.815 37.439 75.331 35.413" style="fill:#202b33"/><polygon points="75.331 34.685 71.815 36.711 71.815 36.356 74.965 34.541 75.331 34.685" style="fill:#556f8c"/><polygon points="75.331 34.685 75.331 34.866 71.815 36.891 71.815 36.711 75.331 34.685" style="fill:#202b33"/><polygon points="75.331 38.301 75.331 41.962 71.815 43.994 71.815 40.333 75.331 38.301" style="fill:#10161a"/><polygon points="74.965 38.513 74.965 41.763 71.815 43.582 71.815 43.994 75.331 41.964 75.331 38.301 74.965 38.513" style="fill:#556f8c"/><polygon points="74.965 41.763 75.331 41.964 75.331 38.301 74.965 38.513 74.965 41.763" style="fill:#161c24"/><polygon points="75.331 41.102 71.815 43.128 71.815 42.774 74.965 40.964 75.331 41.102" style="fill:#556f8c"/><polygon points="75.331 41.102 75.331 41.283 71.815 43.309 71.815 43.128 75.331 41.102" style="fill:#202b33"/><polygon points="75.331 40.369 71.815 42.395 71.815 42.046 74.965 40.231 75.331 40.369" style="fill:#556f8c"/><polygon points="75.331 40.369 75.331 40.555 71.815 42.581 71.815 42.401 75.331 40.369" style="fill:#202b33"/><polygon points="75.331 39.642 71.815 41.668 71.815 41.319 74.965 39.503 75.331 39.642" style="fill:#556f8c"/><polygon points="75.331 39.642 75.331 39.822 71.815 41.848 71.815 41.668 75.331 39.642" style="fill:#202b33"/><polygon points="75.331 38.914 71.815 40.94 71.815 40.585 74.965 38.77 75.331 38.914" style="fill:#556f8c"/><polygon points="75.331 38.914 75.331 39.095 71.815 41.12 71.815 40.94 75.331 38.914" style="fill:#202b33"/><polygon points="75.331 42.49 75.331 46.151 71.815 48.183 71.815 44.522 75.331 42.49" style="fill:#10161a"/><polygon points="74.965 42.702 74.965 45.952 71.815 47.771 71.815 48.183 75.331 46.153 75.331 42.491 74.965 42.702" style="fill:#556f8c"/><polygon points="74.965 45.952 75.331 46.153 75.331 42.491 74.965 42.702 74.965 45.952" style="fill:#161c24"/><polygon points="75.331 45.292 71.815 47.318 71.815 46.963 74.965 45.153 75.331 45.292" style="fill:#556f8c"/><polygon points="75.331 45.292 75.331 45.472 71.815 47.498 71.815 47.318 75.331 45.292" style="fill:#202b33"/><polygon points="75.331 44.558 71.815 46.584 71.815 46.235 74.965 44.42 75.331 44.558" style="fill:#556f8c"/><polygon points="75.331 44.558 75.331 44.745 71.815 46.77 71.815 46.59 75.331 44.558" style="fill:#202b33"/><polygon points="75.331 43.831 71.815 45.857 71.815 45.508 74.965 43.692 75.331 43.831" style="fill:#556f8c"/><polygon points="75.331 43.831 75.331 44.011 71.815 46.037 71.815 45.857 75.331 43.831" style="fill:#202b33"/><polygon points="75.331 43.103 71.815 45.129 71.815 44.775 74.965 42.959 75.331 43.103" style="fill:#556f8c"/><polygon points="75.331 43.103 75.331 43.284 71.815 45.31 71.815 45.129 75.331 43.103" style="fill:#202b33"/><path d="M83.3529,30.97862v.216a.76187.76187,0,0,1-.3802.6593l-6.0922,3.5034a.37548.37548,0,0,1-.5635-.325v-.2159a.76175.76175,0,0,1,.3802-.6593l6.0922-3.5034A.37543.37543,0,0,1,83.3529,30.97862Z" style="fill:#10161a"/><path d="M82.8659,30.63352a.36036.36036,0,0,1,.0738.2137v.2159a.76175.76175,0,0,1-.3802.6593l-6.0922,3.5034a.34168.34168,0,0,1-.0765.0202.37111.37111,0,0,0,.4897.1113l6.0922-3.5034a.76187.76187,0,0,0,.3802-.6593v-.216A.36734.36734,0,0,0,82.8659,30.63352Z" style="fill:#556f8c"/><path d="M83.3529,32.916v.2159a.76163.76163,0,0,1-.3802.6593l-6.0922,3.5035a.37548.37548,0,0,1-.5635-.325v-.2159a.76163.76163,0,0,1,.3802-.6593l6.0922-3.5035A.37548.37548,0,0,1,83.3529,32.916Z" style="fill:#10161a"/><path d="M82.8659,32.57092a.36029.36029,0,0,1,.0738.2136v.216a.76187.76187,0,0,1-.3802.6593l-6.0922,3.5034a.33615.33615,0,0,1-.0765.0201.371.371,0,0,0,.4897.1113l6.0922-3.5034a.76163.76163,0,0,0,.3802-.6593V32.916A.36734.36734,0,0,0,82.8659,32.57092Z" style="fill:#556f8c"/><path d="M83.3529,34.85342v.2159a.76175.76175,0,0,1-.3802.6593L76.8805,39.232a.37543.37543,0,0,1-.5635-.3249v-.216a.76187.76187,0,0,1,.3802-.6593l6.0922-3.5034A.37548.37548,0,0,1,83.3529,34.85342Z" style="fill:#10161a"/><path d="M82.8659,34.50822a.36059.36059,0,0,1,.0738.2137v.2159a.76163.76163,0,0,1-.3802.6593l-6.0922,3.5035a.34142.34142,0,0,1-.0765.0201.37111.37111,0,0,0,.4897.1113l6.0922-3.5034a.76187.76187,0,0,0,.3802-.6593v-.2159A.3674.3674,0,0,0,82.8659,34.50822Z" style="fill:#556f8c"/><path d="M83.3529,36.79072v.216a.76187.76187,0,0,1-.3802.6593l-6.0922,3.5034a.37548.37548,0,0,1-.5635-.325v-.2159a.76175.76175,0,0,1,.3802-.6593l6.0922-3.5034A.37543.37543,0,0,1,83.3529,36.79072Z" style="fill:#10161a"/><path d="M82.8659,36.44562a.36036.36036,0,0,1,.0738.2137v.2159a.76175.76175,0,0,1-.3802.6593l-6.0922,3.5034a.34168.34168,0,0,1-.0765.0202.37111.37111,0,0,0,.4897.1113l6.0922-3.5034a.76187.76187,0,0,0,.3802-.6593v-.2159A.36736.36736,0,0,0,82.8659,36.44562Z" style="fill:#556f8c"/><path d="M83.3529,38.72812v.2159a.76163.76163,0,0,1-.3802.6593l-6.0922,3.5035a.37548.37548,0,0,1-.5635-.325v-.2159a.76163.76163,0,0,1,.3802-.6593l6.0922-3.5035A.37548.37548,0,0,1,83.3529,38.72812Z" style="fill:#10161a"/><path d="M82.8659,38.383a.36029.36029,0,0,1,.0738.2136v.216a.76187.76187,0,0,1-.3802.6593l-6.0922,3.5034a.34168.34168,0,0,1-.0765.0202.371.371,0,0,0,.4897.1112l6.0922-3.5034a.76163.76163,0,0,0,.3802-.6593v-.2159A.36734.36734,0,0,0,82.8659,38.383Z" style="fill:#556f8c"/><path d="M83.3529,40.66552v.2159a.76175.76175,0,0,1-.3802.6593l-6.0922,3.5034a.37543.37543,0,0,1-.5635-.3249v-.216a.76187.76187,0,0,1,.3802-.6593l6.0922-3.5034A.37548.37548,0,0,1,83.3529,40.66552Z" style="fill:#10161a"/><path d="M82.8659,40.32032a.36059.36059,0,0,1,.0738.2137v.2159a.76163.76163,0,0,1-.3802.6593l-6.0922,3.5035a.34142.34142,0,0,1-.0765.0201.37111.37111,0,0,0,.4897.1113l6.0922-3.5034a.76163.76163,0,0,0,.3802-.6593v-.2159A.3674.3674,0,0,0,82.8659,40.32032Z" style="fill:#556f8c"/><polygon points="88.311 26.78 88.311 30.441 84.794 32.473 84.794 28.812 88.311 26.78" style="fill:url(#铃琨眄沭噤桢眚_82-4)"/><polygon points="87.532 27.23 87.532 30.062 84.794 31.644 84.794 32.473 88.311 30.441 88.311 26.78 87.532 27.23" style="fill:#1028ad"/><polygon points="88.311 30.441 87.532 30.062 84.794 31.644 84.794 32.473 88.311 30.441" style="fill:#3b50c9"/><polygon points="88.311 30.935 88.311 34.597 84.794 36.629 84.794 32.967 88.311 30.935" style="fill:url(#铃琨眄沭噤桢眚_82-5)"/><polygon points="87.532 31.386 87.532 34.218 84.794 35.799 84.794 36.629 88.311 34.597 88.311 30.935 87.532 31.386" style="fill:#1028ad"/><polygon points="88.311 34.597 87.532 34.218 84.794 35.799 84.794 36.629 88.311 34.597" style="fill:#3b50c9"/><polygon points="88.311 35.062 88.311 38.723 84.794 40.755 84.794 37.094 88.311 35.062" style="fill:url(#铃琨眄沭噤桢眚_82-6)"/><polygon points="87.532 35.512 87.532 38.344 84.794 39.926 84.794 40.755 88.311 38.723 88.311 35.062 87.532 35.512" style="fill:#1028ad"/><polygon points="88.311 38.723 87.532 38.344 84.794 39.926 84.794 40.755 88.311 38.723" style="fill:#3b50c9"/><path d="M89.4383,28.50312a1.2783,1.2783,0,0,0,.9078-.7333c.3319-.5765.3088-1.1252.0802-1.257a.27767.27767,0,0,0-.1401-.0344,1.27859,1.27859,0,0,0-.9073.7333c-.3319.5765-.3088,1.1251-.0802,1.257A.274.274,0,0,0,89.4383,28.50312Z" style="fill:url(#铃琨眄沭噤桢眚_114)"/><path d="M89.4383,33.12062a1.2783,1.2783,0,0,0,.9078-.7333c.3319-.5765.3088-1.1252.0802-1.257a.27767.27767,0,0,0-.1401-.0344,1.27859,1.27859,0,0,0-.9073.7333c-.3319.5765-.3088,1.1252-.0802,1.257A.274.274,0,0,0,89.4383,33.12062Z" style="fill:url(#铃琨眄沭噤桢眚_114-2)"/><path d="M89.4383,37.73812a1.2783,1.2783,0,0,0,.9078-.7333c.3319-.5765.3088-1.1252.0802-1.257a.27767.27767,0,0,0-.1401-.0344,1.27859,1.27859,0,0,0-.9073.7333c-.3319.5765-.3088,1.1252-.0802,1.257A.274.274,0,0,0,89.4383,37.73812Z" style="fill:url(#铃琨眄沭噤桢眚_114-3)"/><path d="M60.1877,46.10752a1.2783,1.2783,0,0,0,.9078-.7333c.3319-.5765.3088-1.1251.0802-1.2569a.2767.2767,0,0,0-.1401-.0345,1.27859,1.27859,0,0,0-.9073.7333c-.3319.5766-.3088,1.1252-.0802,1.257A.273.273,0,0,0,60.1877,46.10752Z" style="fill:url(#铃琨眄沭噤桢眚_114-4)"/><path d="M60.1877,50.20792a1.2783,1.2783,0,0,0,.9078-.7333c.3319-.5766.3088-1.1252.0802-1.257a.27665.27665,0,0,0-.1401-.0344,1.27839,1.27839,0,0,0-.9073.7332c-.3319.5766-.3088,1.1252-.0802,1.257A.273.273,0,0,0,60.1877,50.20792Z" style="fill:url(#铃琨眄沭噤桢眚_114-5)"/><path d="M60.1877,54.62682a1.2783,1.2783,0,0,0,.9078-.7333c.3319-.5766.3088-1.1252.0802-1.257a.2767.2767,0,0,0-.1401-.0345,1.27859,1.27859,0,0,0-.9073.7333c-.3319.5766-.3088,1.1252-.0802,1.257A.273.273,0,0,0,60.1877,54.62682Z" style="fill:url(#铃琨眄沭噤桢眚_114-6)"/></g></g></svg>